<?xml version="1.0" encoding="utf-8"?>
<!-- Generator: Adobe Illustrator 23.0.5, SVG Export Plug-In . SVG Version: 6.00 Build 0)  -->
<svg version="1.1" id="Слой_1" xmlns="http://www.w3.org/2000/svg" xmlns:xlink="http://www.w3.org/1999/xlink" x="0px" y="0px"
	 viewBox="0 0 32 30" style="enable-background:new 0 0 32 30;" xml:space="preserve">
<style type="text/css">
	.st0{opacity:0.01;stroke:#000000;stroke-miterlimit:10;}
	.st1{fill:none;stroke:#776855;stroke-miterlimit:10;}
	.st2{fill:#B7576B;stroke:#000000;stroke-miterlimit:10;}
	.st3{fill:#35312B;stroke:#000000;stroke-miterlimit:10;}
	.st4{fill:#4D5A96;stroke:#000000;stroke-miterlimit:10;}
	.st5{fill:#DAB786;stroke:#000000;stroke-miterlimit:10;}
	.st6{fill:#706E6B;stroke:#000000;stroke-width:0.5;stroke-miterlimit:10;}
	.st7{fill:none;stroke:#000000;stroke-width:0.5;stroke-miterlimit:10;}
</style>
<rect x="0.5" y="0.5" class="st0" width="31" height="29"/>
<line class="st1" x1="15.87" y1="20.26" x2="14.8" y2="19.61"/>
<g>
	
		<rect x="12.83" y="18.9" transform="matrix(-0.8568 -0.5156 0.5156 -0.8568 15.5175 49.1116)" class="st2" width="3.5" height="7"/>
	<rect x="10.04" y="25.13" transform="matrix(-0.8568 -0.5156 0.5156 -0.8568 8.8896 54.7245)" class="st3" width="4" height="2"/>
</g>
<g>
	
		<rect x="15.99" y="18.54" transform="matrix(-0.8488 0.5288 -0.5288 -0.8488 44.4526 31.3568)" class="st2" width="3.5" height="7"/>
	<rect x="17.91" y="24.99" transform="matrix(-0.8488 0.5288 -0.5288 -0.8488 50.549 37.5163)" class="st3" width="4" height="2"/>
</g>
<g>
	<polygon class="st4" points="14.26,10 14.26,10.73 13.55,10.73 13.55,15.73 14.26,15.73 14.26,19 17.76,19 17.76,10 	"/>
	
		<rect x="15.79" y="10.51" transform="matrix(-1 -4.469548e-11 4.469548e-11 -1 35.0767 28.0154)" class="st4" width="3.5" height="7"/>
	<circle class="st5" cx="17.54" cy="17.74" r="1.75"/>
	<g>
		<path class="st6" d="M17.11,2.3h-2.36c-1.41,0-2.56,1.15-2.56,2.56v2.16c0,1.41,1.15,2.56,2.56,2.56h2.36
			c1.41,0,2.56-1.15,2.56-2.56V4.86C19.68,3.45,18.53,2.3,17.11,2.3z"/>
		
			<rect x="15.63" y="2.37" transform="matrix(0.8044 0.5941 -0.5941 0.8044 5.4263 -10.1462)" class="st6" width="4.97" height="1.59"/>
	</g>
</g>
<g>
	<line class="st7" x1="12.34" y1="5.19" x2="13.75" y2="5.19"/>
	<line class="st7" x1="12.34" y1="6.94" x2="13.75" y2="6.94"/>
</g>
</svg>
