<?xml version="1.0" encoding="utf-8"?>
<!-- Generator: Adobe Illustrator 23.0.5, SVG Export Plug-In . SVG Version: 6.00 Build 0)  -->
<svg version="1.1" id="Слой_1" xmlns="http://www.w3.org/2000/svg" xmlns:xlink="http://www.w3.org/1999/xlink" x="0px" y="0px"
	 viewBox="0 0 120 120" style="enable-background:new 0 0 120 120;" xml:space="preserve">
<style type="text/css">
	.st0{opacity:0.01;fill:#E9A854;}
	.st1{fill:#D65988;stroke:#000000;stroke-miterlimit:10;}
	.st2{fill:#D24A43;stroke:#000000;stroke-miterlimit:10;}
	.st3{fill:none;stroke:#000000;stroke-miterlimit:10;}
	.st4{fill:#D4DE4E;stroke:#000000;stroke-miterlimit:10;}
	.st5{fill:#D65988;}
	.st6{fill:#FFF343;stroke:#000000;stroke-miterlimit:10;}
	.st7{fill:#979695;stroke:#000000;stroke-miterlimit:10;}
	.st8{fill:#595651;stroke:#000000;stroke-miterlimit:10;}
	.st9{font-family:'XEtreme';}
	.st10{font-size:2.5778px;}
	.st11{fill:#595651;stroke:#000000;stroke-width:0.25;stroke-miterlimit:10;}
	.st12{stroke:#000000;stroke-width:0.25;stroke-miterlimit:10;}
	.st13{fill:#FFFFFF;stroke:#D24A43;stroke-width:0.75;stroke-miterlimit:10;}
	.st14{opacity:0.5;fill:#E9A854;}
</style>
<rect y="0" class="st0" width="120" height="120"/>
<rect x="79.05" y="23.08" transform="matrix(0.8431 0.5378 -0.5378 0.8431 28.4509 -39.5486)" class="st1" width="5.9" height="11.81"/>
<rect x="58.21" y="23.08" class="st1" width="11.81" height="11.81"/>
<rect x="40.11" y="22.42" transform="matrix(0.866 -0.5 0.5 0.866 -8.3905 25.3273)" class="st1" width="5.9" height="11.81"/>
<polyline class="st2" points="40.54,72.25 32.89,60.38 44.5,43.63 41.73,62.89 48.59,83.6 82.23,83.86 88.03,61.7 81.57,44.02 
	93.84,61.44 91.6,70.54 87.7,77.66 94.76,82.41 97.14,79.51 93.97,75.42 99.25,74.1 103.07,77.46 106.5,75.02 102.94,69.48 
	106.77,54.97 84.8,29.77 47.01,28.98 29.33,34.39 13.23,67.24 31.83,78.45 "/>
<line class="st3" x1="57.87" y1="115.39" x2="34.21" y2="115.13"/>
<polyline class="st4" points="82.23,83.86 96.61,115.26 76.56,116.32 65.47,95.87 57.87,115.39 34.21,115.13 48.59,83.6 "/>
<line class="st3" x1="76.56" y1="116.32" x2="96.61" y2="115.26"/>
<ellipse class="st2" cx="64.11" cy="16.12" rx="10.95" ry="9.7"/>
<ellipse class="st4" cx="38.31" cy="19.85" rx="10.95" ry="7.39"/>
<ellipse class="st4" cx="85.62" cy="18.54" rx="6.65" ry="8.69"/>
<rect x="50.07" y="41.6" transform="matrix(0.9857 -0.1685 0.1685 0.9857 -7.0971 10.2327)" class="st5" width="13.35" height="10.67"/>
<rect x="65.56" y="41.6" transform="matrix(0.9944 0.1052 -0.1052 0.9944 5.3396 -7.3405)" class="st5" width="13.35" height="10.67"/>
<rect x="54.03" y="55.74" class="st5" width="19.35" height="12.83"/>
<rect x="85.12" y="45.96" transform="matrix(0.6143 0.7891 -0.7891 0.6143 74.8624 -56.2998)" class="st5" width="19.8" height="4.93"/>
<rect x="16.26" y="47.97" transform="matrix(-0.4265 0.9045 -0.9045 -0.4265 82.9373 48.2812)" class="st5" width="19.8" height="4.93"/>
<ellipse class="st6" cx="70.01" cy="17.05" rx="1.63" ry="2.55"/>
<rect x="59.07" y="21.79" transform="matrix(0.9987 -0.0513 0.0513 0.9987 -1.0686 3.3501)" class="st6" width="11.23" height="1.38"/>
<polygon class="st6" points="65.06,14.75 59.59,11.81 69.5,11.38 "/>
<rect x="32.05" y="21.87" transform="matrix(0.9986 -0.0526 0.0526 0.9986 -1.1583 2.108)" class="st6" width="14.9" height="2.42"/>
<rect x="82.95" y="21.53" transform="matrix(0.9986 -0.0526 0.0526 0.9986 -1.0771 4.5215)" class="st6" width="4.95" height="2.42"/>
<rect x="31.17" y="16.26" class="st2" width="5.8" height="3.33"/>
<rect x="39.63" y="16" class="st2" width="5.8" height="4.6"/>
<rect x="80.78" y="14.75" class="st2" width="5.8" height="4.6"/>
<rect x="89.38" y="16.26" class="st2" width="1.89" height="3.56"/>
<path class="st6" d="M60.96,15.08V14.5h-4.22v4.04h0.38c0.49,0.77,1.41,1.3,2.47,1.3c1.57,0,2.85-1.14,2.85-2.55
	C62.44,16.34,61.84,15.51,60.96,15.08z"/>
<g>
	<path class="st7" d="M40.35,82.84h-6.77c-1.81,0-3.28-1.47-3.28-3.28v-8.75c0-1.81,1.47-3.28,3.28-3.28h6.77
		c1.81,0,3.28,1.47,3.28,3.28v8.75C43.63,81.38,42.16,82.84,40.35,82.84z"/>
	<path class="st7" d="M52,82.84H39.45c-1.81,0-3.28-1.47-3.28-3.28v-8.75c0-1.81,1.47-3.28,3.28-3.28H52c1.81,0,3.28,1.47,3.28,3.28
		v8.75C55.28,81.38,53.81,82.84,52,82.84z"/>
	<path class="st8" d="M52,82.84h-1.89c-1.81,0-3.28-1.47-3.28-3.28v-8.75c0-1.81,1.47-3.28,3.28-3.28H52c1.81,0,3.28,1.47,3.28,3.28
		v8.75C55.28,81.38,53.81,82.84,52,82.84z"/>
	<text transform="matrix(-0.0214 -0.9998 0.9998 -0.0214 42.5361 81.4487)"><tspan x="0" y="0" class="st9 st10">XM-214</tspan><tspan x="0" y="3.09" class="st9 st10">-A</tspan></text>
	<g>
		<path class="st3" d="M95.57,67.22h-1.89c-1.81,0-3.28,1.47-3.28,3.28v8.75c0,1.81,1.47,3.28,3.28,3.28h1.89
			c1.81,0,3.28-1.47,3.28-3.28v-8.75C98.84,68.68,97.37,67.22,95.57,67.22z"/>
		<g>
			<path class="st11" d="M109.7,75.54H53.58c-0.53,0-0.97,0.43-0.97,0.97v0.56c0,0.53,0.43,0.97,0.97,0.97h56.12
				c0.53,0,0.97-0.43,0.97-0.97V76.5C110.67,75.97,110.23,75.54,109.7,75.54z"/>
			<path class="st12" d="M109.7,75.54h-0.56c-0.53,0-0.97,0.43-0.97,0.97v0.56c0,0.53,0.43,0.97,0.97,0.97h0.56
				c0.53,0,0.97-0.43,0.97-0.97V76.5C110.67,75.97,110.23,75.54,109.7,75.54z"/>
		</g>
		<g>
			<g>
				<path class="st11" d="M106.48,78.03H50.36c-0.53,0-0.97,0.43-0.97,0.97v0.56c0,0.53,0.43,0.97,0.97,0.97h56.12
					c0.53,0,0.97-0.43,0.97-0.97V79C107.44,78.47,107.01,78.03,106.48,78.03z"/>
			</g>
			<path class="st12" d="M106.48,78.03h-0.56c-0.53,0-0.97,0.43-0.97,0.97v0.56c0,0.53,0.43,0.97,0.97,0.97h0.56
				c0.53,0,0.97-0.43,0.97-0.97V79C107.44,78.47,107.01,78.03,106.48,78.03z"/>
		</g>
		<g>
			<path class="st11" d="M109.32,71.12H53.2c-0.53,0-0.97,0.43-0.97,0.97v0.56c0,0.53,0.43,0.97,0.97,0.97h56.12
				c0.53,0,0.97-0.43,0.97-0.97v-0.56C110.29,71.56,109.86,71.12,109.32,71.12z"/>
			<path class="st12" d="M109.32,71.12h-0.56c-0.53,0-0.97,0.43-0.97,0.97v0.56c0,0.53,0.43,0.97,0.97,0.97h0.56
				c0.53,0,0.97-0.43,0.97-0.97v-0.56C110.29,71.56,109.86,71.12,109.32,71.12z"/>
		</g>
		<g>
			<path class="st11" d="M106.09,68.99H49.97c-0.53,0-0.97,0.43-0.97,0.97v0.56c0,0.53,0.43,0.97,0.97,0.97h56.12
				c0.53,0,0.97-0.43,0.97-0.97v-0.56C107.06,69.43,106.62,68.99,106.09,68.99z"/>
			<path class="st12" d="M106.09,68.99h-0.56c-0.53,0-0.97,0.43-0.97,0.97v0.56c0,0.53,0.43,0.97,0.97,0.97h0.56
				c0.53,0,0.97-0.43,0.97-0.97v-0.56C107.06,69.43,106.62,68.99,106.09,68.99z"/>
		</g>
		<g>
			<path class="st11" d="M105.23,73.62H49.11c-0.53,0-0.97,0.43-0.97,0.97v0.56c0,0.53,0.43,0.97,0.97,0.97h56.12
				c0.53,0,0.97-0.43,0.97-0.97v-0.56C106.2,74.05,105.76,73.62,105.23,73.62z"/>
			<path class="st12" d="M105.23,73.62h-0.56c-0.53,0-0.97,0.43-0.97,0.97v0.56c0,0.53,0.43,0.97,0.97,0.97h0.56
				c0.53,0,0.97-0.43,0.97-0.97v-0.56C106.2,74.05,105.76,73.62,105.23,73.62z"/>
		</g>
		<path class="st3" d="M92.22,67.22h-1.89c-1.81,0-3.28,1.47-3.28,3.28v8.75c0,1.81,1.47,3.28,3.28,3.28h1.89
			c1.81,0,3.28-1.47,3.28-3.28v-8.75C95.49,68.68,94.02,67.22,92.22,67.22z"/>
		<polygon class="st13" points="110.26,70.88 108.99,71.44 107.82,70.7 107.95,72.08 106.89,72.97 108.25,73.27 108.77,74.56 
			109.47,73.36 110.85,73.26 109.93,72.23 		"/>
		<polygon class="st13" points="107.59,77.76 106.32,78.31 105.14,77.58 105.28,78.96 104.22,79.85 105.57,80.15 106.09,81.43 
			106.79,80.24 108.17,80.14 107.26,79.1 		"/>
		<polygon class="st13" points="110.65,75.38 109.38,75.94 108.21,75.2 108.34,76.58 107.28,77.47 108.63,77.77 109.15,79.06 
			109.86,77.86 111.24,77.76 110.32,76.73 		"/>
		<polygon class="st13" points="106.34,73.32 105.07,73.87 103.89,73.14 104.03,74.52 102.97,75.41 104.32,75.71 104.84,76.99 
			105.54,75.8 106.93,75.7 106.01,74.66 		"/>
		<polygon class="st13" points="107.07,68.7 105.8,69.25 104.62,68.52 104.76,69.9 103.7,70.79 105.05,71.09 105.57,72.37 
			106.27,71.18 107.66,71.08 106.74,70.04 		"/>
	</g>
</g>
<path class="st14" d="M55.99,30.56c22.66,8.03,37.91,18.75,47.26,26.62c13.32,11.19,13.69,15.84,13.46,18.3
	c-0.85,9.3-15.15,19.38-34.73,15.99c-14.8-0.19-29.6-0.38-44.4-0.57C43.72,70.78,49.86,50.67,55.99,30.56z"/>
</svg>
