<?xml version="1.0" encoding="utf-8"?>
<!-- Generator: Adobe Illustrator 23.0.5, SVG Export Plug-In . SVG Version: 6.00 Build 0)  -->
<svg version="1.1" id="Слой_1" xmlns="http://www.w3.org/2000/svg" xmlns:xlink="http://www.w3.org/1999/xlink" x="0px" y="0px"
	 viewBox="0 0 120 120" style="enable-background:new 0 0 120 120;" xml:space="preserve">
<style type="text/css">
	.st0{opacity:0.01;}
	.st1{fill:#D65988;stroke:#000000;stroke-miterlimit:10;}
	.st2{fill:#D24A43;stroke:#000000;stroke-miterlimit:10;}
	.st3{fill:none;stroke:#000000;stroke-miterlimit:10;}
	.st4{fill:#D4DE4E;stroke:#000000;stroke-miterlimit:10;}
	.st5{fill:#D65988;}
	.st6{fill:#979695;stroke:#000000;stroke-miterlimit:10;}
	.st7{fill:#595651;stroke:#000000;stroke-miterlimit:10;}
	.st8{fill:#595651;stroke:#000000;stroke-width:0.25;stroke-miterlimit:10;}
	.st9{stroke:#000000;stroke-width:0.25;stroke-miterlimit:10;}
	.st10{font-family:'XEtreme';}
	.st11{font-size:2.5778px;}
	.st12{fill:#FFF343;stroke:#000000;stroke-miterlimit:10;}
</style>
<rect y="0" class="st0" width="120" height="120"/>
<rect x="79.05" y="23.08" transform="matrix(0.8431 0.5378 -0.5378 0.8431 28.4509 -39.5486)" class="st1" width="5.9" height="11.81"/>
<rect x="58.21" y="23.08" class="st1" width="11.81" height="11.81"/>
<rect x="40.11" y="22.42" transform="matrix(0.866 -0.5 0.5 0.866 -8.3905 25.3273)" class="st1" width="5.9" height="11.81"/>
<polyline class="st2" points="40.54,72.25 32.89,60.38 44.5,43.63 41.73,62.89 48.59,83.6 82.23,83.86 88.03,61.7 81.57,44.02 
	93.84,61.44 91.6,70.54 87.7,77.66 94.76,82.41 97.14,79.51 93.97,75.42 99.25,74.1 103.07,77.46 106.5,75.02 102.94,69.48 
	106.77,54.97 84.8,29.77 47.01,28.98 29.33,34.39 13.23,67.24 31.83,78.45 "/>
<line class="st3" x1="57.87" y1="115.39" x2="34.21" y2="115.13"/>
<polyline class="st4" points="82.23,83.86 96.61,115.26 76.56,116.32 65.47,95.87 57.87,115.39 34.21,115.13 48.59,83.6 "/>
<line class="st3" x1="76.56" y1="116.32" x2="96.61" y2="115.26"/>
<ellipse class="st2" cx="64.11" cy="16.12" rx="10.95" ry="9.7"/>
<ellipse class="st4" cx="38.31" cy="19.85" rx="10.95" ry="7.39"/>
<ellipse class="st4" cx="85.62" cy="18.54" rx="6.65" ry="8.69"/>
<rect x="50.07" y="41.6" transform="matrix(0.9857 -0.1685 0.1685 0.9857 -7.0971 10.2327)" class="st5" width="13.35" height="10.67"/>
<rect x="65.56" y="41.6" transform="matrix(0.9944 0.1052 -0.1052 0.9944 5.3396 -7.3405)" class="st5" width="13.35" height="10.67"/>
<rect x="54.03" y="55.74" class="st5" width="19.35" height="12.83"/>
<rect x="85.12" y="45.96" transform="matrix(0.6143 0.7891 -0.7891 0.6143 74.8624 -56.2998)" class="st5" width="19.8" height="4.93"/>
<rect x="16.26" y="47.97" transform="matrix(-0.4265 0.9045 -0.9045 -0.4265 82.9373 48.2812)" class="st5" width="19.8" height="4.93"/>
<g>
	<path class="st3" d="M95.57,82.52h-1.89c-1.81,0-3.28-1.47-3.28-3.28v-8.75c0-1.81,1.47-3.28,3.28-3.28h1.89
		c1.81,0,3.28,1.47,3.28,3.28v8.75C98.84,81.05,97.37,82.52,95.57,82.52z"/>
	<path class="st6" d="M40.35,82.84h-6.77c-1.81,0-3.28-1.47-3.28-3.28v-8.75c0-1.81,1.47-3.28,3.28-3.28h6.77
		c1.81,0,3.28,1.47,3.28,3.28v8.75C43.63,81.38,42.16,82.84,40.35,82.84z"/>
	<path class="st6" d="M52,82.84H39.45c-1.81,0-3.28-1.47-3.28-3.28v-8.75c0-1.81,1.47-3.28,3.28-3.28H52c1.81,0,3.28,1.47,3.28,3.28
		v8.75C55.28,81.38,53.81,82.84,52,82.84z"/>
	<path class="st7" d="M52,82.84h-1.89c-1.81,0-3.28-1.47-3.28-3.28v-8.75c0-1.81,1.47-3.28,3.28-3.28H52c1.81,0,3.28,1.47,3.28,3.28
		v8.75C55.28,81.38,53.81,82.84,52,82.84z"/>
	<g>
		<path class="st8" d="M109.7,74.2H53.58c-0.53,0-0.97-0.43-0.97-0.97v-0.56c0-0.53,0.43-0.97,0.97-0.97h56.12
			c0.53,0,0.97,0.43,0.97,0.97v0.56C110.67,73.77,110.23,74.2,109.7,74.2z"/>
		<path class="st9" d="M109.7,74.2h-0.56c-0.53,0-0.97-0.43-0.97-0.97v-0.56c0-0.53,0.43-0.97,0.97-0.97h0.56
			c0.53,0,0.97,0.43,0.97,0.97v0.56C110.67,73.77,110.23,74.2,109.7,74.2z"/>
	</g>
	<g>
		<g>
			<path class="st8" d="M106.48,71.7H50.36c-0.53,0-0.97-0.43-0.97-0.97v-0.56c0-0.53,0.43-0.97,0.97-0.97h56.12
				c0.53,0,0.97,0.43,0.97,0.97v0.56C107.44,71.27,107.01,71.7,106.48,71.7z"/>
		</g>
		<path class="st9" d="M106.48,71.7h-0.56c-0.53,0-0.97-0.43-0.97-0.97v-0.56c0-0.53,0.43-0.97,0.97-0.97h0.56
			c0.53,0,0.97,0.43,0.97,0.97v0.56C107.44,71.27,107.01,71.7,106.48,71.7z"/>
	</g>
	<g>
		<path class="st8" d="M109.32,78.61H53.2c-0.53,0-0.97-0.43-0.97-0.97v-0.56c0-0.53,0.43-0.97,0.97-0.97h56.12
			c0.53,0,0.97,0.43,0.97,0.97v0.56C110.29,78.18,109.86,78.61,109.32,78.61z"/>
		<path class="st9" d="M109.32,78.61h-0.56c-0.53,0-0.97-0.43-0.97-0.97v-0.56c0-0.53,0.43-0.97,0.97-0.97h0.56
			c0.53,0,0.97,0.43,0.97,0.97v0.56C110.29,78.18,109.86,78.61,109.32,78.61z"/>
	</g>
	<g>
		<path class="st8" d="M106.09,80.74H49.97c-0.53,0-0.97-0.43-0.97-0.97v-0.56c0-0.53,0.43-0.97,0.97-0.97h56.12
			c0.53,0,0.97,0.43,0.97,0.97v0.56C107.06,80.31,106.62,80.74,106.09,80.74z"/>
		<path class="st9" d="M106.09,80.74h-0.56c-0.53,0-0.97-0.43-0.97-0.97v-0.56c0-0.53,0.43-0.97,0.97-0.97h0.56
			c0.53,0,0.97,0.43,0.97,0.97v0.56C107.06,80.31,106.62,80.74,106.09,80.74z"/>
	</g>
	<g>
		<path class="st8" d="M105.23,76.12H49.11c-0.53,0-0.97-0.43-0.97-0.97v-0.56c0-0.53,0.43-0.97,0.97-0.97h56.12
			c0.53,0,0.97,0.43,0.97,0.97v0.56C106.2,75.68,105.76,76.12,105.23,76.12z"/>
		<path class="st9" d="M105.23,76.12h-0.56c-0.53,0-0.97-0.43-0.97-0.97v-0.56c0-0.53,0.43-0.97,0.97-0.97h0.56
			c0.53,0,0.97,0.43,0.97,0.97v0.56C106.2,75.68,105.76,76.12,105.23,76.12z"/>
	</g>
	<path class="st3" d="M92.22,82.52h-1.89c-1.81,0-3.28-1.47-3.28-3.28v-8.75c0-1.81,1.47-3.28,3.28-3.28h1.89
		c1.81,0,3.28,1.47,3.28,3.28v8.75C95.49,81.05,94.02,82.52,92.22,82.52z"/>
	<text transform="matrix(-0.0214 -0.9998 0.9998 -0.0214 42.5361 81.4487)"><tspan x="0" y="0" class="st10 st11">XM-214</tspan><tspan x="0" y="3.09" class="st10 st11">-A</tspan></text>
</g>
<ellipse class="st12" cx="70.01" cy="17.05" rx="1.63" ry="2.55"/>
<rect x="59.07" y="21.79" transform="matrix(0.9987 -0.0513 0.0513 0.9987 -1.0686 3.3501)" class="st12" width="11.23" height="1.38"/>
<polygon class="st12" points="65.06,14.75 59.59,11.81 69.5,11.38 "/>
<rect x="32.05" y="21.87" transform="matrix(0.9986 -0.0526 0.0526 0.9986 -1.1583 2.108)" class="st12" width="14.9" height="2.42"/>
<rect x="82.95" y="21.53" transform="matrix(0.9986 -0.0526 0.0526 0.9986 -1.0771 4.5215)" class="st12" width="4.95" height="2.42"/>
<rect x="31.17" y="16.26" class="st2" width="5.8" height="3.33"/>
<rect x="39.63" y="16" class="st2" width="5.8" height="4.6"/>
<rect x="80.78" y="14.75" class="st2" width="5.8" height="4.6"/>
<rect x="89.38" y="16.26" class="st2" width="1.89" height="3.56"/>
<path class="st12" d="M60.96,15.08V14.5h-4.22v4.04h0.38c0.49,0.77,1.41,1.3,2.47,1.3c1.57,0,2.85-1.14,2.85-2.55
	C62.44,16.34,61.84,15.51,60.96,15.08z"/>
</svg>
