<?xml version="1.0" encoding="utf-8"?>
<!-- Generator: Adobe Illustrator 23.0.5, SVG Export Plug-In . SVG Version: 6.00 Build 0)  -->
<svg version="1.1" id="Слой_1" xmlns="http://www.w3.org/2000/svg" xmlns:xlink="http://www.w3.org/1999/xlink" x="0px" y="0px"
	 viewBox="0 0 32 30" style="enable-background:new 0 0 32 30;" xml:space="preserve">
<style type="text/css">
	.st0{fill:#A08764;stroke:#533D14;stroke-miterlimit:10;}
	.st1{font-family:'XEtreme';}
	.st2{font-size:10px;}
	.st3{font-family:'Enemy-Crusher';}
	.st4{font-size:2px;}
	.st5{font-size:5px;}
	.st6{fill:#696000;stroke:#214319;stroke-miterlimit:10;}
</style>
<rect x="11.5" y="17" class="st0" width="9" height="12"/>
<rect x="1.5" y="1.5" class="st0" width="29" height="15.5"/>
<text transform="matrix(1 0 0 1 12.6045 15.3356)" class="st1 st2">?</text>
<text transform="matrix(1 0 0 1 21.6259 5.2374)"><tspan x="0" y="0" class="st3 st4">^| W </tspan><tspan x="0" y="2.4" class="st3 st4">&lt;| A</tspan><tspan x="0" y="4.8" class="st3 st4">&gt;| D</tspan><tspan x="0" y="7.2" class="st3 st4">v| S</tspan><tspan x="0" y="9.6" class="st3 st4">!| E</tspan></text>
<text transform="matrix(1 0 0 1 2.9806 5.2373)"><tspan x="0" y="0" class="st3 st4">Exit|</tspan><tspan x="0" y="2.4" class="st3 st4">Esc </tspan><tspan x="0" y="4.8" class="st3 st4">____</tspan><tspan x="0" y="7.2" class="st3 st4">Menu|</tspan><tspan x="0" y="9.6" class="st3 st4">L.Ctrl</tspan></text>
<text transform="matrix(1 0 0 1 12.4368 27.4709)" class="st3 st4">0()&quot;</text>
<text transform="matrix(1 0 0 1 13.7115 23.5141)" class="st3 st5">!</text>
<path d="M8.63,1.75"/>
<path class="st0" d="M7.42,0.25"/>
<path class="st6" d="M3.04,16.93c1.44,1.1,3.56,2.2,5.97,1.27c1.2-0.46,1.12-0.91,2.25-1.43c3.89-1.79,5.47,3.22,9.13,1.83
	c1.87-0.71,1.89-2.18,4.03-2.71c1.87-0.47,3.47,0.26,4.54,0.96L3.04,16.93z"/>
</svg>
