<?xml version="1.0" encoding="utf-8"?>
<!-- Generator: Adobe Illustrator 23.0.5, SVG Export Plug-In . SVG Version: 6.00 Build 0)  -->
<svg version="1.1" id="Слой_1" xmlns="http://www.w3.org/2000/svg" xmlns:xlink="http://www.w3.org/1999/xlink" x="0px" y="0px"
	 viewBox="0 0 60 60" style="enable-background:new 0 0 60 60;" xml:space="preserve">
<style type="text/css">
	.st0{fill:#FFFFFF;}
	.st1{fill:#B66D59;}
	.st2{fill:#5B431E;stroke:#000000;stroke-width:0.75;stroke-miterlimit:10;}
	.st3{fill:#E2E2E2;stroke:#000000;stroke-width:0.75;stroke-miterlimit:10;}
	.st4{fill:none;stroke:#7F7E7C;stroke-width:0.75;stroke-miterlimit:10;}
	.st5{fill:#5F4825;stroke:#624B29;stroke-width:0.75;stroke-miterlimit:10;}
	.st6{fill:#FFF343;stroke:#000000;stroke-width:0.75;stroke-miterlimit:10;}
</style>
<rect class="st0" width="60" height="60"/>
<polygon class="st1" points="60,60 0,0 0,60 "/>
<g>
	
		<rect x="39.19" y="38.69" transform="matrix(0.7071 -0.7071 0.7071 0.7071 -18.8525 43.3756)" class="st2" width="7.49" height="11.51"/>
	
		<rect x="27.58" y="36.05" transform="matrix(0.7071 -0.7071 0.7071 0.7071 -16.365 37.572)" class="st2" width="19.19" height="4.99"/>
	<polygon class="st3" points="18.06,11.34 9.98,11.34 9.98,19.42 31.34,40.78 39.42,32.7 	"/>
	<line class="st4" x1="16.8" y1="18.1" x2="27.14" y2="28.34"/>
	<line class="st4" x1="29.44" y1="30.62" x2="34.92" y2="36.05"/>
	<line class="st5" x1="41.36" y1="40.14" x2="46.59" y2="45.37"/>
	<line class="st5" x1="35.68" y1="38.54" x2="42.21" y2="32.01"/>
</g>
<polygon class="st6" points="47,9.01 41.08,17.51 43.88,17.51 43.88,27.51 50.34,27.51 50.34,17.51 53.14,17.51 "/>
</svg>
