<?xml version="1.0" encoding="utf-8"?>
<!-- Generator: Adobe Illustrator 23.0.5, SVG Export Plug-In . SVG Version: 6.00 Build 0)  -->
<svg version="1.1" id="Слой_1" xmlns="http://www.w3.org/2000/svg" xmlns:xlink="http://www.w3.org/1999/xlink" x="0px" y="0px"
	 viewBox="0 0 60 60" style="enable-background:new 0 0 60 60;" xml:space="preserve">
<style type="text/css">
	.st0{opacity:0.7;fill:#8690B3;}
	.st1{opacity:0.9;}
	.st2{fill:#FBECA5;stroke:#000000;stroke-miterlimit:10;}
	.st3{fill:#56534E;stroke:#000000;stroke-miterlimit:10;}
	.st4{opacity:0.75;}
	.st5{opacity:0.85;}
</style>
<rect y="0" class="st0" width="60" height="60"/>
<g>
	<g class="st1">
		
			<rect x="18.96" y="10.37" transform="matrix(-0.7071 0.7071 -0.7071 -0.7071 47.6925 11.4613)" class="st2" width="5.02" height="10.47"/>
		
			<rect x="13.48" y="14.72" transform="matrix(-0.7071 0.7071 -0.7071 -0.7071 37.8704 16.4921)" class="st2" width="4.08" height="2.73"/>
		
			<rect x="14.35" y="17.1" transform="matrix(-0.7071 0.7071 -0.7071 -0.7071 42.0971 19.4873)" class="st2" width="5.33" height="2.73"/>
		
			<rect x="16.66" y="18.87" transform="matrix(-0.7071 0.7071 -0.7071 -0.7071 46.9194 21.0445)" class="st2" width="4.89" height="2.73"/>
		
			<rect x="19.28" y="20.52" transform="matrix(-0.7071 0.7071 -0.7071 -0.7071 51.8704 22.2911)" class="st2" width="4.08" height="2.73"/>
		
			<rect x="15.09" y="12.05" transform="matrix(-0.7071 0.7071 -0.7071 -0.7071 38.5937 12.7087)" class="st2" width="3.15" height="4.59"/>
		
			<rect x="22.68" y="8.12" transform="matrix(-0.7071 0.7071 -0.7071 -0.7071 51.6345 3.0616)" class="st3" width="5.02" height="8.2"/>
	</g>
	<g>
		
			<rect x="18.31" y="29.08" transform="matrix(-0.7071 0.7071 -0.7071 -0.7071 59.8034 43.8674)" class="st2" width="5.02" height="10.47"/>
		
			<rect x="12.82" y="33.43" transform="matrix(-0.7071 0.7071 -0.7071 -0.7071 49.9813 48.8983)" class="st2" width="4.08" height="2.73"/>
		
			<rect x="13.69" y="35.81" transform="matrix(-0.7071 0.7071 -0.7071 -0.7071 54.208 51.8934)" class="st2" width="5.33" height="2.73"/>
		
			<rect x="16" y="37.58" transform="matrix(-0.7071 0.7071 -0.7071 -0.7071 59.0303 53.4506)" class="st2" width="4.89" height="2.73"/>
		
			<rect x="18.62" y="39.23" transform="matrix(-0.7071 0.7071 -0.7071 -0.7071 63.9813 54.6973)" class="st2" width="4.08" height="2.73"/>
		
			<rect x="14.43" y="30.76" transform="matrix(-0.7071 0.7071 -0.7071 -0.7071 50.7046 45.1149)" class="st2" width="3.15" height="4.59"/>
		
			<rect x="22.02" y="26.84" transform="matrix(-0.7071 0.7071 -0.7071 -0.7071 63.7454 35.4677)" class="st3" width="5.02" height="8.2"/>
	</g>
	<g class="st4">
		
			<rect x="36.65" y="18.77" transform="matrix(-0.7071 0.7071 -0.7071 -0.7071 83.8291 13.2862)" class="st2" width="5.02" height="10.47"/>
		
			<rect x="31.17" y="23.12" transform="matrix(-0.7071 0.7071 -0.7071 -0.7071 74.007 18.317)" class="st2" width="4.08" height="2.73"/>
		
			<rect x="32.04" y="25.49" transform="matrix(-0.7071 0.7071 -0.7071 -0.7071 78.2337 21.3121)" class="st2" width="5.33" height="2.73"/>
		
			<rect x="34.35" y="27.27" transform="matrix(-0.7071 0.7071 -0.7071 -0.7071 83.056 22.8694)" class="st2" width="4.89" height="2.73"/>
		
			<rect x="36.97" y="28.92" transform="matrix(-0.7071 0.7071 -0.7071 -0.7071 88.007 24.116)" class="st2" width="4.08" height="2.73"/>
		
			<rect x="32.78" y="20.45" transform="matrix(-0.7071 0.7071 -0.7071 -0.7071 74.7303 14.5336)" class="st2" width="3.15" height="4.59"/>
		
			<rect x="40.37" y="16.52" transform="matrix(-0.7071 0.7071 -0.7071 -0.7071 87.7711 4.8865)" class="st3" width="5.02" height="8.2"/>
	</g>
	<g class="st5">
		
			<rect x="33.62" y="38.52" transform="matrix(-0.7071 0.7071 -0.7071 -0.7071 92.6148 49.1539)" class="st2" width="5.02" height="10.47"/>
		
			<rect x="28.13" y="42.87" transform="matrix(-0.7071 0.7071 -0.7071 -0.7071 82.7927 54.1847)" class="st2" width="4.08" height="2.73"/>
		
			<rect x="29" y="45.25" transform="matrix(-0.7071 0.7071 -0.7071 -0.7071 87.0194 57.1798)" class="st2" width="5.33" height="2.73"/>
		
			<rect x="31.31" y="47.02" transform="matrix(-0.7071 0.7071 -0.7071 -0.7071 91.8417 58.7371)" class="st2" width="4.89" height="2.73"/>
		
			<rect x="33.93" y="48.67" transform="matrix(-0.7071 0.7071 -0.7071 -0.7071 96.7927 59.9837)" class="st2" width="4.08" height="2.73"/>
		
			<rect x="29.74" y="40.2" transform="matrix(-0.7071 0.7071 -0.7071 -0.7071 83.516 50.4013)" class="st2" width="3.15" height="4.59"/>
		
			<rect x="37.33" y="36.27" transform="matrix(-0.7071 0.7071 -0.7071 -0.7071 96.5568 40.7542)" class="st3" width="5.02" height="8.2"/>
	</g>
</g>
</svg>
