<?xml version="1.0" encoding="utf-8"?>
<!-- Generator: Adobe Illustrator 23.0.5, SVG Export Plug-In . SVG Version: 6.00 Build 0)  -->
<svg version="1.1" id="Слой_1" xmlns="http://www.w3.org/2000/svg" xmlns:xlink="http://www.w3.org/1999/xlink" x="0px" y="0px"
	 viewBox="0 0 60 60" style="enable-background:new 0 0 60 60;" xml:space="preserve">
<style type="text/css">
	.st0{opacity:0.3;fill:#CE4942;}
	.st1{fill:#5B431E;stroke:#000000;stroke-width:0.75;stroke-miterlimit:10;}
	.st2{fill:#E2E2E2;stroke:#000000;stroke-width:0.75;stroke-miterlimit:10;}
	.st3{fill:none;stroke:#7F7E7C;stroke-width:0.75;stroke-miterlimit:10;}
	.st4{fill:#5F4825;stroke:#624B29;stroke-width:0.75;stroke-miterlimit:10;}
	.st5{fill:#CE4942;stroke:#000000;stroke-miterlimit:10;}
	.st6{fill:#FFEF42;}
	.st7{fill:#FFFFFF;}
</style>
<rect x="0" class="st0" width="60" height="60"/>
<g>
	
		<rect x="40.93" y="37.44" transform="matrix(0.7071 -0.7071 0.7071 0.7071 -17.4581 44.2374)" class="st1" width="7.49" height="11.51"/>
	
		<rect x="29.32" y="34.79" transform="matrix(0.7071 -0.7071 0.7071 0.7071 -14.9706 38.4337)" class="st1" width="19.19" height="4.99"/>
	<polygon class="st2" points="19.8,10.09 11.72,10.09 11.72,18.17 33.08,39.53 41.16,31.45 	"/>
	<line class="st3" x1="18.54" y1="16.85" x2="28.88" y2="27.09"/>
	<line class="st3" x1="31.18" y1="29.37" x2="36.66" y2="34.8"/>
	<line class="st4" x1="43.1" y1="38.89" x2="48.33" y2="44.12"/>
	<line class="st4" x1="37.42" y1="37.29" x2="43.95" y2="30.76"/>
</g>
<g>
	<path class="st5" d="M18.44,19.37c0,2.6-2.11,4.71-4.71,4.71c-3.22,0-4.56-4.23-4.71-4.71c-1.59-5.21,3.31-10.68,4.24-10.34
		c0.61,0.23-0.91,2.86,0.47,5.63C15.17,17.53,18.44,17.35,18.44,19.37z"/>
	<path class="st6" d="M16.88,20.4c0.45,1.36-0.29,2.82-1.65,3.27c-1.68,0.55-3.11-1.43-3.27-1.65c-1.73-2.45-0.11-6.15,0.43-6.13
		c0.36,0.01,0.02,1.65,1.22,2.86C14.85,20,16.53,19.34,16.88,20.4z"/>
	<path class="st7" d="M16.09,22.02c0.19,0.58-0.12,1.21-0.71,1.4c-0.72,0.24-1.33-0.61-1.4-0.71c-0.74-1.05-0.05-2.64,0.18-2.63
		c0.15,0.01,0.01,0.71,0.52,1.23C15.22,21.85,15.94,21.57,16.09,22.02z"/>
</g>
</svg>
