<?xml version="1.0" encoding="utf-8"?>
<!-- Generator: Adobe Illustrator 23.0.5, SVG Export Plug-In . SVG Version: 6.00 Build 0)  -->
<svg version="1.1" id="Слой_1" xmlns="http://www.w3.org/2000/svg" xmlns:xlink="http://www.w3.org/1999/xlink" x="0px" y="0px"
	 viewBox="0 0 60 60" style="enable-background:new 0 0 60 60;" xml:space="preserve">
<style type="text/css">
	.st0{opacity:0.3;fill:#3EB5F1;}
	.st1{fill:#5B431E;stroke:#000000;stroke-width:0.75;stroke-miterlimit:10;}
	.st2{fill:#E2E2E2;stroke:#000000;stroke-width:0.75;stroke-miterlimit:10;}
	.st3{fill:none;stroke:#7F7E7C;stroke-width:0.75;stroke-miterlimit:10;}
	.st4{fill:#5F4825;stroke:#624B29;stroke-width:0.75;stroke-miterlimit:10;}
	.st5{fill:#3EB5F1;stroke:#000000;stroke-width:0.75;stroke-miterlimit:10;}
</style>
<rect x="0" class="st0" width="60" height="60"/>
<g>
	
		<rect x="40.93" y="37.44" transform="matrix(0.7071 -0.7071 0.7071 0.7071 -17.4581 44.2374)" class="st1" width="7.49" height="11.51"/>
	
		<rect x="29.32" y="34.79" transform="matrix(0.7071 -0.7071 0.7071 0.7071 -14.9706 38.4337)" class="st1" width="19.19" height="4.99"/>
	<polygon class="st2" points="19.8,10.09 11.72,10.09 11.72,18.17 33.08,39.53 41.16,31.45 	"/>
	<line class="st3" x1="18.54" y1="16.85" x2="28.88" y2="27.09"/>
	<line class="st3" x1="31.18" y1="29.37" x2="36.66" y2="34.8"/>
	<line class="st4" x1="43.1" y1="38.89" x2="48.33" y2="44.12"/>
	<line class="st4" x1="37.42" y1="37.29" x2="43.95" y2="30.76"/>
</g>
<path class="st5" d="M14.12,19.74l-2.4-4.15l-2.4,4.15c-0.44,0.54-0.71,1.21-0.71,1.96c0,1.72,1.39,3.11,3.11,3.11
	s3.11-1.39,3.11-3.11C14.83,20.95,14.56,20.28,14.12,19.74z"/>
<g>
	<path class="st5" d="M16.84,25.78l-2.4-4.15l-2.4,4.15c-0.44,0.54-0.71,1.21-0.71,1.96c0,1.72,1.39,3.11,3.11,3.11
		s3.11-1.39,3.11-3.11C17.55,27,17.28,26.32,16.84,25.78z"/>
	<path class="st5" d="M11.4,25.78L9,21.63l-2.4,4.15C6.17,26.32,5.89,27,5.89,27.74c0,1.72,1.39,3.11,3.11,3.11s3.11-1.39,3.11-3.11
		C12.11,27,11.84,26.32,11.4,25.78z"/>
</g>
</svg>
