<?xml version="1.0" encoding="utf-8"?>
<!-- Generator: Adobe Illustrator 23.0.5, SVG Export Plug-In . SVG Version: 6.00 Build 0)  -->
<svg version="1.1" xmlns="http://www.w3.org/2000/svg" xmlns:xlink="http://www.w3.org/1999/xlink" x="0px" y="0px"
	 viewBox="0 0 60 60" style="enable-background:new 0 0 60 60;" xml:space="preserve">
<style type="text/css">
	.st0{opacity:0.3;fill:#924037;}
	.st1{fill:#979695;stroke:#000000;stroke-miterlimit:10;}
	.st2{fill:#924037;stroke:#000000;stroke-miterlimit:10;}
	.st3{fill:#46433E;stroke:#000000;stroke-miterlimit:10;}
	.st4{fill:#272624;stroke:#000000;stroke-miterlimit:10;}
</style>
<g id="Слой_1">
	<rect y="0" class="st0" width="60" height="60"/>
</g>
<g id="Bridge">
	<g>
		<g>
			<rect x="25.01" y="22.51" class="st1" width="18.57" height="2.62"/>
			<rect x="25.06" y="22.51" class="st2" width="2.62" height="5.03"/>
		</g>
		<g>
			<rect x="25.01" y="35.05" class="st1" width="18.57" height="2.62"/>
			<rect x="25.06" y="32.64" class="st2" width="2.62" height="5.03"/>
		</g>
	</g>
</g>
<g id="Body">
	<ellipse class="st2" cx="48.06" cy="30" rx="9.37" ry="8.79"/>
</g>
<g id="Barrel">
	<g>
		<g>
			<g>
				<path class="st3" d="M17.89,34.41H4.67c-0.78,0-1.41-0.63-1.41-1.41v-5.46c0-0.78,0.63-1.41,1.41-1.41h13.22
					c0.78,0,1.41,0.63,1.41,1.41V33C19.3,33.78,18.67,34.41,17.89,34.41z"/>
				<path class="st4" d="M18.16,32.28H4.41c-0.63,0-1.15-0.51-1.15-1.15v-1.72c0-0.63,0.51-1.15,1.15-1.15h13.75
					c0.63,0,1.15,0.51,1.15,1.15v1.72C19.3,31.77,18.79,32.28,18.16,32.28z"/>
			</g>
			<g>
				<path class="st3" d="M39.84,33.72H26.76c-0.78,0-1.41-0.63-1.41-1.41v-4.08c0-0.78,0.63-1.41,1.41-1.41h13.08
					c0.78,0,1.41,0.63,1.41,1.41v4.08C41.25,33.09,40.62,33.72,39.84,33.72z"/>
				<path class="st4" d="M28.26,34.61h-4.26c-0.44,0-0.8-0.36-0.8-0.8V26.9c0-0.44,0.36-0.8,0.8-0.8h4.26c0.44,0,0.8,0.36,0.8,0.8
					v6.91C29.07,34.25,28.71,34.61,28.26,34.61z"/>
			</g>
		</g>
		<g>
			<rect x="8.49" y="28.95" class="st1" width="28.32" height="2.81"/>
			<rect x="8.55" y="28.95" class="st2" width="4.51" height="2.81"/>
		</g>
	</g>
</g>
</svg>
