<?xml version="1.0" encoding="utf-8"?>
<!-- Generator: Adobe Illustrator 23.0.5, SVG Export Plug-In . SVG Version: 6.00 Build 0)  -->
<svg version="1.1" id="Слой_1" xmlns="http://www.w3.org/2000/svg" xmlns:xlink="http://www.w3.org/1999/xlink" x="0px" y="0px"
	 viewBox="0 0 60 60" style="enable-background:new 0 0 60 60;" xml:space="preserve">
<style type="text/css">
	.st0{opacity:0.5;fill:#738663;}
	.st1{fill:none;stroke:#000000;stroke-width:2;stroke-miterlimit:10;}
	.st2{fill:#1F5A2B;stroke:#000000;stroke-width:2;stroke-miterlimit:10;}
	.st3{fill:#FFFFFF;stroke:#6F8A66;stroke-width:2;stroke-miterlimit:10;}
	.st4{fill:none;stroke:#FFFFFF;stroke-width:2;stroke-miterlimit:10;}
</style>
<rect y="0" class="st0" width="60" height="60"/>
<g>
	<g>
		<polygon class="st1" points="36.65,15.97 36.65,15.97 30.55,13.61 20.78,38.87 26.76,41.18 26.76,41.17 		"/>
		<polygon class="st1" points="33.07,43.62 42.83,18.36 36.73,16 26.82,41.2 		"/>
		<polygon class="st1" points="40.27,6.99 36.65,15.97 36.73,16 		"/>
		<polygon class="st1" points="26.76,41.18 25.03,45.68 25.05,45.69 26.82,41.2 		"/>
		<polygon class="st1" points="25.03,45.68 19.05,43.37 17.17,48.24 29.52,53.01 31.4,48.14 25.05,45.69 24.31,47.58 		"/>
	</g>
	
		<rect x="27.03" y="15.59" transform="matrix(-0.9328 -0.3605 0.3605 -0.9328 56.2981 58.5957)" class="st2" width="13.17" height="16.91"/>
	<line class="st3" x1="36.34" y1="31.84" x2="26.35" y2="28.01"/>
	<line class="st4" x1="32.81" y1="18.29" x2="30.8" y2="23.37"/>
</g>
</svg>
