<?xml version="1.0" encoding="utf-8"?>
<!-- Generator: Adobe Illustrator 23.0.5, SVG Export Plug-In . SVG Version: 6.00 Build 0)  -->
<svg version="1.1" id="Слой_1" xmlns="http://www.w3.org/2000/svg" xmlns:xlink="http://www.w3.org/1999/xlink" x="0px" y="0px"
	 viewBox="0 0 60 60" style="enable-background:new 0 0 60 60;" xml:space="preserve">
<style type="text/css">
	.st0{opacity:0.3;fill:url(#SVGID_1_);}
	.st1{fill:#5B431E;stroke:#000000;stroke-width:0.75;stroke-miterlimit:10;}
	.st2{fill:#E2E2E2;stroke:#000000;stroke-width:0.75;stroke-miterlimit:10;}
	.st3{fill:none;stroke:#7F7E7C;stroke-width:0.75;stroke-miterlimit:10;}
	.st4{fill:#5F4825;stroke:#624B29;stroke-width:0.75;stroke-miterlimit:10;}
	.st5{stroke:#000000;stroke-width:0.25;stroke-miterlimit:10;}
	.st6{fill:#FFFFFF;stroke:#000000;stroke-width:0.25;stroke-miterlimit:10;}
	.st7{font-family:'Stencil';}
	.st8{font-size:12px;}
</style>
<linearGradient id="SVGID_1_" gradientUnits="userSpaceOnUse" x1="8.081770e-09" y1="30" x2="60" y2="30">
	<stop  offset="0" style="stop-color:#FFF359"/>
	<stop  offset="0.0595" style="stop-color:#FBDE4F"/>
	<stop  offset="0.1303" style="stop-color:#F5CE48"/>
	<stop  offset="0.2032" style="stop-color:#F1C446"/>
	<stop  offset="0.2809" style="stop-color:#F0C145"/>
	<stop  offset="0.6685" style="stop-color:#DC8A52"/>
	<stop  offset="0.8876" style="stop-color:#D46D50"/>
	<stop  offset="1" style="stop-color:#CF584F"/>
</linearGradient>
<rect x="0" class="st0" width="60" height="60"/>
<g>
	
		<rect x="40.93" y="37.44" transform="matrix(0.7071 -0.7071 0.7071 0.7071 -17.4581 44.2374)" class="st1" width="7.49" height="11.51"/>
	
		<rect x="29.32" y="34.79" transform="matrix(0.7071 -0.7071 0.7071 0.7071 -14.9706 38.4337)" class="st1" width="19.19" height="4.99"/>
	<polygon class="st2" points="19.8,10.09 11.72,10.09 11.72,18.17 33.08,39.53 41.16,31.45 	"/>
	<line class="st3" x1="18.54" y1="16.85" x2="28.88" y2="27.09"/>
	<line class="st3" x1="31.18" y1="29.37" x2="36.66" y2="34.8"/>
	<line class="st4" x1="43.1" y1="38.89" x2="48.33" y2="44.12"/>
	<line class="st4" x1="37.42" y1="37.29" x2="43.95" y2="30.76"/>
</g>
<rect x="8.04" y="41.5" class="st5" width="11.8" height="10.94"/>
<text transform="matrix(1 0 0 1 9.2085 50.9156)" class="st6 st7 st8">II</text>
</svg>
