<?xml version="1.0" encoding="utf-8"?>
<!-- Generator: Adobe Illustrator 23.0.5, SVG Export Plug-In . SVG Version: 6.00 Build 0)  -->
<svg version="1.1" xmlns="http://www.w3.org/2000/svg" xmlns:xlink="http://www.w3.org/1999/xlink" x="0px" y="0px"
	 viewBox="0 0 60 60" style="enable-background:new 0 0 60 60;" xml:space="preserve">
<style type="text/css">
	.st0{opacity:0.3;fill:#E18C44;}
	.st1{fill:#7F7E7C;stroke:#000000;stroke-width:0.5;stroke-miterlimit:10;}
	.st2{fill:#979695;stroke:#000000;stroke-width:0.5;stroke-miterlimit:10;}
	.st3{fill:none;stroke:#000000;stroke-width:0.5;stroke-miterlimit:10;}
	.st4{fill:#E18C44;stroke:#000000;stroke-width:0.5;stroke-miterlimit:10;}
	.st5{fill:none;stroke:#E18C44;stroke-width:0.5;stroke-miterlimit:10;}
	.st6{fill:#E18C44;stroke:#000000;stroke-miterlimit:10;}
	.st7{fill:#E9A854;stroke:#000000;stroke-miterlimit:10;}
	.st8{fill:#6D4300;stroke:#000000;stroke-miterlimit:10;}
	.st9{fill:#FFF05B;stroke:#000000;stroke-miterlimit:10;}
	.st10{fill:none;stroke:#000000;stroke-miterlimit:10;}
</style>
<g id="Back">
	<rect y="0" class="st0" width="60" height="60"/>
</g>
<g id="Rockets">
	<g>
		<rect x="19.25" y="22.18" class="st1" width="20.42" height="6.42"/>
		<path class="st2" d="M35.56,28.6h-4.23c1.41,1.91,2.82,3.83,4.23,5.74l0,0h4.11V28.6H35.56z"/>
		<path class="st2" d="M35.56,22.18h-4.23c1.41-1.91,2.82-3.83,4.23-5.74l0,0h4.11v5.74H35.56z"/>
		<line class="st3" x1="30.8" y1="25.39" x2="38.96" y2="25.39"/>
		<path class="st4" d="M18.65,28.67l-7.87-2.82c-0.4-0.14-0.4-0.7,0-0.85l7.86-2.88c0.29-0.11,0.61,0.11,0.61,0.42l0.01,5.7
			C19.25,28.55,18.94,28.77,18.65,28.67z"/>
		<path class="st1" d="M13.2,26.48l-2.62-0.93c-0.13-0.05-0.13-0.23,0-0.28l2.62-0.96c0.1-0.04,0.2,0.04,0.2,0.14l0,1.89
			C13.4,26.44,13.3,26.51,13.2,26.48z"/>
		<line class="st5" x1="38.96" y1="22.6" x2="38.96" y2="28.19"/>
	</g>
	<g>
		<rect x="20.04" y="30.56" class="st1" width="20.42" height="6.42"/>
		<path class="st2" d="M36.35,36.98h-4.23c1.41,1.91,2.82,3.83,4.23,5.74l0,0h4.11v-5.74H36.35z"/>
		<path class="st2" d="M36.35,30.56h-4.23c1.41-1.91,2.82-3.83,4.23-5.74l0,0h4.11v5.74H36.35z"/>
		<line class="st3" x1="31.59" y1="33.77" x2="39.75" y2="33.77"/>
		<path class="st4" d="M19.43,37.04l-7.87-2.82c-0.4-0.14-0.4-0.7,0-0.85l7.86-2.88c0.29-0.11,0.61,0.11,0.61,0.42l0.01,5.7
			C20.04,36.93,19.73,37.15,19.43,37.04z"/>
		<path class="st1" d="M13.98,34.86l-2.62-0.93c-0.13-0.05-0.13-0.23,0-0.28l2.62-0.96c0.1-0.04,0.2,0.04,0.2,0.14l0,1.89
			C14.19,34.82,14.08,34.89,13.98,34.86z"/>
		<line class="st5" x1="39.75" y1="30.97" x2="39.75" y2="36.56"/>
	</g>
	<g>
		<rect x="19.25" y="28.36" class="st1" width="20.42" height="6.42"/>
		<path class="st2" d="M35.56,34.78h-4.23c1.41,1.91,2.82,3.83,4.23,5.74l0,0h4.11v-5.74H35.56z"/>
		<path class="st2" d="M35.56,28.36h-4.23c1.41-1.91,2.82-3.83,4.23-5.74l0,0h4.11v5.74H35.56z"/>
		<line class="st3" x1="30.8" y1="31.57" x2="38.96" y2="31.57"/>
		<path class="st4" d="M18.65,34.85l-7.87-2.82c-0.4-0.14-0.4-0.7,0-0.85l7.86-2.88c0.29-0.11,0.61,0.11,0.61,0.42l0.01,5.7
			C19.25,34.74,18.94,34.96,18.65,34.85z"/>
		<path class="st1" d="M13.2,32.66l-2.62-0.93c-0.13-0.05-0.13-0.23,0-0.28l2.62-0.96c0.1-0.04,0.2,0.04,0.2,0.14l0,1.89
			C13.4,32.63,13.3,32.7,13.2,32.66z"/>
		<line class="st5" x1="38.96" y1="28.78" x2="38.96" y2="34.37"/>
	</g>
	<g>
		<rect x="19.25" y="19.72" class="st1" width="20.42" height="6.42"/>
		<path class="st2" d="M35.56,26.14h-4.23c1.41,1.91,2.82,3.83,4.23,5.74l0,0h4.11v-5.74H35.56z"/>
		<path class="st2" d="M35.56,19.72h-4.23c1.41-1.91,2.82-3.83,4.23-5.74l0,0h4.11v5.74H35.56z"/>
		<line class="st3" x1="30.8" y1="22.93" x2="38.96" y2="22.93"/>
		<path class="st4" d="M18.65,26.21l-7.87-2.82c-0.4-0.14-0.4-0.7,0-0.85l7.86-2.88c0.29-0.11,0.61,0.11,0.61,0.42l0.01,5.7
			C19.25,26.09,18.94,26.31,18.65,26.21z"/>
		<path class="st1" d="M13.2,24.02l-2.62-0.93c-0.13-0.05-0.13-0.23,0-0.28l2.62-0.96c0.1-0.04,0.2,0.04,0.2,0.14l0,1.89
			C13.4,23.98,13.3,24.05,13.2,24.02z"/>
		<line class="st5" x1="38.96" y1="20.14" x2="38.96" y2="25.73"/>
	</g>
</g>
<g id="Body">
	<g>
		<path class="st6" d="M48.31,37.94c-1.25,0.47-2.5,0.93-3.75,1.4c-0.98,0.77-2.33,0.81-3.29,0.12c-0.8-0.58-1.22-1.58-1.08-2.6
			V20.34c0-2.03,1.65-3.68,3.68-3.68h10.2c2.03,0,3.68,1.65,3.68,3.68c0.08,2.19,0.17,4.38,0.25,6.57c-0.07,0.78-0.25,1.9-0.73,3.16
			c-1.03,2.68-2.76,4.25-3.53,4.92C51.69,36.82,49.55,37.59,48.31,37.94z"/>
		<rect x="2.82" y="35.43" class="st7" width="40.21" height="6.55"/>
		<rect x="4.52" y="22" class="st6" width="7.63" height="16.24"/>
		<rect x="4.48" y="41.99" class="st8" width="3.64" height="4.45"/>
	</g>
</g>
<g id="Bridge">
	<g>
		<rect x="12.15" y="25.6" class="st9" width="28.05" height="2.99"/>
		<g>
			<line class="st10" x1="25.91" y1="25.72" x2="27.42" y2="28.71"/>
			<line class="st10" x1="28.81" y1="25.72" x2="30.31" y2="28.71"/>
			<line class="st10" x1="31.88" y1="25.72" x2="33.39" y2="28.71"/>
			<line class="st10" x1="34.79" y1="25.72" x2="36.29" y2="28.71"/>
			<line class="st10" x1="37.62" y1="25.72" x2="39.13" y2="28.71"/>
		</g>
	</g>
</g>
</svg>
