<?xml version="1.0" encoding="utf-8"?>
<!-- Generator: Adobe Illustrator 23.0.5, SVG Export Plug-In . SVG Version: 6.00 Build 0)  -->
<svg version="1.1" id="Слой_1" xmlns="http://www.w3.org/2000/svg" xmlns:xlink="http://www.w3.org/1999/xlink" x="0px" y="0px"
	 viewBox="0 0 60 60" style="enable-background:new 0 0 60 60;" xml:space="preserve">
<style type="text/css">
	.st0{opacity:0.5;fill:#46433E;}
	.st1{fill:#46433E;stroke:#000000;stroke-miterlimit:10;}
	.st2{fill:#272624;stroke:#000000;stroke-miterlimit:10;}
	.st3{fill:#FFFFFF;stroke:#FFFFFF;stroke-miterlimit:10;}
</style>
<rect y="0" class="st0" width="60" height="60"/>
<g>
	<path class="st1" d="M56.23,43.49H8.06c-0.78,0-1.41-0.63-1.41-1.41V18.22c0-0.78,0.63-1.41,1.41-1.41h48.18
		c0.78,0,1.41,0.63,1.41,1.41v23.86C57.65,42.86,57.01,43.49,56.23,43.49z"/>
	<path class="st2" d="M6.82,46.94H3.87c-0.84,0-1.51-0.68-1.51-1.51V15.55c0-0.84,0.68-1.51,1.51-1.51h2.95
		c0.84,0,1.51,0.68,1.51,1.51v29.88C8.33,46.26,7.65,46.94,6.82,46.94z"/>
	<rect x="14.98" y="19.42" class="st3" width="39.3" height="2.86"/>
</g>
</svg>
