<?xml version="1.0" encoding="utf-8"?>
<!-- Generator: Adobe Illustrator 23.0.5, SVG Export Plug-In . SVG Version: 6.00 Build 0)  -->
<svg version="1.1" xmlns="http://www.w3.org/2000/svg" xmlns:xlink="http://www.w3.org/1999/xlink" x="0px" y="0px"
	 viewBox="0 0 60 60" style="enable-background:new 0 0 60 60;" xml:space="preserve">
<style type="text/css">
	.st0{fill:#FFF343;stroke:#D24A43;stroke-miterlimit:10;}
	.st1{stroke:#000000;stroke-miterlimit:10;}
	.st2{fill:#FFF343;stroke:#FFF343;stroke-miterlimit:10;}
	.st3{fill:none;stroke:#FFF343;stroke-miterlimit:10;}
	.st4{fill:#FFFFFF;}
	.st5{fill:none;stroke:#000000;stroke-miterlimit:10;}
</style>
<g id="Back">
	<rect x="0.5" y="0.5" class="st0" width="59" height="59"/>
</g>
<g id="Bomb">
	<g>
		<g>
			<circle class="st1" cx="37.26" cy="32.13" r="19.76"/>
			<g>
				<g>
					<circle class="st2" cx="30.12" cy="30.02" r="2.5"/>
					<line class="st3" x1="27.63" y1="21.25" x2="35.22" y2="25.64"/>
				</g>
				<g>
					<circle class="st2" cx="44.39" cy="30.02" r="2.5"/>
					<line class="st3" x1="46.89" y1="21.25" x2="39.29" y2="25.64"/>
				</g>
			</g>
			<polygon class="st2" points="26.1,40.81 46.07,38.96 45.94,42.56 			"/>
		</g>
		<g>
			<g>
				<rect x="21.54" y="8.17" transform="matrix(-0.5605 -0.8281 0.8281 -0.5605 28.1537 40.8654)" width="6.75" height="9.58"/>
				
					<rect x="25.29" y="9.92" transform="matrix(-0.5605 -0.8281 0.8281 -0.5605 33.8416 39.2782)" class="st4" width="4.1" height="1.48"/>
			</g>
			<path class="st5" d="M3.58,33.84c-0.02,0.13-0.3,2.32,1.24,3.48c0.58,0.43,1.19,0.56,1.58,0.61c1.04-0.23,2.31-0.72,3.07-1.83
				c0.29-0.42,0.46-0.85,0.55-1.2c1.74-7.8,3.48-15.61,5.22-23.41c0.07-0.29,0.43-1.71,1.82-2.58c1.02-0.64,2.03-0.63,2.41-0.61
				c0.47,0.12,1.01,0.31,1.58,0.59c1.37,0.68,2.26,1.62,2.77,2.27"/>
		</g>
	</g>
</g>
</svg>
