<?xml version="1.0" encoding="utf-8"?>
<!-- Generator: Adobe Illustrator 23.0.5, SVG Export Plug-In . SVG Version: 6.00 Build 0)  -->
<svg version="1.1" xmlns="http://www.w3.org/2000/svg" xmlns:xlink="http://www.w3.org/1999/xlink" x="0px" y="0px"
	 viewBox="0 0 60 60" style="enable-background:new 0 0 60 60;" xml:space="preserve">
<style type="text/css">
	.st0{opacity:0.5;fill:#979695;}
	.st1{fill:#FFFFFF;stroke:#000000;stroke-miterlimit:10;}
	.st2{fill:#473421;stroke:#000000;stroke-miterlimit:10;}
	.st3{fill:none;stroke:#000000;stroke-miterlimit:10;}
	.st4{fill:#676462;stroke:#000000;stroke-miterlimit:10;}
	.st5{fill:url(#SVGID_1_);stroke:#000000;stroke-miterlimit:10;}
	.st6{fill:url(#SVGID_2_);stroke:#000000;stroke-miterlimit:10;}
</style>
<g id="Back">
	<rect y="0" class="st0" width="60" height="60"/>
	<path class="st1" d="M49.22,26.53"/>
</g>
<g id="Body">
	
		<rect x="50.01" y="32.92" transform="matrix(0.1012 0.9949 -0.9949 0.1012 84.1182 -21.65)" class="st2" width="8.06" height="5.62"/>
</g>
<g id="Nab">
	<g>
		<path class="st3" d="M48.04,34.57h-2.98c-0.33,0-0.6-0.27-0.6-0.6v-1.52c0-0.33,0.27-0.6,0.6-0.6h2.98c0.33,0,0.6,0.27,0.6,0.6
			v1.52C48.64,34.3,48.37,34.57,48.04,34.57z"/>
		<line class="st3" x1="47.52" y1="31.81" x2="46.8" y2="33.9"/>
	</g>
</g>
<g id="Volume">
	<path class="st4" d="M56.13,31.88H41.47c-0.4,0-0.72-0.32-0.72-0.72v-5.63c0-0.2,0.08-0.38,0.21-0.51c0.18-0.18,0.41-0.2,0.51-0.21
		c0.49-0.05,4-0.05,8.81,0c2.02,0.23,3.48,0.88,4.34,1.35c0.93,0.51,1.66,0.93,2.12,1.8c0.7,1.33,0.26,2.76,0.11,3.2
		C56.85,31.55,56.53,31.88,56.13,31.88z"/>
</g>
<g id="Barrel">
	<linearGradient id="SVGID_1_" gradientUnits="userSpaceOnUse" x1="21.7692" y1="27.9533" x2="21.7692" y2="25.0403">
		<stop  offset="0" style="stop-color:#FFFFFF"/>
		<stop  offset="1" style="stop-color:#000000"/>
	</linearGradient>
	<rect x="2.79" y="25.04" class="st5" width="37.96" height="2.91"/>
	<linearGradient id="SVGID_2_" gradientUnits="userSpaceOnUse" x1="29.2878" y1="30.8667" x2="29.2878" y2="28.3244">
		<stop  offset="0" style="stop-color:#FFFFFF"/>
		<stop  offset="1" style="stop-color:#000000"/>
	</linearGradient>
	<rect x="17.83" y="28.32" class="st6" width="22.92" height="2.54"/>
	<rect x="17.83" y="28.32" class="st4" width="3.49" height="2.54"/>
	
		<rect x="29.65" y="26.96" transform="matrix(-1.836970e-16 1 -1 -1.836970e-16 62.4683 0.3981)" class="st2" width="2.77" height="8.95"/>
</g>
<g id="Aim">
	<path class="st4" d="M10.08,22.53L10.08,22.53H6v2.31h4.08h3.33C12.3,24.08,11.19,23.31,10.08,22.53z"/>
</g>
</svg>
