<?xml version="1.0" encoding="utf-8"?>
<!-- Generator: Adobe Illustrator 23.0.5, SVG Export Plug-In . SVG Version: 6.00 Build 0)  -->
<svg version="1.1" id="Слой_1" xmlns="http://www.w3.org/2000/svg" xmlns:xlink="http://www.w3.org/1999/xlink" x="0px" y="0px"
	 viewBox="0 0 60 60" style="enable-background:new 0 0 60 60;" xml:space="preserve">
<style type="text/css">
	.st0{fill:#FFFFFF;}
	.st1{fill:#6291C7;}
	.st2{fill:#AFAFAF;stroke:#000000;stroke-width:0.75;stroke-miterlimit:10;}
	.st3{fill:none;stroke:#000000;stroke-miterlimit:10;}
	.st4{fill:url(#SVGID_1_);}
	.st5{fill:none;stroke:#000000;stroke-width:0.75;stroke-miterlimit:10;}
	.st6{fill:#FFF343;stroke:#000000;stroke-width:0.75;stroke-miterlimit:10;}
</style>
<rect class="st0" width="60" height="60"/>
<polygon class="st1" points="60,60 0,0 0,60 "/>
<g>
	<circle class="st2" cx="30" cy="30" r="16.62"/>
	<polyline class="st3" points="38.03,30 30,30 30,17.34 	"/>
</g>
<g>
	<linearGradient id="SVGID_1_" gradientUnits="userSpaceOnUse" x1="18.9706" y1="44.5451" x2="51.8369" y2="44.5451">
		<stop  offset="0" style="stop-color:#FFF359"/>
		<stop  offset="0.0595" style="stop-color:#FBDE4F"/>
		<stop  offset="0.1303" style="stop-color:#F5CE48"/>
		<stop  offset="0.2032" style="stop-color:#F1C446"/>
		<stop  offset="0.2809" style="stop-color:#F0C145"/>
		<stop  offset="0.6685" style="stop-color:#DC8A52"/>
		<stop  offset="0.8876" style="stop-color:#D46D50"/>
		<stop  offset="1" style="stop-color:#CF584F"/>
	</linearGradient>
	<path class="st4" d="M18.97,44.55c0,1.64,1.33,2.96,2.96,2.96h26.94c1.64,0,2.96-1.33,2.96-2.96s-1.33-2.96-2.96-2.96H21.93
		C20.3,41.58,18.97,42.91,18.97,44.55C18.97,44.55,18.97,42.91,18.97,44.55z"/>
	<path class="st5" d="M18.97,44.55c0,1.64,1.33,2.96,2.96,2.96h26.94c1.64,0,2.96-1.33,2.96-2.96s-1.33-2.96-2.96-2.96H21.93
		C20.3,41.58,18.97,42.91,18.97,44.55C18.97,44.55,18.97,42.91,18.97,44.55z"/>
</g>
<polygon class="st6" points="55.26,44.43 46.76,38.51 46.76,41.31 36.76,41.31 36.76,47.78 46.76,47.78 46.76,50.58 "/>
</svg>
