<?xml version="1.0" encoding="utf-8"?>
<!-- Generator: Adobe Illustrator 23.0.5, SVG Export Plug-In . SVG Version: 6.00 Build 0)  -->
<svg version="1.1" id="Слой_1" xmlns="http://www.w3.org/2000/svg" xmlns:xlink="http://www.w3.org/1999/xlink" x="0px" y="0px"
	 viewBox="0 0 60 60" style="enable-background:new 0 0 60 60;" xml:space="preserve">
<style type="text/css">
	.st0{fill:#FFF343;stroke:#D24A43;stroke-miterlimit:10;}
	.st1{stroke:#000000;stroke-miterlimit:10;}
	.st2{fill:#FFF343;stroke:#FFF343;stroke-miterlimit:10;}
	.st3{fill:none;stroke:#FFF343;stroke-miterlimit:10;}
	.st4{fill:#FFF343;}
	.st5{fill:none;stroke:#000000;stroke-miterlimit:10;}
</style>
<g>
	<polygon class="st0" points="57.28,30.45 59.57,22.35 53.74,16.35 51.85,8.84 44.35,6.7 38.33,0.51 30,2.62 22.54,0.5 16.95,5.93 
		8.79,7.99 6.51,16.04 0.67,21.71 2.67,29.65 0.5,37.31 6.02,42.99 8.1,51.26 16.35,53.61 21.75,59.15 29.2,57.26 37.41,59.6 
		43.57,53.62 51.28,51.67 53.44,44.05 59.28,38.39 	"/>
	<g>
		<g>
			<circle class="st1" cx="36.52" cy="30.25" r="16.16"/>
			<g>
				<g>
					<circle class="st2" cx="30.69" cy="28.53" r="2.04"/>
					<line class="st3" x1="28.65" y1="21.36" x2="34.86" y2="24.94"/>
				</g>
				<g>
					<circle class="st2" cx="42.36" cy="28.53" r="2.04"/>
					<line class="st3" x1="44.4" y1="21.36" x2="38.19" y2="24.94"/>
				</g>
			</g>
			<polygon class="st2" points="27.4,37.35 43.73,35.83 43.63,38.78 			"/>
		</g>
		<g>
			<g>
				<rect x="23.67" y="10.66" transform="matrix(-0.5605 -0.8281 0.8281 -0.5605 29.1807 44.6421)" width="5.52" height="7.84"/>
				
					<rect x="26.74" y="12.09" transform="matrix(-0.5605 -0.8281 0.8281 -0.5605 33.8318 43.3442)" class="st4" width="3.35" height="1.21"/>
			</g>
			<g>
				<path class="st5" d="M8.98,31.65c-0.01,0.1-0.25,1.89,1.01,2.84c0.47,0.35,0.97,0.46,1.29,0.49c0.85-0.19,1.89-0.59,2.51-1.5
					c0.24-0.35,0.37-0.69,0.45-0.98c1.42-6.38,2.84-12.76,4.27-19.15c0.05-0.24,0.35-1.4,1.49-2.11c0.83-0.52,1.66-0.52,1.97-0.5
					c0.38,0.1,0.83,0.25,1.29,0.48c1.12,0.56,1.85,1.32,2.27,1.86"/>
				<line class="st5" x1="9.92" y1="30.57" x2="11.64" y2="29.14"/>
				<line class="st5" x1="7.98" y1="30.48" x2="6.4" y2="28.89"/>
				<line class="st5" x1="7.65" y1="32.08" x2="5.94" y2="33.51"/>
				<line class="st5" x1="8.96" y1="27.81" x2="8.96" y2="30.05"/>
				<line class="st5" x1="7.71" y1="31.32" x2="5.47" y2="31.32"/>
				<line class="st5" x1="11.57" y1="33.59" x2="9.99" y2="32.01"/>
				<line class="st5" x1="12.67" y1="31.29" x2="10.44" y2="31.29"/>
			</g>
		</g>
	</g>
</g>
</svg>
