<?xml version="1.0" encoding="utf-8"?>
<!-- Generator: Adobe Illustrator 23.0.5, SVG Export Plug-In . SVG Version: 6.00 Build 0)  -->
<svg version="1.1" id="Слой_1" xmlns="http://www.w3.org/2000/svg" xmlns:xlink="http://www.w3.org/1999/xlink" x="0px" y="0px"
	 viewBox="0 0 60 60" style="enable-background:new 0 0 60 60;" xml:space="preserve">
<style type="text/css">
	.st0{opacity:0.3;}
	.st1{fill:#5B431E;stroke:#000000;stroke-width:0.75;stroke-miterlimit:10;}
	.st2{fill:#E2E2E2;stroke:#000000;stroke-width:0.75;stroke-miterlimit:10;}
	.st3{fill:none;stroke:#7F7E7C;stroke-width:0.75;stroke-miterlimit:10;}
	.st4{fill:#5F4825;stroke:#624B29;stroke-width:0.75;stroke-miterlimit:10;}
	.st5{opacity:0.4;fill:none;stroke:#FFFFFF;stroke-width:2;stroke-miterlimit:10;}
	.st6{opacity:0.2;fill:none;stroke:#FFFFFF;stroke-miterlimit:10;}
</style>
<rect x="0" class="st0" width="60" height="60"/>
<g>
	
		<rect x="40.93" y="37.44" transform="matrix(0.7071 -0.7071 0.7071 0.7071 -17.4581 44.2374)" class="st1" width="7.49" height="11.51"/>
	
		<rect x="29.32" y="34.79" transform="matrix(0.7071 -0.7071 0.7071 0.7071 -14.9706 38.4337)" class="st1" width="19.19" height="4.99"/>
	<polygon class="st2" points="19.8,10.09 11.72,10.09 11.72,18.17 33.08,39.53 41.16,31.45 	"/>
	<line class="st3" x1="18.54" y1="16.85" x2="28.88" y2="27.09"/>
	<line class="st3" x1="31.18" y1="29.37" x2="36.66" y2="34.8"/>
	<line class="st4" x1="43.1" y1="38.89" x2="48.33" y2="44.12"/>
	<line class="st4" x1="37.42" y1="37.29" x2="43.95" y2="30.76"/>
</g>
<g>
	<g>
		<line class="st5" x1="12.55" y1="11.08" x2="8.82" y2="17.21"/>
		<line class="st6" x1="12.76" y1="10.73" x2="8.48" y2="17.76"/>
	</g>
	<g>
		<line class="st5" x1="14.89" y1="17.48" x2="11.16" y2="23.61"/>
		<line class="st6" x1="15.1" y1="17.13" x2="10.83" y2="24.16"/>
	</g>
	<g>
		<line class="st5" x1="15.38" y1="17.93" x2="8.3" y2="16.72"/>
		<line class="st6" x1="15.77" y1="17.99" x2="7.67" y2="16.61"/>
	</g>
</g>
<g>
	<g>
		<line class="st5" x1="15.83" y1="14.33" x2="13.04" y2="18.91"/>
		<line class="st6" x1="15.98" y1="14.07" x2="12.79" y2="19.32"/>
	</g>
	<g>
		<line class="st5" x1="17.58" y1="19.11" x2="14.79" y2="23.69"/>
		<line class="st6" x1="17.73" y1="18.85" x2="14.54" y2="24.1"/>
	</g>
	<g>
		<line class="st5" x1="17.94" y1="19.45" x2="12.66" y2="18.54"/>
		<line class="st6" x1="18.24" y1="19.5" x2="12.18" y2="18.46"/>
	</g>
</g>
</svg>
