<?xml version="1.0" encoding="utf-8"?>
<!-- Generator: Adobe Illustrator 23.0.5, SVG Export Plug-In . SVG Version: 6.00 Build 0)  -->
<svg version="1.1" id="Слой_1" xmlns="http://www.w3.org/2000/svg" xmlns:xlink="http://www.w3.org/1999/xlink" x="0px" y="0px"
	 viewBox="0 0 60 60" style="enable-background:new 0 0 60 60;" xml:space="preserve">
<style type="text/css">
	.st0{opacity:0.5;fill:#533D14;}
	.st1{fill:#CE4942;stroke:#000000;stroke-miterlimit:10;}
	.st2{fill:#FFEF42;}
	.st3{fill:#FFFFFF;}
</style>
<rect x="0" class="st0" width="60" height="60"/>
<path class="st1" d="M42.39,37.52c0,6.93-5.62,12.54-12.54,12.54c-8.57,0-12.16-11.28-12.54-12.54
	C13.07,23.64,26.12,9.06,28.59,9.98c1.63,0.61-2.43,7.61,1.26,15C33.67,32.63,42.39,32.15,42.39,37.52z"/>
<path class="st2" d="M37.56,41.48c1.14,3.46-0.74,7.19-4.2,8.34c-4.28,1.41-7.93-3.63-8.34-4.2c-4.41-6.24-0.29-15.67,1.09-15.62
	c0.92,0.03,0.04,4.21,3.1,7.29C32.39,40.48,36.67,38.8,37.56,41.48z"/>
<path class="st3" d="M35.09,45.47c0.54,1.64-0.35,3.41-1.99,3.95c-2.03,0.67-3.76-1.72-3.95-1.99c-2.09-2.95-0.14-7.42,0.52-7.4
	c0.43,0.02,0.02,1.99,1.47,3.45C32.64,45,34.67,44.2,35.09,45.47z"/>
<path class="st1" d="M44.98,34.42c0,5.2-4.22,9.42-9.42,9.42c-6.44,0-9.13-8.47-9.42-9.42c-3.19-10.42,6.62-21.37,8.47-20.68
	c1.23,0.46-1.82,5.72,0.95,11.26C38.43,30.74,44.98,30.38,44.98,34.42z"/>
<path class="st2" d="M41.86,36.48c0.9,2.72-0.58,5.65-3.3,6.54c-3.36,1.11-6.23-2.85-6.54-3.3c-3.46-4.9-0.23-12.3,0.86-12.26
	c0.72,0.03,0.03,3.3,2.44,5.72C37.81,35.69,41.17,34.37,41.86,36.48z"/>
<path class="st3" d="M40.28,39.72c0.38,1.16-0.25,2.42-1.41,2.8c-1.44,0.48-2.67-1.22-2.8-1.41c-1.48-2.1-0.1-5.27,0.37-5.26
	c0.31,0.01,0.01,1.41,1.04,2.45C38.54,39.38,39.98,38.82,40.28,39.72z"/>
</svg>
