<?xml version="1.0" encoding="utf-8"?>
<!-- Generator: Adobe Illustrator 23.0.5, SVG Export Plug-In . SVG Version: 6.00 Build 0)  -->
<svg version="1.1" id="Слой_1" xmlns="http://www.w3.org/2000/svg" xmlns:xlink="http://www.w3.org/1999/xlink" x="0px" y="0px"
	 viewBox="0 0 120 120" style="enable-background:new 0 0 120 120;" xml:space="preserve">
<style type="text/css">
	.st0{opacity:0.01;}
	.st1{fill:#FAE796;stroke:#000000;stroke-miterlimit:10;}
	.st2{fill:#4D5B9D;stroke:#000000;stroke-miterlimit:10;}
	.st3{fill:#5B431E;stroke:#000000;stroke-width:0.75;stroke-miterlimit:10;}
	.st4{fill:#E2E2E2;stroke:#000000;stroke-width:0.75;stroke-miterlimit:10;}
	.st5{fill:none;stroke:#7F7E7C;stroke-width:0.75;stroke-miterlimit:10;}
	.st6{fill:#5F4825;stroke:#624B29;stroke-width:0.75;stroke-miterlimit:10;}
	.st7{fill:#DAB786;stroke:#000000;stroke-miterlimit:10;}
	.st8{fill:#36322D;stroke:#000000;stroke-miterlimit:10;}
	.st9{fill:#C0536B;stroke:#000000;stroke-miterlimit:10;}
	.st10{fill:#FFFFFF;}
	.st11{fill:#D65988;}
	.st12{fill:#7E6854;}
	.st13{fill:none;stroke:#000000;stroke-width:2;stroke-miterlimit:10;}
	.st14{fill:none;stroke:#000000;stroke-miterlimit:10;}
	.st15{stroke:#000000;stroke-miterlimit:10;}
	.st16{fill:#FAE796;stroke:#000000;stroke-width:0.25;stroke-miterlimit:10;}
	.st17{fill:#FFFFFF;stroke:#000000;stroke-miterlimit:10;}
	.st18{fill:url(#SVGID_1_);stroke:#000000;stroke-miterlimit:10;}
	.st19{fill:url(#SVGID_2_);stroke:#000000;stroke-miterlimit:10;}
	.st20{fill:#214319;stroke:#000000;stroke-miterlimit:10;}
	.st21{fill:#FBECA5;stroke:#000000;stroke-miterlimit:10;}
</style>
<rect x="0" y="0" class="st0" width="120" height="120"/>
<g>
	<g>
		
			<rect x="38" y="60.09" transform="matrix(-0.9802 0.1982 -0.1982 -0.9802 92.9275 119.077)" class="st1" width="5.02" height="8.2"/>
		<polygon class="st2" points="58.9,66.32 59.01,45.72 47.02,45.65 46.96,56.68 38.02,58.55 40.47,70.29 58.75,66.47 58.72,66.32 		
			"/>
	</g>
	<g>
		
			<rect x="33.03" y="59.72" transform="matrix(-0.9802 0.1982 -0.1982 -0.9802 83.253 121.5807)" class="st1" width="5.02" height="10.47"/>
		<g>
			
				<rect x="29.62" y="58.71" transform="matrix(0.9798 -0.2001 0.2001 0.9798 -11.9292 7.7423)" class="st3" width="5.42" height="8.34"/>
			
				<rect x="24.12" y="55.23" transform="matrix(0.9798 -0.2001 0.2001 0.9798 -10.7861 7.3706)" class="st3" width="13.9" height="3.61"/>
			<polygon class="st4" points="22.26,34.63 25.48,29.75 30.37,32.97 34.75,54.41 26.64,56.06 			"/>
			<line class="st5" x1="26.84" y1="36.57" x2="28.91" y2="46.9"/>
			<line class="st5" x1="29.36" y1="49.2" x2="30.46" y2="54.68"/>
			<line class="st6" x1="30.36" y1="60.21" x2="31.43" y2="65.46"/>
			<line class="st6" x1="31.66" y1="56.14" x2="25.11" y2="57.47"/>
		</g>
		
			<rect x="28.26" y="60.57" transform="matrix(-0.9802 0.1982 -0.1982 -0.9802 73.5816 116.5072)" class="st1" width="5.4" height="2.73"/>
		
			<rect x="27.56" y="63.31" transform="matrix(-0.9802 0.1982 -0.1982 -0.9802 74.6235 121.879)" class="st1" width="7.3" height="2.73"/>
		
			<rect x="28.55" y="65.98" transform="matrix(-0.9802 0.1982 -0.1982 -0.9802 76.2636 127.0661)" class="st1" width="6.45" height="2.73"/>
		
			<rect x="29.88" y="68.53" transform="matrix(-0.9802 0.1982 -0.1982 -0.9802 79.1308 131.8746)" class="st1" width="6.17" height="2.73"/>
		
			<rect x="33.59" y="59.04" transform="matrix(-0.1982 -0.9802 0.9802 -0.1982 -17.8804 107.8301)" class="st1" width="3.15" height="4.38"/>
	</g>
</g>
<rect x="50.82" y="40.99" transform="matrix(-1 -1.224647e-16 1.224647e-16 -1 119.6969 86.1174)" class="st7" width="18.06" height="4.14"/>
<rect x="43.7" y="98.78" class="st8" width="17.26" height="6.86"/>
<rect x="46.2" y="69.96" class="st9" width="14.79" height="28.33"/>
<rect x="47.62" y="82.96" class="st10" width="3.15" height="13.55"/>
<rect x="47.62" y="94.55" class="st11" width="11.33" height="1.96"/>
<rect x="46.74" y="70.64" class="st12" width="10.92" height="1.96"/>
<rect x="57.7" y="105.53" class="st8" width="17.26" height="6.86"/>
<rect x="60.19" y="76.71" class="st9" width="14.79" height="28.33"/>
<rect x="61.62" y="89.71" class="st10" width="3.15" height="13.55"/>
<rect x="61.62" y="101.3" class="st11" width="11.33" height="1.96"/>
<rect x="60.74" y="77.4" class="st12" width="10.92" height="1.96"/>
<ellipse class="st7" cx="59.34" cy="28.87" rx="15.55" ry="15.51"/>
<line class="st13" x1="57.96" y1="35.5" x2="50.3" y2="35.5"/>
<ellipse class="st14" cx="59.33" cy="28.87" rx="15.55" ry="15.51"/>
<rect x="43.19" y="45.13" class="st2" width="15.04" height="35.87"/>
<rect x="58.23" y="45.13" class="st2" width="19.29" height="39.71"/>
<rect x="41.02" y="44.44" class="st15" width="38.17" height="1.37"/>
<rect x="45.14" y="50.62" transform="matrix(-1 -4.492996e-11 4.492996e-11 -1 101.752 102.4222)" class="st16" width="11.48" height="1.19"/>
<rect x="44.97" y="55.62" transform="matrix(-1 -4.485047e-11 4.485047e-11 -1 101.4186 112.4222)" class="st16" width="11.48" height="1.19"/>
<rect x="44.97" y="60.66" transform="matrix(-1 -4.500901e-11 4.500901e-11 -1 101.4186 122.4977)" class="st16" width="11.48" height="1.19"/>
<g>
	<g>
		
			<rect x="54.82" y="23.37" transform="matrix(-1 -4.495261e-11 4.495261e-11 -1 113.0255 52.1848)" class="st17" width="3.38" height="5.45"/>
		
			<rect x="56.51" y="26.09" transform="matrix(-1 -4.468349e-11 4.468349e-11 -1 114.7149 54.6534)" class="st15" width="1.69" height="2.47"/>
	</g>
	<line class="st14" x1="54.59" y1="22.14" x2="59.32" y2="23.16"/>
</g>
<g>
	<g>
		
			<rect x="46.17" y="23.37" transform="matrix(-1 -4.495261e-11 4.495261e-11 -1 95.7128 52.1848)" class="st17" width="3.38" height="5.45"/>
		
			<rect x="47.86" y="26.09" transform="matrix(-1 -4.522217e-11 4.522217e-11 -1 97.4022 54.6534)" class="st15" width="1.69" height="2.47"/>
	</g>
	<line class="st14" x1="45.94" y1="22.14" x2="50.67" y2="23.16"/>
</g>
<g>
	
		<linearGradient id="SVGID_1_" gradientUnits="userSpaceOnUse" x1="70.1518" y1="41.6359" x2="52.0185" y2="14.4747" gradientTransform="matrix(-1 0 0 1 120 0)">
		<stop  offset="0" style="stop-color:#FFFFFF"/>
		<stop  offset="1" style="stop-color:#000000"/>
	</linearGradient>
	<path class="st18" d="M43.52,24.84v6.85c0,6.63,4.84,12.01,10.82,12.01h8.87c5.97,0,10.82-5.38,10.82-12.01v-6.85
		c0-6.63-4.84-12.01-10.82-12.01h-8.87C48.37,12.83,43.52,18.21,43.52,24.84z M44.69,34.3h15.52v1.59H44.69V34.3z M43.63,25.15
		h16.54v1.59H43.63V25.15z"/>
	
		<linearGradient id="SVGID_2_" gradientUnits="userSpaceOnUse" x1="36.665" y1="22.5606" x2="57.3768" y2="22.5606" gradientTransform="matrix(-0.5 -0.866 -0.866 0.5 116.2805 50.543)">
		<stop  offset="0" style="stop-color:#FFFFFF"/>
		<stop  offset="1" style="stop-color:#000000"/>
	</linearGradient>
	<polygon class="st19" points="65.61,13.92 75.02,32.03 80.86,28.29 71.44,10.18 	"/>
</g>
<g>
	<g>
		<g>
			
				<rect x="55.31" y="75.61" transform="matrix(-0.8715 0.4904 -0.4904 -0.8715 145.0847 115.9482)" class="st1" width="4.08" height="2.73"/>
			
				<rect x="53.22" y="73.43" transform="matrix(-0.8715 0.4904 -0.4904 -0.8715 140.8485 112.6876)" class="st1" width="4.89" height="2.73"/>
			
				<rect x="51.29" y="68.47" transform="matrix(-0.8715 0.4904 -0.4904 -0.8715 134.0536 104.5438)" class="st1" width="4.08" height="2.73"/>
			
				<rect x="51.47" y="71.15" transform="matrix(-0.8715 0.4904 -0.4904 -0.8715 136.8654 109.1822)" class="st1" width="5.33" height="2.73"/>
			
				<rect x="53.33" y="66.17" transform="matrix(-0.8715 0.4904 -0.4904 -0.8715 136.325 101.2111)" class="st1" width="3.15" height="4.59"/>
			
				<rect x="54.62" y="66.28" transform="matrix(-0.8715 0.4904 -0.4904 -0.8715 144.0474 105.2915)" class="st1" width="7.23" height="10.47"/>
			
				<rect x="61.17" y="64.62" transform="matrix(-0.8715 0.4904 -0.4904 -0.8715 152.8716 97.3791)" class="st1" width="5.02" height="8.2"/>
		</g>
		<path class="st2" d="M81.81,64.74L76.93,49.6c-0.09-0.49-0.25-0.97-0.45-1.41l-0.99-3.06l-1.37,0.44
			c-0.9-0.54-1.95-0.85-3.07-0.85c-2.46,0-4.58,1.49-5.5,3.62l-1.47,0.47l3.39,10.5l-7.91,4.57l5.99,10.38l16.17-9.34l-0.08-0.13
			L81.81,64.74z"/>
	</g>
	<g>
		<path class="st20" d="M70.32,50.79l7.26,18.46c2.96,7.52-1.02,16.13-8.88,19.22c-7.86,3.09-16.63-0.51-19.59-8.03l-7.26-18.46
			L70.32,50.79z"/>
		<path class="st21" d="M68.62,55.18l5.76,14.67c2.35,5.98-0.81,12.81-7.05,15.27c-6.24,2.45-13.21-0.4-15.56-6.38l-5.76-14.67
			L68.62,55.18z"/>
	</g>
</g>
</svg>
