<?xml version="1.0" encoding="utf-8"?>
<!-- Generator: Adobe Illustrator 23.0.5, SVG Export Plug-In . SVG Version: 6.00 Build 0)  -->
<svg version="1.1" id="Слой_1" xmlns="http://www.w3.org/2000/svg" xmlns:xlink="http://www.w3.org/1999/xlink" x="0px" y="0px"
	 viewBox="0 0 120 120" style="enable-background:new 0 0 120 120;" xml:space="preserve">
<style type="text/css">
	.st0{opacity:0.01;}
	.st1{fill:url(#SVGID_1_);stroke:#000000;stroke-miterlimit:10;}
	.st2{fill:#36322D;stroke:#000000;stroke-miterlimit:10;}
	.st3{fill:#6E6863;stroke:#000000;stroke-miterlimit:10;}
	.st4{fill:#504D4B;}
	.st5{fill:#443523;}
	.st6{fill:#7E6854;}
	.st7{fill:#FBECA5;stroke:#000000;stroke-miterlimit:10;}
	.st8{fill:#56534E;stroke:#000000;stroke-miterlimit:10;}
	.st9{fill:#493517;stroke:#000000;stroke-miterlimit:10;}
	.st10{fill:url(#SVGID_2_);}
	.st11{fill:none;stroke:#000000;stroke-width:2;stroke-miterlimit:10;}
	.st12{fill:none;stroke:#000000;stroke-miterlimit:10;}
	.st13{fill:#FAE796;stroke:#000000;stroke-width:0.25;stroke-miterlimit:10;}
	.st14{fill:#67482F;stroke:#000000;stroke-width:0.25;stroke-miterlimit:10;}
	.st15{stroke:#000000;stroke-miterlimit:10;}
	.st16{clip-path:url(#SVGID_4_);fill:#976C5C;}
	.st17{fill:#493517;stroke:#000000;stroke-width:0.75;stroke-miterlimit:10;}
</style>
<rect y="0" class="st0" width="120" height="120"/>
<linearGradient id="SVGID_1_" gradientUnits="userSpaceOnUse" x1="89.3013" y1="61.0798" x2="107.3584" y2="61.0798" gradientTransform="matrix(-1 0 0 -1 161.0716 104.1385)">
	<stop  offset="0.1061" style="stop-color:#DAB786"/>
	<stop  offset="1" style="stop-color:#000000"/>
</linearGradient>
<polygon class="st1" points="53.71,40.99 71.77,40.99 71.77,45.13 53.71,45.13 "/>
<g>
	<rect x="46.59" y="98.78" class="st2" width="17.26" height="6.86"/>
	<rect x="49.09" y="69.96" class="st3" width="14.79" height="28.33"/>
	<rect x="50.52" y="82.96" class="st4" width="3.15" height="13.55"/>
	<rect x="50.52" y="94.55" class="st5" width="11.33" height="1.96"/>
	<rect x="49.64" y="70.64" class="st6" width="10.92" height="1.96"/>
</g>
<g>
	<rect x="60.59" y="105.53" class="st2" width="17.26" height="6.86"/>
	<rect x="63.09" y="76.71" class="st3" width="14.79" height="28.33"/>
	<rect x="64.51" y="89.71" class="st4" width="3.15" height="13.55"/>
	<rect x="64.51" y="101.3" class="st5" width="11.33" height="1.96"/>
	<rect x="63.63" y="77.4" class="st6" width="10.92" height="1.96"/>
</g>
<g>
	<g>
		
			<rect x="35.93" y="59.72" transform="matrix(-0.9802 0.1982 -0.1982 -0.9802 88.9822 121.0071)" class="st7" width="5.02" height="10.47"/>
		
			<rect x="31.17" y="60.7" transform="matrix(-0.9802 0.1982 -0.1982 -0.9802 78.0603 116.3196)" class="st7" width="4.08" height="2.73"/>
		
			<rect x="30.48" y="63.5" transform="matrix(-0.9802 0.1982 -0.1982 -0.9802 78.4814 121.8829)" class="st7" width="5.33" height="2.73"/>
		
			<rect x="31.45" y="66.14" transform="matrix(-0.9802 0.1982 -0.1982 -0.9802 80.5041 126.952)" class="st7" width="4.89" height="2.73"/>
		
			<rect x="32.79" y="68.74" transform="matrix(-0.9802 0.1982 -0.1982 -0.9802 82.8729 131.9143)" class="st7" width="4.08" height="2.73"/>
		
			<rect x="33.55" y="58.95" transform="matrix(-0.9802 0.1982 -0.1982 -0.9802 81.6948 114.3193)" class="st7" width="3.15" height="4.59"/>
		
			<rect x="40.89" y="60.09" transform="matrix(-0.9802 0.1982 -0.1982 -0.9802 98.6568 118.5034)" class="st8" width="5.02" height="8.2"/>
	</g>
	<polygon class="st9" points="61.79,66.32 61.91,45.72 49.92,45.65 49.85,56.68 40.91,58.55 43.37,70.29 61.64,66.47 61.61,66.32 	
		"/>
</g>
<linearGradient id="SVGID_2_" gradientUnits="userSpaceOnUse" x1="63.0655" y1="30.1722" x2="49.4449" y2="8.9698">
	<stop  offset="0.1061" style="stop-color:#DAB786"/>
	<stop  offset="1" style="stop-color:#000000"/>
</linearGradient>
<ellipse class="st10" cx="62.23" cy="28.87" rx="15.55" ry="15.51"/>
<line class="st11" x1="61.54" y1="38.31" x2="53.89" y2="38.31"/>
<ellipse class="st12" cx="62.23" cy="28.87" rx="15.55" ry="15.51"/>
<g>
	<rect x="46.08" y="45.13" class="st9" width="15.04" height="35.87"/>
	<path class="st13" d="M53.62,51.43v4.06c0,2.24,1.17,4.06,2.61,4.06c1.44,0,2.61-1.82,2.61-4.06v-4.06H53.62z"/>
	<polygon class="st14" points="46.46,51.43 46.46,53.17 48.28,53.17 48.28,57.01 46.46,57.01 46.46,58.75 50.55,58.75 50.55,57.01 
		50.55,53.17 50.55,51.43 	"/>
</g>
<rect x="61.12" y="45.13" class="st9" width="19.29" height="39.71"/>
<rect x="43.92" y="44.44" class="st15" width="38.17" height="1.37"/>
<g>
	<defs>
		
			<ellipse id="SVGID_3_" transform="matrix(0.0724 -0.9974 0.9974 0.0724 28.6754 88.7567)" cx="62.05" cy="28.96" rx="15.51" ry="15.44"/>
	</defs>
	<clipPath id="SVGID_4_">
		<use xlink:href="#SVGID_3_"  style="overflow:visible;"/>
	</clipPath>
	<polygon class="st16" points="80.15,16.16 42.12,21.82 76.66,35.3 	"/>
</g>
<g>
	
		<rect x="40.19" y="19.36" transform="matrix(-0.9104 -0.4137 0.4137 -0.9104 113.8322 71.2399)" class="st17" width="48.88" height="7.88"/>
	<polygon class="st9" points="59.77,7.13 80,16.32 80.42,26.14 52.1,13.28 	"/>
</g>
<g>
	<g>
		
			<rect x="49.46" y="29.97" transform="matrix(-0.198 -0.9802 0.9802 -0.198 30.9794 88.027)" class="st7" width="4.08" height="2.73"/>
		
			<rect x="51.66" y="29.04" transform="matrix(-0.198 -0.9802 0.9802 -0.198 35.0112 89.4547)" class="st7" width="4.89" height="2.73"/>
		
			<rect x="57.5" y="28.35" transform="matrix(-0.198 -0.9802 0.9802 -0.198 42.2019 93.9607)" class="st7" width="4.08" height="2.73"/>
		
			<rect x="54.07" y="28.28" transform="matrix(-0.198 -0.9802 0.9802 -0.198 38.9112 91.1314)" class="st7" width="5.33" height="2.73"/>
		
			<rect x="58.78" y="29.34" transform="matrix(-0.198 -0.9802 0.9802 -0.198 41.3021 97.0596)" class="st7" width="3.15" height="4.59"/>
		
			<rect x="52.81" y="28.62" transform="matrix(-0.198 -0.9802 0.9802 -0.198 34.4153 95.8743)" class="st7" width="7.23" height="10.47"/>
		
			<rect x="54.91" y="35.8" transform="matrix(-0.198 -0.9802 0.9802 -0.198 29.6694 104.084)" class="st8" width="5.02" height="8.2"/>
	</g>
	<path class="st9" d="M55.61,58.38l15.9,0.02c0.5,0.06,1,0.06,1.48,0l3.22,0l0-1.44c0.79-0.69,1.41-1.59,1.76-2.66
		c0.76-2.34-0.01-4.82-1.75-6.35l0-1.54L65.2,46.4l-1.91-8.93l-11.72,2.5l3.9,18.26l0.15-0.03L55.61,58.38z"/>
</g>
</svg>
