<?xml version="1.0" encoding="utf-8"?>
<!-- Generator: Adobe Illustrator 23.0.5, SVG Export Plug-In . SVG Version: 6.00 Build 0)  -->
<svg version="1.1" id="Слой_1" xmlns="http://www.w3.org/2000/svg" xmlns:xlink="http://www.w3.org/1999/xlink" x="0px" y="0px"
	 viewBox="0 0 120 120" style="enable-background:new 0 0 120 120;" xml:space="preserve">
<style type="text/css">
	.st0{opacity:0.01;fill:#FFFFFF;}
	.st1{fill:#979695;stroke:#000000;stroke-miterlimit:10;}
	.st2{fill:#6B6966;stroke:#000000;stroke-miterlimit:10;}
	.st3{fill:#FFF343;stroke:#000000;stroke-miterlimit:10;}
	.st4{fill:#D24A43;stroke:#000000;stroke-miterlimit:10;}
</style>
<rect y="0" class="st0" width="120" height="120"/>
<g>
	<g>
		<path class="st1" d="M35.3,84.71c2.34-1.75,3.07-4.86,1.93-7.46c0.6,0.39,1.14,0.89,1.59,1.49c2.07,2.78,1.54,6.68-1.2,8.73
			c-2.74,2.04-6.64,1.45-8.71-1.32c-0.3-0.4-0.54-0.83-0.73-1.27C30.32,86.29,33.16,86.31,35.3,84.71z"/>
		<path class="st1" d="M52.66,92.07c2.34-1.75,3.07-4.86,1.93-7.46c0.6,0.39,1.14,0.89,1.59,1.49c2.07,2.78,1.54,6.68-1.2,8.73
			c-2.74,2.04-6.64,1.45-8.71-1.32c-0.3-0.4-0.54-0.83-0.73-1.27C47.68,93.65,50.52,93.67,52.66,92.07z"/>
		<path class="st1" d="M73.51,88.5c1.34,2.59,4.29,3.82,7.04,3.12c-0.48,0.52-1.06,0.98-1.73,1.33c-3.08,1.59-6.84,0.43-8.42-2.61
			s-0.35-6.78,2.72-8.38c0.45-0.23,0.91-0.4,1.37-0.51C72.76,83.33,72.28,86.13,73.51,88.5z"/>
	</g>
	<g>
		<path class="st1" d="M34.34,34.64c2.34,1.75,3.07,4.86,1.93,7.46c0.6-0.39,1.14-0.89,1.59-1.49c2.07-2.78,1.54-6.68-1.2-8.73
			c-2.74-2.04-6.64-1.45-8.71,1.32c-0.3,0.4-0.54,0.83-0.73,1.27C29.35,33.06,32.2,33.04,34.34,34.64z"/>
		<path class="st1" d="M51.7,27.28c2.34,1.75,3.07,4.86,1.93,7.46c0.6-0.39,1.14-0.89,1.59-1.49c2.07-2.78,1.54-6.68-1.2-8.73
			c-2.74-2.04-6.64-1.45-8.71,1.32c-0.3,0.4-0.54,0.83-0.73,1.27C46.71,25.7,49.56,25.68,51.7,27.28z"/>
		<path class="st1" d="M72.54,30.85c1.34-2.59,4.29-3.82,7.04-3.12c-0.48-0.52-1.06-0.98-1.73-1.33c-3.08-1.59-6.84-0.43-8.42,2.61
			c-1.57,3.03-0.35,6.78,2.72,8.38c0.45,0.23,0.91,0.4,1.37,0.51C71.8,36.03,71.31,33.22,72.54,30.85z"/>
	</g>
	<ellipse class="st2" cx="56.79" cy="60" rx="30.74" ry="28.96"/>
	<path class="st3" d="M56.09,44.87c9.81,0,18.02,3.98,20.19,9.32c0.81-1.3,1.28-2.69,1.28-4.16c0-6.7-9.3-12.14-20.78-12.14
		s-20.78,5.43-20.78,12.14c0,0.97,0.22,1.91,0.58,2.81C39.5,48.2,47.12,44.87,56.09,44.87z"/>
	<path class="st3" d="M56.09,74.66c9.81,0,18.02-3.98,20.19-9.32c0.81,1.3,1.28,2.69,1.28,4.16c0,6.7-9.3,12.14-20.78,12.14
		S36.01,76.2,36.01,69.5c0-0.97,0.22-1.91,0.58-2.81C39.5,71.33,47.12,74.66,56.09,74.66z"/>
	<rect x="34.92" y="57.36" class="st3" width="43.73" height="5.28"/>
	<g>
		<ellipse class="st2" cx="91.81" cy="60" rx="11.26" ry="10.61"/>
		<rect x="83.98" y="58.02" class="st3" width="15.67" height="3.96"/>
	</g>
	<ellipse class="st4" cx="102.5" cy="57.81" rx="1.12" ry="1.52"/>
	<ellipse class="st4" cx="102.5" cy="61.98" rx="1.12" ry="1.52"/>
</g>
</svg>
