<?xml version="1.0" encoding="utf-8"?>
<!-- Generator: Adobe Illustrator 23.0.5, SVG Export Plug-In . SVG Version: 6.00 Build 0)  -->
<svg version="1.1" id="Слой_1" xmlns="http://www.w3.org/2000/svg" xmlns:xlink="http://www.w3.org/1999/xlink" x="0px" y="0px"
	 viewBox="0 0 32 30" style="enable-background:new 0 0 32 30;" xml:space="preserve">
<style type="text/css">
	.st0{fill:#A38967;stroke:#22431A;stroke-miterlimit:10;}
	.st1{fill:none;stroke:#816B4C;stroke-miterlimit:10;}
	.st2{fill:none;stroke:#000000;stroke-width:0.3;}
</style>
<rect x="5.5" y="0.5" class="st0" width="16" height="10"/>
<rect x="6.5" y="1.5" class="st1" width="14" height="8"/>
<rect x="21.5" y="0.5" class="st0" width="10" height="10"/>
<rect x="22.5" y="1.5" class="st1" width="9" height="8"/>
<g>
	<rect x="0.54" y="0.5" class="st0" width="4.96" height="10"/>
	<rect x="0.54" y="1.5" class="st1" width="3.96" height="8"/>
</g>
<rect x="15.5" y="10.5" class="st0" width="16" height="10"/>
<rect x="16.5" y="11.5" class="st1" width="14" height="8"/>
<rect x="0.54" y="10.5" class="st0" width="14.96" height="10"/>
<rect x="0.54" y="11.5" class="st1" width="13.96" height="8"/>
<rect x="5.5" y="20.5" class="st0" width="16" height="9"/>
<rect x="6.5" y="21.5" class="st1" width="14" height="8"/>
<rect x="21.5" y="20.5" class="st0" width="10" height="9"/>
<rect x="22.5" y="21.5" class="st1" width="9" height="8"/>
<rect x="0.54" y="20.5" class="st0" width="4.96" height="9"/>
<rect x="0.54" y="21.5" class="st1" width="3.96" height="8"/>
<g>
	<line class="st2" x1="-11" y1="-54" x2="-11" y2="-18"/>
	<line class="st2" x1="-65" y1="0" x2="-29" y2="0"/>
	<line class="st2" x1="-65" y1="31" x2="-29" y2="31"/>
	<line class="st2" x1="-11" y1="85" x2="-11" y2="49"/>
	<line class="st2" x1="48" y1="-54" x2="48" y2="-18"/>
	<line class="st2" x1="102" y1="0" x2="66" y2="0"/>
	<line class="st2" x1="102" y1="31" x2="66" y2="31"/>
	<line class="st2" x1="48" y1="85" x2="48" y2="49"/>
</g>
</svg>
