<?xml version="1.0" encoding="utf-8"?>
<!-- Generator: Adobe Illustrator 23.0.5, SVG Export Plug-In . SVG Version: 6.00 Build 0)  -->
<svg version="1.1" id="Слой_1" xmlns="http://www.w3.org/2000/svg" xmlns:xlink="http://www.w3.org/1999/xlink" x="0px" y="0px"
	 viewBox="0 0 120 120" style="enable-background:new 0 0 120 120;" xml:space="preserve">
<style type="text/css">
	.st0{opacity:0.01;fill:#FFFFFF;}
	.st1{fill:#979695;stroke:#000000;stroke-miterlimit:10;}
	.st2{fill:#6B6966;stroke:#000000;stroke-miterlimit:10;}
	.st3{fill:#FFF343;stroke:#000000;stroke-miterlimit:10;}
	.st4{fill:#D24A43;stroke:#000000;stroke-miterlimit:10;}
</style>
<rect y="0" class="st0" width="120" height="120"/>
<g>
	<g>
		<path class="st1" d="M47.72,85.03c2.34-1.75,3.07-4.86,1.93-7.46c0.6,0.39,1.14,0.89,1.59,1.49c2.07,2.78,1.54,6.68-1.2,8.73
			c-2.74,2.04-6.64,1.45-8.71-1.32c-0.3-0.4-0.54-0.83-0.73-1.27C42.73,86.61,45.58,86.63,47.72,85.03z"/>
		<path class="st1" d="M65.08,92.4c2.34-1.75,3.07-4.86,1.93-7.46c0.6,0.39,1.14,0.89,1.59,1.49c2.07,2.78,1.54,6.68-1.2,8.73
			c-2.74,2.04-6.64,1.45-8.71-1.32c-0.3-0.4-0.54-0.83-0.73-1.27C60.09,93.98,62.94,94,65.08,92.4z"/>
		<path class="st1" d="M85.92,88.83c1.34,2.59,4.29,3.82,7.04,3.12c-0.48,0.52-1.06,0.98-1.73,1.33c-3.08,1.59-6.84,0.43-8.42-2.61
			c-1.57-3.03-0.35-6.78,2.72-8.38c0.45-0.23,0.91-0.4,1.37-0.51C85.18,83.65,84.69,86.45,85.92,88.83z"/>
	</g>
	<g>
		<path class="st1" d="M46.75,34.97c2.34,1.75,3.07,4.86,1.93,7.46c0.6-0.39,1.14-0.89,1.59-1.49c2.07-2.78,1.54-6.68-1.2-8.73
			c-2.74-2.04-6.64-1.45-8.71,1.32c-0.3,0.4-0.54,0.83-0.73,1.27C41.76,33.39,44.61,33.37,46.75,34.97z"/>
		<path class="st1" d="M64.11,27.6c2.34,1.75,3.07,4.86,1.93,7.46c0.6-0.39,1.14-0.89,1.59-1.49c2.07-2.78,1.54-6.68-1.2-8.73
			s-6.64-1.45-8.71,1.32c-0.3,0.4-0.54,0.83-0.73,1.27C59.12,26.02,61.97,26,64.11,27.6z"/>
		<path class="st1" d="M84.96,31.17c1.34-2.59,4.29-3.82,7.04-3.12c-0.48-0.52-1.06-0.98-1.73-1.33c-3.08-1.59-6.84-0.43-8.42,2.61
			c-1.57,3.03-0.35,6.78,2.72,8.38c0.45,0.23,0.91,0.4,1.37,0.51C84.21,36.35,83.73,33.55,84.96,31.17z"/>
	</g>
	<ellipse class="st2" cx="69.2" cy="60.32" rx="30.74" ry="28.96"/>
	<path class="st3" d="M68.51,45.2c9.81,0,18.02,3.98,20.19,9.32c0.81-1.3,1.28-2.69,1.28-4.16c0-6.7-9.3-12.14-20.78-12.14
		s-20.78,5.43-20.78,12.14c0,0.97,0.22,1.91,0.58,2.81C51.92,48.52,59.54,45.2,68.51,45.2z"/>
	<path class="st3" d="M68.51,74.99c9.81,0,18.02-3.98,20.19-9.32c0.81,1.3,1.28,2.69,1.28,4.16c0,6.7-9.3,12.14-20.78,12.14
		s-20.78-5.43-20.78-12.14c0-0.97,0.22-1.91,0.58-2.81C51.92,71.66,59.54,74.99,68.51,74.99z"/>
	<rect x="47.34" y="57.68" class="st3" width="43.73" height="5.28"/>
	<g>
		<ellipse class="st2" cx="104.23" cy="60.32" rx="11.26" ry="10.61"/>
		<rect x="96.39" y="58.34" class="st3" width="15.67" height="3.96"/>
	</g>
	<ellipse class="st4" cx="114.92" cy="58.13" rx="1.12" ry="1.52"/>
	<ellipse class="st4" cx="114.92" cy="62.3" rx="1.12" ry="1.52"/>
</g>
</svg>
