<?xml version="1.0" encoding="utf-8"?>
<!-- Generator: Adobe Illustrator 23.0.5, SVG Export Plug-In . SVG Version: 6.00 Build 0)  -->
<svg version="1.1" id="Слой_1" xmlns="http://www.w3.org/2000/svg" xmlns:xlink="http://www.w3.org/1999/xlink" x="0px" y="0px"
	 viewBox="0 0 32 30" style="enable-background:new 0 0 32 30;" xml:space="preserve">
<style type="text/css">
	.st0{opacity:0.01;stroke:#000000;stroke-miterlimit:10;}
	.st1{fill:#DAB786;stroke:#000000;stroke-miterlimit:10;}
	.st2{fill:#4D5A96;stroke:#000000;stroke-miterlimit:10;}
	.st3{fill:#FAE796;stroke:#000000;stroke-width:0.25;stroke-miterlimit:10;}
	.st4{fill:#FAE796;stroke:#FAE796;stroke-width:0.25;stroke-miterlimit:10;}
	.st5{fill:#67482F;stroke:#000000;stroke-width:0.25;stroke-miterlimit:10;}
	.st6{fill:#67482F;stroke:#67482F;stroke-width:0.25;stroke-miterlimit:10;}
	.st7{fill:#AC8054;stroke:#000000;stroke-width:0.25;stroke-miterlimit:10;}
	.st8{fill:#706E6B;stroke:#000000;stroke-width:0.5;stroke-miterlimit:10;}
	.st9{fill:#5B431E;stroke:#000000;stroke-width:0.25;stroke-miterlimit:10;}
	.st10{fill:#E2E2E2;stroke:#000000;stroke-width:0.25;stroke-miterlimit:10;}
	.st11{fill:none;stroke:#7F7E7C;stroke-width:0.25;stroke-miterlimit:10;}
	.st12{fill:#5F4825;stroke:#624B29;stroke-width:0.25;stroke-miterlimit:10;}
	.st13{fill:#214319;stroke:#000000;stroke-width:0.25;stroke-miterlimit:10;}
	.st14{fill:#FBECA5;stroke:#000000;stroke-width:0.25;stroke-miterlimit:10;}
	.st15{fill:#35312B;stroke:#000000;stroke-miterlimit:10;}
	.st16{fill:#B7576B;stroke:#000000;stroke-miterlimit:10;}
</style>
<rect x="0.5" y="0.5" class="st0" width="31" height="29"/>
<circle class="st1" cx="10.75" cy="17.73" r="1.75"/>
<circle class="st1" cx="21.25" cy="17.73" r="1.75"/>
<rect x="9" y="10.5" class="st2" width="3.5" height="7"/>
<rect x="19.5" y="10.5" class="st2" width="3.5" height="7"/>
<circle class="st3" cx="17.5" cy="12.5" r="1"/>
<rect x="16.5" y="11.5" class="st3" width="2" height="1"/>
<path class="st4" d="M16.65,12.5h1.7H16.65z"/>
<g>
	<rect x="14.65" y="12.14" class="st5" width="0.5" height="0.97"/>
	<rect x="14.25" y="11.7" class="st5" width="0.9" height="0.44"/>
	<rect x="14.25" y="13.11" class="st5" width="0.9" height="0.44"/>
	<path class="st6" d="M14.9,12.01v1.23V12.01z"/>
</g>
<circle class="st7" cx="14" cy="11.88" r="0.5"/>
<circle class="st7" cx="14" cy="13.38" r="0.5"/>
<rect x="12.5" y="10" class="st2" width="7" height="9"/>
<g>
	<path class="st8" d="M17.26,2.49H14.9c-1.41,0-2.56,1.15-2.56,2.56v2.16c0,1.41,1.15,2.56,2.56,2.56h2.36
		c1.41,0,2.56-1.15,2.56-2.56V5.05C19.83,3.64,18.68,2.49,17.26,2.49z"/>
	<rect x="13.6" y="2.06" class="st8" width="4.97" height="1.59"/>
</g>
<g>
	
		<rect x="10.97" y="8.93" transform="matrix(0.7071 -0.7071 0.7071 0.7071 -3.6827 11.2146)" class="st9" width="1.46" height="2.24"/>
	
		<rect x="10.95" y="10.72" transform="matrix(0.7071 -0.7071 0.7071 0.7071 -4.1671 12.3448)" class="st9" width="3.74" height="0.97"/>
	<polygon class="st10" points="16.54,16.5 18.11,16.5 18.11,14.93 13.95,10.77 12.38,12.34 	"/>
	<line class="st11" x1="16.78" y1="15.18" x2="14.77" y2="13.19"/>
	<line class="st11" x1="14.32" y1="12.75" x2="13.26" y2="11.69"/>
	<line class="st12" x1="12" y1="10.89" x2="10.98" y2="9.87"/>
	<line class="st12" x1="13.11" y1="11.2" x2="11.84" y2="12.47"/>
</g>
<g>
	<path class="st13" d="M12.74,10.71v4.23c0,1.72,1.46,3.12,3.26,3.12c1.8,0,3.26-1.4,3.26-3.12v-4.23H12.74z"/>
	<path class="st14" d="M13.42,11.45v3.36c0,1.37,1.16,2.48,2.59,2.48c1.43,0,2.59-1.11,2.59-2.48v-3.36H13.42z"/>
</g>
<g>
	<rect x="12.5" y="26" class="st15" width="3.5" height="2"/>
	<rect x="12.5" y="19" class="st16" width="3.5" height="7"/>
</g>
<g>
	<rect x="16" y="24" class="st15" width="3.5" height="2"/>
	<rect x="16" y="19" class="st16" width="3.5" height="5"/>
</g>
</svg>
