<?xml version="1.0" encoding="utf-8"?>
<!-- Generator: Adobe Illustrator 23.0.5, SVG Export Plug-In . SVG Version: 6.00 Build 0)  -->
<svg version="1.1" id="Слой_1" xmlns="http://www.w3.org/2000/svg" xmlns:xlink="http://www.w3.org/1999/xlink" x="0px" y="0px"
	 viewBox="0 0 32 30" style="enable-background:new 0 0 32 30;" xml:space="preserve">
<style type="text/css">
	.st0{opacity:0.01;stroke:#000000;stroke-miterlimit:10;}
	.st1{fill:#DAB786;stroke:#000000;stroke-miterlimit:10;}
	.st2{fill:none;stroke:#000000;stroke-width:0.75;stroke-miterlimit:10;}
	.st3{fill:#493517;stroke:#000000;stroke-miterlimit:10;}
	.st4{fill:#36322D;stroke:#000000;stroke-miterlimit:10;}
	.st5{opacity:0.9;fill:url(#SVGID_1_);}
	.st6{fill:none;stroke:#776855;stroke-miterlimit:10;}
	.st7{fill:#6E6863;stroke:#000000;stroke-miterlimit:10;}
	.st8{fill:none;stroke:#504D4B;stroke-miterlimit:10;}
	.st9{fill:none;stroke:#43341C;stroke-miterlimit:10;}
	.st10{fill:#FAE796;stroke:#000000;stroke-width:0.25;stroke-miterlimit:10;}
	.st11{fill:#FAE796;stroke:#FAE796;stroke-width:0.25;stroke-miterlimit:10;}
	.st12{fill:#67482F;stroke:#000000;stroke-width:0.25;stroke-miterlimit:10;}
	.st13{fill:#67482F;stroke:#67482F;stroke-width:0.25;stroke-miterlimit:10;}
	.st14{fill:#AC8054;stroke:#000000;stroke-width:0.25;stroke-miterlimit:10;}
	.st15{fill:#493517;stroke:#000000;stroke-width:0.75;stroke-miterlimit:10;}
</style>
<rect x="0.5" y="0.5" class="st0" width="31" height="29"/>
<circle class="st1" cx="10.75" cy="17.73" r="1.75"/>
<circle class="st1" cx="21.25" cy="17.73" r="1.75"/>
<line class="st2" x1="8.5" y1="9.5" x2="23.5" y2="9.5"/>
<circle class="st1" cx="16" cy="6.5" r="3.5"/>
<rect x="9" y="10.5" class="st3" width="3.5" height="7"/>
<rect x="19.5" y="10.5" class="st3" width="3.5" height="7"/>
<rect x="12.5" y="26" class="st4" width="3.5" height="2"/>
<rect x="16" y="23.81" class="st4" width="3.5" height="2"/>
<linearGradient id="SVGID_1_" gradientUnits="userSpaceOnUse" x1="16" y1="8.625" x2="16" y2="3.7596">
	<stop  offset="0.2" style="stop-color:#67482F"/>
	<stop  offset="1" style="stop-color:#000000"/>
</linearGradient>
<ellipse class="st5" cx="16" cy="6.19" rx="3" ry="2.43"/>
<line class="st6" x1="13" y1="20" x2="15" y2="20"/>
<polygon class="st3" points="18.5,1.31 13.5,1.31 12.5,3.29 19.5,3.29 "/>
<line class="st6" x1="17" y1="20" x2="19" y2="20"/>
<g>
	<rect x="12.5" y="19" transform="matrix(-1 -4.469548e-11 4.469548e-11 -1 28.5 45)" class="st7" width="3.5" height="7"/>
	<line class="st8" x1="15" y1="21.5" x2="15" y2="25.5"/>
	<line class="st9" x1="15.5" y1="25" x2="13" y2="25"/>
</g>
<g>
	<rect x="16" y="19" transform="matrix(-1 -2.962354e-11 2.962354e-11 -1 35.5 42.625)" class="st7" width="3.5" height="4.63"/>
	<line class="st8" x1="18.5" y1="21.97" x2="18.5" y2="23.29"/>
	<line class="st9" x1="19" y1="22.96" x2="16.5" y2="22.96"/>
</g>
<circle class="st10" cx="17.5" cy="12.5" r="1"/>
<rect x="16.5" y="11.5" class="st10" width="2" height="1"/>
<path class="st11" d="M16.65,12.5h1.7H16.65z"/>
<g>
	<rect x="14.65" y="12.14" class="st12" width="0.5" height="0.97"/>
	<rect x="14.25" y="11.7" class="st12" width="0.9" height="0.44"/>
	<rect x="14.25" y="13.11" class="st12" width="0.9" height="0.44"/>
	<path class="st13" d="M14.9,12.01v1.23V12.01z"/>
</g>
<circle class="st14" cx="14" cy="11.88" r="0.5"/>
<circle class="st14" cx="14" cy="13.38" r="0.5"/>
<rect x="12.5" y="10" class="st3" width="7" height="9"/>
<rect x="10.5" y="3.29" class="st15" width="11" height="1.78"/>
</svg>
