<?xml version="1.0" encoding="utf-8"?>
<!-- Generator: Adobe Illustrator 23.0.5, SVG Export Plug-In . SVG Version: 6.00 Build 0)  -->
<svg version="1.1" id="Слой_1" xmlns="http://www.w3.org/2000/svg" xmlns:xlink="http://www.w3.org/1999/xlink" x="0px" y="0px"
	 viewBox="0 0 120 120" style="enable-background:new 0 0 120 120;" xml:space="preserve">
<style type="text/css">
	.st0{opacity:0.01;}
	.st1{fill:#FAE796;stroke:#000000;stroke-miterlimit:10;}
	.st2{fill:#4D5B9D;stroke:#000000;stroke-miterlimit:10;}
	.st3{fill:#5B431E;stroke:#000000;stroke-width:0.75;stroke-miterlimit:10;}
	.st4{fill:#E2E2E2;stroke:#000000;stroke-width:0.75;stroke-miterlimit:10;}
	.st5{fill:none;stroke:#7F7E7C;stroke-width:0.75;stroke-miterlimit:10;}
	.st6{fill:#5F4825;stroke:#624B29;stroke-width:0.75;stroke-miterlimit:10;}
	.st7{fill:#DAB786;stroke:#000000;stroke-miterlimit:10;}
	.st8{fill:#36322D;stroke:#000000;stroke-miterlimit:10;}
	.st9{fill:#C0536B;stroke:#000000;stroke-miterlimit:10;}
	.st10{fill:#FFFFFF;}
	.st11{fill:#D65988;}
	.st12{fill:#7E6854;}
	.st13{fill:none;stroke:#000000;stroke-width:2;stroke-miterlimit:10;}
	.st14{fill:none;stroke:#000000;stroke-miterlimit:10;}
	.st15{stroke:#000000;stroke-miterlimit:10;}
	.st16{fill:#FAE796;stroke:#000000;stroke-width:0.25;stroke-miterlimit:10;}
	.st17{fill:#FFFFFF;stroke:#000000;stroke-miterlimit:10;}
	.st18{fill:url(#SVGID_1_);stroke:#000000;stroke-miterlimit:10;}
	.st19{fill:url(#SVGID_2_);stroke:#000000;stroke-miterlimit:10;}
	.st20{fill:#214319;stroke:#000000;stroke-miterlimit:10;}
	.st21{fill:#FBECA5;stroke:#000000;stroke-miterlimit:10;}
</style>
<rect x="0" y="0" class="st0" width="120" height="120"/>
<g>
	<g>
		
			<rect x="27.08" y="40.57" transform="matrix(-0.3946 -0.9188 0.9188 -0.3946 0.2156 89.4753)" class="st1" width="5.02" height="8.2"/>
		<polygon class="st2" points="31.26,63.11 51.45,59 49.06,47.26 38.25,49.45 34.59,41.08 23.61,45.89 31.09,62.99 31.22,62.93 		
			"/>
	</g>
	<g>
		
			<rect x="25.31" y="34.73" transform="matrix(-0.3946 -0.9188 0.9188 -0.3946 2.0704 81.2964)" class="st1" width="5.02" height="10.47"/>
		<g>
			
				<rect x="25.03" y="33.69" transform="matrix(0.9181 -0.3964 0.3964 0.9181 -12.037 14.5544)" class="st3" width="8.34" height="5.42"/>
			
				<rect x="32.85" y="27.02" transform="matrix(0.9181 -0.3964 0.3964 0.9181 -10.6244 16.5181)" class="st3" width="3.61" height="13.9"/>
			<polygon class="st4" points="54.78,20.76 60.22,22.92 58.07,28.36 37.98,37.03 34.7,29.43 			"/>
			<line class="st5" x1="53.83" y1="25.64" x2="44.13" y2="29.78"/>
			<line class="st5" x1="41.98" y1="30.7" x2="36.83" y2="32.89"/>
			<line class="st6" x1="31.4" y1="33.92" x2="26.48" y2="36.05"/>
			<line class="st6" x1="35.66" y1="34.36" x2="33.01" y2="28.22"/>
		</g>
		
			<rect x="27.14" y="33.5" transform="matrix(-0.3946 -0.9188 0.9188 -0.3946 9.5754 76.0351)" class="st1" width="5.4" height="2.73"/>
		
			<rect x="23.56" y="34.3" transform="matrix(-0.3946 -0.9188 0.9188 -0.3946 5.1681 74.7455)" class="st1" width="7.3" height="2.73"/>
		
			<rect x="21.48" y="35.4" transform="matrix(-0.3946 -0.9188 0.9188 -0.3946 0.6683 73.973)" class="st1" width="6.45" height="2.73"/>
		
			<rect x="19.37" y="37.09" transform="matrix(-0.3946 -0.9188 0.9188 -0.3946 -4.0212 74.2615)" class="st1" width="6.17" height="2.73"/>
		
			<rect x="29.81" y="36.64" transform="matrix(0.9188 -0.3946 0.3946 0.9188 -12.7766 15.5383)" class="st1" width="3.15" height="4.38"/>
	</g>
</g>
<rect x="50.82" y="40.99" transform="matrix(-1 -1.224647e-16 1.224647e-16 -1 119.6969 86.1174)" class="st7" width="18.06" height="4.14"/>
<rect x="43.7" y="98.78" class="st8" width="17.26" height="6.86"/>
<rect x="46.2" y="69.96" class="st9" width="14.79" height="28.33"/>
<rect x="47.62" y="82.96" class="st10" width="3.15" height="13.55"/>
<rect x="47.62" y="94.55" class="st11" width="11.33" height="1.96"/>
<rect x="46.74" y="70.64" class="st12" width="10.92" height="1.96"/>
<rect x="57.7" y="105.53" class="st8" width="17.26" height="6.86"/>
<rect x="60.19" y="76.71" class="st9" width="14.79" height="28.33"/>
<rect x="61.62" y="89.71" class="st10" width="3.15" height="13.55"/>
<rect x="61.62" y="101.3" class="st11" width="11.33" height="1.96"/>
<rect x="60.74" y="77.4" class="st12" width="10.92" height="1.96"/>
<ellipse class="st7" cx="59.34" cy="28.87" rx="15.55" ry="15.51"/>
<line class="st13" x1="57.96" y1="35.5" x2="50.3" y2="35.5"/>
<ellipse class="st14" cx="59.33" cy="28.87" rx="15.55" ry="15.51"/>
<rect x="43.19" y="45.13" class="st2" width="15.04" height="35.87"/>
<rect x="58.23" y="45.13" class="st2" width="19.29" height="39.71"/>
<rect x="41.02" y="44.44" class="st15" width="38.17" height="1.37"/>
<rect x="45.14" y="50.62" transform="matrix(-1 -4.492996e-11 4.492996e-11 -1 101.752 102.4222)" class="st16" width="11.48" height="1.19"/>
<rect x="44.97" y="55.62" transform="matrix(-1 -4.485047e-11 4.485047e-11 -1 101.4186 112.4222)" class="st16" width="11.48" height="1.19"/>
<rect x="44.97" y="60.66" transform="matrix(-1 -4.500901e-11 4.500901e-11 -1 101.4186 122.4977)" class="st16" width="11.48" height="1.19"/>
<g>
	<g>
		
			<rect x="54.82" y="23.37" transform="matrix(-1 -4.495261e-11 4.495261e-11 -1 113.0255 52.1848)" class="st17" width="3.38" height="5.45"/>
		
			<rect x="56.51" y="26.09" transform="matrix(-1 -4.468349e-11 4.468349e-11 -1 114.7149 54.6534)" class="st15" width="1.69" height="2.47"/>
	</g>
	<line class="st14" x1="54.59" y1="22.14" x2="59.32" y2="23.16"/>
</g>
<g>
	<g>
		
			<rect x="46.17" y="23.37" transform="matrix(-1 -4.495261e-11 4.495261e-11 -1 95.7128 52.1848)" class="st17" width="3.38" height="5.45"/>
		
			<rect x="47.86" y="26.09" transform="matrix(-1 -4.522217e-11 4.522217e-11 -1 97.4022 54.6534)" class="st15" width="1.69" height="2.47"/>
	</g>
	<line class="st14" x1="45.94" y1="22.14" x2="50.67" y2="23.16"/>
</g>
<g>
	
		<linearGradient id="SVGID_1_" gradientUnits="userSpaceOnUse" x1="70.1518" y1="41.6359" x2="52.0185" y2="14.4747" gradientTransform="matrix(-1 0 0 1 120 0)">
		<stop  offset="0" style="stop-color:#FFFFFF"/>
		<stop  offset="1" style="stop-color:#000000"/>
	</linearGradient>
	<path class="st18" d="M43.52,24.84v6.85c0,6.63,4.84,12.01,10.82,12.01h8.87c5.97,0,10.82-5.38,10.82-12.01v-6.85
		c0-6.63-4.84-12.01-10.82-12.01h-8.87C48.37,12.83,43.52,18.21,43.52,24.84z M44.69,34.3h15.52v1.59H44.69V34.3z M43.63,25.15
		h16.54v1.59H43.63V25.15z"/>
	
		<linearGradient id="SVGID_2_" gradientUnits="userSpaceOnUse" x1="36.665" y1="22.5606" x2="57.3768" y2="22.5606" gradientTransform="matrix(-0.5 -0.866 -0.866 0.5 116.2805 50.543)">
		<stop  offset="0" style="stop-color:#FFFFFF"/>
		<stop  offset="1" style="stop-color:#000000"/>
	</linearGradient>
	<polygon class="st19" points="65.61,13.92 75.02,32.03 80.86,28.29 71.44,10.18 	"/>
</g>
<g>
	<g>
		<g>
			
				<rect x="81.12" y="77.76" transform="matrix(-0.1645 0.9864 -0.9864 -0.1645 174.8974 10.1159)" class="st1" width="4.08" height="2.73"/>
			
				<rect x="77.96" y="77.71" transform="matrix(-0.1645 0.9864 -0.9864 -0.1645 171.6279 12.7789)" class="st1" width="4.89" height="2.73"/>
			
				<rect x="73.03" y="76.41" transform="matrix(-0.1645 0.9864 -0.9864 -0.1645 164.1463 16.5235)" class="st1" width="4.08" height="2.73"/>
			
				<rect x="75.01" y="77.48" transform="matrix(-0.1645 0.9864 -0.9864 -0.1645 168.2161 15.2033)" class="st1" width="5.33" height="2.73"/>
			
				<rect x="73.42" y="73.4" transform="matrix(-0.1645 0.9864 -0.9864 -0.1645 161.9981 14.1769)" class="st1" width="3.15" height="4.59"/>
			
				<rect x="75.84" y="69.78" transform="matrix(-0.1645 0.9864 -0.9864 -0.1645 166.5275 8.9853)" class="st1" width="7.23" height="10.47"/>
			
				<rect x="78.19" y="64.92" transform="matrix(-0.1645 0.9864 -0.9864 -0.1645 162.0477 0.7793)" class="st1" width="5.02" height="8.2"/>
		</g>
		<path class="st2" d="M88.96,52.4l-14.85-5.69c-0.44-0.24-0.91-0.41-1.38-0.53l-3-1.15l-0.52,1.35c-0.98,0.36-1.88,0.98-2.59,1.86
			c-1.55,1.92-1.71,4.5-0.63,6.55l-0.55,1.44l10.3,3.95l-1.4,9.02l11.85,1.84l2.87-18.45l-0.15-0.02L88.96,52.4z"/>
	</g>
	<g>
		<path class="st20" d="M70.89,52.6l18.93,5.93c7.72,2.41,11.93,10.91,9.4,18.97c-2.52,8.06-10.82,12.64-18.54,10.22l-18.93-5.93
			L70.89,52.6z"/>
		<path class="st21" d="M73.25,56.68l15.04,4.71c6.13,1.92,9.47,8.66,7.47,15.07c-2,6.4-8.6,10.04-14.73,8.12l-15.04-4.71
			L73.25,56.68z"/>
	</g>
</g>
</svg>
