<?xml version="1.0" encoding="utf-8"?>
<!-- Generator: Adobe Illustrator 23.0.5, SVG Export Plug-In . SVG Version: 6.00 Build 0)  -->
<svg version="1.1" id="Слой_1" xmlns="http://www.w3.org/2000/svg" xmlns:xlink="http://www.w3.org/1999/xlink" x="0px" y="0px"
	 viewBox="0 0 1280 720" style="enable-background:new 0 0 1280 720;" xml:space="preserve">
<style type="text/css">
	.st0{fill:url(#SVGID_1_);}
	.st1{fill:#B49E73;}
	.st2{fill:url(#SVGID_2_);}
	.st3{fill:#FFF343;stroke:url(#SVGID_3_);stroke-width:6;stroke-miterlimit:10;}
	.st4{fill:#CDA561;stroke:#000000;stroke-width:3;stroke-miterlimit:10;}
	.st5{fill:none;stroke:#000000;stroke-width:3;stroke-miterlimit:10;}
	.st6{fill:#A5864D;}
	.st7{fill:#A18D66;}
	.st8{fill:#3C5F42;stroke:#000000;stroke-width:4;stroke-miterlimit:10;}
	.st9{fill:#493517;stroke:#000000;stroke-width:0.75;stroke-miterlimit:10;}
	.st10{fill:#493517;stroke:#000000;stroke-miterlimit:10;}
	.st11{opacity:0.25;fill:#FFF343;stroke:url(#SVGID_4_);stroke-width:6;stroke-miterlimit:10;}
	.st12{opacity:0.25;fill:#FFF343;stroke:url(#SVGID_5_);stroke-width:6;stroke-miterlimit:10;}
	.st13{opacity:0.25;fill:#FFF343;stroke:url(#SVGID_6_);stroke-width:6;stroke-miterlimit:10;}
	.st14{opacity:0.25;fill:#FFF343;stroke:url(#SVGID_7_);stroke-width:6;stroke-miterlimit:10;}
	.st15{opacity:0.25;fill:#FFF343;stroke:url(#SVGID_8_);stroke-width:6;stroke-miterlimit:10;}
	.st16{opacity:0.25;fill:#FFF343;stroke:url(#SVGID_9_);stroke-width:6;stroke-miterlimit:10;}
	.st17{opacity:0.75;fill:#FFF343;stroke:url(#SVGID_10_);stroke-width:6;stroke-miterlimit:10;}
	.st18{opacity:0.25;fill:#FFF343;stroke:url(#SVGID_11_);stroke-width:6;stroke-miterlimit:10;}
	.st19{opacity:0.75;fill:#FFF343;stroke:url(#SVGID_12_);stroke-width:6;stroke-miterlimit:10;}
	.st20{opacity:0.3;}
	.st21{fill:#C9C8C8;stroke:#EFEFEF;stroke-width:5;stroke-miterlimit:10;}
	.st22{opacity:0.3;fill:#C9C8C8;stroke:#EFEFEF;stroke-width:5;stroke-miterlimit:10;}
	.st23{opacity:0.25;fill:#FFF343;stroke:url(#SVGID_13_);stroke-width:6;stroke-miterlimit:10;}
</style>
<linearGradient id="SVGID_1_" gradientUnits="userSpaceOnUse" x1="140" y1="-140" x2="1140" y2="860">
	<stop  offset="0" style="stop-color:#FFFFFF"/>
	<stop  offset="0.6425" style="stop-color:#7DC5E5"/>
</linearGradient>
<rect class="st0" width="1280" height="720"/>
<g>
	<rect y="336.69" class="st1" width="1280" height="383.31"/>
	<linearGradient id="SVGID_2_" gradientUnits="userSpaceOnUse" x1="639.9996" y1="336.6929" x2="639.9996" y2="285">
		<stop  offset="0" style="stop-color:#B49E73"/>
		<stop  offset="1" style="stop-color:#665838"/>
	</linearGradient>
	<rect y="285" class="st2" width="1280" height="51.69"/>
</g>
<linearGradient id="SVGID_3_" gradientUnits="userSpaceOnUse" x1="103.9201" y1="103.4985" x2="0.2108" y2="-0.2108">
	<stop  offset="0.4078" style="stop-color:#FFFFFF"/>
	<stop  offset="1" style="stop-color:#FFF343"/>
</linearGradient>
<path class="st3" d="M127,38c0-12.41-2.43-24.24-6.82-35H3v116.47c11.23,5.47,23.77,8.53,37,8.53C88.05,128,127,87.71,127,38z"/>
<g>
	<g>
		<polygon class="st4" points="1230.3,328.17 1230.3,369.2 1177.62,369.2 1145.51,338.73 1145.51,297.57 1198.31,297.57 
			1230.3,328.03 		"/>
		<polyline class="st5" points="1230.3,328.17 1177.48,327.87 1145.29,297.34 1177.48,327.87 1177.7,369.36 		"/>
		<rect x="1206.95" y="330.13" class="st6" width="21.61" height="1.61"/>
		
			<rect x="1155.47" y="320.71" transform="matrix(0.7385 0.6742 -0.6742 0.7385 521.7323 -702.2697)" class="st6" width="21.61" height="1.61"/>
		<rect x="1175.18" y="299.13" class="st6" width="21.61" height="1.61"/>
	</g>
	<g>
		<polygon class="st4" points="1175.18,328.2 1175.18,369.23 1122.51,369.23 1090.4,338.77 1090.4,297.6 1143.19,297.6 
			1175.18,328.07 		"/>
		<polyline class="st5" points="1175.18,328.2 1122.36,327.91 1090.17,297.37 1122.36,327.91 1122.59,369.39 		"/>
		<rect x="1151.83" y="330.17" class="st6" width="21.61" height="1.61"/>
		
			<rect x="1100.36" y="320.75" transform="matrix(0.7385 0.6742 -0.6742 0.7385 507.3448 -665.1012)" class="st6" width="21.61" height="1.61"/>
		<rect x="1120.07" y="299.16" class="st6" width="21.61" height="1.61"/>
	</g>
	<g>
		<polygon class="st4" points="1200.57,285.13 1200.57,326.16 1147.89,326.16 1115.79,295.7 1115.79,254.53 1168.58,254.53 
			1200.57,285 		"/>
		<polyline class="st5" points="1200.57,285.13 1147.75,284.84 1115.56,254.3 1147.75,284.84 1147.98,326.32 		"/>
		<rect x="1177.22" y="287.1" class="st6" width="21.61" height="1.61"/>
		
			<rect x="1125.75" y="277.68" transform="matrix(0.7385 0.6742 -0.6742 0.7385 484.9441 -693.481)" class="st6" width="21.61" height="1.61"/>
		<rect x="1145.46" y="256.09" class="st6" width="21.61" height="1.61"/>
	</g>
</g>
<g>
	<g>
		<polygon class="st4" points="1103.02,328.17 1103.02,369.2 1050.34,369.2 1018.24,338.73 1018.24,297.57 1071.03,297.57 
			1103.02,328.03 		"/>
		<polyline class="st5" points="1103.02,328.17 1050.2,327.87 1018.01,297.34 1050.2,327.87 1050.43,369.36 		"/>
		<rect x="1079.67" y="330.13" class="st6" width="21.61" height="1.61"/>
		
			<rect x="1028.2" y="320.71" transform="matrix(0.7385 0.6742 -0.6742 0.7385 488.4523 -616.4559)" class="st6" width="21.61" height="1.61"/>
		<rect x="1047.91" y="299.13" class="st6" width="21.61" height="1.61"/>
	</g>
	<g>
		<polygon class="st4" points="1047.9,328.2 1047.9,369.23 995.23,369.23 963.12,338.77 963.12,297.6 1015.92,297.6 1047.91,328.07 
					"/>
		<polyline class="st5" points="1047.9,328.2 995.09,327.91 962.9,297.37 995.09,327.91 995.31,369.39 		"/>
		<rect x="1024.56" y="330.17" class="st6" width="21.61" height="1.61"/>
		
			<rect x="973.08" y="320.75" transform="matrix(0.7385 0.6742 -0.6742 0.7385 474.0648 -579.2875)" class="st6" width="21.61" height="1.61"/>
		<rect x="992.79" y="299.16" class="st6" width="21.61" height="1.61"/>
	</g>
	<g>
		<polygon class="st4" points="1073.29,285.13 1073.29,326.16 1020.62,326.16 988.51,295.7 988.51,254.53 1041.3,254.53 1073.3,285 
					"/>
		<polyline class="st5" points="1073.29,285.13 1020.48,284.84 988.29,254.3 1020.48,284.84 1020.7,326.32 		"/>
		<rect x="1049.94" y="287.1" class="st6" width="21.61" height="1.61"/>
		
			<rect x="998.47" y="277.68" transform="matrix(0.7385 0.6742 -0.6742 0.7385 451.6641 -607.6672)" class="st6" width="21.61" height="1.61"/>
		<rect x="1018.18" y="256.09" class="st6" width="21.61" height="1.61"/>
	</g>
</g>
<g>
	<g>
		<polygon class="st4" points="1198.21,385.52 1198.21,426.55 1145.54,426.55 1113.43,396.08 1113.43,354.92 1166.22,354.92 
			1198.21,385.38 		"/>
		<polyline class="st5" points="1198.21,385.52 1145.39,385.22 1113.2,354.69 1145.39,385.22 1145.62,426.71 		"/>
		<rect x="1174.86" y="387.48" class="st6" width="21.61" height="1.61"/>
		
			<rect x="1123.39" y="378.07" transform="matrix(0.7385 0.6742 -0.6742 0.7385 552.0114 -665.642)" class="st6" width="21.61" height="1.61"/>
		<rect x="1143.1" y="356.48" class="st6" width="21.61" height="1.61"/>
	</g>
	<g>
		<polygon class="st4" points="1143.1,385.55 1143.1,426.58 1090.42,426.58 1058.32,396.12 1058.32,354.95 1111.11,354.95 
			1143.1,385.42 		"/>
		<polyline class="st5" points="1143.1,385.55 1090.28,385.26 1058.09,354.72 1090.28,385.26 1090.51,426.74 		"/>
		<rect x="1119.75" y="387.52" class="st6" width="21.61" height="1.61"/>
		
			<rect x="1068.28" y="378.1" transform="matrix(0.7385 0.6742 -0.6742 0.7385 537.6238 -628.4736)" class="st6" width="21.61" height="1.61"/>
		<rect x="1087.99" y="356.51" class="st6" width="21.61" height="1.61"/>
	</g>
	<g>
		<polygon class="st4" points="1168.49,342.48 1168.49,383.51 1115.81,383.51 1083.71,353.05 1083.71,311.88 1136.5,311.88 
			1168.49,342.35 		"/>
		<polyline class="st5" points="1168.49,342.48 1115.67,342.19 1083.48,311.65 1115.67,342.19 1115.9,383.67 		"/>
		<rect x="1145.14" y="344.45" class="st6" width="21.61" height="1.61"/>
		
			<rect x="1093.67" y="335.03" transform="matrix(0.7385 0.6742 -0.6742 0.7385 515.2231 -656.8533)" class="st6" width="21.61" height="1.61"/>
		<rect x="1113.37" y="313.44" class="st6" width="21.61" height="1.61"/>
	</g>
</g>
<path class="st7" d="M666.67,361.73h-41.86c-4.21,0-4.22,6.54,0,6.54h41.86C670.88,368.27,670.89,361.73,666.67,361.73z"/>
<path class="st7" d="M552.91,408.29h-44.39c-4.46,0-4.47,6.94,0,6.94h44.39C557.37,415.23,557.38,408.29,552.91,408.29z"/>
<path class="st7" d="M425.84,374.09h-41.86c-4.21,0-4.22,6.54,0,6.54h41.86C430.05,380.63,430.06,374.09,425.84,374.09z"/>
<path class="st7" d="M285.19,365h-41.86c-4.21,0-4.22,6.54,0,6.54h41.86C289.4,371.54,289.4,365,285.19,365z"/>
<path class="st7" d="M338.9,457.11h-54.28c-5.46,0-5.47,8.48,0,8.48h54.28C344.36,465.59,344.36,457.11,338.9,457.11z"/>
<path class="st7" d="M600.38,457.11H546.1c-5.46,0-5.47,8.48,0,8.48h54.28C605.84,465.59,605.85,457.11,600.38,457.11z"/>
<path class="st7" d="M195.55,420.93h-54.28c-5.46,0-5.47,8.48,0,8.48h54.28C201.01,429.41,201.02,420.93,195.55,420.93z"/>
<path class="st7" d="M263,508h-64c-6.43,0-6.45,10,0,10h64C269.43,518,269.45,508,263,508z"/>
<path class="st7" d="M497.83,513h-64c-6.43,0-6.45,10,0,10h64C504.26,523,504.28,513,497.83,513z"/>
<path class="st7" d="M740.14,415.35h-44.39c-4.46,0-4.47,6.94,0,6.94h44.39C744.6,422.28,744.61,415.35,740.14,415.35z"/>
<path class="st7" d="M815.73,489.52h-54.28c-5.46,0-5.47,8.48,0,8.48h54.28C821.19,498,821.2,489.52,815.73,489.52z"/>
<path class="st7" d="M867.57,415.35h-44.39c-4.46,0-4.47,6.94,0,6.94h44.39C872.03,422.28,872.04,415.35,867.57,415.35z"/>
<path class="st7" d="M738.66,553h-64c-6.43,0-6.45,10,0,10h64C745.09,563,745.1,553,738.66,553z"/>
<path class="st7" d="M345.83,614h-64c-6.43,0-6.45,10,0,10h64C352.26,624,352.28,614,345.83,614z"/>
<path class="st7" d="M111,498H47c-6.43,0-6.45,10,0,10h64C117.43,508,117.45,498,111,498z"/>
<path class="st7" d="M159,595H95c-6.43,0-6.45,10,0,10h64C165.43,605,165.45,595,159,595z"/>
<path class="st7" d="M591.34,600h-64c-6.43,0-6.45,10,0,10h64C597.77,610,597.79,600,591.34,600z"/>
<path class="st7" d="M962.32,548h-64c-6.43,0-6.45,10,0,10h64C968.75,558,968.76,548,962.32,548z"/>
<path class="st7" d="M1071,619h-64c-6.43,0-6.45,10,0,10h64C1077.44,629,1077.45,619,1071,619z"/>
<path class="st7" d="M1085.23,508.76h-54.28c-5.46,0-5.47,8.48,0,8.48h54.28C1090.69,517.24,1090.7,508.76,1085.23,508.76z"/>
<path class="st7" d="M831,634h-64c-6.43,0-6.45,10,0,10h64C837.43,644,837.45,634,831,634z"/>
<g>
	<path class="st8" d="M262.78,323.6c-4.82,0-8.73,3.86-8.73,8.62V365h17.46v-32.78C271.51,327.46,267.6,323.6,262.78,323.6z"/>
	<circle cx="259.16" cy="333.81" r="0.64"/>
	<circle cx="262.65" cy="328.97" r="0.64"/>
	<circle cx="267.46" cy="331.5" r="0.64"/>
	<circle cx="265.81" cy="335.76" r="0.64"/>
	<circle cx="260.94" cy="339.45" r="0.64"/>
	<circle cx="263.42" cy="332.78" r="0.64"/>
	<circle cx="256.77" cy="337.17" r="0.64"/>
	<circle cx="258.52" cy="330.51" r="0.64"/>
	<circle cx="268.1" cy="338.92" r="0.64"/>
	<circle cx="265.36" cy="343.23" r="0.64"/>
	<circle cx="259.16" cy="343.23" r="0.64"/>
	<circle cx="268.74" cy="344.51" r="0.64"/>
	<circle cx="261.69" cy="346.8" r="0.64"/>
	<circle cx="266.11" cy="347.44" r="0.64"/>
	<circle cx="257.41" cy="348.79" r="0.64"/>
	<circle cx="268.1" cy="349.91" r="0.64"/>
	<circle cx="261.05" cy="350.71" r="0.64"/>
</g>
<g>
	<path class="st8" d="M533.06,356.48c-6.11,0-11.07,4.9-11.07,10.93v41.58h22.14v-41.58C544.13,361.37,539.17,356.48,533.06,356.48z
		"/>
	<circle cx="528.47" cy="369.44" r="0.81"/>
	<circle cx="532.89" cy="363.3" r="0.81"/>
	<circle cx="539" cy="366.5" r="0.81"/>
	<circle cx="536.9" cy="371.9" r="0.81"/>
	<circle cx="530.73" cy="376.59" r="0.81"/>
	<circle cx="533.87" cy="368.12" r="0.81"/>
	<circle cx="525.43" cy="373.69" r="0.81"/>
	<circle cx="527.66" cy="365.25" r="0.81"/>
	<circle cx="539.81" cy="375.92" r="0.81"/>
	<circle cx="536.33" cy="381.38" r="0.81"/>
	<circle cx="528.47" cy="381.38" r="0.81"/>
	<circle cx="540.62" cy="383" r="0.81"/>
	<circle cx="531.67" cy="385.91" r="0.81"/>
	<circle cx="537.28" cy="386.72" r="0.81"/>
	<circle cx="526.24" cy="388.44" r="0.81"/>
	<circle cx="539.81" cy="389.85" r="0.81"/>
	<circle cx="530.86" cy="390.87" r="0.81"/>
</g>
<g>
	<path class="st8" d="M128.08,430.18c-14.93,0-27.04,15.22-27.04,34v129.27h54.07V464.18C155.11,445.41,143.01,430.18,128.08,430.18
		z"/>
	<ellipse cx="116.87" cy="470.48" rx="1.98" ry="2.52"/>
	<ellipse cx="127.67" cy="451.38" rx="1.98" ry="2.52"/>
	<ellipse cx="142.59" cy="461.35" rx="1.98" ry="2.52"/>
	<ellipse cx="137.48" cy="478.14" rx="1.98" ry="2.52"/>
	<ellipse cx="122.39" cy="492.72" rx="1.98" ry="2.52"/>
	<ellipse cx="130.06" cy="466.39" rx="1.98" ry="2.52"/>
	<ellipse cx="109.45" cy="483.7" rx="1.98" ry="2.52"/>
	<ellipse cx="114.89" cy="457.47" rx="1.98" ry="2.52"/>
	<ellipse cx="144.56" cy="490.62" rx="1.98" ry="2.52"/>
	<ellipse cx="136.07" cy="507.62" rx="1.98" ry="2.52"/>
	<ellipse cx="116.87" cy="507.62" rx="1.98" ry="2.52"/>
	<ellipse cx="146.54" cy="512.66" rx="1.98" ry="2.52"/>
	<ellipse cx="124.7" cy="521.68" rx="1.98" ry="2.52"/>
	<ellipse cx="138.38" cy="524.2" rx="1.98" ry="2.52"/>
	<ellipse cx="111.43" cy="529.55" rx="1.98" ry="2.52"/>
	<ellipse cx="144.56" cy="533.96" rx="1.98" ry="2.52"/>
	<path d="M124.7,537.11c0,1.39-0.89,2.52-1.98,2.52c-1.09,0-1.98-1.13-1.98-2.52s0.89-2.52,1.98-2.52
		C123.81,534.59,124.7,535.72,124.7,537.11z"/>
</g>
<rect x="57.07" y="516.3" class="st8" width="43.97" height="20.77"/>
<g>
	<path class="st8" d="M68.32,469.06c-6.68,0.12-12.01,6.53-11.92,14.33l0.67,53.69l24.18-0.42l-0.67-53.69
		C80.49,475.17,75,468.94,68.32,469.06z"/>
	<ellipse cx="63.52" cy="485.88" rx="0.88" ry="1.05"/>
	<ellipse cx="68.25" cy="477.86" rx="0.88" ry="1.05"/>
	<ellipse cx="74.97" cy="481.89" rx="0.88" ry="1.05"/>
	<ellipse cx="72.77" cy="488.9" rx="0.88" ry="1.05"/>
	<ellipse cx="66.1" cy="495.07" rx="0.88" ry="1.05"/>
	<ellipse cx="69.39" cy="484.08" rx="0.88" ry="1.05"/>
	<ellipse cx="60.27" cy="491.43" rx="0.88" ry="1.05"/>
	<ellipse cx="62.56" cy="480.49" rx="0.88" ry="1.05"/>
	<ellipse cx="76.01" cy="494.03" rx="0.88" ry="1.05"/>
	<ellipse cx="72.3" cy="501.16" rx="0.88" ry="1.05"/>
	<ellipse cx="63.71" cy="501.31" rx="0.88" ry="1.05"/>
	<ellipse cx="77" cy="503.17" rx="0.88" ry="1.05"/>
	<ellipse cx="67.28" cy="507.08" rx="0.88" ry="1.05"/>
	<ellipse cx="73.41" cy="508.02" rx="0.88" ry="1.05"/>
	<ellipse cx="61.39" cy="510.46" rx="0.88" ry="1.05"/>
	<ellipse cx="76.23" cy="512.03" rx="0.88" ry="1.05"/>
	<ellipse cx="66.48" cy="513.51" rx="0.88" ry="1.05"/>
</g>
<rect x="156.09" y="539.27" transform="matrix(-1 -4.488599e-11 4.488599e-11 -1 356.1413 1099.3044)" class="st8" width="43.97" height="20.77"/>
<g>
	<path class="st8" d="M188.81,492.02c6.68,0.12,12.01,6.53,11.92,14.33l-0.67,53.69l-24.18-0.42l0.67-53.69
		C176.64,498.13,182.13,491.91,188.81,492.02z"/>
	<ellipse cx="193.61" cy="508.84" rx="0.88" ry="1.05"/>
	<ellipse cx="188.88" cy="500.83" rx="0.88" ry="1.05"/>
	<ellipse cx="182.16" cy="504.85" rx="0.88" ry="1.05"/>
	<ellipse cx="184.36" cy="511.86" rx="0.88" ry="1.05"/>
	<ellipse cx="191.03" cy="518.04" rx="0.88" ry="1.05"/>
	<ellipse cx="187.74" cy="507.04" rx="0.88" ry="1.05"/>
	<ellipse cx="196.86" cy="514.39" rx="0.88" ry="1.05"/>
	<ellipse cx="194.56" cy="503.45" rx="0.88" ry="1.05"/>
	<ellipse cx="181.12" cy="516.99" rx="0.88" ry="1.05"/>
	<ellipse cx="184.83" cy="524.12" rx="0.88" ry="1.05"/>
	<ellipse cx="193.42" cy="524.27" rx="0.88" ry="1.05"/>
	<ellipse cx="180.12" cy="526.13" rx="0.88" ry="1.05"/>
	<ellipse cx="189.85" cy="530.05" rx="0.88" ry="1.05"/>
	<ellipse cx="183.71" cy="530.99" rx="0.88" ry="1.05"/>
	<ellipse cx="195.74" cy="533.42" rx="0.88" ry="1.05"/>
	<ellipse cx="180.9" cy="534.99" rx="0.88" ry="1.05"/>
	<ellipse cx="190.65" cy="536.47" rx="0.88" ry="1.05"/>
</g>
<g>
	
		<rect x="61.29" y="448.73" transform="matrix(-0.9212 0.3892 -0.3892 -0.9212 418.1863 833.1682)" class="st9" width="126.82" height="20.44"/>
	<polygon class="st10" points="85.32,439.79 138.42,417.36 157.89,433.83 83.55,465.24 	"/>
</g>
<linearGradient id="SVGID_4_" gradientUnits="userSpaceOnUse" x1="1061.9869" y1="612.646" x2="1272.1533" y2="612.646">
	<stop  offset="0.4078" style="stop-color:#FFFFFF"/>
	<stop  offset="1" style="stop-color:#FFF343"/>
</linearGradient>
<ellipse class="st11" cx="1167.07" cy="612.65" rx="102.08" ry="98.04"/>
<linearGradient id="SVGID_5_" gradientUnits="userSpaceOnUse" x1="421.6876" y1="244.848" x2="486.3124" y2="244.848">
	<stop  offset="0.4078" style="stop-color:#FFFFFF"/>
	<stop  offset="1" style="stop-color:#FFF343"/>
</linearGradient>
<ellipse class="st12" cx="454" cy="244.85" rx="29.31" ry="28.15"/>
<g>
	<linearGradient id="SVGID_6_" gradientUnits="userSpaceOnUse" x1="724.5317" y1="440.4934" x2="901.6997" y2="440.4934">
		<stop  offset="0.4078" style="stop-color:#FFFFFF"/>
		<stop  offset="1" style="stop-color:#FFF343"/>
	</linearGradient>
	<ellipse class="st13" cx="813.12" cy="440.49" rx="85.58" ry="82.19"/>
	<linearGradient id="SVGID_7_" gradientUnits="userSpaceOnUse" x1="744.342" y1="430.1847" x2="860.0245" y2="430.1847">
		<stop  offset="0.4078" style="stop-color:#FFFFFF"/>
		<stop  offset="1" style="stop-color:#FFF343"/>
	</linearGradient>
	<ellipse class="st14" cx="802.18" cy="430.18" rx="54.84" ry="52.67"/>
	<linearGradient id="SVGID_8_" gradientUnits="userSpaceOnUse" x1="850.2713" y1="488.1184" x2="947.1281" y2="488.1184">
		<stop  offset="0.4078" style="stop-color:#FFFFFF"/>
		<stop  offset="1" style="stop-color:#FFF343"/>
	</linearGradient>
	<ellipse class="st15" cx="898.7" cy="488.12" rx="45.43" ry="43.63"/>
	<linearGradient id="SVGID_9_" gradientUnits="userSpaceOnUse" x1="783.6407" y1="437.2263" x2="850.9203" y2="437.2263">
		<stop  offset="0.4078" style="stop-color:#FFFFFF"/>
		<stop  offset="1" style="stop-color:#FFF343"/>
	</linearGradient>
	<ellipse class="st16" cx="817.28" cy="437.23" rx="30.64" ry="29.42"/>
</g>
<linearGradient id="SVGID_10_" gradientUnits="userSpaceOnUse" x1="661.9583" y1="368.2702" x2="684.4788" y2="368.2702">
	<stop  offset="0.4078" style="stop-color:#FFFFFF"/>
	<stop  offset="1" style="stop-color:#FFF343"/>
</linearGradient>
<ellipse class="st17" cx="673.22" cy="368.27" rx="8.26" ry="7.93"/>
<linearGradient id="SVGID_11_" gradientUnits="userSpaceOnUse" x1="1152.3256" y1="635.5" x2="1281.3256" y2="635.5">
	<stop  offset="0.4078" style="stop-color:#FFFFFF"/>
	<stop  offset="1" style="stop-color:#FFF343"/>
</linearGradient>
<path class="st18" d="M1278.33,553C1278.33,553,1278.33,553,1278.33,553c-67.93,0-123,52.96-123,118.3c0,16.59,3.56,32.38,9.97,46.7
	h113.03V553z"/>
<linearGradient id="SVGID_12_" gradientUnits="userSpaceOnUse" x1="555.9583" y1="305.3038" x2="570.2185" y2="305.3038">
	<stop  offset="0.4078" style="stop-color:#FFFFFF"/>
	<stop  offset="1" style="stop-color:#FFF343"/>
</linearGradient>
<ellipse class="st19" cx="563.09" cy="305.3" rx="4.13" ry="3.97"/>
<g class="st20">
	<polygon class="st21" points="1218.45,81.83 1225.02,67.94 1208.28,57.66 1202.86,44.77 1181.35,41.11 1164.07,30.49 
		1140.18,34.11 1118.79,30.47 1102.74,39.78 1079.34,43.32 1072.81,57.13 1056.05,66.85 1061.78,80.47 1055.56,93.61 1071.4,103.34 
		1077.37,117.53 1101.04,121.56 1116.51,131.06 1137.9,127.82 1161.44,131.83 1179.11,121.58 1201.24,118.23 1207.42,105.17 
		1224.18,95.45 	"/>
	<g>
		<g>
			<ellipse class="st21" cx="1158.9" cy="81.49" rx="46.36" ry="27.72"/>
			<g>
				<g>
					<ellipse class="st21" cx="1142.16" cy="78.54" rx="5.85" ry="3.5"/>
					<line class="st21" x1="1136.31" y1="66.24" x2="1154.13" y2="72.39"/>
				</g>
				<g>
					<ellipse class="st21" cx="1175.64" cy="78.54" rx="5.85" ry="3.5"/>
					<line class="st21" x1="1181.5" y1="66.24" x2="1163.68" y2="72.39"/>
				</g>
			</g>
			<polygon class="st21" points="1132.73,93.67 1179.58,91.07 1179.28,96.13 			"/>
		</g>
		<g>
			<g>
				<polygon class="st21" points="1134.83,46.93 1143.71,54.77 1125.09,62.3 1116.21,54.46 				"/>
				<polygon class="st21" points="1134.39,48.43 1139.77,53.18 1136.9,54.35 1131.52,49.59 				"/>
			</g>
			<g>
				<path class="st21" d="M1079.9,83.9c-0.04,0.18-0.7,3.25,2.9,4.87c1.35,0.61,2.8,0.79,3.71,0.85c2.44-0.33,5.42-1.01,7.2-2.56
					c0.68-0.6,1.07-1.19,1.3-1.68c4.08-10.95,8.16-21.89,12.24-32.84c0.16-0.4,1-2.4,4.27-3.62c2.39-0.9,4.76-0.89,5.65-0.86
					c1.1,0.17,2.37,0.43,3.71,0.83c3.22,0.96,5.3,2.27,6.51,3.18"/>
				<line class="st21" x1="1082.58" y1="82.04" x2="1087.51" y2="79.58"/>
				<line class="st21" x1="1077.02" y1="81.88" x2="1072.48" y2="79.17"/>
				<line class="st21" x1="1076.09" y1="84.63" x2="1071.16" y2="87.09"/>
				<line class="st21" x1="1079.83" y1="77.31" x2="1079.83" y2="81.15"/>
				<line class="st21" x1="1076.25" y1="83.34" x2="1069.83" y2="83.34"/>
				<line class="st21" x1="1087.31" y1="87.22" x2="1082.78" y2="84.51"/>
				<line class="st21" x1="1090.48" y1="83.27" x2="1084.06" y2="83.27"/>
			</g>
		</g>
	</g>
</g>
<ellipse class="st22" cx="883.06" cy="123.73" rx="74.84" ry="29.69"/>
<ellipse class="st22" cx="643.91" cy="69.32" rx="74.84" ry="29.69"/>
<g>
	<path class="st8" d="M1059.09,425.63c-9.68,0-17.52,7.75-17.52,17.31v65.81h35.04v-65.81
		C1076.61,433.38,1068.77,425.63,1059.09,425.63z"/>
	<circle cx="1051.83" cy="446.14" r="1.28"/>
	<circle cx="1058.82" cy="436.42" r="1.28"/>
	<circle cx="1068.49" cy="441.5" r="1.28"/>
	<circle cx="1065.18" cy="450.04" r="1.28"/>
	<circle cx="1055.41" cy="457.47" r="1.28"/>
	<circle cx="1060.37" cy="444.06" r="1.28"/>
	<circle cx="1047.02" cy="452.87" r="1.28"/>
	<circle cx="1050.54" cy="439.52" r="1.28"/>
	<circle cx="1069.77" cy="456.4" r="1.28"/>
	<circle cx="1064.27" cy="465.05" r="1.28"/>
	<circle cx="1051.83" cy="465.05" r="1.28"/>
	<circle cx="1071.06" cy="467.62" r="1.28"/>
	<circle cx="1056.9" cy="472.21" r="1.28"/>
	<circle cx="1065.77" cy="473.49" r="1.28"/>
	<circle cx="1048.3" cy="476.22" r="1.28"/>
	<circle cx="1069.77" cy="478.46" r="1.28"/>
	<circle cx="1055.62" cy="480.06" r="1.28"/>
</g>
<rect x="1072.43" y="473.63" transform="matrix(-1 -4.487711e-11 4.487711e-11 -1 2173.3494 960.7263)" class="st8" width="28.49" height="13.46"/>
<g>
	<path class="st8" d="M1093.63,443.02c4.33,0.08,7.78,4.23,7.72,9.29l-0.43,34.79l-15.67-0.27l0.43-34.79
		C1085.75,446.98,1089.31,442.94,1093.63,443.02z"/>
	<ellipse cx="1096.75" cy="453.92" rx="0.57" ry="0.68"/>
	<ellipse cx="1093.68" cy="448.72" rx="0.57" ry="0.68"/>
	<ellipse cx="1089.32" cy="451.33" rx="0.57" ry="0.68"/>
	<ellipse cx="1090.75" cy="455.87" rx="0.57" ry="0.68"/>
	<ellipse cx="1095.07" cy="459.88" rx="0.57" ry="0.68"/>
	<ellipse cx="1092.94" cy="452.75" rx="0.57" ry="0.68"/>
	<ellipse cx="1098.85" cy="457.51" rx="0.57" ry="0.68"/>
	<ellipse cx="1097.36" cy="450.42" rx="0.57" ry="0.68"/>
	<ellipse cx="1088.65" cy="459.2" rx="0.57" ry="0.68"/>
	<ellipse cx="1091.06" cy="463.82" rx="0.57" ry="0.68"/>
	<ellipse cx="1096.62" cy="463.91" rx="0.57" ry="0.68"/>
	<ellipse cx="1088.01" cy="465.12" rx="0.57" ry="0.68"/>
	<ellipse cx="1094.31" cy="467.66" rx="0.57" ry="0.68"/>
	<ellipse cx="1090.33" cy="468.27" rx="0.57" ry="0.68"/>
	<ellipse cx="1098.13" cy="469.84" rx="0.57" ry="0.68"/>
	<ellipse cx="1088.51" cy="470.86" rx="0.57" ry="0.68"/>
	<ellipse cx="1094.83" cy="471.82" rx="0.57" ry="0.68"/>
</g>
<linearGradient id="SVGID_13_" gradientUnits="userSpaceOnUse" x1="1010.6705" y1="568.4568" x2="1140.996" y2="568.4568">
	<stop  offset="0.4078" style="stop-color:#FFFFFF"/>
	<stop  offset="1" style="stop-color:#FFF343"/>
</linearGradient>
<ellipse class="st23" cx="1075.83" cy="568.46" rx="62.16" ry="59.7"/>
</svg>
