<?xml version="1.0" encoding="utf-8"?>
<!-- Generator: Adobe Illustrator 23.0.5, SVG Export Plug-In . SVG Version: 6.00 Build 0)  -->
<svg version="1.1" id="Слой_1" xmlns="http://www.w3.org/2000/svg" xmlns:xlink="http://www.w3.org/1999/xlink" x="0px" y="0px"
	 viewBox="0 0 32 30" style="enable-background:new 0 0 32 30;" xml:space="preserve">
<style type="text/css">
	.st0{opacity:0.01;stroke:#000000;stroke-miterlimit:10;}
	.st1{fill:none;stroke:#000000;stroke-width:0.75;stroke-miterlimit:10;}
	.st2{fill:#DAB786;stroke:#000000;stroke-miterlimit:10;}
	.st3{fill:#493517;stroke:#000000;stroke-miterlimit:10;}
	.st4{fill:#6E6863;stroke:#000000;stroke-miterlimit:10;}
	.st5{fill:#36322D;stroke:#000000;stroke-miterlimit:10;}
	.st6{opacity:0.7;fill:url(#SVGID_1_);}
	.st7{fill:#493517;stroke:#000000;stroke-width:0.75;stroke-miterlimit:10;}
	.st8{fill:none;stroke:#000000;stroke-width:0.5;stroke-miterlimit:10;}
	.st9{fill:none;stroke:#776855;stroke-miterlimit:10;}
	.st10{fill:none;stroke:#504D4B;stroke-miterlimit:10;}
	.st11{fill:none;stroke:#43341C;stroke-miterlimit:10;}
	.st12{fill:#FAE796;stroke:#000000;stroke-width:0.25;stroke-miterlimit:10;}
	.st13{fill:#67482F;stroke:#000000;stroke-width:0.25;stroke-miterlimit:10;}
	.st14{fill:#AC8054;stroke:#000000;stroke-width:0.25;stroke-miterlimit:10;}
</style>
<rect x="0.5" y="0.5" class="st0" width="31" height="29"/>
<line class="st1" x1="8.5" y1="9.5" x2="23.5" y2="9.5"/>
<circle class="st2" cx="16" cy="6.5" r="3.5"/>
<rect x="12.5" y="10" class="st3" width="7" height="9"/>
<rect x="9" y="10.5" class="st3" width="3.5" height="7"/>
<rect x="19.5" y="10.5" class="st3" width="3.5" height="7"/>
<rect x="16" y="19" class="st4" width="3.5" height="7"/>
<circle class="st2" cx="10.75" cy="17.73" r="1.75"/>
<circle class="st2" cx="21.25" cy="17.73" r="1.75"/>
<rect x="12.5" y="23.81" class="st5" width="3.5" height="2"/>
<rect x="16" y="26" class="st5" width="3.5" height="2"/>
<linearGradient id="SVGID_1_" gradientUnits="userSpaceOnUse" x1="16" y1="6.6626" x2="16" y2="4.4158">
	<stop  offset="0" style="stop-color:#DAB786"/>
	<stop  offset="0.5028" style="stop-color:#000000"/>
</linearGradient>
<ellipse class="st6" cx="16" cy="5.54" rx="2.86" ry="1.12"/>
<rect x="10.5" y="3.29" class="st7" width="11" height="1.78"/>
<line class="st8" x1="14.96" y1="8.29" x2="17.04" y2="8.29"/>
<polygon class="st3" points="18.5,1.31 13.5,1.31 12.5,3.29 19.5,3.29 "/>
<line class="st9" x1="17" y1="20" x2="19" y2="20"/>
<line class="st10" x1="17" y1="23.5" x2="17" y2="25.5"/>
<rect x="12.5" y="19" class="st4" width="3.5" height="4.63"/>
<line class="st9" x1="13" y1="20" x2="15" y2="20"/>
<line class="st10" x1="13.5" y1="20.65" x2="13.5" y2="23.29"/>
<line class="st11" x1="13" y1="22.96" x2="15.5" y2="22.96"/>
<line class="st11" x1="16.5" y1="25" x2="19" y2="25"/>
<circle class="st12" cx="17.5" cy="12.5" r="1"/>
<rect x="16.5" y="11.5" class="st12" width="2" height="1"/>
<rect x="14.65" y="12.14" class="st13" width="0.5" height="0.97"/>
<rect x="14.25" y="11.7" class="st13" width="0.9" height="0.44"/>
<rect x="14.25" y="13.11" class="st13" width="0.9" height="0.44"/>
<circle class="st14" cx="14" cy="11.88" r="0.5"/>
<circle class="st14" cx="14" cy="13.38" r="0.5"/>
</svg>
