<?xml version="1.0" encoding="utf-8"?>
<!-- Generator: Adobe Illustrator 23.0.5, SVG Export Plug-In . SVG Version: 6.00 Build 0)  -->
<svg version="1.1" id="Слой_1" xmlns="http://www.w3.org/2000/svg" xmlns:xlink="http://www.w3.org/1999/xlink" x="0px" y="0px"
	 viewBox="0 0 32 30" style="enable-background:new 0 0 32 30;" xml:space="preserve">
<style type="text/css">
	.st0{opacity:0.01;stroke:#000000;stroke-miterlimit:10;}
	.st1{fill:#DAB786;stroke:#000000;stroke-miterlimit:10;}
	.st2{fill:#493517;stroke:#000000;stroke-miterlimit:10;}
	.st3{fill:#6E6863;stroke:#000000;stroke-miterlimit:10;}
	.st4{fill:#36322D;stroke:#000000;stroke-miterlimit:10;}
	.st5{fill:none;stroke:#000000;stroke-width:0.5;stroke-miterlimit:10;}
	.st6{fill:none;stroke:#776855;stroke-miterlimit:10;}
	.st7{fill:none;stroke:#504D4B;stroke-miterlimit:10;}
	.st8{fill:none;stroke:#43341C;stroke-miterlimit:10;}
	.st9{fill:none;stroke:#493517;stroke-miterlimit:10;}
	.st10{clip-path:url(#SVGID_2_);fill:#67482F;stroke:#67482F;stroke-miterlimit:10;}
	.st11{fill:#493517;stroke:#000000;stroke-width:0.75;stroke-miterlimit:10;}
</style>
<rect x="0.5" y="0.5" class="st0" width="31" height="29"/>
<g>
	<circle class="st1" cx="16" cy="6.5" r="3.5"/>
	<rect x="14.25" y="10" transform="matrix(-1 -4.573465e-11 4.573465e-11 -1 32 29)" class="st2" width="3.5" height="9"/>
	
		<rect x="15.78" y="10.51" transform="matrix(-1 -4.469548e-11 4.469548e-11 -1 35.0625 28.0153)" class="st2" width="3.5" height="7"/>
	<rect x="14.25" y="19" transform="matrix(-1 -4.573465e-11 4.573465e-11 -1 32 45)" class="st3" width="3.5" height="7"/>
	<circle class="st1" cx="17.53" cy="17.74" r="1.75"/>
	<rect x="13.75" y="26" transform="matrix(-1 -4.547486e-11 4.547486e-11 -1 31.5 54)" class="st4" width="4" height="2"/>
	<line class="st5" x1="14.25" y1="8.29" x2="12.67" y2="8.29"/>
	<polygon class="st2" points="13.5,1.31 18.5,1.31 19.5,3.29 12.5,3.29 	"/>
	<line class="st6" x1="16" y1="20" x2="14.75" y2="20"/>
	<line class="st7" x1="16.75" y1="23.5" x2="16.75" y2="25.5"/>
	<line class="st8" x1="17.25" y1="25" x2="14.75" y2="25"/>
	
		<rect x="13.55" y="10.73" transform="matrix(-1 -4.397916e-11 4.397916e-11 -1 27.7969 26.46)" class="st2" width="0.7" height="5"/>
	<line class="st9" x1="14.25" y1="10.88" x2="14.25" y2="15.56"/>
	<g>
		<defs>
			<circle id="SVGID_1_" cx="16" cy="6.5" r="3"/>
		</defs>
		<clipPath id="SVGID_2_">
			<use xlink:href="#SVGID_1_"  style="overflow:visible;"/>
		</clipPath>
		<polygon class="st10" points="18.48,4.03 18.5,7.61 14.9,4.01 		"/>
	</g>
	<rect x="10.5" y="3.29" transform="matrix(-1 -4.489621e-11 4.489621e-11 -1 32 8.3622)" class="st11" width="11" height="1.78"/>
</g>
</svg>
