<?xml version="1.0" encoding="utf-8"?>
<!-- Generator: Adobe Illustrator 23.0.5, SVG Export Plug-In . SVG Version: 6.00 Build 0)  -->
<svg version="1.1" id="Слой_1" xmlns="http://www.w3.org/2000/svg" xmlns:xlink="http://www.w3.org/1999/xlink" x="0px" y="0px"
	 viewBox="0 0 120 120" style="enable-background:new 0 0 120 120;" xml:space="preserve">
<style type="text/css">
	.st0{opacity:0.01;}
	.st1{fill:#589255;stroke:#000000;stroke-miterlimit:10;}
	.st2{fill:#5D4837;stroke:#000000;stroke-miterlimit:10;}
	.st3{fill:#645E57;stroke:#000000;stroke-miterlimit:10;}
	.st4{fill:#94765A;}
	.st5{fill:none;stroke:#000000;stroke-miterlimit:10;}
	.st6{fill:#FFFFFF;stroke:#7F7E7C;stroke-width:0.25;stroke-miterlimit:10;}
</style>
<rect x="0" class="st0" width="120" height="120"/>
<g>
	<polyline class="st1" points="82.1,45.92 86.58,42.48 86.47,42.57 93.71,42.72 93.17,40.17 88.56,40.13 88.04,38.03 88.19,38.36 
		92.13,35.86 88.56,35.99 85.53,35.73 85.66,40.34 80.65,42.48 	"/>
	<polyline class="st1" points="94.38,72.56 99.98,73.3 99.83,73.28 106.03,69.54 106.83,72.01 102.87,74.35 103.46,76.43 
		103.43,76.07 108.09,76.27 104.93,77.94 102.44,79.68 100.25,75.62 94.84,76.27 	"/>
	<polygon class="st2" points="73.92,54.14 73.52,60 84.61,53.54 87.57,57.1 76.16,63.17 81.18,70.16 93.97,70.42 94.9,79 
		79.86,80.45 53.65,72.66 43.97,84.27 12.57,79.13 22.07,76.49 15.21,75.17 27.88,72.01 11.91,65.8 80.65,42.48 82.76,47.47 	"/>
	<g>
		<g>
			<polyline class="st1" points="56.55,56.79 51.34,60.55 65.3,66.55 65.1,60.32 			"/>
			<circle class="st1" cx="63.43" cy="52.25" r="8.25"/>
		</g>
		
			<ellipse transform="matrix(0.4283 -0.9036 0.9036 0.4283 -7.0324 85.2355)" class="st3" cx="63.85" cy="48.18" rx="3.35" ry="5.13"/>
	</g>
	<polygon class="st4" points="33.9,64.05 33.05,63.08 31.77,63.23 32.43,62.12 31.89,60.95 33.15,61.24 34.1,60.36 34.21,61.65 
		35.34,62.28 34.15,62.79 	"/>
	<polygon class="st4" points="38.39,69.64 37.55,68.67 36.27,68.82 36.93,67.72 36.39,66.54 37.64,66.83 38.59,65.96 38.71,67.24 
		39.83,67.87 38.65,68.38 	"/>
	<polygon class="st4" points="90.25,76.45 89.4,75.48 88.12,75.63 88.78,74.53 88.24,73.35 89.5,73.64 90.44,72.77 90.56,74.05 
		91.68,74.68 90.5,75.19 	"/>
	<polygon class="st4" points="45.74,74.61 44.89,73.64 43.61,73.79 44.27,72.68 43.73,71.51 44.99,71.8 45.94,70.92 46.05,72.21 
		47.18,72.84 45.99,73.35 	"/>
	<polygon class="st4" points="45.74,65.89 44.89,64.92 43.61,65.07 44.27,63.97 43.73,62.79 44.99,63.08 45.94,62.21 46.05,63.49 
		47.18,64.12 45.99,64.63 	"/>
	<polygon class="st4" points="79.22,48.35 78.37,47.38 77.09,47.53 77.75,46.42 77.21,45.25 78.47,45.54 79.41,44.67 79.53,45.95 
		80.65,46.58 79.47,47.09 	"/>
	<g>
		<ellipse class="st3" cx="69.99" cy="53.73" rx="1.24" ry="2.05"/>
		<ellipse cx="70.37" cy="53.73" rx="0.86" ry="1.06"/>
	</g>
	<line class="st5" x1="65.3" y1="57.72" x2="69.51" y2="57.83"/>
	<g>
		<ellipse class="st6" cx="61.44" cy="46.21" rx="1.04" ry="0.3"/>
		<ellipse transform="matrix(0.5 -0.866 0.866 0.5 -9.7588 75.5224)" class="st6" cx="60.52" cy="46.21" rx="0.3" ry="1.04"/>
		
			<ellipse transform="matrix(0.9213 -0.3887 0.3887 0.9213 -12.8274 27.4567)" class="st6" cx="61.44" cy="45.43" rx="1.04" ry="0.3"/>
		<ellipse transform="matrix(0.1668 -0.986 0.986 0.1668 4.4577 98.9174)" class="st6" cx="60.76" cy="46.82" rx="0.3" ry="1.04"/>
		
			<ellipse transform="matrix(0.6739 -0.7389 0.7389 0.6739 -13.4753 61.1079)" class="st6" cx="62.48" cy="45.82" rx="1.04" ry="0.3"/>
	</g>
	<g>
		<ellipse class="st6" cx="61.84" cy="48.1" rx="1.04" ry="0.3"/>
		<ellipse transform="matrix(0.5 -0.866 0.866 0.5 -11.1989 76.8125)" class="st6" cx="60.92" cy="48.1" rx="0.3" ry="1.04"/>
		
			<ellipse transform="matrix(0.9213 -0.3887 0.3887 0.9213 -13.5317 27.7599)" class="st6" cx="61.84" cy="47.32" rx="1.04" ry="0.3"/>
		<ellipse transform="matrix(0.1668 -0.986 0.986 0.1668 2.923 100.8855)" class="st6" cx="61.16" cy="48.71" rx="0.3" ry="1.04"/>
		
			<ellipse transform="matrix(0.6739 -0.7389 0.7389 0.6739 -14.7438 62.0185)" class="st6" cx="62.88" cy="47.71" rx="1.04" ry="0.3"/>
	</g>
	<g>
		
			<ellipse transform="matrix(0.945 -0.3271 0.3271 0.945 -11.7281 23.8106)" class="st6" cx="64.93" cy="46.78" rx="0.3" ry="1.04"/>
		
			<ellipse transform="matrix(0.1892 -0.9819 0.9819 0.1892 6.1072 102.6787)" class="st6" cx="65.23" cy="47.64" rx="1.04" ry="0.3"/>
		
			<ellipse transform="matrix(0.7435 -0.6687 0.6687 0.7435 -14.988 54.9883)" class="st6" cx="64.19" cy="47.03" rx="0.3" ry="1.04"/>
		
			<ellipse transform="matrix(0.9863 -0.1648 0.1648 0.9863 -6.8842 11.4801)" class="st6" cx="65.73" cy="47.22" rx="0.3" ry="1.04"/>
		
			<ellipse transform="matrix(0.3951 -0.9186 0.9186 0.3951 -3.3406 86.7701)" class="st6" cx="64.22" cy="45.92" rx="0.3" ry="1.04"/>
	</g>
	<g>
		<ellipse class="st6" cx="63.46" cy="47.27" rx="1.04" ry="0.3"/>
		<ellipse transform="matrix(0.5 -0.866 0.866 0.5 -9.6618 77.7963)" class="st6" cx="62.54" cy="47.27" rx="0.3" ry="1.04"/>
		
			<ellipse transform="matrix(0.9213 -0.3887 0.3887 0.9213 -13.0781 28.3239)" class="st6" cx="63.46" cy="46.48" rx="1.04" ry="0.3"/>
		<ellipse transform="matrix(0.1668 -0.986 0.986 0.1668 5.1006 101.7841)" class="st6" cx="62.78" cy="47.87" rx="0.3" ry="1.04"/>
		
			<ellipse transform="matrix(0.6739 -0.7389 0.7389 0.6739 -13.5952 62.9422)" class="st6" cx="64.5" cy="46.87" rx="1.04" ry="0.3"/>
	</g>
</g>
</svg>
