<?xml version="1.0" encoding="utf-8"?>
<!-- Generator: Adobe Illustrator 23.0.5, SVG Export Plug-In . SVG Version: 6.00 Build 0)  -->
<svg version="1.1" id="Слой_1" xmlns="http://www.w3.org/2000/svg" xmlns:xlink="http://www.w3.org/1999/xlink" x="0px" y="0px"
	 viewBox="0 0 120 120" style="enable-background:new 0 0 120 120;" xml:space="preserve">
<style type="text/css">
	.st0{opacity:0.01;}
	.st1{opacity:0.25;}
	.st2{fill:#E9A854;stroke:#000000;stroke-miterlimit:10;}
	.st3{fill:#FFF343;stroke:#000000;stroke-miterlimit:10;}
	.st4{fill:#E18C44;stroke:#000000;stroke-miterlimit:10;}
	.st5{fill:#B39471;stroke:#000000;stroke-miterlimit:10;}
	.st6{opacity:0.5;}
</style>
<rect x="0" class="st0" width="120" height="120"/>
<g class="st1">
	<path class="st2" d="M85.41,78.14l-0.93-12.83l3.58-0.26l-2.64-36.48L69.83,29.7c3.6-1.52,5.97-4.07,5.97-6.96
		c0-4.65-6.11-8.42-13.65-8.42c-7.54,0-13.65,3.77-13.65,8.42c0,3.6,3.67,6.66,8.82,7.87l-14.77,1.07l2.64,36.48l3.69-0.27
		l1.19,16.41l0.82-0.06l0.69,9.53l-5.01-0.33l-0.2,3L27.1,95.16l-0.52,7.9l42.65,2.83l0.2-3l19.27,1.28l0.46-6.91l0.29-0.06
		L85.41,78.14z M67.87,94.85l-0.85-11.78l2.87-0.21l2.6,12.3L67.87,94.85z"/>
	
		<rect x="44.74" y="44.25" transform="matrix(0.9963 0.0856 -0.0856 0.9963 4.263 -5.4292)" class="st3" width="41.45" height="5.52"/>
	
		<rect x="45.74" y="55.42" transform="matrix(0.9963 0.0856 -0.0856 0.9963 5.2221 -5.4738)" class="st3" width="41.45" height="5.52"/>
	
		<rect x="50.33" y="67.64" transform="matrix(0.9963 0.0856 -0.0856 0.9963 6.2674 -5.429)" class="st4" width="32.27" height="5.52"/>
	
		<rect x="60.99" y="51.95" transform="matrix(-0.1175 -0.9931 0.9931 -0.1175 31.8509 137.7345)" class="st4" width="32.27" height="5.52"/>
	
		<rect x="43.87" y="51.95" transform="matrix(-0.1175 -0.9931 0.9931 -0.1175 12.7154 120.7291)" class="st4" width="32.27" height="5.52"/>
	
		<rect x="28.42" y="98.23" transform="matrix(0.9991 0.0428 -0.0428 0.9991 4.3469 -1.9889)" class="st3" width="40.39" height="4.53"/>
	
		<rect x="38.03" y="79.2" transform="matrix(0.1539 0.9881 -0.9881 0.1539 130.704 11.292)" class="st3" width="41.45" height="5.52"/>
	
		<rect x="56.4" y="78.24" transform="matrix(0.1539 0.9881 -0.9881 0.1539 145.299 -7.6679)" class="st3" width="41.45" height="5.52"/>
	
		<rect x="44.75" y="49.5" transform="matrix(0.9991 0.0428 -0.0428 0.9991 2.2933 -2.5587)" class="st4" width="32.27" height="5.52"/>
	
		<rect x="50.77" y="75.28" transform="matrix(0.9991 0.0428 -0.0428 0.9991 3.4023 -2.7929)" class="st4" width="32.27" height="5.52"/>
	
		<rect x="49.33" y="34.34" transform="matrix(0.9931 -0.1175 0.1175 0.9931 -3.9057 7.9472)" class="st4" width="32.27" height="5.52"/>
	<path class="st4" d="M32.75,97.21l1.11,1.93c0.58,1.01,0.24,2.3-0.77,2.89l-1.12,0.65c-1.01,0.58-2.3,0.24-2.89-0.77l-1.11-1.93
		c-0.58-1.01-0.24-2.3,0.77-2.89l1.12-0.65C30.87,95.86,32.16,96.2,32.75,97.21z"/>
	
		<rect x="49.3" y="97.57" transform="matrix(0.1512 -0.9885 0.9885 0.1512 -54.5911 137.0806)" class="st4" width="6.46" height="5.52"/>
	<path class="st4" d="M40.75,102.2l-0.66-0.66c-1.08-1.08-1.08-2.83,0-3.91h0c1.08-1.08,2.83-1.08,3.91,0l0.66,0.66
		c1.08,1.08,1.08,2.83,0,3.91l0,0C43.58,103.27,41.83,103.27,40.75,102.2z"/>
	
		<rect x="53.81" y="95.05" transform="matrix(0.6674 0.7447 -0.7447 0.6674 93.0906 -12.8106)" class="st5" width="14.16" height="5.52"/>
	
		<rect x="74.09" y="94.59" transform="matrix(0.973 -0.231 0.231 0.973 -20.333 21.0366)" class="st5" width="11.16" height="5.52"/>
	
		<rect x="30.16" y="97.18" transform="matrix(0.9971 -0.0763 0.0763 0.9971 -7.5219 3.0189)" class="st5" width="11.16" height="5.52"/>
	
		<rect x="53.67" y="87.67" transform="matrix(0.9971 -0.0763 0.0763 0.9971 -6.7276 4.7846)" class="st5" width="11.16" height="5.52"/>
	
		<rect x="54.66" y="53.95" transform="matrix(0.9971 -0.0763 0.0763 0.9971 -4.1516 4.7617)" class="st5" width="11.16" height="5.52"/>
	
		<rect x="44.64" y="38.48" transform="matrix(0.9971 -0.0763 0.0763 0.9971 -3.0008 3.9522)" class="st5" width="11.16" height="5.52"/>
	
		<rect x="73.51" y="37.53" transform="matrix(0.9971 -0.0763 0.0763 0.9971 -2.8435 6.1525)" class="st5" width="11.16" height="5.52"/>
	
		<rect x="48.8" y="61.11" transform="matrix(0.9971 -0.0763 0.0763 0.9971 -4.7149 4.336)" class="st5" width="11.16" height="5.52"/>
	
		<rect x="73.51" y="83.25" transform="matrix(0.6674 0.7447 -0.7447 0.6674 90.3631 -30.2928)" class="st5" width="11.16" height="5.52"/>
	
		<rect x="57.37" y="73.5" transform="matrix(-0.6267 0.7792 -0.7792 -0.6267 161.8326 74.9949)" class="st5" width="11.16" height="5.52"/>
	
		<rect x="73.51" y="49.69" transform="matrix(0.6674 0.7447 -0.7447 0.6674 65.3726 -41.4544)" class="st5" width="11.16" height="5.52"/>
	<path class="st5" d="M66.01,24.18l-3.48-0.3c-1.38-0.12-2.41-1.34-2.29-2.72l0,0c0.12-1.38,1.34-2.41,2.72-2.29l3.48,0.3
		c1.38,0.12,2.41,1.34,2.29,2.72v0C68.61,23.27,67.4,24.29,66.01,24.18z"/>
	
		<rect x="47.12" y="15.63" transform="matrix(0.9931 -0.1175 0.1175 0.9931 -1.7438 7.2036)" class="st4" width="26.25" height="5.52"/>
	
		<rect x="46.81" y="24.81" transform="matrix(0.9764 0.2159 -0.2159 0.9764 7.4132 -12.7222)" class="st3" width="30.27" height="5.52"/>
</g>
<g class="st6">
	<path class="st2" d="M99.15,78.42l-0.93-12.83l3.58-0.26l-2.64-36.48l-15.59,1.13c3.6-1.52,5.97-4.07,5.97-6.96
		c0-4.65-6.11-8.42-13.65-8.42c-7.54,0-13.65,3.77-13.65,8.42c0,3.6,3.67,6.66,8.82,7.87l-14.77,1.07l2.64,36.48l3.69-0.27
		l1.19,16.41l0.82-0.06l0.69,9.53l-5.01-0.33l-0.2,3l-19.27-1.28l-0.52,7.9l42.65,2.83l0.2-3l19.27,1.28l0.46-6.91l0.29-0.06
		L99.15,78.42z M81.61,95.13l-0.85-11.78l2.87-0.21l2.6,12.3L81.61,95.13z"/>
	
		<rect x="58.48" y="44.53" transform="matrix(0.9963 0.0856 -0.0856 0.9963 4.3371 -6.604)" class="st3" width="41.45" height="5.52"/>
	
		<rect x="59.48" y="55.7" transform="matrix(0.9963 0.0856 -0.0856 0.9963 5.2962 -6.6486)" class="st3" width="41.45" height="5.52"/>
	
		<rect x="64.07" y="67.91" transform="matrix(0.9963 0.0856 -0.0856 0.9963 6.3416 -6.6038)" class="st4" width="32.27" height="5.52"/>
	
		<rect x="74.73" y="52.23" transform="matrix(-0.1175 -0.9931 0.9931 -0.1175 46.9313 151.691)" class="st4" width="32.27" height="5.52"/>
	
		<rect x="57.61" y="52.23" transform="matrix(-0.1175 -0.9931 0.9931 -0.1175 27.7957 134.6856)" class="st4" width="32.27" height="5.52"/>
	
		<rect x="42.16" y="98.51" transform="matrix(0.9991 0.0428 -0.0428 0.9991 4.3714 -2.5769)" class="st3" width="40.39" height="4.53"/>
	
		<rect x="51.78" y="79.48" transform="matrix(0.1539 0.9881 -0.9881 0.1539 142.6055 -2.0512)" class="st3" width="41.45" height="5.52"/>
	
		<rect x="70.14" y="78.52" transform="matrix(0.1539 0.9881 -0.9881 0.1539 157.2004 -21.0112)" class="st3" width="41.45" height="5.52"/>
	
		<rect x="58.49" y="49.78" transform="matrix(0.9991 0.0428 -0.0428 0.9991 2.3177 -3.1467)" class="st4" width="32.27" height="5.52"/>
	
		<rect x="64.52" y="75.56" transform="matrix(0.9991 0.0428 -0.0428 0.9991 3.4268 -3.381)" class="st4" width="32.27" height="5.52"/>
	
		<rect x="63.07" y="34.62" transform="matrix(0.9931 -0.1175 0.1175 0.9931 -3.8431 9.5633)" class="st4" width="32.27" height="5.52"/>
	<path class="st4" d="M46.49,97.49l1.11,1.93c0.58,1.01,0.24,2.3-0.77,2.89l-1.12,0.65c-1.01,0.58-2.3,0.24-2.89-0.77l-1.11-1.93
		c-0.58-1.01-0.24-2.3,0.77-2.89l1.12-0.65C44.61,96.13,45.91,96.48,46.49,97.49z"/>
	
		<rect x="63.04" y="97.84" transform="matrix(0.1512 -0.9885 0.9885 0.1512 -43.202 150.8996)" class="st4" width="6.46" height="5.52"/>
	<path class="st4" d="M54.49,102.47l-0.66-0.66c-1.08-1.08-1.08-2.83,0-3.91h0c1.08-1.08,2.83-1.08,3.91,0l0.66,0.66
		c1.08,1.08,1.08,2.83,0,3.91l0,0C57.32,103.55,55.57,103.55,54.49,102.47z"/>
	
		<rect x="67.55" y="95.32" transform="matrix(0.6674 0.7447 -0.7447 0.6674 97.8679 -22.9519)" class="st5" width="14.16" height="5.52"/>
	
		<rect x="87.83" y="94.87" transform="matrix(0.973 -0.231 0.231 0.973 -20.0255 24.2183)" class="st5" width="11.16" height="5.52"/>
	
		<rect x="43.91" y="97.46" transform="matrix(0.9971 -0.0763 0.0763 0.9971 -7.503 4.0682)" class="st5" width="11.16" height="5.52"/>
	
		<rect x="67.41" y="87.95" transform="matrix(0.9971 -0.0763 0.0763 0.9971 -6.7087 5.8339)" class="st5" width="11.16" height="5.52"/>
	
		<rect x="68.4" y="54.23" transform="matrix(0.9971 -0.0763 0.0763 0.9971 -4.1327 5.811)" class="st5" width="11.16" height="5.52"/>
	
		<rect x="58.38" y="38.76" transform="matrix(0.9971 -0.0763 0.0763 0.9971 -2.9819 5.0015)" class="st5" width="11.16" height="5.52"/>
	
		<rect x="87.25" y="37.8" transform="matrix(0.9971 -0.0763 0.0763 0.9971 -2.8246 7.2018)" class="st5" width="11.16" height="5.52"/>
	
		<rect x="62.55" y="61.39" transform="matrix(0.9971 -0.0763 0.0763 0.9971 -4.696 5.3853)" class="st5" width="11.16" height="5.52"/>
	
		<rect x="87.25" y="83.53" transform="matrix(0.6674 0.7447 -0.7447 0.6674 95.1404 -40.4341)" class="st5" width="11.16" height="5.52"/>
	
		<rect x="71.11" y="73.77" transform="matrix(-0.6267 0.7792 -0.7792 -0.6267 184.4028 64.7382)" class="st5" width="11.16" height="5.52"/>
	
		<rect x="87.25" y="49.97" transform="matrix(0.6674 0.7447 -0.7447 0.6674 70.1498 -51.5957)" class="st5" width="11.16" height="5.52"/>
	<path class="st5" d="M79.76,24.45l-3.48-0.3c-1.38-0.12-2.41-1.34-2.29-2.72v0c0.12-1.38,1.34-2.41,2.72-2.29l3.48,0.3
		c1.38,0.12,2.41,1.34,2.29,2.72v0C82.36,23.55,81.14,24.57,79.76,24.45z"/>
	
		<rect x="60.86" y="15.91" transform="matrix(0.9931 -0.1175 0.1175 0.9931 -1.6812 8.8197)" class="st4" width="26.25" height="5.52"/>
	
		<rect x="60.55" y="25.09" transform="matrix(0.9764 0.2159 -0.2159 0.9764 7.7971 -15.6822)" class="st3" width="30.27" height="5.52"/>
</g>
<g>
	<path class="st2" d="M113.66,79.72l-0.93-12.83l3.58-0.26l-2.64-36.48l-15.59,1.13c3.6-1.52,5.97-4.07,5.97-6.96
		c0-4.65-6.11-8.42-13.65-8.42c-7.54,0-13.65,3.77-13.65,8.42c0,3.6,3.67,6.66,8.82,7.87L70.8,33.26l2.64,36.48l3.69-0.27
		l1.19,16.41l0.82-0.06l0.69,9.53l-5.01-0.33l-0.2,3l-19.27-1.28l-0.52,7.9l42.65,2.83l0.2-3l19.27,1.28l0.46-6.91l0.29-0.06
		L113.66,79.72z M96.12,96.44l-0.85-11.78l2.87-0.21l2.6,12.3L96.12,96.44z"/>
	
		<rect x="73" y="45.84" transform="matrix(0.9963 0.0856 -0.0856 0.9963 4.5022 -7.8409)" class="st3" width="41.45" height="5.52"/>
	<rect x="74" y="57" transform="matrix(0.9963 0.0856 -0.0856 0.9963 5.4613 -7.8855)" class="st3" width="41.45" height="5.52"/>
	
		<rect x="78.58" y="69.22" transform="matrix(0.9963 0.0856 -0.0856 0.9963 6.5067 -7.8407)" class="st4" width="32.27" height="5.52"/>
	
		<rect x="89.24" y="53.54" transform="matrix(-0.1175 -0.9931 0.9931 -0.1175 61.8494 167.5634)" class="st4" width="32.27" height="5.52"/>
	
		<rect x="72.12" y="53.54" transform="matrix(-0.1175 -0.9931 0.9931 -0.1175 42.7138 150.5579)" class="st4" width="32.27" height="5.52"/>
	
		<rect x="56.67" y="99.82" transform="matrix(0.9991 0.0428 -0.0428 0.9991 4.4407 -3.197)" class="st3" width="40.39" height="4.53"/>
	
		<rect x="66.29" y="80.78" transform="matrix(0.1539 0.9881 -0.9881 0.1539 156.1763 -15.2839)" class="st3" width="41.45" height="5.52"/>
	
		<rect x="84.66" y="79.83" transform="matrix(0.1539 0.9881 -0.9881 0.1539 170.7713 -34.2439)" class="st3" width="41.45" height="5.52"/>
	<rect x="73" y="51.09" transform="matrix(0.9991 0.0428 -0.0428 0.9991 2.387 -3.7668)" class="st4" width="32.27" height="5.52"/>
	
		<rect x="79.03" y="76.86" transform="matrix(0.9991 0.0428 -0.0428 0.9991 3.4961 -4.001)" class="st4" width="32.27" height="5.52"/>
	
		<rect x="77.58" y="35.93" transform="matrix(0.9931 -0.1175 0.1175 0.9931 -3.8963 11.277)" class="st4" width="32.27" height="5.52"/>
	<path class="st4" d="M61,98.8l1.11,1.93c0.58,1.01,0.24,2.3-0.77,2.89l-1.12,0.65c-1.01,0.58-2.3,0.24-2.89-0.77l-1.11-1.93
		c-0.58-1.01-0.24-2.3,0.77-2.89l1.12-0.65C59.12,97.44,60.42,97.79,61,98.8z"/>
	
		<rect x="77.55" y="99.15" transform="matrix(0.1512 -0.9885 0.9885 0.1512 -32.1775 166.3542)" class="st4" width="6.46" height="5.52"/>
	<path class="st4" d="M69,103.78l-0.66-0.66c-1.08-1.08-1.08-2.83,0-3.91h0c1.08-1.08,2.83-1.08,3.91,0l0.66,0.66
		c1.08,1.08,1.08,2.83,0,3.91v0C71.83,104.86,70.08,104.86,69,103.78z"/>
	
		<rect x="82.06" y="96.63" transform="matrix(0.6674 0.7447 -0.7447 0.6674 103.6684 -33.3241)" class="st5" width="14.16" height="5.52"/>
	
		<rect x="102.34" y="96.18" transform="matrix(0.973 -0.231 0.231 0.973 -19.935 27.6058)" class="st5" width="11.16" height="5.52"/>
	
		<rect x="58.42" y="98.77" transform="matrix(0.9971 -0.0763 0.0763 0.9971 -7.5604 5.1793)" class="st5" width="11.16" height="5.52"/>
	
		<rect x="81.92" y="89.26" transform="matrix(0.9971 -0.0763 0.0763 0.9971 -6.7661 6.945)" class="st5" width="11.16" height="5.52"/>
	
		<rect x="82.91" y="55.53" transform="matrix(0.9971 -0.0763 0.0763 0.9971 -4.1902 6.9221)" class="st5" width="11.16" height="5.52"/>
	
		<rect x="72.89" y="40.07" transform="matrix(0.9971 -0.0763 0.0763 0.9971 -3.0393 6.1126)" class="st5" width="11.16" height="5.52"/>
	
		<rect x="101.77" y="39.11" transform="matrix(0.9971 -0.0763 0.0763 0.9971 -2.882 8.3129)" class="st5" width="11.16" height="5.52"/>
	
		<rect x="77.06" y="62.69" transform="matrix(0.9971 -0.0763 0.0763 0.9971 -4.7535 6.4964)" class="st5" width="11.16" height="5.52"/>
	
		<rect x="101.77" y="84.84" transform="matrix(0.6674 0.7447 -0.7447 0.6674 100.9409 -50.8063)" class="st5" width="11.16" height="5.52"/>
	
		<rect x="85.63" y="75.08" transform="matrix(-0.6267 0.7792 -0.7792 -0.6267 209.0285 55.5571)" class="st5" width="11.16" height="5.52"/>
	
		<rect x="101.77" y="51.28" transform="matrix(0.6674 0.7447 -0.7447 0.6674 75.9503 -61.9679)" class="st5" width="11.16" height="5.52"/>
	<path class="st5" d="M94.27,25.76l-3.48-0.3c-1.38-0.12-2.41-1.34-2.29-2.72v0c0.12-1.38,1.34-2.41,2.72-2.29l3.48,0.3
		c1.38,0.12,2.41,1.34,2.29,2.72v0C96.87,24.85,95.65,25.88,94.27,25.76z"/>
	
		<rect x="75.37" y="17.22" transform="matrix(0.9931 -0.1175 0.1175 0.9931 -1.7343 10.5335)" class="st4" width="26.25" height="5.52"/>
	
		<rect x="75.07" y="26.4" transform="matrix(0.9764 0.2159 -0.2159 0.9764 8.4216 -18.7841)" class="st3" width="30.27" height="5.52"/>
</g>
</svg>
