<?xml version="1.0" encoding="utf-8"?>
<!-- Generator: Adobe Illustrator 23.0.5, SVG Export Plug-In . SVG Version: 6.00 Build 0)  -->
<svg version="1.1" id="Слой_1" xmlns="http://www.w3.org/2000/svg" xmlns:xlink="http://www.w3.org/1999/xlink" x="0px" y="0px"
	 viewBox="0 0 120 120" style="enable-background:new 0 0 120 120;" xml:space="preserve">
<style type="text/css">
	.st0{opacity:0.01;}
	.st1{fill:#E9A854;stroke:#000000;stroke-miterlimit:10;}
	.st2{fill:#FFF343;stroke:#000000;stroke-miterlimit:10;}
	.st3{fill:#E18C44;stroke:#000000;stroke-miterlimit:10;}
	.st4{fill:#B39471;stroke:#000000;stroke-miterlimit:10;}
</style>
<rect x="0" class="st0" width="120" height="120"/>
<g>
	<path class="st1" d="M85.41,78.14l-0.93-12.83l3.58-0.26l-2.64-36.48L69.83,29.7c3.6-1.52,5.97-4.07,5.97-6.96
		c0-4.65-6.11-8.42-13.65-8.42c-7.54,0-13.65,3.77-13.65,8.42c0,3.6,3.67,6.66,8.82,7.87l-14.77,1.07l2.64,36.48l3.69-0.27
		l1.19,16.41l0.82-0.06l0.69,9.53l-5.01-0.33l-0.2,3L27.1,95.16l-0.52,7.9l42.65,2.83l0.2-3l19.27,1.28l0.46-6.91l0.29-0.06
		L85.41,78.14z M67.87,94.85l-0.85-11.78l2.87-0.21l2.6,12.3L67.87,94.85z"/>
	
		<rect x="44.74" y="44.25" transform="matrix(0.9963 0.0856 -0.0856 0.9963 4.263 -5.4292)" class="st2" width="41.45" height="5.52"/>
	
		<rect x="45.74" y="55.42" transform="matrix(0.9963 0.0856 -0.0856 0.9963 5.2221 -5.4738)" class="st2" width="41.45" height="5.52"/>
	
		<rect x="50.33" y="67.64" transform="matrix(0.9963 0.0856 -0.0856 0.9963 6.2674 -5.429)" class="st3" width="32.27" height="5.52"/>
	
		<rect x="60.99" y="51.95" transform="matrix(-0.1175 -0.9931 0.9931 -0.1175 31.8509 137.7345)" class="st3" width="32.27" height="5.52"/>
	
		<rect x="43.87" y="51.95" transform="matrix(-0.1175 -0.9931 0.9931 -0.1175 12.7154 120.7291)" class="st3" width="32.27" height="5.52"/>
	
		<rect x="28.42" y="98.23" transform="matrix(0.9991 0.0428 -0.0428 0.9991 4.3469 -1.9889)" class="st2" width="40.39" height="4.53"/>
	
		<rect x="38.03" y="79.2" transform="matrix(0.1539 0.9881 -0.9881 0.1539 130.704 11.292)" class="st2" width="41.45" height="5.52"/>
	
		<rect x="56.4" y="78.24" transform="matrix(0.1539 0.9881 -0.9881 0.1539 145.299 -7.6679)" class="st2" width="41.45" height="5.52"/>
	
		<rect x="44.75" y="49.5" transform="matrix(0.9991 0.0428 -0.0428 0.9991 2.2933 -2.5587)" class="st3" width="32.27" height="5.52"/>
	
		<rect x="50.77" y="75.28" transform="matrix(0.9991 0.0428 -0.0428 0.9991 3.4023 -2.7929)" class="st3" width="32.27" height="5.52"/>
	
		<rect x="49.33" y="34.34" transform="matrix(0.9931 -0.1175 0.1175 0.9931 -3.9057 7.9472)" class="st3" width="32.27" height="5.52"/>
	<path class="st3" d="M32.75,97.21l1.11,1.93c0.58,1.01,0.24,2.3-0.77,2.89l-1.12,0.65c-1.01,0.58-2.3,0.24-2.89-0.77l-1.11-1.93
		c-0.58-1.01-0.24-2.3,0.77-2.89l1.12-0.65C30.87,95.86,32.16,96.2,32.75,97.21z"/>
	
		<rect x="49.3" y="97.57" transform="matrix(0.1512 -0.9885 0.9885 0.1512 -54.5911 137.0806)" class="st3" width="6.46" height="5.52"/>
	<path class="st3" d="M40.75,102.2l-0.66-0.66c-1.08-1.08-1.08-2.83,0-3.91h0c1.08-1.08,2.83-1.08,3.91,0l0.66,0.66
		c1.08,1.08,1.08,2.83,0,3.91l0,0C43.58,103.27,41.83,103.27,40.75,102.2z"/>
	
		<rect x="53.81" y="95.05" transform="matrix(0.6674 0.7447 -0.7447 0.6674 93.0906 -12.8106)" class="st4" width="14.16" height="5.52"/>
	
		<rect x="74.09" y="94.59" transform="matrix(0.973 -0.231 0.231 0.973 -20.333 21.0366)" class="st4" width="11.16" height="5.52"/>
	
		<rect x="30.16" y="97.18" transform="matrix(0.9971 -0.0763 0.0763 0.9971 -7.5219 3.0189)" class="st4" width="11.16" height="5.52"/>
	
		<rect x="53.67" y="87.67" transform="matrix(0.9971 -0.0763 0.0763 0.9971 -6.7276 4.7846)" class="st4" width="11.16" height="5.52"/>
	
		<rect x="54.66" y="53.95" transform="matrix(0.9971 -0.0763 0.0763 0.9971 -4.1516 4.7617)" class="st4" width="11.16" height="5.52"/>
	
		<rect x="44.64" y="38.48" transform="matrix(0.9971 -0.0763 0.0763 0.9971 -3.0008 3.9522)" class="st4" width="11.16" height="5.52"/>
	
		<rect x="73.51" y="37.53" transform="matrix(0.9971 -0.0763 0.0763 0.9971 -2.8435 6.1525)" class="st4" width="11.16" height="5.52"/>
	
		<rect x="48.8" y="61.11" transform="matrix(0.9971 -0.0763 0.0763 0.9971 -4.7149 4.336)" class="st4" width="11.16" height="5.52"/>
	
		<rect x="73.51" y="83.25" transform="matrix(0.6674 0.7447 -0.7447 0.6674 90.3631 -30.2928)" class="st4" width="11.16" height="5.52"/>
	
		<rect x="57.37" y="73.5" transform="matrix(-0.6267 0.7792 -0.7792 -0.6267 161.8326 74.9949)" class="st4" width="11.16" height="5.52"/>
	
		<rect x="73.51" y="49.69" transform="matrix(0.6674 0.7447 -0.7447 0.6674 65.3726 -41.4544)" class="st4" width="11.16" height="5.52"/>
	<path class="st4" d="M66.01,24.18l-3.48-0.3c-1.38-0.12-2.41-1.34-2.29-2.72l0,0c0.12-1.38,1.34-2.41,2.72-2.29l3.48,0.3
		c1.38,0.12,2.41,1.34,2.29,2.72v0C68.61,23.27,67.4,24.29,66.01,24.18z"/>
	
		<rect x="47.12" y="15.63" transform="matrix(0.9931 -0.1175 0.1175 0.9931 -1.7438 7.2036)" class="st3" width="26.25" height="5.52"/>
	
		<rect x="46.81" y="24.81" transform="matrix(0.9764 0.2159 -0.2159 0.9764 7.4132 -12.7222)" class="st2" width="30.27" height="5.52"/>
</g>
</svg>
