<?xml version="1.0" encoding="utf-8"?>
<!-- Generator: Adobe Illustrator 23.0.5, SVG Export Plug-In . SVG Version: 6.00 Build 0)  -->
<svg version="1.1" id="Слой_1" xmlns="http://www.w3.org/2000/svg" xmlns:xlink="http://www.w3.org/1999/xlink" x="0px" y="0px"
	 viewBox="0 0 60 60" style="enable-background:new 0 0 60 60;" xml:space="preserve">
<style type="text/css">
	.st0{opacity:0.7;fill:url(#SVGID_1_);}
	.st1{fill:#533D14;stroke:#000000;stroke-miterlimit:10;}
	.st2{fill:#FFFFFF;stroke:#000000;stroke-miterlimit:10;}
	.st3{fill:#FFF175;stroke:#000000;stroke-miterlimit:10;}
	.st4{fill:#FFFFFF;stroke:#FFFFFF;stroke-width:2;stroke-miterlimit:10;}
	.st5{fill:#A08764;}
	.st6{fill:#91ACD5;}
	.st7{fill:#3EB2ED;}
	.st8{fill:#96AFBB;}
	.st9{fill:#E2E2E2;}
	.st10{fill:#73658C;}
	.st11{fill:#41344D;}
	.st12{fill:#B3A3C6;}
</style>
<linearGradient id="SVGID_1_" gradientUnits="userSpaceOnUse" x1="60" y1="30" x2="-9.094947e-13" y2="30">
	<stop  offset="0" style="stop-color:#FFF175"/>
	<stop  offset="1" style="stop-color:#41344D"/>
</linearGradient>
<rect y="0" class="st0" width="60" height="60"/>
<g>
	
		<rect x="21.31" y="16.08" transform="matrix(0.9328 -0.3605 0.3605 0.9328 -5.0037 10.896)" class="st1" width="10.79" height="5.56"/>
	
		<rect x="26.55" y="22.84" transform="matrix(0.9328 -0.3605 0.3605 0.9328 -10.0877 13.7986)" class="st2" width="10.79" height="22.2"/>
	
		<rect x="28.07" y="30.94" transform="matrix(0.9328 -0.3605 0.3605 0.9328 -11.4007 14.6093)" class="st3" width="10.79" height="13.86"/>
	<line class="st4" x1="34.24" y1="32.4" x2="36" y2="36.94"/>
	
		<rect x="22.12" y="16.63" transform="matrix(0.9328 -0.3605 0.3605 0.9328 -4.6401 10.6801)" class="st5" width="8.38" height="2.31"/>
</g>
<circle class="st6" cx="15.18" cy="38" r="1.5"/>
<circle class="st7" cx="14.18" cy="33.7" r="1"/>
<circle class="st8" cx="19.56" cy="40.85" r="2"/>
<circle class="st9" cx="45.35" cy="45.79" r="1"/>
<circle class="st9" cx="47.35" cy="45.79" r="1"/>
<circle class="st9" cx="46.35" cy="47.39" r="1"/>
<circle class="st9" cx="12.32" cy="15.38" r="1"/>
<circle class="st9" cx="14.32" cy="15.38" r="1"/>
<circle class="st9" cx="13.32" cy="16.98" r="1"/>
<circle class="st10" cx="46.04" cy="23.4" r="1.5"/>
<circle class="st11" cx="47.04" cy="27.7" r="1"/>
<circle class="st12" cx="41.66" cy="20.56" r="2"/>
</svg>
