<?xml version="1.0" encoding="utf-8"?>
<!-- Generator: Adobe Illustrator 23.0.5, SVG Export Plug-In . SVG Version: 6.00 Build 0)  -->
<svg version="1.1" id="Слой_1" xmlns="http://www.w3.org/2000/svg" xmlns:xlink="http://www.w3.org/1999/xlink" x="0px" y="0px"
	 viewBox="0 0 60 60" style="enable-background:new 0 0 60 60;" xml:space="preserve">
<style type="text/css">
	.st0{opacity:0.5;fill:#C9B9B2;}
	.st1{fill:#41344D;}
	.st2{fill:none;stroke:#000000;stroke-miterlimit:10;}
	.st3{fill:#3EB2ED;}
	.st4{fill:none;stroke:#4D579F;stroke-miterlimit:10;}
	.st5{fill:#FFFFFF;stroke:#000000;stroke-miterlimit:10;}
	.st6{font-family:'Enemy-Crusher';}
	.st7{font-size:3px;}
	.st8{fill:#533D14;}
	.st9{fill:#826B4B;}
	.st10{fill:#93B0C9;}
	.st11{fill:#897EA6;}
</style>
<rect y="0" class="st0" width="60" height="60"/>
<g>
	<g>
		<g>
			<path class="st1" d="M18.62,25.54v22.04c0,1.86,5.1,3.37,11.38,3.37c6.29,0,11.38-1.51,11.38-3.37V25.54H18.62z"/>
		</g>
		<g>
			<path class="st2" d="M18.62,25.54v22.04c0,1.86,5.1,3.37,11.38,3.37c6.29,0,11.38-1.51,11.38-3.37V25.54H18.62z"/>
		</g>
	</g>
	<g>
		<g>
			<ellipse class="st3" cx="30" cy="25.54" rx="11.38" ry="3.37"/>
		</g>
		<g>
			<ellipse class="st4" cx="30" cy="25.54" rx="11.38" ry="3.37"/>
		</g>
	</g>
	<g>
		<g>
			<path class="st2" d="M33.72,16.5v-5.03c0-0.73-1.66-1.32-3.72-1.32c-2.05,0-3.72,0.59-3.72,1.32c0,0,0,0,0,0v5.03
				c-4.46,0.55-7.66,2.05-7.66,3.83V46.8c0,2.24,5.1,4.05,11.38,4.05c6.29,0,11.38-1.82,11.38-4.05V20.33
				C41.38,18.55,38.17,17.05,33.72,16.5z"/>
		</g>
	</g>
	<rect x="27.45" y="33.64" class="st5" width="13.93" height="6.17"/>
	<text transform="matrix(1 0 0 1 28.6439 38.2455)" class="st6 st7">+300</text>
	<g>
		<g>
			<g>
				<path class="st8" d="M26.3,7.72v4.84c0,0.41,1.66,0.74,3.7,0.74c2.04,0,3.7-0.33,3.7-0.74V7.72H26.3z"/>
			</g>
			<g>
				<path class="st2" d="M26.3,7.72v4.84c0,0.41,1.66,0.74,3.7,0.74c2.04,0,3.7-0.33,3.7-0.74V7.72H26.3z"/>
			</g>
		</g>
		<g>
			<g>
				<path class="st9" d="M30,6.98c-2.04,0-3.7,0.33-3.7,0.74c0,0.41,1.66,0.74,3.7,0.74c2.04,0,3.7-0.33,3.7-0.74
					C33.7,7.31,32.04,6.98,30,6.98z"/>
			</g>
			<g>
				<path class="st2" d="M30,6.98c-2.04,0-3.7,0.33-3.7,0.74c0,0.41,1.66,0.74,3.7,0.74c2.04,0,3.7-0.33,3.7-0.74
					C33.7,7.31,32.04,6.98,30,6.98z"/>
			</g>
		</g>
	</g>
</g>
<rect x="7.55" y="12.6" class="st10" width="1.26" height="9.56"/>
<rect x="50.22" y="9.66" class="st10" width="1.26" height="9.52"/>
<rect x="10.44" y="30" class="st10" width="1.26" height="10.96"/>
<rect x="45.42" y="33.64" class="st10" width="1.26" height="8.77"/>
<rect x="12.36" y="18.17" class="st11" width="1.26" height="9.56"/>
<rect x="46.05" y="19.18" class="st11" width="1.26" height="9.56"/>
<rect x="50.85" y="37.04" class="st11" width="1.26" height="9.56"/>
<rect x="7.2" y="35.48" class="st11" width="1.26" height="9.56"/>
<rect x="3.88" y="22.95" class="st11" width="1.26" height="9.56"/>
<rect x="51.48" y="23.96" class="st10" width="1.26" height="8.77"/>
</svg>
