<?xml version="1.0" encoding="utf-8"?>
<!-- Generator: Adobe Illustrator 23.0.5, SVG Export Plug-In . SVG Version: 6.00 Build 0)  -->
<svg version="1.1" id="Слой_1" xmlns="http://www.w3.org/2000/svg" xmlns:xlink="http://www.w3.org/1999/xlink" x="0px" y="0px"
	 viewBox="0 0 60 60" style="enable-background:new 0 0 60 60;" xml:space="preserve">
<style type="text/css">
	.st0{opacity:0.5;fill:#C0D1EA;}
	.st1{fill:#7A926D;stroke:#000000;stroke-miterlimit:10;}
	.st2{fill:#96AFBB;stroke:#8398A2;stroke-miterlimit:10;}
</style>
<rect y="0" class="st0" width="60" height="60"/>
<g>
	<polygon class="st1" points="36.78,23.59 39.25,11.33 28.23,15.84 17.6,8.52 19.26,21.32 10.21,29.07 19.3,31.63 12.06,37.25 
		14.62,40.55 22.94,34.1 27.3,44.56 33.08,33.86 45.24,33.6 	"/>
	<line class="st2" x1="22.39" y1="31.5" x2="33.6" y2="19.16"/>
	<line class="st2" x1="27.73" y1="25.33" x2="24.71" y2="17.43"/>
	<line class="st2" x1="33.73" y1="30.33" x2="30.71" y2="22.43"/>
	<line class="st2" x1="29.24" y1="35.59" x2="26.22" y2="27.7"/>
	<line class="st2" x1="25.92" y1="27.06" x2="18.15" y2="26.03"/>
</g>
<g>
	<polygon class="st1" points="38.45,24.57 35.56,12.4 27.45,21.12 14.73,18.93 21.6,29.86 16.63,40.68 25.96,39.19 21.73,47.34 
		25.44,49.26 30.29,39.91 38.63,47.59 39.4,35.45 50.33,30.11 	"/>
	<line class="st2" x1="28.7" y1="37.78" x2="33.71" y2="21.88"/>
	<line class="st2" x1="30.96" y1="29.94" x2="24.92" y2="24.04"/>
	<line class="st2" x1="38.51" y1="31.97" x2="32.46" y2="26.06"/>
	<line class="st2" x1="36.64" y1="38.63" x2="30.59" y2="32.73"/>
	<line class="st2" x1="30.05" y1="32.27" x2="22.57" y2="34.59"/>
</g>
</svg>
