<?xml version="1.0" encoding="utf-8"?>
<!-- Generator: Adobe Illustrator 23.0.5, SVG Export Plug-In . SVG Version: 6.00 Build 0)  -->
<svg version="1.1" id="Слой_1" xmlns="http://www.w3.org/2000/svg" xmlns:xlink="http://www.w3.org/1999/xlink" x="0px" y="0px"
	 viewBox="0 0 32 30" style="enable-background:new 0 0 32 30;" xml:space="preserve">
<style type="text/css">
	.st0{fill:#E8DAB2;stroke:#000000;stroke-miterlimit:10;}
	.st1{fill:#F9DC4E;stroke:#000000;stroke-miterlimit:10;}
</style>
<rect x="7.51" y="6.51" transform="matrix(0.7071 -0.7071 0.7071 0.7071 -5.9203 15.7071)" class="st0" width="16.97" height="16.97"/>
<path class="st1" d="M13.54,6.91L8.94,7.75l-1.57,4.4l3.02,3.56l4.59-0.84l1.57-4.4L13.54,6.91z M13.51,13.12l-2.34,0.43l-1.54-1.81
	l0.8-2.24l2.34-0.43l1.54,1.81L13.51,13.12z"/>
<rect x="18.46" y="9.88" transform="matrix(0.3343 -0.9425 0.9425 0.3343 -0.129 28.2469)" class="st1" width="2.95" height="8.66"/>
<rect x="17.89" y="15.98" transform="matrix(0.9425 0.3343 -0.3343 0.9425 7.1496 -5.6608)" class="st1" width="4.26" height="3.92"/>
</svg>
