<?xml version="1.0" encoding="utf-8"?>
<!-- Generator: Adobe Illustrator 23.0.5, SVG Export Plug-In . SVG Version: 6.00 Build 0)  -->
<svg version="1.1" id="Слой_1" xmlns="http://www.w3.org/2000/svg" xmlns:xlink="http://www.w3.org/1999/xlink" x="0px" y="0px"
	 viewBox="0 0 32 30" style="enable-background:new 0 0 32 30;" xml:space="preserve">
<style type="text/css">
	.st0{opacity:0.75;fill:#91ACD5;stroke:#000000;stroke-miterlimit:10;}
	.st1{fill:#FFFFFF;}
	.st2{fill:#5879B8;}
</style>
<rect x="0.5" y="0.5" class="st0" width="31" height="29"/>
<g>
	<g>
		<path class="st1" d="M18.52,18.96v-1.35H9.18V8.13h1.33V6.78h1.33V5.43h10.66v1.35h-9.33v1.35h-1.33v1.35h-1.33v6.77h9.33v2.71
			H18.52z M9.18,23.02v-2.7h1.33v2.7H9.18z M10.52,24.37v-1.35h9.33v-1.35h1.33v-1.35h1.33v-6.77h1.34v8.12h-1.34v1.35h-1.33v1.35
			H10.52z M10.52,20.32v-1.35h8v1.35H10.52z M13.18,13.55v-2.7h1.33v1.35h8v1.35H13.18z M14.51,10.84V9.48h8v1.36H14.51z
			 M22.51,9.48v-2.7h1.34v2.7H22.51z"/>
	</g>
	<g>
		<path class="st2" d="M18.53,18.33v-1.36H8.98V7.41h1.36V6.05h1.36V4.69h10.91v1.36h-9.54v1.36h-1.36v1.36h-1.36v6.82h9.54v2.73
			H18.53z M8.98,22.41v-2.72h1.36v2.72H8.98z M10.35,23.77v-1.36h9.54v-1.36h1.36v-1.36h1.36v-6.82h1.37v8.18h-1.37v1.36h-1.36v1.36
			H10.35z M10.35,19.69v-1.36h8.18v1.36H10.35z M13.07,12.87v-2.72h1.36v1.36h8.18v1.36H13.07z M14.43,10.14V8.77h8.18v1.37H14.43z
			 M22.61,8.77V6.05h1.37v2.72H22.61z"/>
	</g>
</g>
</svg>
