<?xml version="1.0" encoding="utf-8"?>
<!-- Generator: Adobe Illustrator 23.0.5, SVG Export Plug-In . SVG Version: 6.00 Build 0)  -->
<svg version="1.1" id="Слой_1" xmlns="http://www.w3.org/2000/svg" xmlns:xlink="http://www.w3.org/1999/xlink" x="0px" y="0px"
	 viewBox="0 0 32 30" style="enable-background:new 0 0 32 30;" xml:space="preserve">
<style type="text/css">
	.st0{fill:#787775;stroke:#000000;stroke-miterlimit:10;}
	.st1{fill:#DADADA;stroke:#000000;stroke-miterlimit:10;}
</style>
<rect x="0.5" y="0.5" class="st0" width="31" height="29"/>
<g>
	<g>
		<polygon class="st1" points="6.25,2.75 2.38,8.87 10.12,8.87 		"/>
		<polygon class="st1" points="16.01,2.75 12.14,8.87 19.88,8.87 		"/>
		<polygon class="st1" points="25.76,2.75 21.89,8.87 29.63,8.87 		"/>
	</g>
	<g>
		<polygon class="st1" points="11.13,7 7.27,13.12 15,13.12 		"/>
		<polygon class="st1" points="20.88,7 17.02,13.12 24.75,13.12 		"/>
	</g>
	<g>
		<polygon class="st1" points="6.25,10.75 2.38,16.87 10.12,16.87 		"/>
		<polygon class="st1" points="16.01,10.75 12.14,16.87 19.88,16.87 		"/>
		<polygon class="st1" points="25.76,10.75 21.89,16.87 29.63,16.87 		"/>
	</g>
	<g>
		<polygon class="st1" points="11.13,15 7.27,21.12 15,21.12 		"/>
		<polygon class="st1" points="20.88,15 17.02,21.12 24.75,21.12 		"/>
	</g>
	<g>
		<polygon class="st1" points="6.25,19.7 2.39,25.82 10.12,25.82 		"/>
		<polygon class="st1" points="16.01,19.7 12.15,25.82 19.88,25.82 		"/>
		<polygon class="st1" points="25.76,19.7 21.9,25.82 29.63,25.82 		"/>
	</g>
</g>
</svg>
