<?xml version="1.0" encoding="utf-8"?>
<!-- Generator: Adobe Illustrator 23.0.5, SVG Export Plug-In . SVG Version: 6.00 Build 0)  -->
<svg version="1.1" id="Слой_1" xmlns="http://www.w3.org/2000/svg" xmlns:xlink="http://www.w3.org/1999/xlink" x="0px" y="0px"
	 viewBox="0 0 32 30" style="enable-background:new 0 0 32 30;" xml:space="preserve">
<style type="text/css">
	.st0{fill:#A08764;stroke:#533D14;stroke-miterlimit:10;}
	.st1{fill:#696000;stroke:#214319;stroke-miterlimit:10;}
</style>
<rect x="11.5" y="17" class="st0" width="9" height="12"/>
<rect x="1.5" y="1.5" class="st0" width="29" height="15.5"/>
<g>
	<path d="M14.42,11.7V8.06h1.82V7.16h0.91V6.25h-0.91V5.34h-0.91v0.91H12.6V2.61h6.36v0.91h0.91v6.36h-0.91v0.91h-1.82v0.91H14.42z
		 M16.24,10.79V9.88h1.82V8.97h0.91V4.43h-0.91V3.52h-4.55v1.82h0.91V4.43h2.72v0.91h0.91v2.73h-0.91v0.91h-1.82v1.82H16.24z
		 M14.42,15.34v-2.72h2.72v2.72H14.42z M16.24,14.43v-0.91h-0.91v0.91H16.24z"/>
</g>
<g>
	<path d="M21.91,4.38V3.81h0.29V3.52h0.29V3.24h0.29v0.29h0.29v0.29h0.29v0.57h-0.29V4.09h-0.29V3.81h-0.29v0.29H22.2v0.29H21.91z
		 M22.48,4.67V4.38h0.29v0.29H22.48z"/>
	<path d="M24.48,5.24V4.38H24.2V3.52h0.29V3.24h0.29v0.86h0.29v0.86h-0.29v0.29H24.48z"/>
	<path d="M26.77,4.95V3.52h0.29V3.24h0.29v0.86h-0.29v0.86H26.77z M27.05,5.24V4.95h0.29V4.38h0.29V3.52h0.29v1.43h-0.29v0.29H27.05
		z M27.91,5.24V4.95h0.29V3.24h0.29v2H27.91z"/>
	<path d="M22.48,7.64V7.35H22.2V7.07h-0.29V6.78h-0.29V6.49h0.29V6.21h0.29V5.92h0.29V5.64h0.86v0.29h-0.57v0.29h-0.29v0.29H22.2
		v0.29h0.29v0.29h0.29v0.29h0.57v0.29H22.48z M22.77,6.78V6.49h0.57v0.29H22.77z"/>
	<path d="M24.48,7.64V6.78H24.2V5.92h0.29V5.64h0.29v0.86h0.29v0.86h-0.29v0.29H24.48z"/>
	<path d="M26.77,7.64V7.07h0.29V6.78h-0.29V6.49h0.57V5.92h0.29V5.64h0.86v0.29h0.29v1.71h-0.29V7.35H28.2V7.07h-0.57V6.78h-0.29
		v0.86H26.77z M28.2,6.78V6.49h0.29V6.21H28.2V5.92h-0.29v0.29h-0.29v0.29h0.29v0.29H28.2z"/>
	<path d="M21.63,10.04V9.75h0.57V9.47h0.29V9.18h0.29V8.89h-0.29V8.61H22.2V8.32h-0.57V8.04h0.86v0.29h0.29v0.29h0.29v0.29h0.29
		v0.29h-0.29v0.29h-0.29v0.29h-0.29v0.29H21.63z M21.63,9.18V8.89h0.57v0.29H21.63z"/>
	<path d="M24.48,10.04V9.18H24.2V8.32h0.29V8.04h0.29v0.86h0.29v0.86h-0.29v0.29H24.48z"/>
	<path d="M26.77,9.75V8.89h0.29V8.04h1.14v0.29h-0.29v0.29h-0.57v0.86h-0.29v0.29H26.77z M27.05,10.04V9.75h0.57V9.47h0.57V8.89
		h0.29V8.61H28.2V8.32h0.57v1.43h-0.29v0.29H27.05z M27.91,8.89V8.61h0.29v0.29H27.91z"/>
	<path d="M21.63,12.15v-0.86h0.29v0.86H21.63z M21.91,12.44v-0.29h0.29v0.29H21.91z M22.2,12.72v-0.29h0.29v0.29H22.2z M22.48,12.44
		v-0.29h0.29v0.29H22.48z M22.77,12.15v-0.86h0.29v0.86H22.77z"/>
	<path d="M24.2,12.44v-0.86h-0.29v-0.86h0.29v-0.29h0.29v0.86h0.29v0.86h-0.29v0.29H24.2z"/>
	<path d="M26.48,11.29v-0.57h0.29v-0.29h1.14v0.29h0.29v0.29h-0.57v-0.29h-0.57v0.29h-0.29v0.29H26.48z M26.77,12.44v-0.29h-0.29
		v-0.29h0.57v0.29h0.86v-0.29h0.29v0.57H26.77z M26.77,11.58v-0.29h0.86v0.29H26.77z M27.62,11.87v-0.29h0.29v0.29H27.62z
		 M27.91,11.58v-0.29h0.29v0.29H27.91z"/>
	<path d="M21.91,14.84v-0.29h0.29v-0.29h0.57v0.57H21.91z M22.2,13.98v-0.29h0.29v-0.29H22.2v-0.29h0.29v-0.29h0.57v0.86h-0.29v0.29
		H22.2z"/>
	<path d="M24.2,14.84v-0.86h-0.29v-0.86h0.29v-0.29h0.29v0.86h0.29v0.86h-0.29v0.29H24.2z"/>
	<path d="M26.48,14.84v-2h1.71v0.29h-0.29v0.29h-0.57v-0.29h-0.29v0.29h-0.29v0.29h1.14v0.29h-0.29v0.29h-0.29v-0.29h-0.57v0.29
		h0.29v0.29h0.86v-0.29h0.29v0.57H26.48z"/>
</g>
<g>
	<path d="M2.98,5.24v-2h1.71v0.29H4.41v0.29H3.84V3.52H3.55v0.29H3.27v0.29h1.14v0.29H4.12v0.29H3.84V4.38H3.27v0.29h0.29v0.29h0.86
		V4.67h0.29v0.57H2.98z"/>
	<path d="M4.98,4.38V4.09h0.29v0.29H4.98z M4.98,5.24V4.95h0.29v0.29H4.98z M5.27,4.67V4.38h0.29v0.29H5.27z M5.55,4.95V4.67h0.29
		v0.29H5.55z M5.84,4.38V4.09h0.29v0.29H5.84z M5.84,5.24V4.95h0.29v0.29H5.84z"/>
	<path d="M6.69,4.38V4.09h0.29v0.29H6.69z M6.69,5.24V4.67h0.29v0.57H6.69z"/>
	<path d="M7.55,5.24V4.67H7.26V4.38h0.29V4.09h0.29v0.29h0.29v0.29H7.84v0.29h0.29v0.29H7.55z"/>
	<path d="M9.26,5.24V4.38H8.98V3.52h0.29V3.24h0.29v0.86h0.29v0.86H9.55v0.29H9.26z"/>
	<path d="M2.98,7.64v-2h1.71v0.29H4.41v0.29H3.84V5.92H3.55v0.29H3.27v0.29h1.14v0.29H4.12v0.29H3.84V6.78H3.27v0.29h0.29v0.29h0.86
		V7.07h0.29v0.57H2.98z"/>
	<path d="M4.98,7.07V6.78h0.29v0.29H4.98z M4.98,7.92V7.64h0.57v0.29H4.98z M5.27,6.78V6.49h0.57v0.29H5.27z M5.27,7.35V7.07h0.29
		v0.29H5.27z M5.55,7.64V7.35h0.29v0.29H5.55z"/>
	<path d="M6.12,7.35V6.78h0.29v0.57H6.12z M6.41,6.78V6.49h0.57v0.29H6.41z M6.41,7.64V7.35h0.86v0.29H6.41z M6.98,7.07V6.78h0.29
		v0.29H6.98z"/>
	<path d="M2.98,10.04V9.75h0.29V9.47h0.86v0.29h0.57v0.29H2.98z"/>
	<path d="M4.98,10.04V9.75h0.29V9.47h0.86v0.29h0.57v0.29H4.98z"/>
	<path d="M6.98,10.04V9.75h0.29V9.47h0.86v0.29h0.57v0.29H6.98z"/>
	<path d="M8.98,10.04V9.75h0.29V9.47h0.86v0.29h0.57v0.29H8.98z"/>
	<path d="M2.98,12.44v-1.71h0.57v0.57H3.27v0.57h0.29v0.57H2.98z M4.41,12.44v-1.14H4.12v0.57H3.84v-0.29H3.55v-0.29h0.29v-0.29
		h0.29v-0.29h0.29v-0.29h0.29v2H4.41z"/>
	<path d="M4.98,12.44v-1.14h1.14v0.57H5.84v-0.29H5.27v0.57h0.29v-0.29h0.29v0.29h0.29v0.29H4.98z"/>
	<path d="M6.41,12.44v-0.86h0.29v0.86H6.41z M6.69,11.58v-0.29h0.57v0.29H6.69z M7.26,12.44v-0.86h0.29v0.86H7.26z"/>
	<path d="M7.84,12.15v-0.86h0.29v0.86H7.84z M8.12,12.44v-0.29h0.29v0.29H8.12z M8.69,12.44v-0.29H8.41v-0.29h0.29v-0.57h0.29v1.14
		H8.69z"/>
	<path d="M10.12,12.44v-0.86H9.83v-0.86h0.29v-0.29h0.29v0.86h0.29v0.86h-0.29v0.29H10.12z"/>
	<path d="M2.98,14.84v-1.43h0.29v-0.29H2.98v-0.29h0.57v0.86H3.27v0.29h0.29v0.57h0.29v-0.29h0.29v-0.29h0.57v0.86H2.98z"/>
	<path d="M5.55,14.84v-0.57h0.57v0.57H5.55z"/>
	<path d="M6.69,14.84v-0.29H6.41v-1.43h0.29v-0.29h1.14v0.29H7.55v0.29H6.98v0.29H6.69v0.29h0.29v0.57h0.29v-0.29h0.86v0.29h0.29
		v0.29H6.69z M7.55,13.69v-0.29h0.29v-0.29h0.29v0.57H7.55z"/>
	<path d="M8.98,14.84v-0.57H8.69v-0.29h0.29v-0.29h0.29v0.29h0.29v0.29H9.26v0.29h0.29v0.29H8.98z"/>
	<path d="M9.84,14.84v-1.14h0.29v0.29h0.29v0.29h-0.29v0.57H9.84z M10.41,13.98v-0.29h0.29v0.29H10.41z M10.69,14.27v-0.29h0.29
		v0.29H10.69z"/>
	<path d="M11.55,14.84v-1.14h0.29v1.14H11.55z"/>
</g>
<g>
	<path d="M12.72,27.47v-0.29h-0.29v-1.43h0.29v-0.29h1.14v0.29h0.29v1.43h-0.29v0.29H12.72z M13.58,27.19V26.9h0.29v-0.86h-0.29
		v-0.29h-0.57v0.29h-0.29v0.86h0.29v0.29H13.58z M13.01,26.33v-0.29h0.29v0.29H13.01z M13.29,26.9v-0.57h0.29v0.57H13.29z"/>
	<path d="M15.01,27.47v-0.29h-0.29v-1.71h0.29v-0.29h0.57v0.29h-0.29v0.29h-0.29v1.14h0.29v0.29h0.29v0.29H15.01z M15.29,26.61
		v-0.57h0.29v0.29h0.29v0.29H15.29z"/>
	<path d="M16.72,26.61v-0.29h0.29v-0.29h0.29v0.57H16.72z M17.01,27.47v-0.29h0.29V26.9h0.29v-1.14h-0.29v-0.29h-0.29v-0.29h0.57
		v0.29h0.29v1.71h-0.29v0.29H17.01z"/>
	<path d="M18.44,26.04v-0.57h0.29v0.57H18.44z M18.72,27.19V26.9h-0.29v-0.29h0.29v-0.29h0.29v0.29h0.29v0.29h-0.29v0.29H18.72z
		 M19.01,26.04v-0.57h0.29v0.57H19.01z"/>
</g>
<g>
	<path d="M14.42,23.51V22.8h0.72v-0.71h1.43v1.43H14.42z M15.14,21.37v-0.72h0.71v-0.71h-0.71v-0.72h0.71v-0.71h1.43v2.14h-0.71
		v0.72H15.14z"/>
</g>
<path d="M8.63,1.75"/>
<path class="st0" d="M7.42,0.25"/>
<path class="st1" d="M3.04,16.93c1.44,1.1,3.56,2.2,5.97,1.27c1.2-0.46,1.12-0.91,2.25-1.43c3.89-1.79,5.47,3.22,9.13,1.83
	c1.87-0.71,1.89-2.18,4.03-2.71c1.87-0.47,3.47,0.26,4.54,0.96L3.04,16.93z"/>
</svg>
