<?xml version="1.0" encoding="utf-8"?>
<!-- Generator: Adobe Illustrator 23.0.5, SVG Export Plug-In . SVG Version: 6.00 Build 0)  -->
<svg version="1.1" id="Слой_1" xmlns="http://www.w3.org/2000/svg" xmlns:xlink="http://www.w3.org/1999/xlink" x="0px" y="0px"
	 viewBox="0 0 120 120" style="enable-background:new 0 0 120 120;" xml:space="preserve">
<style type="text/css">
	.st0{opacity:0.01;}
	.st1{fill:#864F6F;stroke:#000000;stroke-miterlimit:10;}
	.st2{fill:#81589F;stroke:#000000;stroke-miterlimit:10;}
	.st3{fill:#E2E2E2;stroke:#000000;stroke-miterlimit:10;}
</style>
<rect y="0" class="st0" width="120" height="120"/>
<g>
	<g>
		<g>
			
				<rect x="56.84" y="82.55" transform="matrix(-0.3895 -0.921 0.921 -0.3895 12.3714 181.0909)" class="st1" width="18.73" height="7.78"/>
			
				<rect x="65.9" y="56.6" transform="matrix(0.9292 0.3696 -0.3696 0.9292 27.6916 -23.5363)" class="st1" width="18.73" height="7.78"/>
			<path class="st1" d="M73.51,61.55c-1.96-7.7-8.52-13.37-16.34-13.37S42.8,53.85,40.84,61.55h-0.61v22.92h33.9V61.55H73.51z"/>
			
				<rect x="29.7" y="58.38" transform="matrix(0.8353 -0.5498 0.5498 0.8353 -27.8038 31.7335)" class="st1" width="18.73" height="7.78"/>
			
				<rect x="39.56" y="82.55" transform="matrix(0.2485 -0.9686 0.9686 0.2485 -46.9636 112.3554)" class="st1" width="18.73" height="7.78"/>
		</g>
		<g>
			<rect x="60.07" y="26.85" class="st2" width="4" height="10.25"/>
			<g>
				<ellipse class="st1" cx="57.18" cy="42.96" rx="11.61" ry="9.37"/>
				<ellipse class="st3" cx="64.64" cy="41.51" rx="1.71" ry="1.38"/>
				<ellipse class="st3" cx="58.04" cy="41.51" rx="1.71" ry="1.38"/>
				<path class="st3" d="M66.63,47.34l-7.8,2.28c-0.49,0.14-1-0.14-1.14-0.63v0c-0.14-0.49,0.14-1,0.63-1.14l7.8-2.28
					c0.49-0.14,1,0.14,1.14,0.63v0C67.39,46.69,67.11,47.2,66.63,47.34z"/>
				<ellipse cx="65.57" cy="41.51" rx="0.78" ry="0.63"/>
				<ellipse cx="58.97" cy="41.51" rx="0.78" ry="0.63"/>
			</g>
			<g>
				<rect x="46.71" y="38.59" class="st2" width="4" height="3.33"/>
				<rect x="44.71" y="31.39" class="st2" width="4" height="10.25"/>
			</g>
		</g>
	</g>
	<g>
		<rect x="82.68" y="46.21" class="st2" width="4" height="38.25"/>
		
			<rect x="82.68" y="35.87" transform="matrix(-1.836970e-16 1 -1 -1.836970e-16 129.6974 -39.6595)" class="st2" width="4" height="18.29"/>
	</g>
</g>
</svg>
