<?xml version="1.0" encoding="utf-8"?>
<!-- Generator: Adobe Illustrator 23.0.5, SVG Export Plug-In . SVG Version: 6.00 Build 0)  -->
<svg version="1.1" id="Слой_1" xmlns="http://www.w3.org/2000/svg" xmlns:xlink="http://www.w3.org/1999/xlink" x="0px" y="0px"
	 viewBox="0 0 32 30" style="enable-background:new 0 0 32 30;" xml:space="preserve">
<style type="text/css">
	.st0{opacity:0.01;stroke:#000000;stroke-miterlimit:10;}
	.st1{fill:#DAB786;stroke:#000000;stroke-miterlimit:10;}
	.st2{fill:#EFEFEF;stroke:#000000;stroke-miterlimit:10;}
	.st3{fill:#2E3545;stroke:#000000;stroke-miterlimit:10;}
	.st4{fill:#C44F48;stroke:#000000;stroke-miterlimit:10;}
	.st5{fill:none;stroke:#000000;stroke-width:0.5;stroke-miterlimit:10;}
	.st6{clip-path:url(#SVGID_2_);fill:#4F3F29;}
	.st7{fill:#293B4E;}
	.st8{fill:#F7EE57;stroke:#C85149;stroke-width:0.1;stroke-miterlimit:10;}
	.st9{fill:#0E0F0F;stroke:#0E0F0F;stroke-width:0.1;stroke-miterlimit:10;}
	.st10{fill:#F7EE57;stroke:#F7EE57;stroke-width:0.1;stroke-miterlimit:10;}
	.st11{fill:none;stroke:#F7EE57;stroke-width:0.1;stroke-miterlimit:10;}
	.st12{fill:#0E0F0F;}
	.st13{fill:#F7EE57;}
	.st14{fill:none;stroke:#0E0F0F;stroke-width:0.1;stroke-miterlimit:10;}
	.st15{opacity:0.95;fill:#D76446;stroke:#D76446;stroke-width:0.25;stroke-miterlimit:10;}
	.st16{opacity:0.7;fill:none;stroke:#D76446;stroke-width:0.25;stroke-miterlimit:10;}
</style>
<rect x="0.5" y="0.5" class="st0" width="31" height="29"/>
<circle class="st1" cx="16" cy="6.5" r="3.5"/>
<rect x="12.5" y="10" class="st2" width="7" height="9"/>
<rect x="9" y="10.5" class="st2" width="3.5" height="7"/>
<rect x="12.5" y="19" class="st3" width="3.5" height="7"/>
<rect x="19.5" y="10.5" class="st2" width="3.5" height="7"/>
<rect x="16" y="19" class="st3" width="3.5" height="7"/>
<circle class="st1" cx="10.75" cy="17.73" r="1.75"/>
<circle class="st1" cx="21.25" cy="17.73" r="1.75"/>
<rect x="11.5" y="26" class="st4" width="4" height="2"/>
<rect x="16.5" y="26" class="st4" width="4" height="2"/>
<path class="st5" d="M14.96,8.29c0.2,0.09,0.55,0.22,1.01,0.23c0.49,0.01,0.87-0.14,1.07-0.23"/>
<g>
	<g>
		<defs>
			<ellipse id="SVGID_1_" transform="matrix(0.9463 -0.3232 0.3232 0.9463 -1.2421 5.5197)" cx="16" cy="6.5" rx="3.11" ry="3.13"/>
		</defs>
		<clipPath id="SVGID_2_">
			<use xlink:href="#SVGID_1_"  style="overflow:visible;"/>
		</clipPath>
		<polygon class="st6" points="13.75,1.66 20.47,5.53 12.99,5.51 		"/>
	</g>
</g>
<rect x="13.04" y="21.5" class="st7" width="0.93" height="4"/>
<rect x="16.5" y="21.5" class="st7" width="0.93" height="4"/>
<g>
	<polygon class="st8" points="17.85,13.37 18.01,12.83 17.62,12.43 17.49,11.92 16.99,11.78 16.59,11.37 16.03,11.51 15.52,11.37 
		15.15,11.73 14.6,11.87 14.45,12.41 14.06,12.79 14.19,13.32 14.05,13.83 14.42,14.22 14.55,14.77 15.11,14.93 15.47,15.3 
		15.97,15.17 16.52,15.33 16.94,14.93 17.45,14.8 17.6,14.29 17.99,13.91 	"/>
	<g>
		<g>
			<circle class="st9" cx="16.46" cy="13.36" r="1.08"/>
			<g>
				<g>
					<circle class="st10" cx="16.07" cy="13.24" r="0.14"/>
					<line class="st11" x1="15.93" y1="12.76" x2="16.35" y2="13"/>
				</g>
				<g>
					<circle class="st10" cx="16.85" cy="13.24" r="0.14"/>
					<line class="st11" x1="16.99" y1="12.76" x2="16.58" y2="13"/>
				</g>
			</g>
			<polygon class="st10" points="15.85,13.84 16.95,13.74 16.94,13.93 			"/>
		</g>
		<g>
			<g>
				
					<rect x="15.52" y="12.13" transform="matrix(0.8281 -0.5605 0.5605 0.8281 -4.1876 10.9652)" class="st12" width="0.53" height="0.37"/>
				
					<rect x="15.88" y="12.07" transform="matrix(0.8281 -0.5605 0.5605 0.8281 -4.0948 11.0176)" class="st13" width="0.08" height="0.22"/>
			</g>
			<g>
				<path class="st14" d="M14.61,13.46c0,0.01-0.02,0.13,0.07,0.19c0.03,0.03,0.07,0.03,0.09,0.03c0.06-0.01,0.13-0.04,0.17-0.1
					c0.02-0.02,0.03-0.05,0.03-0.07c0.09-0.43,0.19-0.86,0.29-1.29c0-0.02,0.02-0.09,0.1-0.14c0.06-0.03,0.11-0.03,0.13-0.03
					c0.03,0.01,0.06,0.02,0.09,0.03c0.08,0.04,0.12,0.09,0.15,0.12"/>
				<line class="st14" x1="14.68" y1="13.38" x2="14.79" y2="13.29"/>
				<line class="st14" x1="14.55" y1="13.38" x2="14.44" y2="13.27"/>
				<line class="st14" x1="14.53" y1="13.48" x2="14.41" y2="13.58"/>
				<line class="st14" x1="14.61" y1="13.2" x2="14.61" y2="13.35"/>
				<line class="st14" x1="14.53" y1="13.43" x2="14.38" y2="13.43"/>
				<line class="st14" x1="14.79" y1="13.59" x2="14.68" y2="13.48"/>
				<line class="st14" x1="14.86" y1="13.43" x2="14.71" y2="13.43"/>
			</g>
		</g>
	</g>
</g>
<g>
	<rect x="14.03" y="6.12" class="st15" width="1.23" height="0.76"/>
	<line class="st16" x1="15.26" y1="6.22" x2="16.74" y2="6.22"/>
	<rect x="16.74" y="6.12" class="st15" width="1.23" height="0.75"/>
</g>
</svg>
