<?xml version="1.0" encoding="utf-8"?>
<!-- Generator: Adobe Illustrator 23.0.5, SVG Export Plug-In . SVG Version: 6.00 Build 0)  -->
<svg version="1.1" id="Слой_1" xmlns="http://www.w3.org/2000/svg" xmlns:xlink="http://www.w3.org/1999/xlink" x="0px" y="0px"
	 viewBox="0 0 32 30" style="enable-background:new 0 0 32 30;" xml:space="preserve">
<style type="text/css">
	.st0{opacity:0.01;stroke:#000000;stroke-miterlimit:10;}
	.st1{fill:#DAB786;stroke:#000000;stroke-miterlimit:10;}
	.st2{fill:#FFFFFF;stroke:#000000;stroke-miterlimit:10;}
	.st3{fill:#C44F48;stroke:#000000;stroke-miterlimit:10;}
	.st4{opacity:0.9;fill:url(#SVGID_1_);}
	.st5{fill:#FAE796;stroke:#000000;stroke-width:0.25;stroke-miterlimit:10;}
	.st6{fill:#FAE796;stroke:#FAE796;stroke-width:0.25;stroke-miterlimit:10;}
	.st7{fill:#67482F;stroke:#000000;stroke-width:0.25;stroke-miterlimit:10;}
	.st8{fill:#67482F;stroke:#67482F;stroke-width:0.25;stroke-miterlimit:10;}
	.st9{fill:#AC8054;stroke:#000000;stroke-width:0.25;stroke-miterlimit:10;}
	.st10{fill:#F7EE57;stroke:#C85149;stroke-width:0.1;stroke-miterlimit:10;}
	.st11{fill:#0E0F0F;stroke:#0E0F0F;stroke-width:0.1;stroke-miterlimit:10;}
	.st12{fill:#F7EE57;stroke:#F7EE57;stroke-width:0.1;stroke-miterlimit:10;}
	.st13{fill:none;stroke:#F7EE57;stroke-width:0.1;stroke-miterlimit:10;}
	.st14{fill:#0E0F0F;}
	.st15{fill:#F7EE57;}
	.st16{fill:none;stroke:#0E0F0F;stroke-width:0.1;stroke-miterlimit:10;}
	.st17{fill:#2E3545;stroke:#000000;stroke-miterlimit:10;}
	.st18{fill:#293B4E;}
</style>
<rect x="0.5" y="0.5" class="st0" width="31" height="29"/>
<circle class="st1" cx="10.75" cy="17.73" r="1.75"/>
<circle class="st1" cx="21.25" cy="17.73" r="1.75"/>
<circle class="st1" cx="16" cy="6.5" r="3.5"/>
<rect x="9" y="10.5" class="st2" width="3.5" height="7"/>
<rect x="19.5" y="10.5" class="st2" width="3.5" height="7"/>
<rect x="12.5" y="26" class="st3" width="3.5" height="2"/>
<rect x="16" y="26" class="st3" width="3.5" height="2"/>
<linearGradient id="SVGID_1_" gradientUnits="userSpaceOnUse" x1="16" y1="8.625" x2="16" y2="3.4063">
	<stop  offset="0.2" style="stop-color:#67482F"/>
	<stop  offset="1" style="stop-color:#000000"/>
</linearGradient>
<ellipse class="st4" cx="16" cy="6.02" rx="3" ry="2.61"/>
<circle class="st5" cx="17.5" cy="12.5" r="1"/>
<rect x="16.5" y="11.5" class="st5" width="2" height="1"/>
<path class="st6" d="M16.65,12.5h1.7H16.65z"/>
<g>
	<rect x="14.65" y="12.14" class="st7" width="0.5" height="0.97"/>
	<rect x="14.25" y="11.7" class="st7" width="0.9" height="0.44"/>
	<rect x="14.25" y="13.11" class="st7" width="0.9" height="0.44"/>
	<path class="st8" d="M14.9,12.01v1.23V12.01z"/>
</g>
<circle class="st9" cx="14" cy="11.88" r="0.5"/>
<circle class="st9" cx="14" cy="13.38" r="0.5"/>
<rect x="12.5" y="10" class="st2" width="7" height="9"/>
<g>
	<polygon class="st10" points="17.83,14.03 17.98,13.48 17.59,13.08 17.46,12.58 16.96,12.43 16.56,12.02 16,12.16 15.5,12.02 
		15.12,12.38 14.57,12.52 14.42,13.06 14.03,13.44 14.16,13.97 14.02,14.49 14.39,14.87 14.53,15.42 15.08,15.58 15.44,15.95 
		15.94,15.83 16.49,15.98 16.91,15.58 17.43,15.45 17.57,14.94 17.96,14.56 	"/>
	<g>
		<g>
			<circle class="st11" cx="16.43" cy="14.01" r="1.08"/>
			<g>
				<g>
					<circle class="st12" cx="16.04" cy="13.9" r="0.14"/>
					<line class="st13" x1="15.91" y1="13.42" x2="16.32" y2="13.66"/>
				</g>
				<g>
					<circle class="st12" cx="16.83" cy="13.9" r="0.14"/>
					<line class="st13" x1="16.96" y1="13.42" x2="16.55" y2="13.66"/>
				</g>
			</g>
			<polygon class="st12" points="15.82,14.49 16.92,14.39 16.91,14.58 			"/>
		</g>
		<g>
			<g>
				
					<rect x="15.5" y="12.78" transform="matrix(0.8281 -0.5605 0.5605 0.8281 -4.5575 11.0615)" class="st14" width="0.53" height="0.37"/>
				
					<rect x="15.85" y="12.73" transform="matrix(0.8281 -0.5605 0.5605 0.8281 -4.4647 11.1138)" class="st15" width="0.08" height="0.22"/>
			</g>
			<g>
				<path class="st16" d="M14.59,14.11c0,0.01-0.02,0.13,0.07,0.19c0.03,0.03,0.07,0.03,0.09,0.03c0.06-0.01,0.13-0.04,0.17-0.1
					c0.02-0.02,0.03-0.05,0.03-0.07c0.09-0.43,0.19-0.86,0.29-1.29c0-0.02,0.02-0.09,0.1-0.14c0.06-0.03,0.11-0.03,0.13-0.03
					c0.03,0.01,0.06,0.02,0.09,0.03c0.08,0.04,0.12,0.09,0.15,0.12"/>
				<line class="st16" x1="14.65" y1="14.03" x2="14.76" y2="13.94"/>
				<line class="st16" x1="14.52" y1="14.03" x2="14.41" y2="13.92"/>
				<line class="st16" x1="14.5" y1="14.14" x2="14.38" y2="14.23"/>
				<line class="st16" x1="14.59" y1="13.85" x2="14.59" y2="14"/>
				<line class="st16" x1="14.5" y1="14.09" x2="14.35" y2="14.09"/>
				<line class="st16" x1="14.76" y1="14.24" x2="14.65" y2="14.13"/>
				<line class="st16" x1="14.83" y1="14.08" x2="14.68" y2="14.08"/>
			</g>
		</g>
	</g>
</g>
<rect x="12.5" y="19" class="st17" width="3.5" height="7"/>
<rect x="16" y="19" class="st17" width="3.5" height="7"/>
<rect x="13.02" y="21.5" class="st18" width="0.93" height="4"/>
<rect x="16.49" y="21.5" class="st18" width="0.93" height="4"/>
</svg>
