<?xml version="1.0" encoding="utf-8"?>
<!-- Generator: Adobe Illustrator 23.0.5, SVG Export Plug-In . SVG Version: 6.00 Build 0)  -->
<svg version="1.1" id="Слой_1" xmlns="http://www.w3.org/2000/svg" xmlns:xlink="http://www.w3.org/1999/xlink" x="0px" y="0px"
	 viewBox="0 0 120 120" style="enable-background:new 0 0 120 120;" xml:space="preserve">
<style type="text/css">
	.st0{opacity:0.01;}
	.st1{fill:#94765A;stroke:#000000;stroke-miterlimit:10;}
	.st2{fill:#B39471;stroke:#000000;stroke-miterlimit:10;}
	.st3{fill:#D76446;stroke:#000000;stroke-miterlimit:10;}
	.st4{fill:#FFF343;stroke:#000000;stroke-miterlimit:10;}
	.st5{stroke:#FFFFFF;stroke-miterlimit:10;}
	.st6{fill:none;stroke:#FFFFFF;stroke-miterlimit:10;}
	.st7{fill:none;stroke:#000000;stroke-miterlimit:10;}
</style>
<rect y="0" class="st0" width="120" height="120"/>
<path class="st1" d="M64.45,48.57h-8.9c-0.41,0-0.74-0.33-0.74-0.74V38.1c0-0.41,0.33-0.74,0.74-0.74h8.9
	c0.41,0,0.74,0.33,0.74,0.74v9.74C65.19,48.24,64.86,48.57,64.45,48.57z"/>
<circle class="st2" cx="60" cy="35.29" r="7.42"/>
<path class="st3" d="M75.72,76.74H44.28c-2.78,0-5.04-2.26-5.04-5.04V49.46c0-2.78,2.26-5.04,5.04-5.04h31.44
	c2.78,0,5.04,2.26,5.04,5.04V71.7C80.76,74.48,78.5,76.74,75.72,76.74z"/>
<rect x="34.21" y="73.04" class="st3" width="51.58" height="10.42"/>
<rect x="51.12" y="26.95" class="st3" width="18.07" height="5.73"/>
<path class="st2" d="M57.85,65.64l-15.47-5.97v-12.7c0-1.41-1.14-2.55-2.55-2.55h-2.67c-1.41,0-2.55,1.14-2.55,2.55v16.21
	c0,1.08,0.67,2,1.62,2.37c0.16,0.11,0.33,0.2,0.51,0.28l18.31,7.06c1.32,0.51,2.79-0.15,3.3-1.46l0.96-2.49
	C59.82,67.62,59.16,66.15,57.85,65.64z"/>
<path class="st2" d="M84.65,62.49V46.97c0-1.41-1.14-2.55-2.55-2.55h-2.67c-1.41,0-2.55,1.14-2.55,2.55v12.86l-15.06,5.81
	c-1.32,0.51-1.97,1.98-1.46,3.3l0.96,2.49c0.51,1.32,1.98,1.97,3.3,1.46l18.55-7.16C84.46,65.23,85.11,63.79,84.65,62.49z"/>
<rect x="34.61" y="44.42" class="st4" width="10.64" height="7.96"/>
<rect x="74.15" y="44.42" class="st4" width="10.64" height="7.96"/>
<line class="st5" x1="54.81" y1="35.02" x2="57.38" y2="35.02"/>
<line class="st6" x1="61.94" y1="35.02" x2="64.5" y2="35.02"/>
<line class="st7" x1="57.69" y1="38.55" x2="61.63" y2="38.55"/>
</svg>
