<?xml version="1.0" encoding="utf-8"?>
<!-- Generator: Adobe Illustrator 23.0.5, SVG Export Plug-In . SVG Version: 6.00 Build 0)  -->
<svg version="1.1" id="Слой_1" xmlns="http://www.w3.org/2000/svg" xmlns:xlink="http://www.w3.org/1999/xlink" x="0px" y="0px"
	 viewBox="0 0 120 120" style="enable-background:new 0 0 120 120;" xml:space="preserve">
<style type="text/css">
	.st0{opacity:0.01;}
	.st1{fill:url(#SVGID_1_);stroke:#000000;stroke-miterlimit:10;}
	.st2{fill:#46433E;stroke:#000000;stroke-miterlimit:10;}
	.st3{fill:#46433E;}
	.st4{fill:#272624;stroke:#000000;stroke-miterlimit:10;}
	.st5{fill:#272624;}
	.st6{fill:url(#SVGID_2_);}
	.st7{fill:url(#SVGID_3_);}
	.st8{fill:url(#SVGID_4_);}
	.st9{fill:url(#SVGID_5_);}
	.st10{fill:url(#SVGID_6_);}
	.st11{fill:url(#SVGID_7_);}
	.st12{fill:url(#SVGID_8_);}
	.st13{fill:url(#SVGID_9_);}
	.st14{fill:#979695;stroke:#595651;stroke-width:2;stroke-miterlimit:10;}
	.st15{fill:none;stroke:#000000;stroke-miterlimit:10;}
	.st16{fill:#595651;stroke:#000000;stroke-miterlimit:10;}
	.st17{stroke:#000000;stroke-miterlimit:10;}
	.st18{fill:url(#SVGID_10_);}
	.st19{fill:url(#SVGID_11_);}
	.st20{fill:url(#SVGID_12_);}
	.st21{fill:url(#SVGID_13_);}
	.st22{fill:url(#SVGID_14_);}
	.st23{fill:url(#SVGID_15_);}
	.st24{fill:url(#SVGID_16_);}
	.st25{fill:url(#SVGID_17_);}
	.st26{fill:none;}
</style>
<rect x="-0.05" y="-0.51" transform="matrix(-1 -4.489132e-11 4.489132e-11 -1 119.8933 118.976)" class="st0" width="120" height="120"/>
<linearGradient id="SVGID_1_" gradientUnits="userSpaceOnUse" x1="92.3013" y1="61.0798" x2="110.3584" y2="61.0798" gradientTransform="matrix(1 0 0 -1 -41.1783 104.1385)">
	<stop  offset="0.1061" style="stop-color:#488988"/>
	<stop  offset="1" style="stop-color:#000000"/>
</linearGradient>
<rect x="51.12" y="40.99" class="st1" width="18.06" height="4.14"/>
<g>
	
		<rect x="59.04" y="98.78" transform="matrix(-1 -4.490465e-11 4.490465e-11 -1 135.3406 204.4101)" class="st2" width="17.26" height="6.86"/>
	
		<rect x="59.01" y="69.96" transform="matrix(-1 -4.501123e-11 4.501123e-11 -1 132.8082 168.2467)" class="st2" width="14.79" height="28.33"/>
	
		<rect x="69.23" y="82.96" transform="matrix(-1 -4.509560e-11 4.509560e-11 -1 141.6053 179.4645)" class="st3" width="3.15" height="13.55"/>
	
		<rect x="61.05" y="94.55" transform="matrix(-1 -4.496415e-11 4.496415e-11 -1 133.4243 191.0552)" class="st3" width="11.33" height="1.96"/>
	
		<rect x="62.34" y="70.64" transform="matrix(-1 -4.496904e-11 4.496904e-11 -1 135.5922 143.2449)" class="st3" width="10.92" height="1.96"/>
</g>
<g>
	
		<rect x="45.05" y="105.53" transform="matrix(-1 -4.490465e-11 4.490465e-11 -1 107.3524 217.9172)" class="st4" width="17.26" height="6.86"/>
	
		<rect x="45.01" y="76.71" transform="matrix(-1 -4.476520e-11 4.476520e-11 -1 104.82 181.7538)" class="st4" width="14.79" height="28.33"/>
	
		<rect x="55.24" y="89.71" transform="matrix(-1 -4.509560e-11 4.509560e-11 -1 113.6171 192.9715)" class="st5" width="3.15" height="13.55"/>
	
		<rect x="47.05" y="101.3" transform="matrix(-1 -4.496415e-11 4.496415e-11 -1 105.4361 204.5622)" class="st5" width="11.33" height="1.96"/>
	
		<rect x="48.34" y="77.4" transform="matrix(-1 -4.496904e-11 4.496904e-11 -1 107.604 156.7519)" class="st5" width="10.92" height="1.96"/>
</g>
<g>
	<linearGradient id="SVGID_2_" gradientUnits="userSpaceOnUse" x1="80.9629" y1="64.9575" x2="87.9555" y2="64.9575">
		<stop  offset="0.1061" style="stop-color:#488988"/>
		<stop  offset="1" style="stop-color:#000000"/>
	</linearGradient>
	<polygon class="st6" points="85.88,70.59 80.96,69.59 83.04,59.33 87.96,60.32 	"/>
	<linearGradient id="SVGID_3_" gradientUnits="userSpaceOnUse" x1="87.4136" y1="62.0671" x2="91.9574" y2="62.0671">
		<stop  offset="0.1061" style="stop-color:#488988"/>
		<stop  offset="1" style="stop-color:#000000"/>
	</linearGradient>
	<polygon class="st7" points="91.42,63.81 87.41,63 87.96,60.32 91.96,61.13 	"/>
	<linearGradient id="SVGID_4_" gradientUnits="userSpaceOnUse" x1="86.8717" y1="64.8698" x2="92.6352" y2="64.8698">
		<stop  offset="0.1061" style="stop-color:#488988"/>
		<stop  offset="1" style="stop-color:#000000"/>
	</linearGradient>
	<polygon class="st8" points="92.09,66.74 86.87,65.68 87.41,63 92.64,64.06 	"/>
	<linearGradient id="SVGID_5_" gradientUnits="userSpaceOnUse" x1="86.3298" y1="67.5056" x2="91.6618" y2="67.5056">
		<stop  offset="0.1061" style="stop-color:#488988"/>
		<stop  offset="1" style="stop-color:#000000"/>
	</linearGradient>
	<polygon class="st9" points="91.12,69.33 86.33,68.36 86.87,65.68 91.66,66.65 	"/>
	<linearGradient id="SVGID_6_" gradientUnits="userSpaceOnUse" x1="85.7878" y1="70.1053" x2="90.3317" y2="70.1053">
		<stop  offset="0.1061" style="stop-color:#488988"/>
		<stop  offset="1" style="stop-color:#000000"/>
	</linearGradient>
	<polygon class="st10" points="89.79,71.85 85.79,71.04 86.33,68.36 90.33,69.17 	"/>
	<linearGradient id="SVGID_7_" gradientUnits="userSpaceOnUse" x1="85.7697" y1="61.2488" x2="89.7666" y2="61.2488">
		<stop  offset="0.1061" style="stop-color:#488988"/>
		<stop  offset="1" style="stop-color:#000000"/>
	</linearGradient>
	<polygon class="st11" points="88.86,63.81 85.77,63.19 86.68,58.69 89.77,59.31 	"/>
	<linearGradient id="SVGID_8_" gradientUnits="userSpaceOnUse" x1="76.2254" y1="64.1899" x2="82.7678" y2="64.1899">
		<stop  offset="0.1061" style="stop-color:#488988"/>
		<stop  offset="1" style="stop-color:#000000"/>
	</linearGradient>
	<polygon class="st12" points="81.14,68.71 76.23,67.71 77.85,59.67 82.77,60.67 	"/>
</g>
<polygon class="st2" points="61.1,66.32 60.99,45.72 72.98,45.65 73.04,56.68 81.98,58.55 79.53,70.29 61.25,66.47 61.28,66.32 "/>
<linearGradient id="SVGID_9_" gradientUnits="userSpaceOnUse" x1="60.0655" y1="30.1722" x2="46.4449" y2="8.9698" gradientTransform="matrix(-1 0 0 1 119.8933 0)">
	<stop  offset="0.1061" style="stop-color:#488988"/>
	<stop  offset="1" style="stop-color:#000000"/>
</linearGradient>
<ellipse class="st13" cx="60.66" cy="28.87" rx="15.55" ry="15.51"/>
<line class="st14" x1="61.35" y1="38.31" x2="69.85" y2="39.54"/>
<ellipse class="st15" cx="60.67" cy="28.87" rx="15.55" ry="15.51"/>
<rect x="61.77" y="45.13" transform="matrix(-1 -4.474655e-11 4.474655e-11 -1 138.5814 126.1279)" class="st16" width="15.04" height="35.87"/>
<rect x="42.48" y="45.13" transform="matrix(-1 -4.487534e-11 4.487534e-11 -1 104.246 129.9613)" class="st16" width="19.29" height="39.71"/>
<rect x="40.81" y="44.44" transform="matrix(-1 -4.489488e-11 4.489488e-11 -1 119.7866 90.2559)" class="st17" width="38.17" height="1.37"/>
<g>
	<g>
		
			<linearGradient id="SVGID_10_" gradientUnits="userSpaceOnUse" x1="71.46" y1="80.3489" x2="76.3589" y2="80.3489" gradientTransform="matrix(0.4848 -0.8746 0.8746 0.4848 -26.5846 78.6914)">
			<stop  offset="0.1061" style="stop-color:#488988"/>
			<stop  offset="1" style="stop-color:#000000"/>
		</linearGradient>
		<polygon class="st18" points="81.98,53.1 78.5,55.24 77.07,52.91 80.54,50.77 		"/>
		
			<linearGradient id="SVGID_11_" gradientUnits="userSpaceOnUse" x1="72.8005" y1="78.1636" x2="78.4003" y2="78.1636" gradientTransform="matrix(0.4848 -0.8746 0.8746 0.4848 -26.5846 78.6914)">
			<stop  offset="0.1061" style="stop-color:#488988"/>
			<stop  offset="1" style="stop-color:#000000"/>
		</linearGradient>
		<polygon class="st19" points="81.23,50.35 77.07,52.91 75.63,50.59 79.8,48.02 		"/>
		
			<linearGradient id="SVGID_12_" gradientUnits="userSpaceOnUse" x1="75.4815" y1="73.2015" x2="80.3804" y2="73.2015" gradientTransform="matrix(0.4848 -0.8746 0.8746 0.4848 -26.5846 78.6914)">
			<stop  offset="0.1061" style="stop-color:#488988"/>
			<stop  offset="1" style="stop-color:#000000"/>
		</linearGradient>
		<polygon class="st20" points="77.68,46.12 74.2,48.26 72.77,45.93 76.24,43.79 		"/>
		
			<linearGradient id="SVGID_13_" gradientUnits="userSpaceOnUse" x1="74.141" y1="75.8891" x2="80.1244" y2="75.8891" gradientTransform="matrix(0.4848 -0.8746 0.8746 0.4848 -26.5846 78.6914)">
			<stop  offset="0.1061" style="stop-color:#488988"/>
			<stop  offset="1" style="stop-color:#000000"/>
		</linearGradient>
		<polygon class="st21" points="80.17,47.79 75.63,50.59 74.2,48.26 78.74,45.47 		"/>
		
			<linearGradient id="SVGID_14_" gradientUnits="userSpaceOnUse" x1="73.8611" y1="71.8327" x2="78.8562" y2="71.8327" gradientTransform="matrix(0.4848 -0.8746 0.8746 0.4848 -26.5846 78.6914)">
			<stop  offset="0.1061" style="stop-color:#488988"/>
			<stop  offset="1" style="stop-color:#000000"/>
		</linearGradient>
		<polygon class="st22" points="75.81,47.86 73.13,49.52 70.72,45.61 73.4,43.96 		"/>
		
			<linearGradient id="SVGID_15_" gradientUnits="userSpaceOnUse" x1="67.3152" y1="74.8846" x2="78.7489" y2="74.8846" gradientTransform="matrix(0.4848 -0.8746 0.8746 0.4848 -26.5846 78.6914)">
			<stop  offset="0.1061" style="stop-color:#488988"/>
			<stop  offset="1" style="stop-color:#000000"/>
		</linearGradient>
		<polygon class="st23" points="80.14,53.69 73.99,57.48 68.5,48.56 74.65,44.77 		"/>
		
			<linearGradient id="SVGID_16_" gradientUnits="userSpaceOnUse" x1="63.3868" y1="72.0844" x2="71.78" y2="72.0844" gradientTransform="matrix(0.4848 -0.8746 0.8746 0.4848 -26.5846 78.6914)">
			<stop  offset="0.1061" style="stop-color:#488988"/>
			<stop  offset="1" style="stop-color:#000000"/>
		</linearGradient>
		<polygon class="st24" points="73.51,56.71 69.24,59.34 64.94,52.36 69.21,49.73 		"/>
	</g>
	<path class="st4" d="M56.76,68.69L45.88,57.08c-0.39-0.32-0.72-0.69-1.01-1.08l-2.2-2.35l1.05-0.99c-0.03-1.05,0.2-2.12,0.74-3.1
		c1.2-2.16,3.52-3.28,5.83-3.06l1.12-1.05l7.54,8.05l7.83-4.7l6.17,10.28l-16,9.62l-0.08-0.13L56.76,68.69z"/>
</g>
<linearGradient id="SVGID_17_" gradientUnits="userSpaceOnUse" x1="43.4243" y1="15.0606" x2="81.4493" y2="15.0606" gradientTransform="matrix(0.6825 -0.0926 -0.0926 0.5466 18.7583 21.8864)">
	<stop  offset="0" style="stop-color:#6086C4"/>
	<stop  offset="1" style="stop-color:#6086C4;stop-opacity:0"/>
</linearGradient>
<polygon class="st25" points="47.89,20.86 73.32,20.44 48.5,31.01 "/>
<ellipse transform="matrix(0.9974 -0.0724 0.0724 0.9974 -1.9373 4.4809)" class="st26" cx="60.84" cy="28.96" rx="15.44" ry="15.51"/>
<line class="st14" x1="70.8" y1="30.3" x2="75.73" y2="29.32"/>
<line class="st14" x1="59.3" y1="28.66" x2="62.68" y2="31.96"/>
</svg>
