<?xml version="1.0" encoding="utf-8"?>
<!-- Generator: Adobe Illustrator 23.0.5, SVG Export Plug-In . SVG Version: 6.00 Build 0)  -->
<svg version="1.1" id="Слой_1" xmlns="http://www.w3.org/2000/svg" xmlns:xlink="http://www.w3.org/1999/xlink" x="0px" y="0px"
	 viewBox="0 0 60 60" style="enable-background:new 0 0 60 60;" xml:space="preserve">
<style type="text/css">
	.st0{opacity:0.5;fill:#826B4B;}
	.st1{fill:#826B4B;stroke:#000000;stroke-width:0.75;stroke-miterlimit:10;}
	.st2{fill:#BC9B71;stroke:#BC9B71;stroke-width:0.75;stroke-miterlimit:10;}
	.st3{clip-path:url(#SVGID_2_);fill:#FFFFFF;stroke:#FFFFFF;stroke-width:0.75;stroke-miterlimit:10;}
	.st4{clip-path:url(#SVGID_2_);fill:#BC9B71;stroke:#BC9B71;stroke-width:0.75;stroke-miterlimit:10;}
</style>
<rect x="0" class="st0" width="60" height="60"/>
<path class="st1" d="M37.48,31.43c-0.28-1.06-0.24-2.15,0.06-3.17c2.62-1.7,4.07-4.24,3.46-6.58c-0.85-3.25-5.38-4.88-10.1-3.64
	c-3.13,0.82-5.54,2.7-6.57,4.82l-10.81,4.33l-4.17,0.76L22.7,45.52h4.45l12.9-5.38c0.09-0.02,0.19-0.04,0.28-0.06
	c2.76-0.73,4.97-2.27,6.17-4.08C42.41,36.94,38.4,34.95,37.48,31.43z M26.62,23.07c4.02-0.84,7.91,1.15,8.82,4.61
	c0.1,0.39,0.14,0.78,0.16,1.17c-0.6,0.25-1.17,0.54-1.69,0.86L26.62,23.07z"/>
<rect x="26.48" y="29.39" transform="matrix(0.9898 -0.1422 0.1422 0.9898 -4.4038 4.3126)" class="st2" width="2.99" height="7.17"/>
<g>
	<defs>
		<circle id="SVGID_1_" cx="28.37" cy="32.48" r="10.8"/>
	</defs>
	<clipPath id="SVGID_2_">
		<use xlink:href="#SVGID_1_"  style="overflow:visible;"/>
	</clipPath>
	
		<rect x="15.51" y="27.19" transform="matrix(0.9573 -0.289 0.289 0.9573 -7.3166 6.7785)" class="st3" width="7.57" height="1.96"/>
	
		<rect x="20.41" y="40.2" transform="matrix(0.8856 0.4644 -0.4644 0.8856 21.8941 -6.5239)" class="st3" width="7.57" height="1.96"/>
	
		<rect x="17.36" y="32.46" transform="matrix(0.7804 -0.6252 0.6252 0.7804 -17.4442 18.7998)" class="st4" width="1.36" height="3.55"/>
	
		<rect x="35.4" y="34.7" transform="matrix(0.7804 -0.6252 0.6252 0.7804 -14.8836 30.5666)" class="st4" width="1.36" height="3.55"/>
	
		<rect x="33.56" y="20.25" transform="matrix(0.7804 -0.6252 0.6252 0.7804 -6.2557 26.2422)" class="st4" width="1.36" height="3.55"/>
</g>
</svg>
