<?xml version="1.0" encoding="utf-8"?>
<!-- Generator: Adobe Illustrator 23.0.5, SVG Export Plug-In . SVG Version: 6.00 Build 0)  -->
<svg version="1.1" id="Слой_1" xmlns="http://www.w3.org/2000/svg" xmlns:xlink="http://www.w3.org/1999/xlink" x="0px" y="0px"
	 viewBox="0 0 60 60" style="enable-background:new 0 0 60 60;" xml:space="preserve">
<style type="text/css">
	.st0{opacity:0.5;fill:#929190;}
	.st1{fill:#FFFFFF;}
	.st2{fill:none;stroke:#000000;stroke-miterlimit:10;}
	.st3{fill:#D8D8D8;}
	.st4{fill:none;stroke:#AAAAA9;stroke-miterlimit:10;}
	.st5{fill:#533D14;}
	.st6{fill:#826B4B;}
</style>
<rect x="0" class="st0" width="60" height="60"/>
<g>
	<g>
		<g>
			<g>
				<g>
					<path class="st1" d="M19.49,19.3v26.48c0,2.24,5.1,4.05,11.38,4.05c6.29,0,11.38-1.82,11.38-4.05V19.3H19.49z"/>
				</g>
				<g>
					<path class="st2" d="M19.49,19.3v26.48c0,2.24,5.1,4.05,11.38,4.05c6.29,0,11.38-1.82,11.38-4.05V19.3H19.49z"/>
				</g>
			</g>
			<g>
				<g>
					<ellipse class="st1" cx="30.87" cy="19.3" rx="11.38" ry="4.05"/>
				</g>
				<g>
					<ellipse class="st2" cx="30.87" cy="19.3" rx="11.38" ry="4.05"/>
				</g>
			</g>
		</g>
	</g>
</g>
<g>
	<g>
		<g>
			<g>
				<g>
					<path class="st3" d="M19.49,31.43v15.96c0,1.35,5.1,2.44,11.38,2.44c6.29,0,11.38-1.09,11.38-2.44V31.43H19.49z"/>
				</g>
				<g>
					<path class="st2" d="M19.49,31.43v15.96c0,1.35,5.1,2.44,11.38,2.44c6.29,0,11.38-1.09,11.38-2.44V31.43H19.49z"/>
				</g>
			</g>
			<g>
				<g>
					<ellipse class="st3" cx="30.87" cy="31.43" rx="11.38" ry="2.44"/>
				</g>
				<g>
					<ellipse class="st2" cx="30.87" cy="31.43" rx="11.38" ry="2.44"/>
				</g>
			</g>
		</g>
	</g>
</g>
<line class="st4" x1="24.07" y1="39.01" x2="37.08" y2="39.01"/>
<line class="st4" x1="24.07" y1="43.52" x2="37.08" y2="43.52"/>
<g>
	<g>
		<g>
			<path class="st5" d="M8.53,47.02v5.07c0,0.43,5.1,0.78,11.38,0.78c6.29,0,11.38-0.35,11.38-0.78v-5.07H8.53z"/>
		</g>
		<g>
			<path class="st2" d="M8.53,47.02v5.07c0,0.43,5.1,0.78,11.38,0.78c6.29,0,11.38-0.35,11.38-0.78v-5.07H8.53z"/>
		</g>
	</g>
	<g>
		<g>
			<ellipse class="st6" cx="19.91" cy="47.02" rx="11.38" ry="0.78"/>
		</g>
		<g>
			<ellipse class="st2" cx="19.91" cy="47.02" rx="11.38" ry="0.78"/>
		</g>
	</g>
</g>
</svg>
