<?xml version="1.0" encoding="utf-8"?>
<!-- Generator: Adobe Illustrator 23.0.5, SVG Export Plug-In . SVG Version: 6.00 Build 0)  -->
<svg version="1.1" id="Слой_1" xmlns="http://www.w3.org/2000/svg" xmlns:xlink="http://www.w3.org/1999/xlink" x="0px" y="0px"
	 viewBox="0 0 32 30" style="enable-background:new 0 0 32 30;" xml:space="preserve">
<style type="text/css">
	.st0{opacity:0.01;fill:#1B1917;stroke:#1B1917;stroke-miterlimit:10;}
	.st1{fill:#BB524C;stroke:#0E0F0F;stroke-miterlimit:10;}
	.st2{fill:#323845;stroke:#0E0F0F;stroke-miterlimit:10;}
	.st3{fill:#33404F;}
	.st4{fill:#D5B587;stroke:#0E0F0F;stroke-miterlimit:10;}
	.st5{opacity:0.9;fill:url(#SVGID_1_);}
	.st6{fill:#FFFFFF;stroke:#0E0F0F;stroke-miterlimit:10;}
	.st7{fill:#EEE764;stroke:#BD544D;stroke-width:0.1;stroke-miterlimit:10;}
	.st8{fill:#0E0F0F;stroke:#0E0F0F;stroke-width:0.1;stroke-miterlimit:10;}
	.st9{fill:#EEE764;stroke:#EEE764;stroke-width:0.1;stroke-miterlimit:10;}
	.st10{fill:none;stroke:#EEE764;stroke-width:0.1;stroke-miterlimit:10;}
	.st11{fill:#0E0F0F;}
	.st12{fill:#EEE764;}
	.st13{fill:none;stroke:#0E0F0F;stroke-width:0.1;stroke-miterlimit:10;}
	.st14{fill:#EFEEEF;stroke:#0E0F0F;stroke-miterlimit:10;}
</style>
<rect x="0.5" y="0.5" class="st0" width="31" height="29"/>
<g>
	<rect x="15.93" y="26" class="st1" width="3.5" height="2"/>
	<rect x="15.93" y="18.97" class="st2" width="3.5" height="7"/>
	<rect x="16.47" y="21.47" class="st3" width="0.93" height="4"/>
</g>
<g>
	<rect x="12.43" y="23.78" class="st1" width="3.5" height="2"/>
	<rect x="12.43" y="18.97" class="st2" width="3.5" height="4.63"/>
	<rect x="13.01" y="20.97" class="st3" width="0.93" height="2"/>
</g>
<g>
	<circle class="st4" cx="10.64" cy="17.67" r="1.75"/>
	<circle class="st4" cx="21.14" cy="17.67" r="1.75"/>
	<circle class="st4" cx="15.93" cy="6.4" r="3.5"/>
	<linearGradient id="SVGID_1_" gradientUnits="userSpaceOnUse" x1="15.9297" y1="8.5255" x2="15.9297" y2="3.3068">
		<stop  offset="0.2" style="stop-color:#654832"/>
		<stop  offset="1" style="stop-color:#000000"/>
	</linearGradient>
	<ellipse class="st5" cx="15.93" cy="5.92" rx="3" ry="2.61"/>
	<rect x="12.39" y="9.92" class="st6" width="7" height="9"/>
	<g>
		<polygon class="st7" points="17.76,13.93 17.91,13.38 17.52,12.98 17.39,12.48 16.89,12.33 16.49,11.92 15.93,12.06 15.43,11.92 
			15.05,12.28 14.5,12.42 14.35,12.96 13.96,13.34 14.09,13.87 13.95,14.39 14.32,14.77 14.46,15.32 15.01,15.48 15.37,15.85 
			15.87,15.73 16.42,15.88 16.84,15.48 17.36,15.35 17.5,14.84 17.89,14.46 		"/>
		<g>
			<g>
				<circle class="st8" cx="16.36" cy="13.91" r="1.08"/>
				<g>
					<g>
						<circle class="st9" cx="15.97" cy="13.8" r="0.14"/>
						<line class="st10" x1="15.84" y1="13.32" x2="16.25" y2="13.56"/>
					</g>
					<g>
						<circle class="st9" cx="16.76" cy="13.8" r="0.14"/>
						<line class="st10" x1="16.89" y1="13.32" x2="16.48" y2="13.56"/>
					</g>
				</g>
				<polygon class="st9" points="15.75,14.39 16.85,14.29 16.84,14.48 				"/>
			</g>
			<g>
				<g>
					
						<rect x="15.43" y="12.68" transform="matrix(0.8281 -0.5605 0.5605 0.8281 -4.5139 11.005)" class="st11" width="0.53" height="0.37"/>
					
						<rect x="15.78" y="12.63" transform="matrix(0.8281 -0.5605 0.5605 0.8281 -4.421 11.0573)" class="st12" width="0.08" height="0.22"/>
				</g>
				<g>
					<path class="st13" d="M14.52,14.01c0,0.01-0.02,0.13,0.07,0.19c0.03,0.03,0.07,0.03,0.09,0.03c0.06-0.01,0.13-0.04,0.17-0.1
						c0.02-0.02,0.03-0.05,0.03-0.07c0.09-0.43,0.19-0.86,0.29-1.29c0-0.02,0.02-0.09,0.1-0.14c0.06-0.03,0.11-0.03,0.13-0.03
						c0.03,0.01,0.06,0.02,0.09,0.03c0.08,0.04,0.12,0.09,0.15,0.12"/>
					<line class="st13" x1="14.58" y1="13.94" x2="14.69" y2="13.84"/>
					<line class="st13" x1="14.45" y1="13.93" x2="14.34" y2="13.82"/>
					<line class="st13" x1="14.43" y1="14.04" x2="14.31" y2="14.13"/>
					<line class="st13" x1="14.52" y1="13.75" x2="14.52" y2="13.9"/>
					<line class="st13" x1="14.43" y1="13.99" x2="14.28" y2="13.99"/>
					<line class="st13" x1="14.69" y1="14.14" x2="14.58" y2="14.03"/>
					<line class="st13" x1="14.76" y1="13.98" x2="14.61" y2="13.98"/>
				</g>
			</g>
		</g>
	</g>
	<rect x="8.89" y="10.43" class="st14" width="3.5" height="7"/>
	<rect x="19.39" y="10.43" class="st14" width="3.5" height="7"/>
</g>
</svg>
