<?xml version="1.0" encoding="utf-8"?>
<!-- Generator: Adobe Illustrator 23.0.5, SVG Export Plug-In . SVG Version: 6.00 Build 0)  -->
<svg version="1.1" id="Слой_1" xmlns="http://www.w3.org/2000/svg" xmlns:xlink="http://www.w3.org/1999/xlink" x="0px" y="0px"
	 viewBox="0 0 120 120" style="enable-background:new 0 0 120 120;" xml:space="preserve">
<style type="text/css">
	.st0{opacity:0.01;}
	.st1{fill:#DAB786;stroke:#000000;stroke-miterlimit:10;}
	.st2{fill:#CE4942;stroke:#000000;stroke-miterlimit:10;}
	.st3{fill:#1A2745;stroke:#000000;stroke-miterlimit:10;}
	.st4{fill:#003450;}
	.st5{fill:#7E6854;}
	.st6{fill:#FFFFFF;stroke:#000000;stroke-miterlimit:10;}
	.st7{fill:none;stroke:#000000;stroke-width:2;stroke-miterlimit:10;}
	.st8{fill:none;stroke:#000000;stroke-miterlimit:10;}
	.st9{clip-path:url(#SVGID_2_);fill:#533D14;}
	.st10{fill:#FFFFFF;}
	.st11{stroke:#000000;stroke-miterlimit:10;}
	.st12{fill:#FFF343;stroke:#D24A43;stroke-miterlimit:10;}
	.st13{fill:#FFF343;stroke:#FFF343;stroke-miterlimit:10;}
	.st14{fill:none;stroke:#FFF343;stroke-width:0.5;stroke-miterlimit:10;}
	.st15{fill:#FFF343;stroke:#FFF343;stroke-width:0.5;stroke-miterlimit:10;}
	.st16{fill:#FFF343;}
	.st17{fill:none;stroke:#000000;stroke-width:0.5;stroke-miterlimit:10;}
	.st18{fill:none;stroke:#000000;stroke-width:0.25;stroke-miterlimit:10;}
	.st19{opacity:0.7;fill:#D76446;stroke:#D76446;stroke-miterlimit:10;}
	.st20{opacity:0.7;fill:none;stroke:#D76446;stroke-miterlimit:10;}
</style>
<rect x="-0.08" y="-0.51" class="st0" width="120" height="120"/>
<rect x="50.71" y="40.99" transform="matrix(-1 -1.224647e-16 1.224647e-16 -1 119.4835 86.1174)" class="st1" width="18.06" height="4.14"/>
<rect x="43.59" y="98.78" class="st2" width="17.26" height="6.86"/>
<rect x="46.09" y="69.96" class="st3" width="14.79" height="28.33"/>
<rect x="47.18" y="81" class="st4" width="3.15" height="13.55"/>
<rect x="46.64" y="70.64" class="st5" width="10.92" height="1.96"/>
<rect x="57.59" y="105.53" class="st2" width="17.26" height="6.86"/>
<rect x="60.63" y="77.4" class="st5" width="10.92" height="1.96"/>
<rect x="32.93" y="59.72" transform="matrix(-0.9802 0.1982 -0.1982 -0.9802 83.0418 121.6018)" class="st1" width="5.02" height="10.47"/>
<rect x="28.17" y="60.7" transform="matrix(-0.9802 0.1982 -0.1982 -0.9802 72.1198 116.9143)" class="st1" width="4.08" height="2.73"/>
<rect x="27.48" y="63.5" transform="matrix(-0.9802 0.1982 -0.1982 -0.9802 72.5409 122.4776)" class="st1" width="5.33" height="2.73"/>
<rect x="28.45" y="66.14" transform="matrix(-0.9802 0.1982 -0.1982 -0.9802 74.5636 127.5467)" class="st1" width="4.89" height="2.73"/>
<rect x="29.79" y="68.74" transform="matrix(-0.9802 0.1982 -0.1982 -0.9802 76.9324 132.509)" class="st1" width="4.08" height="2.73"/>
<rect x="30.55" y="58.95" transform="matrix(-0.9802 0.1982 -0.1982 -0.9802 75.7543 114.914)" class="st1" width="3.15" height="4.59"/>
<rect x="37.89" y="60.09" transform="matrix(-0.9802 0.1982 -0.1982 -0.9802 92.7163 119.0981)" class="st1" width="5.02" height="8.2"/>
<polygon class="st6" points="58.79,66.32 58.91,45.72 46.92,45.65 46.85,56.68 37.91,58.55 40.37,70.29 58.64,66.47 58.61,66.32 "/>
<ellipse class="st1" cx="59.23" cy="28.87" rx="15.55" ry="15.51"/>
<line class="st7" x1="58.54" y1="38.31" x2="50.89" y2="38.31"/>
<ellipse class="st8" cx="59.23" cy="28.87" rx="15.55" ry="15.51"/>
<g>
	<defs>
		
			<ellipse id="SVGID_1_" transform="matrix(0.9974 -0.0724 0.0724 0.9974 -1.9338 4.364)" cx="59.23" cy="28.86" rx="15.44" ry="15.51"/>
	</defs>
	<clipPath id="SVGID_2_">
		<use xlink:href="#SVGID_1_"  style="overflow:visible;"/>
	</clipPath>
	<polygon class="st9" points="54.52,2.83 81.89,29.84 46.05,20.35 	"/>
</g>
<rect x="67.18" y="106.45" class="st10" width="3.15" height="5.25"/>
<rect x="52.45" y="99.58" class="st10" width="3.15" height="5.25"/>
<g>
	<rect x="60.09" y="76.71" class="st3" width="14.79" height="28.33"/>
	<rect x="60.94" y="85.74" class="st4" width="3.15" height="13.55"/>
</g>
<polygon class="st6" points="58.12,45.65 58.12,45.13 43.08,45.13 43.08,81 58.12,81 58.12,85.36 77.42,85.36 77.42,45.65 "/>
<rect x="55.2" y="75.61" transform="matrix(-0.8715 0.4904 -0.4904 -0.8715 144.885 116.0005)" class="st1" width="4.08" height="2.73"/>
<rect x="53.11" y="73.43" transform="matrix(-0.8715 0.4904 -0.4904 -0.8715 140.6489 112.7399)" class="st1" width="4.89" height="2.73"/>
<rect x="51.18" y="68.47" transform="matrix(-0.8715 0.4904 -0.4904 -0.8715 133.854 104.5961)" class="st1" width="4.08" height="2.73"/>
<rect x="51.36" y="71.15" transform="matrix(-0.8715 0.4904 -0.4904 -0.8715 136.6658 109.2345)" class="st1" width="5.33" height="2.73"/>
<rect x="53.22" y="66.17" transform="matrix(-0.8715 0.4904 -0.4904 -0.8715 136.1254 101.2634)" class="st1" width="3.15" height="4.59"/>
<rect x="54.51" y="66.28" transform="matrix(-0.8715 0.4904 -0.4904 -0.8715 143.8478 105.3439)" class="st1" width="7.23" height="10.47"/>
<rect x="61.06" y="64.62" transform="matrix(-0.8715 0.4904 -0.4904 -0.8715 152.6719 97.4314)" class="st1" width="5.02" height="8.2"/>
<path class="st6" d="M81.7,64.74L76.82,49.6c-0.09-0.49-0.25-0.97-0.45-1.41l-0.99-3.06L74,45.57c-0.9-0.54-1.95-0.85-3.07-0.85
	c-2.46,0-4.58,1.49-5.5,3.62l-1.47,0.47l3.39,10.5l-7.91,4.57l5.99,10.38l16.17-9.34l-0.08-0.13L81.7,64.74z"/>
<g>
	<g>
		<rect x="60.03" y="27.67" class="st6" width="3.38" height="5.45"/>
		<rect x="60.03" y="30.39" class="st11" width="1.69" height="2.47"/>
	</g>
	<line class="st8" x1="63.64" y1="26.44" x2="58.91" y2="27.46"/>
</g>
<g>
	<g>
		<rect x="48.41" y="26.76" class="st6" width="3.38" height="5.45"/>
		<rect x="48.41" y="29.49" class="st11" width="1.69" height="2.47"/>
	</g>
	<line class="st8" x1="52.02" y1="25.53" x2="47.28" y2="26.55"/>
</g>
<g>
	<polygon class="st12" points="59.01,55.58 59.5,53.86 58.26,52.59 57.86,50.99 56.27,50.54 54.99,49.22 53.22,49.67 51.63,49.22 
		50.44,50.37 48.71,50.81 48.23,52.52 46.98,53.73 47.41,55.41 46.95,57.04 48.12,58.25 48.56,60.01 50.32,60.5 51.46,61.68 
		53.05,61.28 54.79,61.78 56.1,60.51 57.74,60.09 58.2,58.47 59.44,57.27 	"/>
	<g>
		<g>
			<circle class="st11" cx="54.6" cy="55.54" r="3.43"/>
			<g>
				<g>
					<circle class="st13" cx="53.36" cy="55.17" r="0.43"/>
					<line class="st14" x1="52.93" y1="53.65" x2="54.25" y2="54.41"/>
				</g>
				<g>
					<circle class="st13" cx="55.84" cy="55.17" r="0.43"/>
					<line class="st14" x1="56.28" y1="53.65" x2="54.96" y2="54.41"/>
				</g>
			</g>
			<polygon class="st15" points="52.66,57.05 56.13,56.73 56.11,57.35 			"/>
		</g>
		<g>
			<g>
				<rect x="51.87" y="51.38" transform="matrix(-0.5605 -0.8281 0.8281 -0.5605 38.6254 124.9202)" width="1.17" height="1.67"/>
				
					<rect x="52.52" y="51.68" transform="matrix(-0.5605 -0.8281 0.8281 -0.5605 39.6136 124.6444)" class="st16" width="0.71" height="0.26"/>
			</g>
			<g>
				<path class="st17" d="M48.75,55.84c0,0.02-0.05,0.4,0.21,0.6c0.1,0.08,0.21,0.1,0.27,0.11c0.18-0.04,0.4-0.12,0.53-0.32
					c0.05-0.07,0.08-0.15,0.1-0.21c0.3-1.36,0.6-2.71,0.91-4.07c0.01-0.05,0.07-0.3,0.32-0.45c0.18-0.11,0.35-0.11,0.42-0.11
					c0.08,0.02,0.18,0.05,0.27,0.1c0.24,0.12,0.39,0.28,0.48,0.39"/>
				<line class="st18" x1="48.95" y1="55.61" x2="49.31" y2="55.3"/>
				<line class="st18" x1="48.54" y1="55.59" x2="48.2" y2="55.25"/>
				<line class="st18" x1="48.47" y1="55.93" x2="48.1" y2="56.23"/>
				<line class="st18" x1="48.75" y1="55.02" x2="48.75" y2="55.5"/>
				<line class="st18" x1="48.48" y1="55.77" x2="48.01" y2="55.77"/>
				<line class="st18" x1="49.3" y1="56.25" x2="48.96" y2="55.91"/>
				<line class="st18" x1="49.53" y1="55.76" x2="49.06" y2="55.76"/>
			</g>
		</g>
	</g>
</g>
<g>
	<rect x="48.41" y="29.22" class="st19" width="3.38" height="3.01"/>
	<rect x="60.03" y="30" class="st19" width="3.38" height="3.12"/>
	<line class="st20" x1="51.88" y1="29.75" x2="60.03" y2="30.72"/>
</g>
</svg>
