<?xml version="1.0" encoding="utf-8"?>
<!-- Generator: Adobe Illustrator 23.0.5, SVG Export Plug-In . SVG Version: 6.00 Build 0)  -->
<svg version="1.1" id="Слой_1" xmlns="http://www.w3.org/2000/svg" xmlns:xlink="http://www.w3.org/1999/xlink" x="0px" y="0px"
	 viewBox="0 0 32 30" style="enable-background:new 0 0 32 30;" xml:space="preserve">
<style type="text/css">
	.st0{opacity:0.01;stroke:#000000;stroke-miterlimit:10;}
	.st1{fill:#6E6863;stroke:#000000;stroke-miterlimit:10;}
	.st2{fill:#36322D;stroke:#000000;stroke-miterlimit:10;}
	.st3{fill:none;stroke:#776855;stroke-miterlimit:10;}
	.st4{fill:none;stroke:#504D4B;stroke-miterlimit:10;}
	.st5{fill:none;stroke:#43341C;stroke-miterlimit:10;}
	.st6{fill:#DAB786;stroke:#000000;stroke-miterlimit:10;}
	.st7{fill:#493517;stroke:#000000;stroke-miterlimit:10;}
	.st8{fill:none;stroke:#000000;stroke-width:0.5;stroke-miterlimit:10;}
	.st9{fill:none;stroke:#493517;stroke-miterlimit:10;}
	.st10{clip-path:url(#SVGID_2_);fill:#67482F;stroke:#67482F;stroke-miterlimit:10;}
	.st11{fill:#493517;stroke:#000000;stroke-width:0.75;stroke-miterlimit:10;}
</style>
<rect x="0.5" y="0.5" class="st0" width="31" height="29"/>
<g>
	<g>
		
			<rect x="15.99" y="18.54" transform="matrix(-0.8488 0.5288 -0.5288 -0.8488 44.4526 31.3568)" class="st1" width="3.5" height="7"/>
		<rect x="17.91" y="24.99" transform="matrix(-0.8488 0.5288 -0.5288 -0.8488 50.549 37.5163)" class="st2" width="4" height="2"/>
		<line class="st3" x1="16.42" y1="19.91" x2="15.36" y2="20.57"/>
		<line class="st4" x1="18.91" y1="22.49" x2="19.96" y2="24.19"/>
		<line class="st5" x1="20.12" y1="23.5" x2="18" y2="24.82"/>
	</g>
	<g>
		
			<rect x="12.83" y="18.92" transform="matrix(-0.8568 -0.5156 0.5156 -0.8568 15.5096 49.14)" class="st1" width="3.5" height="7"/>
		<rect x="10.04" y="25.14" transform="matrix(-0.8568 -0.5156 0.5156 -0.8568 8.8817 54.7528)" class="st2" width="4" height="2"/>
		<line class="st3" x1="15.87" y1="20.27" x2="14.8" y2="19.63"/>
		<line class="st4" x1="14.7" y1="23.66" x2="13.67" y2="25.37"/>
		<line class="st5" x1="14.36" y1="25.2" x2="12.22" y2="23.91"/>
	</g>
	<circle class="st6" cx="15.95" cy="6.5" r="3.5"/>
	<rect x="14.2" y="10" transform="matrix(-1 -4.521506e-11 4.521506e-11 -1 31.8994 29)" class="st7" width="3.5" height="9"/>
	
		<rect x="15.73" y="10.51" transform="matrix(-1 -4.469548e-11 4.469548e-11 -1 34.9619 28.0153)" class="st7" width="3.5" height="7"/>
	<circle class="st6" cx="17.48" cy="17.74" r="1.75"/>
	<line class="st8" x1="14.2" y1="8.29" x2="12.62" y2="8.29"/>
	<polygon class="st7" points="13.45,1.31 18.45,1.31 19.45,3.29 12.45,3.29 	"/>
	
		<rect x="13.5" y="10.73" transform="matrix(-1 -4.397916e-11 4.397916e-11 -1 27.6963 26.46)" class="st7" width="0.7" height="5"/>
	<line class="st9" x1="14.2" y1="10.88" x2="14.2" y2="15.56"/>
	<g>
		<defs>
			<circle id="SVGID_1_" cx="15.95" cy="6.5" r="3"/>
		</defs>
		<clipPath id="SVGID_2_">
			<use xlink:href="#SVGID_1_"  style="overflow:visible;"/>
		</clipPath>
		<polygon class="st10" points="18.43,4.03 18.45,7.61 14.85,4.01 		"/>
	</g>
	
		<rect x="10.45" y="3.29" transform="matrix(-1 -4.489621e-11 4.489621e-11 -1 31.8994 8.3622)" class="st11" width="11" height="1.78"/>
</g>
</svg>
