<?xml version="1.0" encoding="utf-8"?>
<!-- Generator: Adobe Illustrator 23.0.5, SVG Export Plug-In . SVG Version: 6.00 Build 0)  -->
<svg version="1.1" id="Слой_1" xmlns="http://www.w3.org/2000/svg" xmlns:xlink="http://www.w3.org/1999/xlink" x="0px" y="0px"
	 viewBox="0 0 120 120" style="enable-background:new 0 0 120 120;" xml:space="preserve">
<style type="text/css">
	.st0{opacity:0.01;}
	.st1{fill:#272624;stroke:#000000;stroke-miterlimit:10;}
	.st2{fill:#FFFFFF;stroke:#000000;stroke-miterlimit:10;}
	.st3{fill:#3B4167;stroke:#000000;stroke-miterlimit:10;}
	.st4{fill:#864F6F;stroke:#000000;stroke-miterlimit:10;}
</style>
<rect y="-0.08" class="st0" width="120" height="120"/>
<ellipse class="st1" cx="54.76" cy="60.5" rx="36.68" ry="31.53"/>
<path class="st2" d="M54.76,41.97c-9.11,0-16.5,6.35-16.5,14.18c0,3.75,1.7,7.14,4.46,9.68v13.19h4.65v-8.35h5.03v8.35h5.09v-8.35
	h4.59v8.35h4.72V65.83c2.76-2.54,4.46-5.93,4.46-9.68C71.25,48.32,63.87,41.97,54.76,41.97z M48.09,60.84
	c-2.55,0-4.62-2.07-4.62-4.62c0-2.55,2.07-4.62,4.62-4.62s4.62,2.07,4.62,4.62C52.71,58.77,50.64,60.84,48.09,60.84z M61.28,60.84
	c-2.55,0-4.62-2.07-4.62-4.62c0-2.55,2.07-4.62,4.62-4.62c2.55,0,4.62,2.07,4.62,4.62C65.9,58.77,63.83,60.84,61.28,60.84z"/>
<g>
	
		<rect x="17.28" y="69.78" transform="matrix(0.9408 0.3388 -0.3388 0.9408 29.823 -2.7621)" class="st1" width="11.08" height="28.5"/>
	
		<rect x="33.31" y="81.58" transform="matrix(0.9823 0.1875 -0.1875 0.9823 18.6582 -5.5851)" class="st1" width="11.08" height="28.5"/>
	<rect x="54.62" y="84.82" class="st1" width="11.08" height="28.5"/>
	
		<rect x="73.82" y="81.58" transform="matrix(0.9717 -0.236 0.236 0.9717 -20.3764 21.4409)" class="st1" width="11.08" height="28.5"/>
</g>
<g>
	
		<rect x="14.86" y="21.72" transform="matrix(0.9408 -0.3388 0.3388 0.9408 -10.9818 9.0416)" class="st1" width="11.08" height="28.5"/>
	
		<rect x="30.89" y="9.92" transform="matrix(0.9823 -0.1875 0.1875 0.9823 -3.8863 7.2601)" class="st1" width="11.08" height="28.5"/>
	<rect x="52.2" y="6.68" class="st1" width="11.08" height="28.5"/>
	
		<rect x="71.41" y="9.92" transform="matrix(0.9717 0.236 -0.236 0.9717 7.8797 -17.4793)" class="st1" width="11.08" height="28.5"/>
</g>
<ellipse class="st3" cx="92.46" cy="59.92" rx="17.18" ry="16.53"/>
<g>
	<ellipse class="st4" cx="107.25" cy="62.74" rx="2.39" ry="2.3"/>
	<ellipse class="st4" cx="107.25" cy="55.69" rx="2.39" ry="2.3"/>
	<ellipse class="st4" cx="101.08" cy="59.06" rx="2.39" ry="2.3"/>
	<ellipse class="st4" cx="101.08" cy="52.13" rx="2.39" ry="2.3"/>
	<ellipse class="st4" cx="101.08" cy="66" rx="2.39" ry="2.3"/>
</g>
<rect x="109.64" y="55.51" class="st2" width="2.51" height="2.51"/>
<rect x="109.64" y="61.2" class="st2" width="2.51" height="2.51"/>
</svg>
