<?xml version="1.0" encoding="utf-8"?>
<!-- Generator: Adobe Illustrator 23.0.5, SVG Export Plug-In . SVG Version: 6.00 Build 0)  -->
<svg version="1.1" id="Слой_1" xmlns="http://www.w3.org/2000/svg" xmlns:xlink="http://www.w3.org/1999/xlink" x="0px" y="0px"
	 viewBox="0 0 120 120" style="enable-background:new 0 0 120 120;" xml:space="preserve">
<style type="text/css">
	.st0{opacity:0.01;}
	.st1{fill:#FAE796;stroke:#000000;stroke-miterlimit:10;}
	.st2{fill:#4D5B9D;stroke:#000000;stroke-miterlimit:10;}
	.st3{fill:#5B431E;stroke:#000000;stroke-width:0.75;stroke-miterlimit:10;}
	.st4{fill:#E2E2E2;stroke:#000000;stroke-width:0.75;stroke-miterlimit:10;}
	.st5{fill:none;stroke:#7F7E7C;stroke-width:0.75;stroke-miterlimit:10;}
	.st6{fill:#5F4825;stroke:#624B29;stroke-width:0.75;stroke-miterlimit:10;}
	.st7{fill:#DAB786;stroke:#000000;stroke-miterlimit:10;}
	.st8{fill:#36322D;stroke:#000000;stroke-miterlimit:10;}
	.st9{fill:#C0536B;stroke:#000000;stroke-miterlimit:10;}
	.st10{fill:#FFFFFF;}
	.st11{fill:#D65988;}
	.st12{fill:#7E6854;}
	.st13{stroke:#000000;stroke-miterlimit:10;}
	.st14{fill:#FAE796;stroke:#000000;stroke-width:0.25;stroke-miterlimit:10;}
	.st15{fill:#214319;stroke:#000000;stroke-miterlimit:10;}
	.st16{fill:#FBECA5;stroke:#000000;stroke-miterlimit:10;}
	.st17{fill:url(#SVGID_1_);stroke:#000000;stroke-miterlimit:10;}
	.st18{fill:url(#SVGID_2_);stroke:#000000;stroke-miterlimit:10;}
</style>
<rect x="0" y="0.11" transform="matrix(-1 -4.489132e-11 4.489132e-11 -1 120 120.2122)" class="st0" width="120" height="120"/>
<g>
	<g>
		
			<rect x="87.91" y="40.67" transform="matrix(0.3946 -0.9188 0.9188 0.3946 13.5974 110.1836)" class="st1" width="5.02" height="8.2"/>
		<polygon class="st2" points="88.74,63.21 68.55,59.11 70.94,47.36 81.75,49.56 85.41,41.19 96.39,45.99 88.91,63.1 88.78,63.04 		
			"/>
	</g>
	<g>
		
			<rect x="89.68" y="34.84" transform="matrix(0.3946 -0.9188 0.9188 0.3946 18.9861 108.9615)" class="st1" width="5.02" height="10.47"/>
		<g>
			
				<rect x="88.09" y="32.34" transform="matrix(0.3964 -0.9181 0.9181 0.3964 21.2951 105.402)" class="st3" width="5.42" height="8.34"/>
			
				<rect x="78.4" y="32.26" transform="matrix(0.3964 -0.9181 0.9181 0.3964 20.2372 98.9214)" class="st3" width="13.9" height="3.61"/>
			<polygon class="st4" points="65.22,20.86 59.78,23.02 61.93,28.46 82.02,37.14 85.3,29.54 			"/>
			<line class="st5" x1="66.17" y1="25.75" x2="75.87" y2="29.88"/>
			<line class="st5" x1="78.02" y1="30.8" x2="83.17" y2="33"/>
			<line class="st6" x1="88.6" y1="34.03" x2="93.52" y2="36.15"/>
			<line class="st6" x1="84.34" y1="34.47" x2="86.99" y2="28.33"/>
		</g>
		
			<rect x="87.47" y="33.6" transform="matrix(0.3946 -0.9188 0.9188 0.3946 22.4525 104.0169)" class="st1" width="5.4" height="2.73"/>
		
			<rect x="89.15" y="34.41" transform="matrix(0.3946 -0.9188 0.9188 0.3946 23.3022 106.9206)" class="st1" width="7.3" height="2.73"/>
		
			<rect x="92.07" y="35.51" transform="matrix(0.3946 -0.9188 0.9188 0.3946 23.8111 109.8853)" class="st1" width="6.45" height="2.73"/>
		
			<rect x="94.46" y="37.19" transform="matrix(0.3946 -0.9188 0.9188 0.3946 23.6211 112.975)" class="st1" width="6.17" height="2.73"/>
		
			<rect x="87.04" y="36.75" transform="matrix(-0.9188 -0.3946 0.3946 -0.9188 154.6642 109.6846)" class="st1" width="3.15" height="4.38"/>
	</g>
</g>
<rect x="51.12" y="41.1" class="st7" width="18.06" height="4.14"/>
<rect x="59.04" y="98.88" transform="matrix(-1 -4.490465e-11 4.490465e-11 -1 135.3406 204.6223)" class="st8" width="17.26" height="6.86"/>
<rect x="59.01" y="70.06" transform="matrix(-1 -4.525725e-11 4.525725e-11 -1 132.8082 168.4589)" class="st9" width="14.79" height="28.33"/>
<rect x="69.23" y="83.06" transform="matrix(-1 -4.509560e-11 4.509560e-11 -1 141.6053 179.6767)" class="st10" width="3.15" height="13.55"/>
<rect x="61.05" y="94.66" transform="matrix(-1 -4.496415e-11 4.496415e-11 -1 133.4243 191.2674)" class="st11" width="11.33" height="1.96"/>
<rect x="62.34" y="70.75" transform="matrix(-1 -4.496904e-11 4.496904e-11 -1 135.5922 143.4571)" class="st12" width="10.92" height="1.96"/>
<rect x="45.05" y="105.64" transform="matrix(-1 -4.511514e-11 4.511514e-11 -1 107.3524 218.1294)" class="st8" width="17.26" height="6.86"/>
<rect x="45.01" y="76.82" transform="matrix(-1 -4.451918e-11 4.451918e-11 -1 104.82 181.966)" class="st9" width="14.79" height="28.33"/>
<rect x="55.24" y="89.82" transform="matrix(-1 -4.393964e-11 4.393964e-11 -1 113.6171 193.1838)" class="st10" width="3.15" height="13.55"/>
<rect x="47.05" y="101.41" transform="matrix(-1 -4.464263e-11 4.464263e-11 -1 105.4361 204.7745)" class="st11" width="11.33" height="1.96"/>
<rect x="48.34" y="77.5" transform="matrix(-1 -4.463597e-11 4.463597e-11 -1 107.604 156.9642)" class="st12" width="10.92" height="1.96"/>
<ellipse class="st7" cx="60.66" cy="28.98" rx="15.55" ry="15.51"/>
<ellipse class="st13" cx="60.67" cy="28.98" rx="15.55" ry="15.51"/>
<rect x="61.77" y="45.23" transform="matrix(-1 -4.474655e-11 4.474655e-11 -1 138.5814 126.3402)" class="st2" width="15.04" height="35.87"/>
<rect x="42.48" y="45.23" transform="matrix(-1 -4.487534e-11 4.487534e-11 -1 104.246 130.1735)" class="st2" width="19.29" height="39.71"/>
<rect x="40.81" y="44.55" transform="matrix(-1 -4.489488e-11 4.489488e-11 -1 119.7866 90.4681)" class="st13" width="38.17" height="1.37"/>
<rect x="63.39" y="50.72" class="st14" width="11.48" height="1.19"/>
<rect x="63.55" y="55.72" class="st14" width="11.48" height="1.19"/>
<rect x="63.55" y="60.76" class="st14" width="11.48" height="1.19"/>
<g>
	<g>
		<g>
			
				<rect x="34.79" y="77.87" transform="matrix(0.1645 0.9864 -0.9864 0.1645 108.929 29.8641)" class="st1" width="4.08" height="2.73"/>
			
				<rect x="37.15" y="77.81" transform="matrix(0.1645 0.9864 -0.9864 0.1645 111.1846 27.0947)" class="st1" width="4.89" height="2.73"/>
			
				<rect x="42.88" y="76.52" transform="matrix(0.1645 0.9864 -0.9864 0.1645 114.3564 20.7577)" class="st1" width="4.08" height="2.73"/>
			
				<rect x="39.67" y="77.58" transform="matrix(0.1645 0.9864 -0.9864 0.1645 113.2381 24.2049)" class="st1" width="5.33" height="2.73"/>
			
				<rect x="43.43" y="73.51" transform="matrix(0.1645 0.9864 -0.9864 0.1645 112.3687 18.9382)" class="st1" width="3.15" height="4.59"/>
			
				<rect x="36.93" y="69.89" transform="matrix(0.1645 0.9864 -0.9864 0.1645 107.9714 22.7746)" class="st1" width="7.23" height="10.47"/>
			
				<rect x="36.8" y="65.02" transform="matrix(0.1645 0.9864 -0.9864 0.1645 101.0208 18.9803)" class="st1" width="5.02" height="8.2"/>
		</g>
		<path class="st2" d="M31.04,52.51l14.85-5.69c0.44-0.24,0.91-0.41,1.38-0.53l3-1.15l0.52,1.35c0.98,0.36,1.88,0.98,2.59,1.86
			c1.55,1.92,1.71,4.5,0.63,6.55l0.55,1.44l-10.3,3.95l1.4,9.02l-11.85,1.84L30.95,52.7l0.15-0.02L31.04,52.51z"/>
	</g>
	<g>
		<path class="st15" d="M49.11,52.71l-18.93,5.93c-7.72,2.41-11.93,10.91-9.4,18.97c2.52,8.06,10.82,12.64,18.54,10.22l18.93-5.93
			L49.11,52.71z"/>
		<path class="st16" d="M46.75,56.79l-15.04,4.71c-6.13,1.92-9.47,8.66-7.47,15.07c2,6.4,8.6,10.04,14.73,8.12l15.04-4.71
			L46.75,56.79z"/>
	</g>
</g>
<g>
	<linearGradient id="SVGID_1_" gradientUnits="userSpaceOnUse" x1="69.8884" y1="41.6725" x2="51.7552" y2="14.5114">
		<stop  offset="0" style="stop-color:#FFFFFF"/>
		<stop  offset="1" style="stop-color:#000000"/>
	</linearGradient>
	<path class="st17" d="M65.4,12.87h-8.87c-5.97,0-10.82,5.38-10.82,12.01v6.85c0,6.63,4.84,12.01,10.82,12.01h8.87
		c5.97,0,10.82-5.38,10.82-12.01v-6.85C76.21,18.25,71.37,12.87,65.4,12.87z M75.05,35.93H59.53v-1.59h15.52V35.93z M76.1,26.78
		H59.56v-1.59H76.1V26.78z"/>
	
		<linearGradient id="SVGID_2_" gradientUnits="userSpaceOnUse" x1="36.5015" y1="22.3508" x2="57.2133" y2="22.3508" gradientTransform="matrix(0.5 -0.866 0.866 0.5 3.7195 50.543)">
		<stop  offset="0" style="stop-color:#FFFFFF"/>
		<stop  offset="1" style="stop-color:#000000"/>
	</linearGradient>
	<polygon class="st18" points="54.13,13.96 44.71,32.06 38.88,28.32 48.29,10.21 	"/>
</g>
</svg>
