<?xml version="1.0" encoding="utf-8"?>
<!-- Generator: Adobe Illustrator 23.0.5, SVG Export Plug-In . SVG Version: 6.00 Build 0)  -->
<svg version="1.1" id="Слой_1" xmlns="http://www.w3.org/2000/svg" xmlns:xlink="http://www.w3.org/1999/xlink" x="0px" y="0px"
	 viewBox="0 0 60 60" style="enable-background:new 0 0 60 60;" xml:space="preserve">
<style type="text/css">
	.st0{opacity:0.5;}
	.st1{fill:#533D14;stroke:#000000;stroke-miterlimit:10;}
	.st2{fill:#6C5536;stroke:#000000;stroke-miterlimit:10;}
	.st3{fill:none;stroke:#533D14;stroke-miterlimit:10;}
</style>
<rect y="0" class="st0" width="60" height="60"/>
<g>
	<polygon class="st1" points="21.79,15.79 16.91,19.62 11.15,17.32 10.27,11.18 15.14,7.34 20.9,9.64 	"/>
	<polygon class="st2" points="47.83,22.86 42.95,26.7 37.19,24.39 36.3,18.25 41.18,14.42 46.94,16.72 	"/>
	<polygon class="st2" points="30.88,31.95 26,35.79 20.24,33.48 19.35,27.34 24.23,23.5 29.99,25.81 	"/>
	<polygon class="st1" points="46.83,42.68 41.95,46.52 36.19,44.21 35.3,38.07 40.18,34.24 45.94,36.54 	"/>
	<polygon class="st1" points="23.22,48.82 18.34,52.66 12.58,50.36 11.69,44.21 16.57,40.38 22.33,42.68 	"/>
	<polygon class="st2" points="43.35,40.91 41.42,42.44 39.13,41.52 38.78,39.09 40.71,37.56 43,38.48 	"/>
	<polygon class="st2" points="18.31,14.39 16.38,15.92 14.09,15 13.74,12.57 15.68,11.04 17.96,11.96 	"/>
	<line class="st3" x1="10.11" y1="24.62" x2="10.11" y2="30.3"/>
	<line class="st3" x1="29.79" y1="40.38" x2="29.79" y2="46.06"/>
	<line class="st3" x1="31.16" y1="8.46" x2="31.16" y2="14.14"/>
	<line class="st3" x1="49.89" y1="28.14" x2="49.89" y2="33.82"/>
</g>
</svg>
