<?xml version="1.0" encoding="utf-8"?>
<!-- Generator: Adobe Illustrator 23.0.5, SVG Export Plug-In . SVG Version: 6.00 Build 0)  -->
<svg version="1.1" id="Слой_1" xmlns="http://www.w3.org/2000/svg" xmlns:xlink="http://www.w3.org/1999/xlink" x="0px" y="0px"
	 viewBox="0 0 60 60" style="enable-background:new 0 0 60 60;" xml:space="preserve">
<style type="text/css">
	.st0{opacity:0.5;fill:#3F3D39;}
	.st1{fill:none;stroke:#000000;stroke-miterlimit:10;}
	.st2{fill:#5F4825;stroke:#000000;stroke-miterlimit:10;}
	.st3{fill:#8C7655;stroke:#000000;stroke-miterlimit:10;}
	.st4{fill:#595651;stroke:#000000;stroke-miterlimit:10;}
</style>
<rect y="0" class="st0" width="60" height="60"/>
<g>
	<path class="st1" d="M9.66,30.12l16.24-17.29c0,0,39.98-9.3,16.59,1.9L26.31,26.91"/>
	<path class="st2" d="M14.33,23.99c-0.39-0.19-1.84-0.85-2.65-0.21c-0.4,0.31-0.45,0.81-0.55,1.31c-0.39,1.93-1.26,2.99-1.49,3.59
		c-0.39,0.98-0.21,3.59,5.65,11.88c-0.18,4.39-0.35,8.77-0.53,13.16h4.35l0.64-13.37c2-2.1,4.96-5.85,6.37-11.25
		c0.44-1.69,0.66-3.27,0.74-4.67c-0.29-0.25-0.98-0.79-2.02-0.96c-1.39-0.23-2.46,0.35-2.76,0.53c-0.1,1.43-0.43,3.57-1.49,5.94
		c-0.86,1.93-1.92,3.37-2.76,4.35c-0.92-1.17-2.24-3.17-2.97-5.94C14.42,26.65,14.32,25.14,14.33,23.99z"/>
	
		<rect x="21.71" y="25.55" transform="matrix(0.9936 0.1126 -0.1126 0.9936 3.1842 -2.5328)" class="st3" width="4.59" height="2.73"/>
	<path class="st3" d="M14.33,29.26l-3.28,1.69c-0.42,0.22-0.93,0.05-1.15-0.37l-0.47-0.91c-0.22-0.42-0.05-0.93,0.37-1.15l3.28-1.69
		c0.42-0.22,0.93-0.05,1.15,0.37l0.47,0.91C14.91,28.53,14.74,29.04,14.33,29.26z"/>
	<ellipse transform="matrix(0.2214 -0.9752 0.9752 0.2214 27.0142 54.199)" class="st4" cx="47.45" cy="10.18" rx="2.5" ry="3.25"/>
</g>
</svg>
