<?xml version="1.0" encoding="utf-8"?>
<!-- Generator: Adobe Illustrator 23.0.5, SVG Export Plug-In . SVG Version: 6.00 Build 0)  -->
<svg version="1.1" id="Слой_1" xmlns="http://www.w3.org/2000/svg" xmlns:xlink="http://www.w3.org/1999/xlink" x="0px" y="0px"
	 viewBox="0 0 60 60" style="enable-background:new 0 0 60 60;" xml:space="preserve">
<style type="text/css">
	.st0{opacity:0.5;fill:#9E9D9D;}
	.st1{fill:#7F7E7C;stroke:#000000;stroke-miterlimit:10;}
	.st2{stroke:#000000;stroke-miterlimit:10;}
	.st3{fill:none;stroke:#FFFFFF;stroke-miterlimit:10;}
</style>
<rect x="0" class="st0" width="60" height="60"/>
<path class="st1" d="M48.43,41.88C42.64,26.08,36.39,21.82,31.6,21c-8.49-1.45-18.35,6.87-23.35,2.87c-2.1-1.68-2.51-3.88-2.51-3.88
	c-0.45-2.42,0.86-4.43,1.29-5.05c0.63-0.57,1.48-1.29,2.53-2.05c1.09-0.79,1.63-1.18,1.85-1.07c0.95,0.49-2.84,6.29-1.28,8.52
	c2.36,3.37,14.15-5.44,24.18-2.65c4.84,1.35,11.15,5.93,16.16,21.25c-0.4,0.58-0.8,1.15-1.2,1.73
	C48.99,41.07,48.71,41.48,48.43,41.88z"/>
<g>
	
		<rect x="48.51" y="39.12" transform="matrix(0.9325 -0.3612 0.3612 0.9325 -12.2507 21.2512)" class="st2" width="4.45" height="8.56"/>
	<path class="st3" d="M50.73,39.39l1.29,3.32L50.73,39.39z"/>
</g>
</svg>
