<?xml version="1.0" encoding="utf-8"?>
<!-- Generator: Adobe Illustrator 23.0.5, SVG Export Plug-In . SVG Version: 6.00 Build 0)  -->
<svg version="1.1" id="Слой_1" xmlns="http://www.w3.org/2000/svg" xmlns:xlink="http://www.w3.org/1999/xlink" x="0px" y="0px"
	 viewBox="0 0 120 120" style="enable-background:new 0 0 120 120;" xml:space="preserve">
<style type="text/css">
	.st0{opacity:0.01;}
	.st1{fill:#DAB786;stroke:#000000;stroke-miterlimit:10;}
	.st2{fill:#CE4942;stroke:#000000;stroke-miterlimit:10;}
	.st3{fill:#1A2745;stroke:#000000;stroke-miterlimit:10;}
	.st4{fill:#003450;}
	.st5{fill:#7E6854;}
	.st6{fill:#FFFFFF;stroke:#000000;stroke-miterlimit:10;}
	.st7{fill:none;stroke:#000000;stroke-width:2;stroke-miterlimit:10;}
	.st8{fill:none;stroke:#000000;stroke-miterlimit:10;}
	.st9{clip-path:url(#SVGID_2_);fill:#533D14;}
	.st10{fill:#FFFFFF;}
	.st11{stroke:#000000;stroke-miterlimit:10;}
	.st12{opacity:0.7;fill:#D76446;stroke:#D76446;stroke-miterlimit:10;}
	.st13{opacity:0.7;fill:none;stroke:#D76446;stroke-miterlimit:10;}
	.st14{fill:#FFF343;stroke:#D24A43;stroke-miterlimit:10;}
	.st15{fill:#FFF343;stroke:#FFF343;stroke-miterlimit:10;}
	.st16{fill:none;stroke:#FFF343;stroke-width:0.5;stroke-miterlimit:10;}
	.st17{fill:#FFF343;stroke:#FFF343;stroke-width:0.5;stroke-miterlimit:10;}
	.st18{fill:#FFF343;}
	.st19{fill:none;stroke:#000000;stroke-width:0.5;stroke-miterlimit:10;}
	.st20{fill:none;stroke:#000000;stroke-width:0.25;stroke-miterlimit:10;}
</style>
<rect class="st0" width="120" height="120"/>
<rect x="50.71" y="40.99" transform="matrix(-1 -1.224647e-16 1.224647e-16 -1 119.4835 86.1174)" class="st1" width="18.06" height="4.14"/>
<rect x="43.59" y="98.78" class="st2" width="17.26" height="6.86"/>
<rect x="46.09" y="69.96" class="st3" width="14.79" height="28.33"/>
<rect x="47.18" y="81" class="st4" width="3.15" height="13.55"/>
<rect x="46.64" y="70.64" class="st5" width="10.92" height="1.96"/>
<rect x="57.59" y="105.53" class="st2" width="17.26" height="6.86"/>
<rect x="60.63" y="77.4" class="st5" width="10.92" height="1.96"/>
<rect x="32.93" y="59.72" transform="matrix(-0.9802 0.1982 -0.1982 -0.9802 83.0418 121.6018)" class="st1" width="5.02" height="10.47"/>
<rect x="28.17" y="60.7" transform="matrix(-0.9802 0.1982 -0.1982 -0.9802 72.1198 116.9143)" class="st1" width="4.08" height="2.73"/>
<rect x="27.48" y="63.5" transform="matrix(-0.9802 0.1982 -0.1982 -0.9802 72.5409 122.4776)" class="st1" width="5.33" height="2.73"/>
<rect x="28.45" y="66.14" transform="matrix(-0.9802 0.1982 -0.1982 -0.9802 74.5636 127.5467)" class="st1" width="4.89" height="2.73"/>
<rect x="29.79" y="68.74" transform="matrix(-0.9802 0.1982 -0.1982 -0.9802 76.9324 132.509)" class="st1" width="4.08" height="2.73"/>
<rect x="30.55" y="58.95" transform="matrix(-0.9802 0.1982 -0.1982 -0.9802 75.7543 114.914)" class="st1" width="3.15" height="4.59"/>
<rect x="37.89" y="60.09" transform="matrix(-0.9802 0.1982 -0.1982 -0.9802 92.7163 119.0981)" class="st1" width="5.02" height="8.2"/>
<polygon class="st6" points="58.79,66.32 58.91,45.72 46.92,45.65 46.85,56.68 37.91,58.55 40.37,70.29 58.64,66.47 58.61,66.32 "/>
<ellipse class="st1" cx="59.23" cy="28.87" rx="15.55" ry="15.51"/>
<line class="st7" x1="58.54" y1="38.31" x2="50.89" y2="38.31"/>
<ellipse class="st8" cx="59.23" cy="28.87" rx="15.55" ry="15.51"/>
<g>
	<defs>
		
			<ellipse id="SVGID_1_" transform="matrix(0.9974 -0.0724 0.0724 0.9974 -1.9338 4.364)" cx="59.23" cy="28.86" rx="15.44" ry="15.51"/>
	</defs>
	<clipPath id="SVGID_2_">
		<use xlink:href="#SVGID_1_"  style="overflow:visible;"/>
	</clipPath>
	<polygon class="st9" points="54.52,2.83 81.89,29.84 46.05,20.35 	"/>
</g>
<rect x="67.18" y="106.45" class="st10" width="3.15" height="5.25"/>
<rect x="52.45" y="99.58" class="st10" width="3.15" height="5.25"/>
<g>
	<rect x="60.09" y="76.71" class="st3" width="14.79" height="28.33"/>
	<rect x="60.94" y="85.74" class="st4" width="3.15" height="13.55"/>
</g>
<polygon class="st6" points="58.12,45.65 58.12,45.13 43.08,45.13 43.08,81 58.12,81 58.12,85.36 77.42,85.36 77.42,45.65 "/>
<g>
	<g>
		<rect x="60.03" y="27.67" class="st6" width="3.38" height="5.45"/>
		<rect x="60.03" y="30.39" class="st11" width="1.69" height="2.47"/>
	</g>
	<line class="st8" x1="63.64" y1="26.44" x2="58.91" y2="27.46"/>
</g>
<g>
	<g>
		<rect x="48.41" y="26.76" class="st6" width="3.38" height="5.45"/>
		<rect x="48.41" y="29.49" class="st11" width="1.69" height="2.47"/>
	</g>
	<line class="st8" x1="52.02" y1="25.53" x2="47.28" y2="26.55"/>
</g>
<g>
	<rect x="48.44" y="29.33" class="st12" width="3.38" height="3.01"/>
	<rect x="60.06" y="30.12" class="st12" width="3.38" height="3.12"/>
	<line class="st13" x1="51.91" y1="29.87" x2="60.06" y2="30.84"/>
</g>
<g>
	<polygon class="st14" points="59.74,56.48 60.22,54.76 58.98,53.49 58.58,51.89 56.99,51.44 55.71,50.12 53.94,50.57 52.36,50.12 
		51.17,51.27 49.43,51.71 48.95,53.42 47.71,54.63 48.13,56.31 47.67,57.94 48.85,59.15 49.29,60.9 51.04,61.4 52.19,62.58 
		53.77,62.18 55.51,62.68 56.82,61.41 58.46,60.99 58.92,59.37 60.16,58.17 	"/>
	<g>
		<g>
			<circle class="st11" cx="55.33" cy="56.44" r="3.43"/>
			<g>
				<g>
					<circle class="st15" cx="54.09" cy="56.07" r="0.43"/>
					<line class="st16" x1="53.65" y1="54.55" x2="54.97" y2="55.31"/>
				</g>
				<g>
					<circle class="st15" cx="56.57" cy="56.07" r="0.43"/>
					<line class="st16" x1="57" y1="54.55" x2="55.68" y2="55.31"/>
				</g>
			</g>
			<polygon class="st17" points="53.39,57.95 56.86,57.63 56.84,58.25 			"/>
		</g>
		<g>
			<g>
				<rect x="52.6" y="52.28" transform="matrix(-0.5605 -0.8281 0.8281 -0.5605 39.0108 126.9237)" width="1.17" height="1.67"/>
				
					<rect x="53.25" y="52.58" transform="matrix(-0.5605 -0.8281 0.8281 -0.5605 39.999 126.6479)" class="st18" width="0.71" height="0.26"/>
			</g>
			<g>
				<path class="st19" d="M49.48,56.74c0,0.02-0.05,0.4,0.21,0.6c0.1,0.08,0.21,0.1,0.27,0.11c0.18-0.04,0.4-0.12,0.53-0.32
					c0.05-0.07,0.08-0.15,0.1-0.21c0.3-1.36,0.6-2.71,0.91-4.07c0.01-0.05,0.07-0.3,0.32-0.45c0.18-0.11,0.35-0.11,0.42-0.11
					c0.08,0.02,0.18,0.05,0.27,0.1c0.24,0.12,0.39,0.28,0.48,0.39"/>
				<line class="st20" x1="49.67" y1="56.51" x2="50.04" y2="56.2"/>
				<line class="st20" x1="49.26" y1="56.49" x2="48.93" y2="56.15"/>
				<line class="st20" x1="49.19" y1="56.83" x2="48.83" y2="57.13"/>
				<line class="st20" x1="49.47" y1="55.92" x2="49.47" y2="56.4"/>
				<line class="st20" x1="49.2" y1="56.67" x2="48.73" y2="56.67"/>
				<line class="st20" x1="50.02" y1="57.15" x2="49.69" y2="56.81"/>
				<line class="st20" x1="50.26" y1="56.66" x2="49.78" y2="56.66"/>
			</g>
		</g>
	</g>
</g>
<g>
	
		<rect x="53.54" y="35.08" transform="matrix(-0.2043 -0.9789 0.9789 -0.2043 29.1462 102.0559)" class="st1" width="5.02" height="8.2"/>
	<g>
		
			<rect x="48.04" y="29.29" transform="matrix(-0.2043 -0.9789 0.9789 -0.2043 30.3041 85.9447)" class="st1" width="4.08" height="2.73"/>
		
			<rect x="50.23" y="28.34" transform="matrix(-0.2043 -0.9789 0.9789 -0.2043 34.36 87.337)" class="st1" width="4.89" height="2.73"/>
		
			<rect x="56.07" y="27.61" transform="matrix(-0.2043 -0.9789 0.9789 -0.2043 41.6129 91.785)" class="st1" width="4.08" height="2.73"/>
		
			<rect x="52.64" y="27.56" transform="matrix(-0.2043 -0.9789 0.9789 -0.2043 38.2864 88.9803)" class="st1" width="5.33" height="2.73"/>
		
			<rect x="57.36" y="28.6" transform="matrix(-0.2043 -0.9789 0.9789 -0.2043 40.7409 94.9007)" class="st1" width="3.15" height="4.59"/>
		
			<rect x="51.41" y="27.91" transform="matrix(-0.2043 -0.9789 0.9789 -0.2043 33.8248 93.779)" class="st1" width="7.23" height="10.47"/>
		<path class="st6" d="M54.37,57.67l15.9-0.08c0.5,0.06,1,0.06,1.48-0.01l3.22-0.02l-0.01-1.44c0.78-0.69,1.4-1.6,1.74-2.67
			c0.74-2.35-0.04-4.82-1.79-6.34l-0.01-1.54l-11.03,0.06l-1.97-8.92L50.2,39.29l4.02,18.23l0.15-0.03L54.37,57.67z"/>
	</g>
</g>
</svg>
