<?xml version="1.0" encoding="utf-8"?>
<!-- Generator: Adobe Illustrator 23.0.5, SVG Export Plug-In . SVG Version: 6.00 Build 0)  -->
<svg version="1.1" id="Слой_1" xmlns="http://www.w3.org/2000/svg" xmlns:xlink="http://www.w3.org/1999/xlink" x="0px" y="0px"
	 viewBox="0 0 1280 720" style="enable-background:new 0 0 1280 720;" xml:space="preserve">
<style type="text/css">
	.st0{fill:url(#SVGID_1_);stroke:#000000;stroke-width:3;stroke-miterlimit:10;}
	.st1{fill:#FFE844;stroke:#000000;stroke-width:3;stroke-miterlimit:10;}
	.st2{fill:url(#SVGID_2_);stroke:#000000;stroke-width:3;stroke-miterlimit:10;}
	.st3{fill:url(#SVGID_3_);stroke:#000000;stroke-width:3;stroke-miterlimit:10;}
	.st4{fill:url(#SVGID_4_);stroke:#000000;stroke-width:3;stroke-miterlimit:10;}
	.st5{fill:url(#SVGID_5_);stroke:#000000;stroke-width:3;stroke-miterlimit:10;}
	.st6{fill:url(#SVGID_6_);stroke:#000000;stroke-width:3;stroke-miterlimit:10;}
	.st7{fill:url(#SVGID_7_);stroke:#000000;stroke-width:3;stroke-miterlimit:10;}
	.st8{fill:url(#SVGID_8_);stroke:#000000;stroke-width:3;stroke-miterlimit:10;}
	.st9{fill:url(#SVGID_9_);stroke:#000000;stroke-width:3;stroke-miterlimit:10;}
	.st10{fill:url(#SVGID_10_);stroke:#000000;stroke-width:3;stroke-miterlimit:10;}
	.st11{fill:url(#SVGID_11_);stroke:#000000;stroke-width:3;stroke-miterlimit:10;}
	.st12{fill:url(#SVGID_12_);stroke:#000000;stroke-width:3;stroke-miterlimit:10;}
	.st13{fill:url(#SVGID_13_);stroke:#000000;stroke-width:3;stroke-miterlimit:10;}
	.st14{fill:url(#SVGID_14_);stroke:#000000;stroke-width:3;stroke-miterlimit:10;}
	.st15{fill:url(#SVGID_15_);stroke:#000000;stroke-width:3;stroke-miterlimit:10;}
	.st16{fill:url(#SVGID_16_);stroke:#000000;stroke-width:3;stroke-miterlimit:10;}
	.st17{fill:url(#SVGID_17_);stroke:#000000;stroke-width:3;stroke-miterlimit:10;}
	.st18{fill:url(#SVGID_18_);stroke:#000000;stroke-width:3;stroke-miterlimit:10;}
	.st19{fill:url(#SVGID_19_);stroke:#000000;stroke-width:3;stroke-miterlimit:10;}
</style>
<g>
	<g>
		<linearGradient id="SVGID_1_" gradientUnits="userSpaceOnUse" x1="2" y1="544.4889" x2="1280" y2="544.4889">
			<stop  offset="0" style="stop-color:#D5AC3F"/>
			<stop  offset="1" style="stop-color:#987836"/>
		</linearGradient>
		<rect x="2" y="368.98" class="st0" width="1278" height="351.02"/>
		<rect x="2" y="368.98" class="st1" width="1278" height="47.87"/>
		<rect x="2" y="465.71" class="st1" width="1278" height="47.87"/>
		<rect x="2" y="562.44" class="st1" width="1278" height="47.87"/>
		<rect x="2" y="659.17" class="st1" width="1278" height="47.87"/>
		<linearGradient id="SVGID_2_" gradientUnits="userSpaceOnUse" x1="617.0375" y1="544.4889" x2="664.9625" y2="544.4889">
			<stop  offset="0" style="stop-color:#D5AC3F"/>
			<stop  offset="1" style="stop-color:#987836"/>
		</linearGradient>
		<polygon class="st2" points="664.96,368.98 664.96,720 617.04,720 617.04,368.98 		"/>
		<linearGradient id="SVGID_3_" gradientUnits="userSpaceOnUse" x1="2" y1="512.0193" x2="66.333" y2="512.0193">
			<stop  offset="0" style="stop-color:#D5AC3F"/>
			<stop  offset="1" style="stop-color:#987836"/>
		</linearGradient>
		<polygon class="st3" points="2,436.79 2,655.06 66.33,369.19 65.4,368.98 17.26,368.98 		"/>
		<linearGradient id="SVGID_4_" gradientUnits="userSpaceOnUse" x1="452.2876" y1="544.4889" x2="580.308" y2="544.4889">
			<stop  offset="0" style="stop-color:#D5AC3F"/>
			<stop  offset="1" style="stop-color:#987836"/>
		</linearGradient>
		<polygon class="st4" points="452.29,719.79 453.22,720 501.36,720 580.31,369.19 579.37,368.98 531.23,368.98 		"/>
		<linearGradient id="SVGID_5_" gradientUnits="userSpaceOnUse" x1="346.4532" y1="544.4889" x2="474.4736" y2="544.4889">
			<stop  offset="0" style="stop-color:#D5AC3F"/>
			<stop  offset="1" style="stop-color:#987836"/>
		</linearGradient>
		<polygon class="st5" points="346.45,719.79 347.39,720 395.53,720 474.47,369.19 473.54,368.98 425.4,368.98 		"/>
		<linearGradient id="SVGID_6_" gradientUnits="userSpaceOnUse" x1="244.6126" y1="544.4889" x2="372.633" y2="544.4889">
			<stop  offset="0" style="stop-color:#D5AC3F"/>
			<stop  offset="1" style="stop-color:#987836"/>
		</linearGradient>
		<polygon class="st6" points="244.61,719.79 245.55,720 293.69,720 372.63,369.19 371.7,368.98 323.56,368.98 		"/>
		<linearGradient id="SVGID_7_" gradientUnits="userSpaceOnUse" x1="138.7783" y1="544.4889" x2="266.7986" y2="544.4889">
			<stop  offset="0" style="stop-color:#D5AC3F"/>
			<stop  offset="1" style="stop-color:#987836"/>
		</linearGradient>
		<polygon class="st7" points="138.78,719.79 139.71,720 187.85,720 266.8,369.19 265.86,368.98 217.73,368.98 		"/>
		<linearGradient id="SVGID_8_" gradientUnits="userSpaceOnUse" x1="35.9392" y1="544.4889" x2="163.9595" y2="544.4889">
			<stop  offset="0" style="stop-color:#D5AC3F"/>
			<stop  offset="1" style="stop-color:#987836"/>
		</linearGradient>
		<polygon class="st8" points="35.94,719.79 36.88,720 85.01,720 163.96,369.19 163.02,368.98 114.89,368.98 		"/>
		<linearGradient id="SVGID_9_" gradientUnits="userSpaceOnUse" x1="1215.274" y1="512.0193" x2="1279.6072" y2="512.0193">
			<stop  offset="0" style="stop-color:#D5AC3F"/>
			<stop  offset="1" style="stop-color:#987836"/>
		</linearGradient>
		<polygon class="st9" points="1279.61,436.79 1279.61,655.06 1215.27,369.19 1216.21,368.98 1264.35,368.98 		"/>
		<linearGradient id="SVGID_10_" gradientUnits="userSpaceOnUse" x1="701.2991" y1="544.4889" x2="829.3195" y2="544.4889">
			<stop  offset="0" style="stop-color:#D5AC3F"/>
			<stop  offset="1" style="stop-color:#987836"/>
		</linearGradient>
		<polygon class="st10" points="829.32,719.79 828.38,720 780.25,720 701.3,369.19 702.23,368.98 750.37,368.98 		"/>
		<linearGradient id="SVGID_11_" gradientUnits="userSpaceOnUse" x1="807.1335" y1="544.4889" x2="935.1539" y2="544.4889">
			<stop  offset="0" style="stop-color:#D5AC3F"/>
			<stop  offset="1" style="stop-color:#987836"/>
		</linearGradient>
		<polygon class="st11" points="935.15,719.79 934.22,720 886.08,720 807.13,369.19 808.07,368.98 856.21,368.98 		"/>
		<linearGradient id="SVGID_12_" gradientUnits="userSpaceOnUse" x1="908.9741" y1="544.4889" x2="1036.9945" y2="544.4889">
			<stop  offset="0" style="stop-color:#D5AC3F"/>
			<stop  offset="1" style="stop-color:#987836"/>
		</linearGradient>
		<polygon class="st12" points="1036.99,719.79 1036.06,720 987.92,720 908.97,369.19 909.91,368.98 958.05,368.98 		"/>
		<linearGradient id="SVGID_13_" gradientUnits="userSpaceOnUse" x1="1014.8085" y1="544.4889" x2="1142.8289" y2="544.4889">
			<stop  offset="0" style="stop-color:#D5AC3F"/>
			<stop  offset="1" style="stop-color:#987836"/>
		</linearGradient>
		<polygon class="st13" points="1142.83,719.79 1141.89,720 1093.76,720 1014.81,369.19 1015.74,368.98 1063.88,368.98 		"/>
		<linearGradient id="SVGID_14_" gradientUnits="userSpaceOnUse" x1="1117.6476" y1="544.4889" x2="1245.668" y2="544.4889">
			<stop  offset="0" style="stop-color:#D5AC3F"/>
			<stop  offset="1" style="stop-color:#987836"/>
		</linearGradient>
		<polygon class="st14" points="1245.67,719.79 1244.73,720 1196.59,720 1117.65,369.19 1118.58,368.98 1166.72,368.98 		"/>
	</g>
	<linearGradient id="SVGID_15_" gradientUnits="userSpaceOnUse" x1="2" y1="185.4889" x2="403.5275" y2="185.4889">
		<stop  offset="0" style="stop-color:#D5AC3F"/>
		<stop  offset="1" style="stop-color:#987836"/>
	</linearGradient>
	<polygon class="st15" points="403.53,2 403.53,368.98 2,368.98 2,2 	"/>
	<linearGradient id="SVGID_16_" gradientUnits="userSpaceOnUse" x1="403.5275" y1="185.4889" x2="878.4725" y2="185.4889">
		<stop  offset="0" style="stop-color:#D5AC3F"/>
		<stop  offset="1" style="stop-color:#987836"/>
	</linearGradient>
	<polygon class="st16" points="878.47,2 878.47,368.98 403.53,368.98 403.53,2 	"/>
	<linearGradient id="SVGID_17_" gradientUnits="userSpaceOnUse" x1="878.4725" y1="185.4889" x2="1280" y2="185.4889">
		<stop  offset="0" style="stop-color:#D5AC3F"/>
		<stop  offset="1" style="stop-color:#987836"/>
	</linearGradient>
	<polygon class="st17" points="1280,2 1280,368.98 878.47,368.98 878.47,2 	"/>
	<linearGradient id="SVGID_18_" gradientUnits="userSpaceOnUse" x1="640.8036" y1="107.7056" x2="640.8036" y2="2">
		<stop  offset="0.014" style="stop-color:#D5AC3F"/>
		<stop  offset="0.0779" style="stop-color:#B29544"/>
		<stop  offset="0.1663" style="stop-color:#8B7843"/>
		<stop  offset="0.26" style="stop-color:#6C603B"/>
		<stop  offset="0.3573" style="stop-color:#574F33"/>
		<stop  offset="0.4593" style="stop-color:#423C2D"/>
		<stop  offset="0.5675" style="stop-color:#282621"/>
		<stop  offset="0.6848" style="stop-color:#171615"/>
		<stop  offset="0.8177" style="stop-color:#090908"/>
		<stop  offset="1" style="stop-color:#000000"/>
	</linearGradient>
	<rect x="2" y="2" class="st18" width="1277.61" height="105.71"/>
	
		<linearGradient id="SVGID_19_" gradientUnits="userSpaceOnUse" x1="550.3069" y1="579.7056" x2="550.3069" y2="474" gradientTransform="matrix(-1 0 0 -1 1191.1105 1194)">
		<stop  offset="0.014" style="stop-color:#D5AC3F"/>
		<stop  offset="0.0779" style="stop-color:#B29544"/>
		<stop  offset="0.1663" style="stop-color:#8B7843"/>
		<stop  offset="0.26" style="stop-color:#6C603B"/>
		<stop  offset="0.3573" style="stop-color:#574F33"/>
		<stop  offset="0.4593" style="stop-color:#423C2D"/>
		<stop  offset="0.5675" style="stop-color:#282621"/>
		<stop  offset="0.6848" style="stop-color:#171615"/>
		<stop  offset="0.8177" style="stop-color:#090908"/>
		<stop  offset="1" style="stop-color:#000000"/>
	</linearGradient>
	<polygon class="st19" points="1279.61,720 2,720 2,614.29 1279.61,614.29 	"/>
</g>
</svg>
