<?xml version="1.0" encoding="utf-8"?>
<!-- Generator: Adobe Illustrator 23.0.5, SVG Export Plug-In . SVG Version: 6.00 Build 0)  -->
<svg version="1.1" id="Слой_1" xmlns="http://www.w3.org/2000/svg" xmlns:xlink="http://www.w3.org/1999/xlink" x="0px" y="0px"
	 viewBox="0 0 1280 720" style="enable-background:new 0 0 1280 720;" xml:space="preserve">
<style type="text/css">
	.st0{fill:#79A0D0;stroke:#000000;stroke-width:3;stroke-miterlimit:10;}
	.st1{fill:#585E83;stroke:#000000;stroke-width:3;stroke-miterlimit:10;}
	.st2{fill:#FFE844;stroke:#000000;stroke-width:3;stroke-miterlimit:10;}
	.st3{fill:#5F826B;stroke:#000000;stroke-width:3;stroke-miterlimit:10;}
	.st4{fill:url(#SVGID_1_);stroke:#000000;stroke-width:3;stroke-miterlimit:10;}
	.st5{fill:url(#SVGID_2_);stroke:#000000;stroke-width:3;stroke-miterlimit:10;}
	.st6{fill:url(#SVGID_3_);stroke:#000000;stroke-width:3;stroke-miterlimit:10;}
	.st7{fill:url(#SVGID_4_);stroke:#000000;stroke-width:3;stroke-miterlimit:10;}
	.st8{fill:url(#SVGID_5_);stroke:#000000;stroke-width:3;stroke-miterlimit:10;}
</style>
<rect x="1" y="367.98" class="st0" width="1278" height="351.02"/>
<rect x="1" y="367.98" class="st1" width="1278" height="47.87"/>
<rect x="1" y="464.71" class="st1" width="1278" height="47.87"/>
<rect x="1" y="561.44" class="st1" width="1278" height="47.87"/>
<rect x="1" y="658.17" class="st2" width="1278" height="47.87"/>
<rect x="464.49" y="519.53" transform="matrix(-1.836970e-16 1 -1 -1.836970e-16 1183.4889 -96.5111)" class="st3" width="351.02" height="47.92"/>
<polygon class="st3" points="1,435.79 1,654.06 65.33,368.19 64.4,367.98 16.26,367.98 "/>
<polygon class="st3" points="451.29,718.79 452.22,719 500.36,719 579.31,368.19 578.37,367.98 530.23,367.98 "/>
<polygon class="st3" points="345.45,718.79 346.39,719 394.53,719 473.47,368.19 472.54,367.98 424.4,367.98 "/>
<polygon class="st3" points="243.61,718.79 244.55,719 292.69,719 371.63,368.19 370.7,367.98 322.56,367.98 "/>
<polygon class="st3" points="137.78,718.79 138.71,719 186.85,719 265.8,368.19 264.86,367.98 216.73,367.98 "/>
<polygon class="st3" points="34.94,718.79 35.88,719 84.01,719 162.96,368.19 162.02,367.98 113.89,367.98 "/>
<polygon class="st3" points="1278.61,435.79 1278.61,654.06 1214.27,368.19 1215.21,367.98 1263.35,367.98 "/>
<polygon class="st3" points="828.32,718.79 827.38,719 779.25,719 700.3,368.19 701.23,367.98 749.37,367.98 "/>
<polygon class="st3" points="934.15,718.79 933.22,719 885.08,719 806.13,368.19 807.07,367.98 855.21,367.98 "/>
<polygon class="st3" points="1035.99,718.79 1035.06,719 986.92,719 907.97,368.19 908.91,367.98 957.05,367.98 "/>
<polygon class="st3" points="1141.83,718.79 1140.89,719 1092.76,719 1013.81,368.19 1014.74,367.98 1062.88,367.98 "/>
<polygon class="st3" points="1244.67,718.79 1243.73,719 1195.59,719 1116.65,368.19 1117.58,367.98 1165.72,367.98 "/>
<linearGradient id="SVGID_1_" gradientUnits="userSpaceOnUse" x1="1" y1="184.4889" x2="402.5275" y2="184.4889">
	<stop  offset="0" style="stop-color:#7F9984"/>
	<stop  offset="1" style="stop-color:#5F826B"/>
</linearGradient>
<polygon class="st4" points="402.53,1 402.53,367.98 1,367.98 1,1 "/>
<linearGradient id="SVGID_2_" gradientUnits="userSpaceOnUse" x1="402.5275" y1="184.4889" x2="877.4725" y2="184.4889">
	<stop  offset="0" style="stop-color:#7F9984"/>
	<stop  offset="1" style="stop-color:#5F826B"/>
</linearGradient>
<polygon class="st5" points="877.47,1 877.47,367.98 402.53,367.98 402.53,1 "/>
<linearGradient id="SVGID_3_" gradientUnits="userSpaceOnUse" x1="877.4725" y1="184.4889" x2="1279" y2="184.4889">
	<stop  offset="0" style="stop-color:#7F9984"/>
	<stop  offset="1" style="stop-color:#5F826B"/>
</linearGradient>
<polygon class="st6" points="1279,1 1279,367.98 877.47,367.98 877.47,1 "/>
<linearGradient id="SVGID_4_" gradientUnits="userSpaceOnUse" x1="639.8036" y1="106.7056" x2="639.8036" y2="1">
	<stop  offset="0.014" style="stop-color:#7F9984"/>
	<stop  offset="0.0768" style="stop-color:#718474"/>
	<stop  offset="0.1788" style="stop-color:#5D675C"/>
	<stop  offset="0.2868" style="stop-color:#4D5248"/>
	<stop  offset="0.4" style="stop-color:#3E4038"/>
	<stop  offset="0.52" style="stop-color:#282825"/>
	<stop  offset="0.6501" style="stop-color:#171716"/>
	<stop  offset="0.7976" style="stop-color:#090909"/>
	<stop  offset="1" style="stop-color:#000000"/>
</linearGradient>
<rect x="1" y="1" class="st7" width="1277.61" height="105.71"/>
<linearGradient id="SVGID_5_" gradientUnits="userSpaceOnUse" x1="551.3069" y1="580.7056" x2="551.3069" y2="475" gradientTransform="matrix(-1 0 0 -1 1191.1105 1194)">
	<stop  offset="0.014" style="stop-color:#7F9984"/>
	<stop  offset="0.0768" style="stop-color:#718474"/>
	<stop  offset="0.1788" style="stop-color:#5D675C"/>
	<stop  offset="0.2868" style="stop-color:#4D5248"/>
	<stop  offset="0.4" style="stop-color:#3E4038"/>
	<stop  offset="0.52" style="stop-color:#282825"/>
	<stop  offset="0.6501" style="stop-color:#171716"/>
	<stop  offset="0.7976" style="stop-color:#090909"/>
	<stop  offset="1" style="stop-color:#000000"/>
</linearGradient>
<polygon class="st8" points="1278.61,719 1,719 1,613.29 1278.61,613.29 "/>
</svg>
