<?xml version="1.0" encoding="utf-8"?>
<!-- Generator: Adobe Illustrator 23.0.5, SVG Export Plug-In . SVG Version: 6.00 Build 0)  -->
<svg version="1.1" id="Слой_1" xmlns="http://www.w3.org/2000/svg" xmlns:xlink="http://www.w3.org/1999/xlink" x="0px" y="0px"
	 viewBox="0 0 120 120" style="enable-background:new 0 0 120 120;" xml:space="preserve">
<style type="text/css">
	.st0{opacity:0.01;}
	.st1{fill:none;stroke:#000000;stroke-miterlimit:10;}
	.st2{fill:#6B6966;stroke:#000000;stroke-miterlimit:10;}
	.st3{fill:#272624;stroke:#000000;stroke-miterlimit:10;}
	.st4{stroke:#000000;stroke-miterlimit:10;}
	.st5{fill:#FFFFFF;stroke:#000000;stroke-miterlimit:10;}
</style>
<rect x="0" class="st0" width="120" height="120"/>
<line class="st1" x1="77.77" y1="44.25" x2="94.52" y2="59.16"/>
<g>
	<path class="st2" d="M26.59,110.53l16.23-21.5c-2.42-1.21-8.03-4.42-11.74-11.08c-2.12-3.8-2.87-7.37-3.17-9.76
		c1.11-2.51,3.01-6,6.2-9.5c2.58-2.82,5.19-4.77,7.26-6.07c-2.02-2.3-4.99-6.25-6.99-11.87c-1.75-4.91-2.1-9.25-2.11-12.14
		c2.3-2.23,6.21-5.49,11.87-7.92c5.94-2.55,11.25-3.09,14.51-3.17c5.47,1.75,10.94,3.5,16.42,5.25c2.09,0.67,4.18,1.34,6.28,2.01
		c0.66,0.42,5.14,3.43,5.8,9.1c0.45,3.85-1.12,6.78-1.72,7.78c3,1.24,7.63,3.64,11.87,8.18c2.22,2.37,3.78,4.74,4.88,6.73
		c-0.4,2.5-1.18,5.68-2.77,9.1c-3.1,6.67-7.66,10.8-10.42,12.93c3.83,8.75,7.65,17.5,11.48,26.25"/>
	<path class="st3" d="M41.26,97.58l11.34-15.02c-1.69-0.84-5.61-3.09-8.2-7.74c-1.48-2.65-2.01-5.15-2.21-6.82
		c0.78-1.75,2.1-4.19,4.33-6.64c1.8-1.97,3.63-3.33,5.07-4.24c-1.41-1.61-3.49-4.37-4.88-8.29c-1.22-3.43-1.47-6.46-1.47-8.48
		c1.6-1.56,4.34-3.83,8.29-5.53c4.15-1.78,7.86-2.16,10.14-2.21c3.82,1.22,7.65,2.44,11.47,3.67c1.46,0.47,2.92,0.93,4.38,1.4
		c0.46,0.3,3.59,2.39,4.06,6.36c0.31,2.69-0.78,4.74-1.2,5.44c2.09,0.87,5.33,2.54,8.29,5.71c1.55,1.66,2.64,3.31,3.41,4.7
		c-0.28,1.75-0.82,3.97-1.94,6.36c-2.17,4.66-5.35,7.55-7.28,9.03c2.67,6.11,5.35,12.23,8.02,18.34"/>
	<path class="st2" d="M74.37,26.44c-0.8,1.53-2.33,3.98-5.04,6.22c-2.43,2-4.83,3.02-6.4,3.55c-1.52,0.08-3.87,0-6.53-0.91
		c-1.75-0.59-3.13-1.38-4.14-2.06c-0.09-6.32-0.17-12.63-0.26-18.95c0.53-0.67,7.71-9.32,17.46-7.88c3.23,0.48,5.71,1.91,7.32,3.1
		C75.97,15.14,75.17,20.79,74.37,26.44z"/>
	<path class="st4" d="M69.86,25.22l-7.26,6.19l-6.77-1.88l-0.17-12.01c1.44-3.88,4.95-6.45,8.71-6.45c4.05-0.01,6.62,2.96,7,3.42
		C70.88,18.06,70.37,21.64,69.86,25.22z"/>
</g>
<g>
	
		<rect x="54.06" y="12.38" transform="matrix(-0.8477 0.5304 -0.5304 -0.8477 131.9317 68.7026)" class="st4" width="4.09" height="81.83"/>
	<path class="st5" d="M36.31,25.51c-0.86,0.54-1.71,1.07-2.57,1.61c-15.87,6.43-20.38,12.66-20.83,17.7
		c-0.36,4.02,1.82,7.85,1.19,8.12c-0.87,0.38-6.56-6.24-6.44-12.78c0.16-8.32,9.76-16.65,23.89-19.77c0.37-0.23,0.75-0.47,1.12-0.7
		L36.31,25.51z"/>
</g>
</svg>
