<?xml version="1.0" encoding="utf-8"?>
<!-- Generator: Adobe Illustrator 23.0.5, SVG Export Plug-In . SVG Version: 6.00 Build 0)  -->
<svg version="1.1" id="Слой_1" xmlns="http://www.w3.org/2000/svg" xmlns:xlink="http://www.w3.org/1999/xlink" x="0px" y="0px"
	 viewBox="0 0 120 120" style="enable-background:new 0 0 120 120;" xml:space="preserve">
<style type="text/css">
	.st0{opacity:0.01;fill:#FFFFFF;}
	.st1{fill:#6B6966;stroke:#000000;stroke-miterlimit:10;}
	.st2{fill:#979695;}
	.st3{fill:#46433E;stroke:#000000;stroke-miterlimit:10;}
	.st4{fill:#473421;stroke:#000000;stroke-miterlimit:10;}
	.st5{fill:#735846;}
	.st6{fill:url(#SVGID_1_);stroke:#000000;stroke-miterlimit:10;}
</style>
<rect y="0" class="st0" width="120" height="120"/>
<g>
	
		<rect x="28.33" y="49.54" transform="matrix(-1.509929e-03 -1 1 -1.509929e-03 10.1474 112.9074)" class="st1" width="66.23" height="3.69"/>
	
		<rect x="43.53" y="36.56" transform="matrix(-1.509929e-03 -1 1 -1.509929e-03 24.0319 98.0336)" class="st2" width="34.85" height="0.92"/>
</g>
<g>
	<rect x="27.61" y="26.08" class="st1" width="66.23" height="3.69"/>
	<rect x="57.67" y="27" class="st2" width="34.85" height="0.92"/>
</g>
<g>
	<rect x="35.64" y="35.3" class="st1" width="51.6" height="3.69"/>
	<rect x="59.06" y="36.23" class="st2" width="27.15" height="0.92"/>
</g>
<g>
	<rect x="41.58" y="44.53" class="st1" width="41.45" height="3.69"/>
	<rect x="60.39" y="45.45" class="st2" width="21.81" height="0.92"/>
</g>
<g>
	<rect x="41.58" y="52.58" class="st1" width="41.45" height="3.69"/>
	<rect x="60.39" y="53.5" class="st2" width="21.81" height="0.92"/>
</g>
<g>
	<rect x="41.58" y="75.53" class="st1" width="41.45" height="3.69"/>
	<rect x="60.39" y="76.45" class="st2" width="21.81" height="0.92"/>
</g>
<g>
	<rect x="58" y="57.72" class="st1" width="6.89" height="3.69"/>
	<rect x="61.12" y="58.64" class="st2" width="3.63" height="0.92"/>
</g>
<g>
	<rect x="58" y="63.48" class="st1" width="6.89" height="3.69"/>
	<rect x="61.12" y="64.4" class="st2" width="3.63" height="0.92"/>
</g>
<g>
	<rect x="58" y="69.5" class="st1" width="6.89" height="3.69"/>
	<rect x="61.12" y="70.43" class="st2" width="3.63" height="0.92"/>
</g>
<g>
	
		<rect x="37" y="86.07" transform="matrix(3.428905e-03 1 -1 3.428905e-03 132.5641 42.8147)" class="st1" width="15.6" height="3.69"/>
	
		<rect x="41.17" y="90.84" transform="matrix(3.428905e-03 1 -1 3.428905e-03 136.4187 45.7127)" class="st2" width="8.21" height="0.92"/>
</g>
<g>
	<rect x="32.1" y="113.55" class="st1" width="13.43" height="3.69"/>
	<rect x="38.2" y="114.47" class="st2" width="7.07" height="0.92"/>
</g>
<g>
	<rect x="79.5" y="113.55" class="st1" width="13.43" height="3.69"/>
	<rect x="85.6" y="114.47" class="st2" width="7.07" height="0.92"/>
</g>
<g>
	
		<rect x="72.52" y="86.09" transform="matrix(3.428905e-03 1 -1 3.428905e-03 167.9842 7.3123)" class="st1" width="15.6" height="3.69"/>
	
		<rect x="76.69" y="90.86" transform="matrix(3.428905e-03 1 -1 3.428905e-03 171.8388 10.2102)" class="st2" width="8.21" height="0.92"/>
</g>
<g>
	
		<rect x="37" y="103.89" transform="matrix(3.428905e-03 1 -1 3.428905e-03 150.3874 60.577)" class="st1" width="15.6" height="3.69"/>
	
		<rect x="41.17" y="108.66" transform="matrix(3.428905e-03 1 -1 3.428905e-03 154.242 63.475)" class="st2" width="8.21" height="0.92"/>
</g>
<g>
	
		<rect x="72.52" y="103.77" transform="matrix(3.428905e-03 1 -1 3.428905e-03 185.666 24.9336)" class="st1" width="15.6" height="3.69"/>
	
		<rect x="76.69" y="108.54" transform="matrix(3.428905e-03 1 -1 3.428905e-03 189.5206 27.8315)" class="st2" width="8.21" height="0.92"/>
</g>
<g>
	<rect x="41.36" y="94.54" class="st1" width="6.89" height="3.69"/>
	<rect x="44.48" y="95.46" class="st2" width="3.63" height="0.92"/>
</g>
<g>
	<rect x="76.53" y="94.54" class="st1" width="6.89" height="3.69"/>
	<rect x="79.65" y="95.46" class="st2" width="3.63" height="0.92"/>
</g>
<g>
	
		<rect x="7.81" y="36.38" transform="matrix(0.6584 -0.7526 0.7526 0.6584 -21.7717 28.4752)" class="st1" width="25.36" height="3.69"/>
	
		<rect x="17.09" y="33.32" transform="matrix(0.6584 -0.7526 0.7526 0.6584 -17.3067 29.4224)" class="st2" width="13.35" height="0.92"/>
</g>
<g>
	<rect x="5.6" y="88.33" transform="matrix(0.95 0.3123 -0.3123 0.95 28.7889 -1.2442)" class="st1" width="25.36" height="1.85"/>
	
		<rect x="16.91" y="90.53" transform="matrix(0.95 0.3123 -0.3123 0.95 29.5222 -2.8244)" class="st2" width="13.35" height="0.46"/>
</g>
<g>
	<ellipse class="st1" cx="20.49" cy="69.5" rx="11.61" ry="9.53"/>
	<ellipse class="st3" cx="21.4" cy="70.14" rx="4.99" ry="4.09"/>
</g>
<g>
	
		<rect x="87.8" y="36.38" transform="matrix(-0.6584 -0.7526 0.7526 -0.6584 137.8675 139.0164)" class="st1" width="25.36" height="3.69"/>
	
		<rect x="90.53" y="33.32" transform="matrix(-0.6584 -0.7526 0.7526 -0.6584 135.7804 129.1776)" class="st2" width="13.35" height="0.92"/>
</g>
<rect x="54.9" y="20.27" transform="matrix(1 -1.063669e-03 1.063669e-03 1 -0.0225 0.0656)" class="st1" width="13.57" height="1.85"/>
<g>
	<path class="st1" d="M63.26,8.37c0.5-0.69,1.36-1.14,2.34-1.14c1.54,0,2.79,1.12,2.79,2.51c0,0.11-0.02,0.21-0.03,0.31l3.11,1.02
		c0.1-0.44,0.16-0.9,0.16-1.37c0-4.25-4.47-7.7-9.98-7.7c-3.33,0-6.26,1.26-8.08,3.19L63.26,8.37z"/>
	<path class="st1" d="M67.36,11.67c-0.48,0.36-1.09,0.58-1.77,0.58c-1.37,0-2.51-0.89-2.74-2.06l-2.49-0.82
		c0.02,0.12,0.04,0.24,0.04,0.37c0,1.39-1.25,2.51-2.79,2.51s-2.79-1.12-2.79-2.51c0-0.75,0.38-1.42,0.96-1.88l-3.36-1.1
		c-0.49,0.91-0.76,1.9-0.76,2.95c0,2.03,1.03,3.88,2.7,5.26v7.17h2.81v-4.54h3.04v4.54h3.08v-4.54h2.78v4.54h2.85v-7.17
		c0.77-0.63,1.39-1.37,1.85-2.17L67.36,11.67z"/>
</g>
<g>
	<g>
		
			<rect x="75.95" y="81.29" transform="matrix(2.595969e-07 -1 1 2.595969e-07 25.923 192.1974)" class="st4" width="66.23" height="3.69"/>
		
			<rect x="91.17" y="68.31" transform="matrix(2.595969e-07 -1 1 2.595969e-07 39.8307 177.3663)" class="st5" width="34.85" height="0.92"/>
	</g>
	<polygon class="st1" points="112.68,49.63 105.47,49.65 101.85,43.42 105.44,37.16 112.65,37.14 116.27,43.38 	"/>
</g>
<linearGradient id="SVGID_1_" gradientUnits="userSpaceOnUse" x1="75.5881" y1="94.5833" x2="75.5881" y2="25.4167">
	<stop  offset="0" style="stop-color:#979695"/>
	<stop  offset="1" style="stop-color:#000000"/>
</linearGradient>
<rect x="59.92" y="25.42" class="st6" width="31.33" height="69.17"/>
</svg>
