<?xml version="1.0" encoding="utf-8"?>
<!-- Generator: Adobe Illustrator 23.0.5, SVG Export Plug-In . SVG Version: 6.00 Build 0)  -->
<svg version="1.1" id="Слой_1" xmlns="http://www.w3.org/2000/svg" xmlns:xlink="http://www.w3.org/1999/xlink" x="0px" y="0px"
	 viewBox="0 0 60 60" style="enable-background:new 0 0 60 60;" xml:space="preserve">
<style type="text/css">
	.st0{fill:none;stroke:#000000;stroke-width:1.5;stroke-miterlimit:10;}
	.st1{fill:#493517;stroke:#000000;stroke-miterlimit:10;}
	.st2{fill:#DAB786;stroke:#000000;stroke-miterlimit:10;}
	.st3{fill:url(#SVGID_1_);}
	.st4{fill:none;stroke:#000000;stroke-width:2;stroke-miterlimit:10;}
	.st5{clip-path:url(#SVGID_3_);fill:url(#SVGID_4_);}
	.st6{fill:none;stroke:#000000;stroke-miterlimit:10;}
	.st7{fill:#493517;stroke:#000000;stroke-width:0.75;stroke-miterlimit:10;}
</style>
<line class="st0" x1="4.5" y1="46.62" x2="60" y2="46.62"/>
<polygon class="st1" points="0.5,50.4 0.5,59.65 10.99,59.65 10.99,50.4 10.99,48.06 "/>
<rect x="24.63" y="41.81" class="st2" width="16.69" height="7.74"/>
<rect x="10.99" y="47.56" class="st1" width="42.93" height="12.09"/>
<g>
	<ellipse class="st2" cx="33.25" cy="26.25" rx="18.72" ry="18.67"/>
	
		<linearGradient id="SVGID_1_" gradientUnits="userSpaceOnUse" x1="37.7469" y1="33.4963" x2="34.7788" y2="25.1261" gradientTransform="matrix(0.8443 0 0 1 7.1972 0.722)">
		<stop  offset="0" style="stop-color:#DAB786"/>
		<stop  offset="1" style="stop-color:#000000"/>
	</linearGradient>
	<ellipse class="st3" cx="36.24" cy="24.77" rx="15.61" ry="10.38"/>
	<line class="st4" x1="27.87" y1="37.79" x2="39.64" y2="37.78"/>
	<g>
		<defs>
			
				<ellipse id="SVGID_2_" transform="matrix(0.0155 -0.9999 0.9999 0.0155 6.1166 59.718)" cx="33.38" cy="26.75" rx="18.17" ry="18.59"/>
		</defs>
		<clipPath id="SVGID_3_">
			<use xlink:href="#SVGID_2_"  style="overflow:visible;"/>
		</clipPath>
		
			<linearGradient id="SVGID_4_" gradientUnits="userSpaceOnUse" x1="33.6788" y1="24.257" x2="38.3678" y2="34.3128" gradientTransform="matrix(0.9996 0.0288 -0.0288 0.9996 0.9138 -0.9215)">
			<stop  offset="0.2514" style="stop-color:#000000"/>
			<stop  offset="1" style="stop-color:#DAB786"/>
		</linearGradient>
		<polygon class="st5" points="52.04,28.54 15.45,32.5 52.39,16.3 		"/>
	</g>
	<ellipse class="st6" cx="33.25" cy="26.25" rx="18.72" ry="18.67"/>
	<g>
		
			<rect x="1.37" y="15.71" transform="matrix(0.9104 -0.4137 0.4137 0.9104 -5.7032 14.5719)" class="st7" width="58.85" height="9.48"/>
		<polygon class="st1" points="36.64,0.99 12.29,12.06 11.79,23.88 45.88,8.39 		"/>
	</g>
</g>
<polygon class="st1" points="53.92,47.56 53.92,50 53.92,59.65 59.55,59.65 59.55,50 59.55,48.37 "/>
</svg>
