<?xml version="1.0" encoding="utf-8"?>
<!-- Generator: Adobe Illustrator 23.0.5, SVG Export Plug-In . SVG Version: 6.00 Build 0)  -->
<svg version="1.1" xmlns="http://www.w3.org/2000/svg" xmlns:xlink="http://www.w3.org/1999/xlink" x="0px" y="0px"
	 viewBox="0 0 120 120" style="enable-background:new 0 0 120 120;" xml:space="preserve">
<style type="text/css">
	.st0{opacity:0.01;}
	.st1{fill:url(#SVGID_1_);stroke:#000000;stroke-miterlimit:10;}
	.st2{fill:#36322D;stroke:#000000;stroke-miterlimit:10;}
	.st3{fill:#6E6863;stroke:#000000;stroke-miterlimit:10;}
	.st4{fill:#504D4B;}
	.st5{fill:#443523;}
	.st6{fill:#7E6854;}
	.st7{fill:#FBECA5;stroke:#000000;stroke-miterlimit:10;}
	.st8{fill:#56534E;stroke:#000000;stroke-miterlimit:10;}
	.st9{fill:#493517;stroke:#000000;stroke-miterlimit:10;}
	.st10{fill:url(#SVGID_2_);}
	.st11{fill:none;stroke:#000000;stroke-width:2;stroke-miterlimit:10;}
	.st12{fill:none;stroke:#000000;stroke-miterlimit:10;}
	.st13{fill:#FAE796;stroke:#000000;stroke-width:0.25;stroke-miterlimit:10;}
	.st14{fill:#67482F;stroke:#000000;stroke-width:0.25;stroke-miterlimit:10;}
	.st15{stroke:#000000;stroke-miterlimit:10;}
	.st16{clip-path:url(#SVGID_4_);fill:#976C5C;}
	.st17{fill:#493517;stroke:#000000;stroke-width:0.75;stroke-miterlimit:10;}
</style>
<g id="Слой_1">
	<rect x="-0.05" y="0" class="st0" width="120" height="120"/>
	
		<linearGradient id="SVGID_1_" gradientUnits="userSpaceOnUse" x1="92.3013" y1="61.0798" x2="110.3584" y2="61.0798" gradientTransform="matrix(-1 0 0 -1 161.0716 104.1385)">
		<stop  offset="0.1061" style="stop-color:#DAB786"/>
		<stop  offset="1" style="stop-color:#000000"/>
	</linearGradient>
	<polygon class="st1" points="50.71,40.99 68.77,40.99 68.77,45.13 50.71,45.13 	"/>
	<g>
		<rect x="43.59" y="98.78" class="st2" width="17.26" height="6.86"/>
		<rect x="46.09" y="69.96" class="st3" width="14.79" height="28.33"/>
		<rect x="47.52" y="82.96" class="st4" width="3.15" height="13.55"/>
		<rect x="47.52" y="94.55" class="st5" width="11.33" height="1.96"/>
		<rect x="46.64" y="70.64" class="st6" width="10.92" height="1.96"/>
	</g>
	<g>
		<rect x="57.59" y="105.53" class="st2" width="17.26" height="6.86"/>
		<rect x="60.09" y="76.71" class="st3" width="14.79" height="28.33"/>
		<rect x="61.51" y="89.71" class="st4" width="3.15" height="13.55"/>
		<rect x="61.51" y="101.3" class="st5" width="11.33" height="1.96"/>
		<rect x="60.63" y="77.4" class="st6" width="10.92" height="1.96"/>
	</g>
	<g>
		<g>
			
				<rect x="32.93" y="59.72" transform="matrix(-0.9802 0.1982 -0.1982 -0.9802 83.0418 121.6018)" class="st7" width="5.02" height="10.47"/>
			
				<rect x="28.17" y="60.7" transform="matrix(-0.9802 0.1982 -0.1982 -0.9802 72.1198 116.9143)" class="st7" width="4.08" height="2.73"/>
			
				<rect x="27.48" y="63.5" transform="matrix(-0.9802 0.1982 -0.1982 -0.9802 72.5409 122.4776)" class="st7" width="5.33" height="2.73"/>
			
				<rect x="28.45" y="66.14" transform="matrix(-0.9802 0.1982 -0.1982 -0.9802 74.5636 127.5467)" class="st7" width="4.89" height="2.73"/>
			
				<rect x="29.79" y="68.74" transform="matrix(-0.9802 0.1982 -0.1982 -0.9802 76.9324 132.509)" class="st7" width="4.08" height="2.73"/>
			
				<rect x="30.55" y="58.95" transform="matrix(-0.9802 0.1982 -0.1982 -0.9802 75.7543 114.914)" class="st7" width="3.15" height="4.59"/>
			
				<rect x="37.89" y="60.09" transform="matrix(-0.9802 0.1982 -0.1982 -0.9802 92.7163 119.0981)" class="st8" width="5.02" height="8.2"/>
		</g>
		<polygon class="st9" points="58.79,66.32 58.91,45.72 46.92,45.65 46.85,56.68 37.91,58.55 40.37,70.29 58.64,66.47 58.61,66.32 
					"/>
	</g>
	<linearGradient id="SVGID_2_" gradientUnits="userSpaceOnUse" x1="60.0655" y1="30.1722" x2="46.4449" y2="8.9698">
		<stop  offset="0.1061" style="stop-color:#DAB786"/>
		<stop  offset="1" style="stop-color:#000000"/>
	</linearGradient>
	<ellipse class="st10" cx="59.23" cy="28.87" rx="15.55" ry="15.51"/>
	<line class="st11" x1="58.54" y1="38.31" x2="50.89" y2="38.31"/>
	<ellipse class="st12" cx="59.23" cy="28.87" rx="15.55" ry="15.51"/>
	<g>
		<rect x="43.08" y="45.13" class="st9" width="15.04" height="35.87"/>
		<path class="st13" d="M50.62,51.43v4.06c0,2.24,1.17,4.06,2.61,4.06c1.44,0,2.61-1.82,2.61-4.06v-4.06H50.62z"/>
		<polygon class="st14" points="43.46,51.43 43.46,53.17 45.28,53.17 45.28,57.01 43.46,57.01 43.46,58.75 47.55,58.75 47.55,57.01 
			47.55,53.17 47.55,51.43 		"/>
	</g>
	<rect x="58.12" y="45.13" class="st9" width="19.29" height="39.71"/>
	<rect x="40.92" y="44.44" class="st15" width="38.17" height="1.37"/>
	<g>
		<g>
			
				<rect x="55.2" y="75.61" transform="matrix(-0.8715 0.4904 -0.4904 -0.8715 144.885 116.0005)" class="st7" width="4.08" height="2.73"/>
			
				<rect x="53.11" y="73.43" transform="matrix(-0.8715 0.4904 -0.4904 -0.8715 140.6489 112.7399)" class="st7" width="4.89" height="2.73"/>
			
				<rect x="51.18" y="68.47" transform="matrix(-0.8715 0.4904 -0.4904 -0.8715 133.854 104.5961)" class="st7" width="4.08" height="2.73"/>
			
				<rect x="51.36" y="71.15" transform="matrix(-0.8715 0.4904 -0.4904 -0.8715 136.6658 109.2345)" class="st7" width="5.33" height="2.73"/>
			
				<rect x="53.22" y="66.17" transform="matrix(-0.8715 0.4904 -0.4904 -0.8715 136.1254 101.2634)" class="st7" width="3.15" height="4.59"/>
			
				<rect x="54.51" y="66.28" transform="matrix(-0.8715 0.4904 -0.4904 -0.8715 143.8478 105.3439)" class="st7" width="7.23" height="10.47"/>
			
				<rect x="61.06" y="64.62" transform="matrix(-0.8715 0.4904 -0.4904 -0.8715 152.6719 97.4314)" class="st8" width="5.02" height="8.2"/>
		</g>
		<path class="st9" d="M81.7,64.74L76.82,49.6c-0.09-0.49-0.25-0.97-0.45-1.41l-0.99-3.06L74,45.57c-0.9-0.54-1.95-0.85-3.07-0.85
			c-2.46,0-4.58,1.49-5.5,3.62l-1.47,0.47l3.39,10.5l-7.91,4.57l5.99,10.38l16.17-9.34l-0.08-0.13L81.7,64.74z"/>
	</g>
</g>
<g id="Слой_2">
	<g>
		<defs>
			
				<ellipse id="SVGID_3_" transform="matrix(0.0724 -0.9974 0.9974 0.0724 25.8927 85.7645)" cx="59.05" cy="28.96" rx="15.51" ry="15.44"/>
		</defs>
		<clipPath id="SVGID_4_">
			<use xlink:href="#SVGID_3_"  style="overflow:visible;"/>
		</clipPath>
		<polygon class="st16" points="77.15,16.16 39.12,21.82 73.66,35.3 		"/>
	</g>
</g>
<g id="Слой_3">
	<g>
		
			<rect x="37.19" y="19.36" transform="matrix(-0.9104 -0.4137 0.4137 -0.9104 108.101 69.9989)" class="st17" width="48.88" height="7.88"/>
		<polygon class="st9" points="56.77,7.13 77,16.32 77.42,26.14 49.1,13.28 		"/>
	</g>
</g>
</svg>
