<?xml version="1.0" encoding="utf-8"?>
<!-- Generator: Adobe Illustrator 23.0.5, SVG Export Plug-In . SVG Version: 6.00 Build 0)  -->
<svg version="1.1" id="Слой_1" xmlns="http://www.w3.org/2000/svg" xmlns:xlink="http://www.w3.org/1999/xlink" x="0px" y="0px"
	 viewBox="0 0 32 30" style="enable-background:new 0 0 32 30;" xml:space="preserve">
<style type="text/css">
	.st0{opacity:0.01;fill:#201600;stroke:#201600;stroke-miterlimit:10;}
	.st1{fill:#C34E48;stroke:#000000;stroke-miterlimit:10;}
	.st2{fill:#2D3445;stroke:#000000;stroke-miterlimit:10;}
	.st3{fill:#D9B786;stroke:#000000;stroke-miterlimit:10;}
	.st4{fill:#EFEFEF;stroke:#000000;stroke-miterlimit:10;}
	.st5{fill:none;stroke:#000000;stroke-width:0.5;stroke-miterlimit:10;}
	.st6{clip-path:url(#SVGID_2_);fill:#4F3F29;}
	.st7{fill:#F6ED57;stroke:#C65049;stroke-width:0.1;stroke-miterlimit:10;}
	.st8{fill:#000105;stroke:#000105;stroke-width:0.1;stroke-miterlimit:10;}
	.st9{fill:#F6ED57;stroke:#F6ED57;stroke-width:0.1;stroke-miterlimit:10;}
	.st10{fill:none;stroke:#F6ED57;stroke-width:0.1;stroke-miterlimit:10;}
	.st11{fill:#000105;}
	.st12{fill:#F6ED57;}
	.st13{fill:none;stroke:#000105;stroke-width:0.1;stroke-miterlimit:10;}
	.st14{opacity:0.95;fill:#D66446;stroke:#D66446;stroke-width:0.25;stroke-miterlimit:10;}
	.st15{opacity:0.7;fill:none;stroke:#D66446;stroke-width:0.25;stroke-miterlimit:10;}
	.st16{fill:#293B4E;}
</style>
<rect x="0.5" y="0.5" class="st0" width="31" height="29"/>
<rect x="12.5" y="26" class="st1" width="3.5" height="2"/>
<rect x="16" y="23.81" class="st1" width="3.5" height="2"/>
<rect x="16" y="19" class="st2" width="3.5" height="4.63"/>
<g>
	<circle class="st3" cx="16" cy="6.47" r="3.5"/>
	<rect x="12.5" y="9.97" class="st4" width="7" height="9"/>
	<rect x="9" y="10.47" class="st4" width="3.5" height="7"/>
	<rect x="19.5" y="10.47" class="st4" width="3.5" height="7"/>
	<circle class="st3" cx="10.75" cy="17.7" r="1.75"/>
	<circle class="st3" cx="21.25" cy="17.7" r="1.75"/>
	<path class="st5" d="M14.96,8.26c0.2,0.09,0.55,0.22,1.01,0.23c0.49,0.01,0.87-0.14,1.07-0.23"/>
	<g>
		<g>
			<defs>
				
					<ellipse id="SVGID_1_" transform="matrix(0.9463 -0.3232 0.3232 0.9463 -1.2316 5.5179)" cx="16" cy="6.47" rx="3.11" ry="3.13"/>
			</defs>
			<clipPath id="SVGID_2_">
				<use xlink:href="#SVGID_1_"  style="overflow:visible;"/>
			</clipPath>
			<polygon class="st6" points="13.75,1.63 20.47,5.5 12.99,5.48 			"/>
		</g>
	</g>
	<g>
		<polygon class="st7" points="17.85,13.34 18.01,12.8 17.62,12.4 17.49,11.89 16.99,11.75 16.59,11.33 16.03,11.48 15.52,11.33 
			15.15,11.7 14.6,11.84 14.45,12.38 14.06,12.76 14.19,13.29 14.05,13.8 14.42,14.18 14.55,14.74 15.11,14.9 15.47,15.27 
			15.97,15.14 16.52,15.3 16.94,14.9 17.45,14.77 17.6,14.25 17.99,13.88 		"/>
		<g>
			<g>
				<circle class="st8" cx="16.46" cy="13.33" r="1.08"/>
				<g>
					<g>
						<circle class="st9" cx="16.07" cy="13.21" r="0.14"/>
						<line class="st10" x1="15.93" y1="12.73" x2="16.35" y2="12.97"/>
					</g>
					<g>
						<circle class="st9" cx="16.85" cy="13.21" r="0.14"/>
						<line class="st10" x1="16.99" y1="12.73" x2="16.58" y2="12.97"/>
					</g>
				</g>
				<polygon class="st9" points="15.85,13.81 16.95,13.7 16.94,13.9 				"/>
			</g>
			<g>
				<g>
					
						<rect x="15.52" y="12.09" transform="matrix(0.8281 -0.5605 0.5605 0.8281 -4.1695 10.9597)" class="st11" width="0.53" height="0.37"/>
					
						<rect x="15.88" y="12.04" transform="matrix(0.8281 -0.5605 0.5605 0.8281 -4.0767 11.012)" class="st12" width="0.08" height="0.22"/>
				</g>
				<g>
					<path class="st13" d="M14.61,13.42c0,0.01-0.02,0.13,0.07,0.19c0.03,0.03,0.07,0.03,0.09,0.03c0.06-0.01,0.13-0.04,0.17-0.1
						c0.02-0.02,0.03-0.05,0.03-0.07c0.09-0.43,0.19-0.86,0.29-1.29c0-0.02,0.02-0.09,0.1-0.14c0.06-0.03,0.11-0.03,0.13-0.03
						c0.03,0.01,0.06,0.02,0.09,0.03c0.08,0.04,0.12,0.09,0.15,0.12"/>
					<line class="st13" x1="14.68" y1="13.35" x2="14.79" y2="13.25"/>
					<line class="st13" x1="14.55" y1="13.34" x2="14.44" y2="13.24"/>
					<line class="st13" x1="14.53" y1="13.45" x2="14.41" y2="13.55"/>
					<line class="st13" x1="14.61" y1="13.16" x2="14.61" y2="13.32"/>
					<line class="st13" x1="14.53" y1="13.4" x2="14.38" y2="13.4"/>
					<line class="st13" x1="14.79" y1="13.55" x2="14.68" y2="13.45"/>
					<line class="st13" x1="14.86" y1="13.4" x2="14.71" y2="13.4"/>
				</g>
			</g>
		</g>
	</g>
	<g>
		<rect x="14.03" y="6.09" class="st14" width="1.23" height="0.76"/>
		<line class="st15" x1="15.26" y1="6.19" x2="16.74" y2="6.19"/>
		<rect x="16.74" y="6.09" class="st14" width="1.23" height="0.75"/>
	</g>
</g>
<rect x="12.5" y="18.97" class="st2" width="3.5" height="7"/>
<rect x="13.04" y="21.47" class="st16" width="0.93" height="4"/>
<rect x="16.58" y="21" class="st16" width="0.93" height="2"/>
</svg>
