<?xml version="1.0" encoding="utf-8"?>
<!-- Generator: Adobe Illustrator 23.0.5, SVG Export Plug-In . SVG Version: 6.00 Build 0)  -->
<svg version="1.1" id="Слой_1" xmlns="http://www.w3.org/2000/svg" xmlns:xlink="http://www.w3.org/1999/xlink" x="0px" y="0px"
	 viewBox="0 0 120 120" style="enable-background:new 0 0 120 120;" xml:space="preserve">
<style type="text/css">
	.st0{opacity:0.01;}
	.st1{fill:#C9C8C8;stroke:#000000;stroke-miterlimit:10;}
	.st2{fill:#AFAFAF;stroke:#000000;stroke-miterlimit:10;}
	.st3{fill:#E9A854;stroke:#000000;stroke-miterlimit:10;}
	.st4{fill:#FFF343;stroke:#000000;stroke-miterlimit:10;}
	.st5{fill:none;stroke:#000000;stroke-miterlimit:10;}
	.st6{fill:#4D5B9D;stroke:#000000;stroke-miterlimit:10;}
</style>
<rect y="0" class="st0" width="120" height="120"/>
<path class="st1" d="M64.45,48.57h-8.9c-0.41,0-0.74-0.33-0.74-0.74V38.1c0-0.41,0.33-0.74,0.74-0.74h8.9
	c0.41,0,0.74,0.33,0.74,0.74v9.74C65.19,48.24,64.86,48.57,64.45,48.57z"/>
<circle class="st2" cx="60" cy="35.29" r="7.42"/>
<rect x="34.21" y="44.42" class="st3" width="51.58" height="68.21"/>
<rect x="51.12" y="26.95" class="st4" width="18.07" height="5.73"/>
<rect x="34.21" y="44.42" class="st4" width="10.64" height="7.96"/>
<rect x="75.15" y="44.42" class="st4" width="10.64" height="7.96"/>
<line class="st5" x1="54.81" y1="35.02" x2="57.38" y2="35.02"/>
<line class="st5" x1="61.94" y1="35.02" x2="64.5" y2="35.02"/>
<line class="st5" x1="57.69" y1="38.55" x2="61.63" y2="38.55"/>
<rect x="19.98" y="34.52" class="st6" width="3.69" height="62.8"/>
<rect x="57.38" y="52.38" class="st4" width="4.56" height="53.12"/>
<rect x="44.08" y="56.81" transform="matrix(-1.836970e-16 1 -1 -1.836970e-16 110.0043 17.2748)" class="st4" width="4.56" height="13.67"/>
<rect x="44.08" y="88.2" transform="matrix(-1.836970e-16 1 -1 -1.836970e-16 141.4027 48.6732)" class="st4" width="4.56" height="13.67"/>
<rect x="70.75" y="56.81" transform="matrix(-1.836970e-16 1 -1 -1.836970e-16 136.6723 -9.3933)" class="st4" width="4.56" height="13.67"/>
<rect x="70.75" y="88.2" transform="matrix(-1.836970e-16 1 -1 -1.836970e-16 168.0707 22.0052)" class="st4" width="4.56" height="13.67"/>
</svg>
