<?xml version="1.0" encoding="utf-8"?>
<!-- Generator: Adobe Illustrator 23.0.5, SVG Export Plug-In . SVG Version: 6.00 Build 0)  -->
<svg version="1.1" id="Слой_1" xmlns="http://www.w3.org/2000/svg" xmlns:xlink="http://www.w3.org/1999/xlink" x="0px" y="0px"
	 viewBox="0 0 34 34" style="enable-background:new 0 0 34 34;" xml:space="preserve">
<style type="text/css">
	.st0{fill:#FFFFFF;}
	.st1{fill:#6291C7;}
	.st2{fill:#AFAFAF;stroke:#000000;stroke-width:0.75;stroke-miterlimit:10;}
	.st3{fill:none;stroke:#000000;stroke-miterlimit:10;}
	.st4{fill:url(#SVGID_1_);}
	.st5{fill:none;stroke:#000000;stroke-width:0.75;stroke-miterlimit:10;}
</style>
<rect class="st0" width="34" height="34"/>
<polygon class="st1" points="34,34 0,0 0,34 "/>
<g>
	<circle class="st2" cx="17" cy="17" r="9.42"/>
	<polyline class="st3" points="21.55,17 17,17 17,9.83 	"/>
</g>
<g>
	<linearGradient id="SVGID_1_" gradientUnits="userSpaceOnUse" x1="10.75" y1="25.2422" x2="29.3742" y2="25.2422">
		<stop  offset="0" style="stop-color:#FFF359"/>
		<stop  offset="0.0595" style="stop-color:#FBDE4F"/>
		<stop  offset="0.1303" style="stop-color:#F5CE48"/>
		<stop  offset="0.2032" style="stop-color:#F1C446"/>
		<stop  offset="0.2809" style="stop-color:#F0C145"/>
		<stop  offset="0.6685" style="stop-color:#DC8A52"/>
		<stop  offset="0.8876" style="stop-color:#D46D50"/>
		<stop  offset="1" style="stop-color:#CF584F"/>
	</linearGradient>
	<path class="st4" d="M10.75,25.24c0,0.93,0.75,1.68,1.68,1.68h15.26c0.93,0,1.68-0.75,1.68-1.68c0-0.93-0.75-1.68-1.68-1.68H12.43
		C11.5,23.56,10.75,24.31,10.75,25.24C10.75,25.24,10.75,24.31,10.75,25.24z"/>
	<path class="st5" d="M10.75,25.24c0,0.93,0.75,1.68,1.68,1.68h15.26c0.93,0,1.68-0.75,1.68-1.68c0-0.93-0.75-1.68-1.68-1.68H12.43
		C11.5,23.56,10.75,24.31,10.75,25.24C10.75,25.24,10.75,24.31,10.75,25.24z"/>
</g>
</svg>
