<?xml version="1.0" encoding="utf-8"?>
<!-- Generator: Adobe Illustrator 23.0.5, SVG Export Plug-In . SVG Version: 6.00 Build 0)  -->
<svg version="1.1" id="Слой_1" xmlns="http://www.w3.org/2000/svg" xmlns:xlink="http://www.w3.org/1999/xlink" x="0px" y="0px"
	 viewBox="0 0 32 30" style="enable-background:new 0 0 32 30;" xml:space="preserve">
<style type="text/css">
	.st0{opacity:0.01;stroke:#000000;stroke-miterlimit:10;}
	.st1{fill:none;stroke:#776855;stroke-miterlimit:10;}
	.st2{fill:#B7576B;stroke:#000000;stroke-miterlimit:10;}
	.st3{fill:#35312B;stroke:#000000;stroke-miterlimit:10;}
	.st4{fill:#4D5A96;stroke:#000000;stroke-miterlimit:10;}
	.st5{fill:#DAB786;stroke:#000000;stroke-miterlimit:10;}
	.st6{fill:#706E6B;stroke:#000000;stroke-width:0.5;stroke-miterlimit:10;}
	.st7{fill:none;stroke:#000000;stroke-width:0.5;stroke-miterlimit:10;}
</style>
<rect x="0.5" y="0.5" transform="matrix(-1 -4.482959e-11 4.482959e-11 -1 32 30)" class="st0" width="31" height="29"/>
<line class="st1" x1="16.13" y1="20.26" x2="17.2" y2="19.61"/>
<g>
	<rect x="15.67" y="18.9" transform="matrix(0.8568 -0.5156 0.5156 0.8568 -9.0562 12.1913)" class="st2" width="3.5" height="7"/>
	<rect x="17.96" y="25.13" transform="matrix(0.8568 -0.5156 0.5156 0.8568 -10.6149 14.0319)" class="st3" width="4" height="2"/>
</g>
<g>
	<rect x="12.51" y="18.54" transform="matrix(0.8488 0.5288 -0.5288 0.8488 13.8085 -4.2067)" class="st2" width="3.5" height="7"/>
	<rect x="10.09" y="24.99" transform="matrix(0.8488 0.5288 -0.5288 0.8488 15.5702 -2.463)" class="st3" width="4" height="2"/>
</g>
<g>
	<polygon class="st4" points="17.74,10 17.74,10.73 18.45,10.73 18.45,15.73 17.74,15.73 17.74,19 14.24,19 14.24,10 	"/>
	<rect x="12.71" y="10.51" class="st4" width="3.5" height="7"/>
	<circle class="st5" cx="14.46" cy="17.74" r="1.75"/>
	<g>
		<path class="st6" d="M14.89,2.3h2.36c1.41,0,2.56,1.15,2.56,2.56v2.16c0,1.41-1.15,2.56-2.56,2.56h-2.36
			c-1.41,0-2.56-1.15-2.56-2.56V4.86C12.32,3.45,13.47,2.3,14.89,2.3z"/>
		
			<rect x="11.39" y="2.37" transform="matrix(-0.8044 0.5941 -0.5941 -0.8044 26.9263 -2.5331)" class="st6" width="4.97" height="1.59"/>
	</g>
</g>
<g>
	<line class="st7" x1="19.66" y1="5.19" x2="18.25" y2="5.19"/>
	<line class="st7" x1="19.66" y1="6.94" x2="18.25" y2="6.94"/>
</g>
</svg>
