<?xml version="1.0" encoding="utf-8"?>
<!-- Generator: Adobe Illustrator 23.0.5, SVG Export Plug-In . SVG Version: 6.00 Build 0)  -->
<svg version="1.1" id="Слой_1" xmlns="http://www.w3.org/2000/svg" xmlns:xlink="http://www.w3.org/1999/xlink" x="0px" y="0px"
	 viewBox="0 0 32 30" style="enable-background:new 0 0 32 30;" xml:space="preserve">
<style type="text/css">
	.st0{opacity:0.01;stroke:#000000;stroke-miterlimit:10;enable-background:new    ;}
	.st1{stroke:#000000;stroke-miterlimit:10;}
	.st2{fill:#4D5B9D;stroke:#000000;stroke-miterlimit:10;}
	.st3{fill:#C0536B;stroke:#000000;stroke-miterlimit:10;}
	.st4{fill:#DAB786;stroke:#000000;stroke-miterlimit:10;}
	.st5{fill:#36322D;stroke:#000000;stroke-miterlimit:10;}
	.st6{fill:#FFFFFF;}
	.st7{fill:#716F6C;stroke:#000000;stroke-width:0.5;stroke-miterlimit:10;}
	.st8{fill:#FAE796;stroke:#000000;stroke-width:0.25;stroke-miterlimit:10;}
	.st9{fill:#D65988;}
</style>
<rect x="0.5" y="0.5" class="st0" width="31" height="29"/>
<circle class="st1" cx="16" cy="6.5" r="3.5"/>
<rect x="12.5" y="10" class="st2" width="7" height="9"/>
<rect x="9" y="10.5" class="st2" width="3.5" height="7"/>
<rect x="12.5" y="19" class="st3" width="3.5" height="7"/>
<rect x="19.5" y="10.5" class="st2" width="3.5" height="7"/>
<rect x="16" y="19" class="st3" width="3.5" height="7"/>
<circle class="st4" cx="10.75" cy="17.73" r="1.75"/>
<circle class="st4" cx="21.25" cy="17.73" r="1.75"/>
<rect x="11.5" y="26" class="st5" width="4" height="2"/>
<rect x="16.5" y="26" class="st5" width="4" height="2"/>
<rect x="13" y="21.5" class="st6" width="0.93" height="4"/>
<rect x="16.5" y="21.5" class="st6" width="0.93" height="4"/>
<g>
	<rect x="13.51" y="2.29" class="st7" width="4.97" height="1.59"/>
	<path class="st7" d="M17.18,2.71h-2.36c-1.41,0-2.56,1.15-2.56,2.56v2.16c0,1.41,1.15,2.56,2.56,2.56h2.36
		c1.41,0,2.56-1.15,2.56-2.56V5.27C19.74,3.86,18.6,2.71,17.18,2.71z M18.09,8.17h-4.19V7.75h4.19V8.17z M18.09,5.92h-4.19V5.49
		h4.19V5.92z"/>
</g>
<rect x="13.6" y="11.26" class="st8" width="4.81" height="0.59"/>
<rect x="13.6" y="12.64" class="st8" width="4.81" height="0.59"/>
<rect x="13.6" y="14" class="st8" width="4.81" height="0.59"/>
<rect x="13.01" y="25.08" class="st9" width="2.41" height="0.42"/>
<rect x="16.5" y="25.08" class="st9" width="2.41" height="0.42"/>
</svg>
