<?xml version="1.0" encoding="utf-8"?>
<!-- Generator: Adobe Illustrator 23.0.5, SVG Export Plug-In . SVG Version: 6.00 Build 0)  -->
<svg version="1.1" id="Слой_1" xmlns="http://www.w3.org/2000/svg" xmlns:xlink="http://www.w3.org/1999/xlink" x="0px" y="0px"
	 viewBox="0 0 120 120" style="enable-background:new 0 0 120 120;" xml:space="preserve">
<style type="text/css">
	.st0{opacity:0.01;}
	.st1{fill:#FAE796;stroke:#000000;stroke-miterlimit:10;}
	.st2{fill:#4D5B9D;stroke:#000000;stroke-miterlimit:10;}
	.st3{fill:#5B431E;stroke:#000000;stroke-width:0.75;stroke-miterlimit:10;}
	.st4{fill:#E2E2E2;stroke:#000000;stroke-width:0.75;stroke-miterlimit:10;}
	.st5{fill:none;stroke:#7F7E7C;stroke-width:0.75;stroke-miterlimit:10;}
	.st6{fill:#5F4825;stroke:#624B29;stroke-width:0.75;stroke-miterlimit:10;}
	.st7{fill:#DAB786;stroke:#000000;stroke-miterlimit:10;}
	.st8{fill:#36322D;stroke:#000000;stroke-miterlimit:10;}
	.st9{fill:#C0536B;stroke:#000000;stroke-miterlimit:10;}
	.st10{fill:#FFFFFF;}
	.st11{fill:#D65988;}
	.st12{fill:#7E6854;}
	.st13{fill:none;stroke:#000000;stroke-width:2;stroke-miterlimit:10;}
	.st14{fill:none;stroke:#000000;stroke-miterlimit:10;}
	.st15{stroke:#000000;stroke-miterlimit:10;}
	.st16{fill:#FAE796;stroke:#000000;stroke-width:0.25;stroke-miterlimit:10;}
	.st17{fill:#FFFFFF;stroke:#000000;stroke-miterlimit:10;}
	.st18{fill:url(#SVGID_1_);stroke:#000000;stroke-miterlimit:10;}
	.st19{fill:url(#SVGID_2_);stroke:#000000;stroke-miterlimit:10;}
	.st20{fill:#214319;stroke:#000000;stroke-miterlimit:10;}
	.st21{fill:#FBECA5;stroke:#000000;stroke-miterlimit:10;}
</style>
<rect x="0" y="0" transform="matrix(-1 -4.489132e-11 4.489132e-11 -1 120 120)" class="st0" width="120" height="120"/>
<g>
	<g>
		
			<rect x="87.91" y="40.57" transform="matrix(0.3946 -0.9188 0.9188 0.3946 13.6949 110.1193)" class="st1" width="5.02" height="8.2"/>
		<polygon class="st2" points="88.74,63.11 68.55,59 70.94,47.26 81.75,49.45 85.41,41.08 96.39,45.89 88.91,62.99 88.78,62.93 		
			"/>
	</g>
	<g>
		
			<rect x="89.68" y="34.73" transform="matrix(0.3946 -0.9188 0.9188 0.3946 19.0836 108.8973)" class="st1" width="5.02" height="10.47"/>
		<g>
			
				<rect x="88.09" y="32.23" transform="matrix(0.3964 -0.9181 0.9181 0.3964 21.3925 105.3379)" class="st3" width="5.42" height="8.34"/>
			
				<rect x="78.4" y="32.16" transform="matrix(0.3964 -0.9181 0.9181 0.3964 20.3347 98.8573)" class="st3" width="13.9" height="3.61"/>
			<polygon class="st4" points="65.22,20.76 59.78,22.92 61.93,28.36 82.02,37.03 85.3,29.43 			"/>
			<line class="st5" x1="66.17" y1="25.64" x2="75.87" y2="29.78"/>
			<line class="st5" x1="78.02" y1="30.7" x2="83.17" y2="32.89"/>
			<line class="st6" x1="88.6" y1="33.92" x2="93.52" y2="36.05"/>
			<line class="st6" x1="84.34" y1="34.36" x2="86.99" y2="28.22"/>
		</g>
		
			<rect x="87.47" y="33.5" transform="matrix(0.3946 -0.9188 0.9188 0.3946 22.55 103.9526)" class="st1" width="5.4" height="2.73"/>
		
			<rect x="89.15" y="34.3" transform="matrix(0.3946 -0.9188 0.9188 0.3946 23.3997 106.8564)" class="st1" width="7.3" height="2.73"/>
		
			<rect x="92.07" y="35.4" transform="matrix(0.3946 -0.9188 0.9188 0.3946 23.9086 109.8211)" class="st1" width="6.45" height="2.73"/>
		
			<rect x="94.46" y="37.09" transform="matrix(0.3946 -0.9188 0.9188 0.3946 23.7186 112.9108)" class="st1" width="6.17" height="2.73"/>
		
			<rect x="87.04" y="36.64" transform="matrix(-0.9188 -0.3946 0.3946 -0.9188 154.7061 109.481)" class="st1" width="3.15" height="4.38"/>
	</g>
</g>
<rect x="51.12" y="40.99" class="st7" width="18.06" height="4.14"/>
<rect x="59.04" y="98.78" transform="matrix(-1 -4.490465e-11 4.490465e-11 -1 135.3406 204.4101)" class="st8" width="17.26" height="6.86"/>
<rect x="59.01" y="69.96" transform="matrix(-1 -4.501123e-11 4.501123e-11 -1 132.8082 168.2467)" class="st9" width="14.79" height="28.33"/>
<rect x="69.23" y="82.96" transform="matrix(-1 -4.509560e-11 4.509560e-11 -1 141.6053 179.4645)" class="st10" width="3.15" height="13.55"/>
<rect x="61.05" y="94.55" transform="matrix(-1 -4.496415e-11 4.496415e-11 -1 133.4243 191.0552)" class="st11" width="11.33" height="1.96"/>
<rect x="62.34" y="70.64" transform="matrix(-1 -4.496904e-11 4.496904e-11 -1 135.5922 143.2449)" class="st12" width="10.92" height="1.96"/>
<rect x="45.05" y="105.53" transform="matrix(-1 -4.490465e-11 4.490465e-11 -1 107.3524 217.9172)" class="st8" width="17.26" height="6.86"/>
<rect x="45.01" y="76.71" transform="matrix(-1 -4.476520e-11 4.476520e-11 -1 104.82 181.7538)" class="st9" width="14.79" height="28.33"/>
<rect x="55.24" y="89.71" transform="matrix(-1 -4.509560e-11 4.509560e-11 -1 113.6171 192.9715)" class="st10" width="3.15" height="13.55"/>
<rect x="47.05" y="101.3" transform="matrix(-1 -4.496415e-11 4.496415e-11 -1 105.4361 204.5622)" class="st11" width="11.33" height="1.96"/>
<rect x="48.34" y="77.4" transform="matrix(-1 -4.496904e-11 4.496904e-11 -1 107.604 156.7519)" class="st12" width="10.92" height="1.96"/>
<ellipse class="st7" cx="60.66" cy="28.87" rx="15.55" ry="15.51"/>
<line class="st13" x1="62.04" y1="35.5" x2="69.7" y2="35.5"/>
<ellipse class="st14" cx="60.67" cy="28.87" rx="15.55" ry="15.51"/>
<rect x="61.77" y="45.13" transform="matrix(-1 -4.474655e-11 4.474655e-11 -1 138.5814 126.1279)" class="st2" width="15.04" height="35.87"/>
<rect x="42.48" y="45.13" transform="matrix(-1 -4.487534e-11 4.487534e-11 -1 104.246 129.9613)" class="st2" width="19.29" height="39.71"/>
<rect x="40.81" y="44.44" transform="matrix(-1 -4.489488e-11 4.489488e-11 -1 119.7866 90.2559)" class="st15" width="38.17" height="1.37"/>
<rect x="63.39" y="50.62" class="st16" width="11.48" height="1.19"/>
<rect x="63.55" y="55.62" class="st16" width="11.48" height="1.19"/>
<rect x="63.55" y="60.66" class="st16" width="11.48" height="1.19"/>
<g>
	<g>
		<rect x="61.8" y="23.37" class="st17" width="3.38" height="5.45"/>
		<rect x="61.8" y="26.09" class="st15" width="1.69" height="2.47"/>
	</g>
	<line class="st14" x1="65.41" y1="22.14" x2="60.68" y2="23.16"/>
</g>
<g>
	<g>
		<rect x="70.45" y="23.37" class="st17" width="3.38" height="5.45"/>
		<rect x="70.45" y="26.09" class="st15" width="1.69" height="2.47"/>
	</g>
	<line class="st14" x1="74.06" y1="22.14" x2="69.33" y2="23.16"/>
</g>
<g>
	<linearGradient id="SVGID_1_" gradientUnits="userSpaceOnUse" x1="70.1518" y1="41.6359" x2="52.0185" y2="14.4747">
		<stop  offset="0" style="stop-color:#FFFFFF"/>
		<stop  offset="1" style="stop-color:#000000"/>
	</linearGradient>
	<path class="st18" d="M65.66,12.83h-8.87c-5.97,0-10.82,5.38-10.82,12.01v6.85c0,6.63,4.84,12.01,10.82,12.01h8.87
		c5.97,0,10.82-5.38,10.82-12.01v-6.85C76.48,18.21,71.63,12.83,65.66,12.83z M75.31,35.89H59.79V34.3h15.52V35.89z M76.37,26.74
		H59.82v-1.59h16.54V26.74z"/>
	
		<linearGradient id="SVGID_2_" gradientUnits="userSpaceOnUse" x1="36.665" y1="22.5606" x2="57.3768" y2="22.5606" gradientTransform="matrix(0.5 -0.866 0.866 0.5 3.7195 50.543)">
		<stop  offset="0" style="stop-color:#FFFFFF"/>
		<stop  offset="1" style="stop-color:#000000"/>
	</linearGradient>
	<polygon class="st19" points="54.39,13.92 44.98,32.03 39.14,28.29 48.56,10.18 	"/>
</g>
<g>
	<g>
		<g>
			
				<rect x="34.79" y="77.76" transform="matrix(0.1645 0.9864 -0.9864 0.1645 108.8243 29.7754)" class="st1" width="4.08" height="2.73"/>
			
				<rect x="37.15" y="77.71" transform="matrix(0.1645 0.9864 -0.9864 0.1645 111.0799 27.006)" class="st1" width="4.89" height="2.73"/>
			
				<rect x="42.88" y="76.41" transform="matrix(0.1645 0.9864 -0.9864 0.1645 114.2517 20.6691)" class="st1" width="4.08" height="2.73"/>
			
				<rect x="39.67" y="77.48" transform="matrix(0.1645 0.9864 -0.9864 0.1645 113.1334 24.1163)" class="st1" width="5.33" height="2.73"/>
			
				<rect x="43.43" y="73.4" transform="matrix(0.1645 0.9864 -0.9864 0.1645 112.2641 18.8495)" class="st1" width="3.15" height="4.59"/>
			
				<rect x="36.93" y="69.78" transform="matrix(0.1645 0.9864 -0.9864 0.1645 107.8668 22.686)" class="st1" width="7.23" height="10.47"/>
			
				<rect x="36.8" y="64.92" transform="matrix(0.1645 0.9864 -0.9864 0.1645 100.9161 18.8916)" class="st1" width="5.02" height="8.2"/>
		</g>
		<path class="st2" d="M31.04,52.4l14.85-5.69c0.44-0.24,0.91-0.41,1.38-0.53l3-1.15l0.52,1.35c0.98,0.36,1.88,0.98,2.59,1.86
			c1.55,1.92,1.71,4.5,0.63,6.55l0.55,1.44l-10.3,3.95l1.4,9.02l-11.85,1.84l-2.87-18.45l0.15-0.02L31.04,52.4z"/>
	</g>
	<g>
		<path class="st20" d="M49.11,52.6l-18.93,5.93c-7.72,2.41-11.93,10.91-9.4,18.97c2.52,8.06,10.82,12.64,18.54,10.22l18.93-5.93
			L49.11,52.6z"/>
		<path class="st21" d="M46.75,56.68l-15.04,4.71c-6.13,1.92-9.47,8.66-7.47,15.07c2,6.4,8.6,10.04,14.73,8.12l15.04-4.71
			L46.75,56.68z"/>
	</g>
</g>
</svg>
