<?xml version="1.0" encoding="utf-8"?>
<!-- Generator: Adobe Illustrator 23.0.5, SVG Export Plug-In . SVG Version: 6.00 Build 0)  -->
<svg version="1.1" id="Слой_1" xmlns="http://www.w3.org/2000/svg" xmlns:xlink="http://www.w3.org/1999/xlink" x="0px" y="0px"
	 viewBox="0 0 120 120" style="enable-background:new 0 0 120 120;" xml:space="preserve">
<style type="text/css">
	.st0{opacity:0.01;}
	.st1{fill:#FAE796;stroke:#000000;stroke-miterlimit:10;}
	.st2{fill:#4D5B9D;stroke:#000000;stroke-miterlimit:10;}
	.st3{fill:#5B431E;stroke:#000000;stroke-width:0.75;stroke-miterlimit:10;}
	.st4{fill:#E2E2E2;stroke:#000000;stroke-width:0.75;stroke-miterlimit:10;}
	.st5{fill:none;stroke:#7F7E7C;stroke-width:0.75;stroke-miterlimit:10;}
	.st6{fill:#5F4825;stroke:#624B29;stroke-width:0.75;stroke-miterlimit:10;}
	.st7{fill:#DAB786;stroke:#000000;stroke-miterlimit:10;}
	.st8{fill:#36322D;stroke:#000000;stroke-miterlimit:10;}
	.st9{fill:#C0536B;stroke:#000000;stroke-miterlimit:10;}
	.st10{fill:#FFFFFF;}
	.st11{fill:#D65988;}
	.st12{fill:#7E6854;}
	.st13{fill:none;stroke:#000000;stroke-width:2;stroke-miterlimit:10;}
	.st14{fill:none;stroke:#000000;stroke-miterlimit:10;}
	.st15{stroke:#000000;stroke-miterlimit:10;}
	.st16{fill:#FAE796;stroke:#000000;stroke-width:0.25;stroke-miterlimit:10;}
	.st17{fill:#FFFFFF;stroke:#000000;stroke-miterlimit:10;}
	.st18{fill:url(#SVGID_1_);stroke:#000000;stroke-miterlimit:10;}
	.st19{fill:url(#SVGID_2_);stroke:#000000;stroke-miterlimit:10;}
	.st20{fill:#214319;stroke:#000000;stroke-miterlimit:10;}
	.st21{fill:#FBECA5;stroke:#000000;stroke-miterlimit:10;}
</style>
<rect x="0" y="0" transform="matrix(-1 -4.489132e-11 4.489132e-11 -1 120 120)" class="st0" width="120" height="120"/>
<g>
	<g>
		
			<rect x="76.99" y="60.09" transform="matrix(0.9802 0.1982 -0.1982 0.9802 14.3021 -14.4849)" class="st1" width="5.02" height="8.2"/>
		<polygon class="st2" points="61.1,66.32 60.99,45.72 72.98,45.65 73.04,56.68 81.98,58.55 79.53,70.29 61.25,66.47 61.28,66.32 		
			"/>
	</g>
	<g>
		
			<rect x="81.95" y="59.72" transform="matrix(0.9802 0.1982 -0.1982 0.9802 14.5527 -15.4534)" class="st1" width="5.02" height="10.47"/>
		<g>
			
				<rect x="83.5" y="60.17" transform="matrix(0.2001 -0.9798 0.9798 0.2001 8.5172 136.1891)" class="st3" width="8.34" height="5.42"/>
			
				<rect x="87.13" y="50.09" transform="matrix(0.2001 -0.9798 0.9798 0.2001 15.2532 132.7594)" class="st3" width="3.61" height="13.9"/>
			<polygon class="st4" points="97.74,34.63 94.52,29.75 89.63,32.97 85.25,54.41 93.36,56.06 			"/>
			<line class="st5" x1="93.16" y1="36.57" x2="91.09" y2="46.9"/>
			<line class="st5" x1="90.64" y1="49.2" x2="89.54" y2="54.68"/>
			<line class="st6" x1="89.64" y1="60.21" x2="88.57" y2="65.46"/>
			<line class="st6" x1="88.34" y1="56.14" x2="94.89" y2="57.47"/>
		</g>
		
			<rect x="86.34" y="60.57" transform="matrix(0.9802 0.1982 -0.1982 0.9802 14.0448 -16.4216)" class="st1" width="5.4" height="2.73"/>
		
			<rect x="85.14" y="63.31" transform="matrix(0.9802 0.1982 -0.1982 0.9802 14.5826 -16.3173)" class="st1" width="7.3" height="2.73"/>
		
			<rect x="85" y="65.98" transform="matrix(0.9802 0.1982 -0.1982 0.9802 15.1019 -16.1531)" class="st1" width="6.45" height="2.73"/>
		
			<rect x="83.95" y="68.53" transform="matrix(0.9802 0.1982 -0.1982 0.9802 15.5832 -15.8661)" class="st1" width="6.17" height="2.73"/>
		
			<rect x="83.26" y="59.04" transform="matrix(0.1982 -0.9802 0.9802 0.1982 8.0071 132.2448)" class="st1" width="3.15" height="4.38"/>
	</g>
</g>
<rect x="51.12" y="40.99" class="st7" width="18.06" height="4.14"/>
<rect x="59.04" y="98.78" transform="matrix(-1 -4.490465e-11 4.490465e-11 -1 135.3406 204.4101)" class="st8" width="17.26" height="6.86"/>
<rect x="59.01" y="69.96" transform="matrix(-1 -4.501123e-11 4.501123e-11 -1 132.8082 168.2467)" class="st9" width="14.79" height="28.33"/>
<rect x="69.23" y="82.96" transform="matrix(-1 -4.509560e-11 4.509560e-11 -1 141.6053 179.4645)" class="st10" width="3.15" height="13.55"/>
<rect x="61.05" y="94.55" transform="matrix(-1 -4.496415e-11 4.496415e-11 -1 133.4243 191.0552)" class="st11" width="11.33" height="1.96"/>
<rect x="62.34" y="70.64" transform="matrix(-1 -4.496904e-11 4.496904e-11 -1 135.5922 143.2449)" class="st12" width="10.92" height="1.96"/>
<rect x="45.05" y="105.53" transform="matrix(-1 -4.490465e-11 4.490465e-11 -1 107.3524 217.9172)" class="st8" width="17.26" height="6.86"/>
<rect x="45.01" y="76.71" transform="matrix(-1 -4.476520e-11 4.476520e-11 -1 104.82 181.7538)" class="st9" width="14.79" height="28.33"/>
<rect x="55.24" y="89.71" transform="matrix(-1 -4.509560e-11 4.509560e-11 -1 113.6171 192.9715)" class="st10" width="3.15" height="13.55"/>
<rect x="47.05" y="101.3" transform="matrix(-1 -4.496415e-11 4.496415e-11 -1 105.4361 204.5622)" class="st11" width="11.33" height="1.96"/>
<rect x="48.34" y="77.4" transform="matrix(-1 -4.496904e-11 4.496904e-11 -1 107.604 156.7519)" class="st12" width="10.92" height="1.96"/>
<ellipse class="st7" cx="60.66" cy="28.87" rx="15.55" ry="15.51"/>
<line class="st13" x1="62.04" y1="35.5" x2="69.7" y2="35.5"/>
<ellipse class="st14" cx="60.67" cy="28.87" rx="15.55" ry="15.51"/>
<rect x="61.77" y="45.13" transform="matrix(-1 -4.474655e-11 4.474655e-11 -1 138.5814 126.1279)" class="st2" width="15.04" height="35.87"/>
<rect x="42.48" y="45.13" transform="matrix(-1 -4.487534e-11 4.487534e-11 -1 104.246 129.9613)" class="st2" width="19.29" height="39.71"/>
<rect x="40.81" y="44.44" transform="matrix(-1 -4.489488e-11 4.489488e-11 -1 119.7866 90.2559)" class="st15" width="38.17" height="1.37"/>
<rect x="63.39" y="50.62" class="st16" width="11.48" height="1.19"/>
<rect x="63.55" y="55.62" class="st16" width="11.48" height="1.19"/>
<rect x="63.55" y="60.66" class="st16" width="11.48" height="1.19"/>
<g>
	<g>
		<rect x="61.8" y="23.37" class="st17" width="3.38" height="5.45"/>
		<rect x="61.8" y="26.09" class="st15" width="1.69" height="2.47"/>
	</g>
	<line class="st14" x1="65.41" y1="22.14" x2="60.68" y2="23.16"/>
</g>
<g>
	<g>
		<rect x="70.45" y="23.37" class="st17" width="3.38" height="5.45"/>
		<rect x="70.45" y="26.09" class="st15" width="1.69" height="2.47"/>
	</g>
	<line class="st14" x1="74.06" y1="22.14" x2="69.33" y2="23.16"/>
</g>
<g>
	<linearGradient id="SVGID_1_" gradientUnits="userSpaceOnUse" x1="70.1518" y1="41.6359" x2="52.0185" y2="14.4747">
		<stop  offset="0" style="stop-color:#FFFFFF"/>
		<stop  offset="1" style="stop-color:#000000"/>
	</linearGradient>
	<path class="st18" d="M65.66,12.83h-8.87c-5.97,0-10.82,5.38-10.82,12.01v6.85c0,6.63,4.84,12.01,10.82,12.01h8.87
		c5.97,0,10.82-5.38,10.82-12.01v-6.85C76.48,18.21,71.63,12.83,65.66,12.83z M75.31,35.89H59.79V34.3h15.52V35.89z M76.37,26.74
		H59.82v-1.59h16.54V26.74z"/>
	
		<linearGradient id="SVGID_2_" gradientUnits="userSpaceOnUse" x1="36.665" y1="22.5606" x2="57.3768" y2="22.5606" gradientTransform="matrix(0.5 -0.866 0.866 0.5 3.7195 50.543)">
		<stop  offset="0" style="stop-color:#FFFFFF"/>
		<stop  offset="1" style="stop-color:#000000"/>
	</linearGradient>
	<polygon class="st19" points="54.39,13.92 44.98,32.03 39.14,28.29 48.56,10.18 	"/>
</g>
<g>
	<g>
		<g>
			
				<rect x="60.61" y="75.61" transform="matrix(0.8715 0.4904 -0.4904 0.8715 45.7979 -20.8294)" class="st1" width="4.08" height="2.73"/>
			
				<rect x="61.9" y="73.43" transform="matrix(0.8715 0.4904 -0.4904 0.8715 44.9436 -21.9394)" class="st1" width="4.89" height="2.73"/>
			
				<rect x="64.63" y="68.47" transform="matrix(0.8715 0.4904 -0.4904 0.8715 42.8098 -23.7197)" class="st1" width="4.08" height="2.73"/>
			
				<rect x="63.21" y="71.15" transform="matrix(0.8715 0.4904 -0.4904 0.8715 44.0251 -22.983)" class="st1" width="5.33" height="2.73"/>
			
				<rect x="63.52" y="66.17" transform="matrix(0.8715 0.4904 -0.4904 0.8715 41.9366 -23.1246)" class="st1" width="3.15" height="4.59"/>
			
				<rect x="58.16" y="66.28" transform="matrix(0.8715 0.4904 -0.4904 0.8715 43.0057 -21.1012)" class="st1" width="7.23" height="10.47"/>
			
				<rect x="53.81" y="64.62" transform="matrix(0.8715 0.4904 -0.4904 0.8715 40.9325 -18.7892)" class="st1" width="5.02" height="8.2"/>
		</g>
		<path class="st2" d="M38.19,64.74l4.88-15.14c0.09-0.49,0.25-0.97,0.45-1.41l0.99-3.06l1.37,0.44c0.9-0.54,1.95-0.85,3.07-0.85
			c2.46,0,4.58,1.49,5.5,3.62l1.47,0.47l-3.39,10.5l7.91,4.57l-5.99,10.38l-16.17-9.34l0.08-0.13L38.19,64.74z"/>
	</g>
	<g>
		<path class="st20" d="M49.68,50.79l-7.26,18.46c-2.96,7.52,1.02,16.13,8.88,19.22c7.86,3.09,16.63-0.51,19.59-8.03l7.26-18.46
			L49.68,50.79z"/>
		<path class="st21" d="M51.38,55.18l-5.76,14.67c-2.35,5.98,0.81,12.81,7.05,15.27c6.24,2.45,13.21-0.4,15.56-6.38l5.76-14.67
			L51.38,55.18z"/>
	</g>
</g>
</svg>
